<?xml version="1.0" encoding="UTF-8" standalone="no"?>
<!DOCTYPE svg PUBLIC "-//W3C//DTD SVG 1.1//EN"
 "http://www.w3.org/Graphics/SVG/1.1/DTD/svg11.dtd">
<!-- Generated by graphviz version 5.0.1 (20220820.1526)
 -->
<!-- Title: src/Commander&#45;API.cpp Pages: 1 -->
<svg width="296pt" height="192pt"
 viewBox="0.00 0.00 296.00 192.00" xmlns="http://www.w3.org/2000/svg" xmlns:xlink="http://www.w3.org/1999/xlink">
<g id="graph0" class="graph" transform="scale(1 1) rotate(0) translate(4 188)">
<title>src/Commander&#45;API.cpp</title>
<!-- Node1 -->
<g id="node1" class="node">
<title>Node1</title>
<g id="a_node1"><a xlink:title=" ">
<polygon fill="#999999" stroke="#666666" points="160,-184 37,-184 37,-165 160,-165 160,-184"/>
<text text-anchor="middle" x="98.5" y="-172" font-family="Helvetica,sans-Serif" font-size="10.00">src/Commander&#45;API.cpp</text>
</a>
</g>
</g>
<!-- Node2 -->
<g id="node2" class="node">
<title>Node2</title>
<g id="a_node2"><a xlink:href="_commander-_a_p_i_8hpp.html" target="_top" xlink:title=" ">
<polygon fill="white" stroke="#666666" points="152,-129 45,-129 45,-110 152,-110 152,-129"/>
<text text-anchor="middle" x="98.5" y="-117" font-family="Helvetica,sans-Serif" font-size="10.00">Commander&#45;API.hpp</text>
</a>
</g>
</g>
<!-- Node1&#45;&gt;Node2 -->
<g id="edge1" class="edge">
<title>Node1&#45;&gt;Node2</title>
<path fill="none" stroke="#63b8ff" d="M98.5,-164.75C98.5,-157.8 98.5,-147.85 98.5,-139.13"/>
<polygon fill="#63b8ff" stroke="#63b8ff" points="102,-139.09 98.5,-129.09 95,-139.09 102,-139.09"/>
</g>
<!-- Node3 -->
<g id="node3" class="node">
<title>Node3</title>
<g id="a_node3"><a xlink:title=" ">
<polygon fill="#e0e0e0" stroke="#999999" points="49,-19 0,-19 0,0 49,0 49,-19"/>
<text text-anchor="middle" x="24.5" y="-7" font-family="Helvetica,sans-Serif" font-size="10.00">stdint.h</text>
</a>
</g>
</g>
<!-- Node2&#45;&gt;Node3 -->
<g id="edge2" class="edge">
<title>Node2&#45;&gt;Node3</title>
<path fill="none" stroke="#63b8ff" d="M67.45,-109.87C49.75,-103.18 29.05,-91.95 18.5,-74 10.53,-60.44 13.25,-42.38 17.25,-28.99"/>
<polygon fill="#63b8ff" stroke="#63b8ff" points="20.6,-30.02 20.56,-19.42 13.98,-27.73 20.6,-30.02"/>
</g>
<!-- Node4 -->
<g id="node4" class="node">
<title>Node4</title>
<g id="a_node4"><a xlink:title=" ">
<polygon fill="#e0e0e0" stroke="#999999" points="77,-74 28,-74 28,-55 77,-55 77,-74"/>
<text text-anchor="middle" x="52.5" y="-62" font-family="Helvetica,sans-Serif" font-size="10.00">string.h</text>
</a>
</g>
</g>
<!-- Node2&#45;&gt;Node4 -->
<g id="edge3" class="edge">
<title>Node2&#45;&gt;Node4</title>
<path fill="none" stroke="#63b8ff" d="M90.9,-109.75C84.34,-102.18 74.68,-91.05 66.69,-81.84"/>
<polygon fill="#63b8ff" stroke="#63b8ff" points="69.15,-79.35 59.95,-74.09 63.87,-83.94 69.15,-79.35"/>
</g>
<!-- Node5 -->
<g id="node5" class="node">
<title>Node5</title>
<g id="a_node5"><a xlink:href="_commander-_settings_8hpp.html" target="_top" xlink:title=" ">
<polygon fill="white" stroke="#666666" points="288,-19 161,-19 161,0 288,0 288,-19"/>
<text text-anchor="middle" x="224.5" y="-7" font-family="Helvetica,sans-Serif" font-size="10.00">Commander&#45;Settings.hpp</text>
</a>
</g>
</g>
<!-- Node2&#45;&gt;Node5 -->
<g id="edge4" class="edge">
<title>Node2&#45;&gt;Node5</title>
<path fill="none" stroke="#63b8ff" d="M141.18,-109.99C163.17,-103.55 188.79,-92.53 205.5,-74 216.58,-61.71 221.2,-43.2 223.13,-29.33"/>
<polygon fill="#63b8ff" stroke="#63b8ff" points="226.65,-29.32 224.2,-19.01 219.69,-28.6 226.65,-29.32"/>
</g>
<!-- Node6 -->
<g id="node6" class="node">
<title>Node6</title>
<g id="a_node6"><a xlink:href="_commander-_i_o_8hpp.html" target="_top" xlink:title=" ">
<polygon fill="white" stroke="#666666" points="196,-74 95,-74 95,-55 196,-55 196,-74"/>
<text text-anchor="middle" x="145.5" y="-62" font-family="Helvetica,sans-Serif" font-size="10.00">Commander&#45;IO.hpp</text>
</a>
</g>
</g>
<!-- Node2&#45;&gt;Node6 -->
<g id="edge5" class="edge">
<title>Node2&#45;&gt;Node6</title>
<path fill="none" stroke="#63b8ff" d="M106.26,-109.75C112.97,-102.18 122.84,-91.05 131.01,-81.84"/>
<polygon fill="#63b8ff" stroke="#63b8ff" points="133.87,-83.89 137.88,-74.09 128.63,-79.25 133.87,-83.89"/>
</g>
<!-- Node6&#45;&gt;Node3 -->
<g id="edge6" class="edge">
<title>Node6&#45;&gt;Node3</title>
<path fill="none" stroke="#63b8ff" d="M126.06,-54.98C106.51,-46.42 76.12,-33.11 53.68,-23.28"/>
<polygon fill="#63b8ff" stroke="#63b8ff" points="54.86,-19.98 44.29,-19.17 52.05,-26.39 54.86,-19.98"/>
</g>
<!-- Node6&#45;&gt;Node5 -->
<g id="edge8" class="edge">
<title>Node6&#45;&gt;Node5</title>
<path fill="none" stroke="#63b8ff" d="M158.19,-54.98C170.33,-46.84 188.86,-34.41 203.25,-24.76"/>
<polygon fill="#63b8ff" stroke="#63b8ff" points="205.22,-27.65 211.58,-19.17 201.32,-21.84 205.22,-27.65"/>
</g>
<!-- Node7 -->
<g id="node7" class="node">
<title>Node7</title>
<g id="a_node7"><a xlink:title=" ">
<polygon fill="#e0e0e0" stroke="#999999" points="143,-19 92,-19 92,0 143,0 143,-19"/>
<text text-anchor="middle" x="117.5" y="-7" font-family="Helvetica,sans-Serif" font-size="10.00">stddef.h</text>
</a>
</g>
</g>
<!-- Node6&#45;&gt;Node7 -->
<g id="edge7" class="edge">
<title>Node6&#45;&gt;Node7</title>
<path fill="none" stroke="#63b8ff" d="M140.88,-54.75C137.04,-47.49 131.48,-36.95 126.74,-27.98"/>
<polygon fill="#63b8ff" stroke="#63b8ff" points="129.8,-26.3 122.04,-19.09 123.61,-29.57 129.8,-26.3"/>
</g>
</g>
</svg>
