<?xml version="1.0" encoding="UTF-8" standalone="no"?>
<!DOCTYPE svg PUBLIC "-//W3C//DTD SVG 1.1//EN"
 "http://www.w3.org/Graphics/SVG/1.1/DTD/svg11.dtd">
<!-- Generated by graphviz version 5.0.1 (20220820.1526)
 -->
<!-- Title: commander_analogWrite_func Pages: 1 -->
<svg width="799pt" height="138pt"
 viewBox="0.00 0.00 799.00 138.00" xmlns="http://www.w3.org/2000/svg" xmlns:xlink="http://www.w3.org/1999/xlink">
<g id="graph0" class="graph" transform="scale(1 1) rotate(0) translate(4 134)">
<title>commander_analogWrite_func</title>
<!-- Node1 -->
<g id="node1" class="node">
<title>Node1</title>
<g id="a_node1"><a xlink:title="Premade function for analogRead command.">
<polygon fill="#999999" stroke="#666666" points="148,-52 0,-52 0,-33 148,-33 148,-52"/>
<text text-anchor="middle" x="74" y="-40" font-family="Helvetica,sans-Serif" font-size="10.00">commander_analogWrite_func</text>
</a>
</g>
</g>
<!-- Node2 -->
<g id="node2" class="node">
<title>Node2</title>
<g id="a_node2"><a xlink:href="class_argument.html#aeabd957dda6add595aa860761ea337f1" target="_top" xlink:title=" ">
<polygon fill="white" stroke="#666666" points="301.5,-74 202.5,-74 202.5,-55 301.5,-55 301.5,-74"/>
<text text-anchor="middle" x="252" y="-62" font-family="Helvetica,sans-Serif" font-size="10.00">Argument::parseInt</text>
</a>
</g>
</g>
<!-- Node1&#45;&gt;Node2 -->
<g id="edge1" class="edge">
<title>Node1&#45;&gt;Node2</title>
<path fill="none" stroke="#63b8ff" d="M148.11,-51.64C162.85,-53.48 178.17,-55.4 192.34,-57.17"/>
<polygon fill="#63b8ff" stroke="#63b8ff" points="192.08,-60.66 202.44,-58.43 192.95,-53.72 192.08,-60.66"/>
</g>
<!-- Node10 -->
<g id="node10" class="node">
<title>Node10</title>
<g id="a_node10"><a xlink:href="class_commander.html#a11b7236808d55ed1c497e719117cdf3d" target="_top" xlink:title="Print &#39;Argument error!&#39; to a specified Serial channel.">
<polygon fill="white" stroke="#666666" points="320,-36.5 184,-36.5 184,-6.5 320,-6.5 320,-36.5"/>
<text text-anchor="start" x="192" y="-24.5" font-family="Helvetica,sans-Serif" font-size="10.00">Commander::printArgument</text>
<text text-anchor="middle" x="252" y="-13.5" font-family="Helvetica,sans-Serif" font-size="10.00">Error</text>
</a>
</g>
</g>
<!-- Node1&#45;&gt;Node10 -->
<g id="edge11" class="edge">
<title>Node1&#45;&gt;Node10</title>
<path fill="none" stroke="#63b8ff" d="M148.11,-33.78C156.6,-32.76 165.27,-31.73 173.81,-30.71"/>
<polygon fill="#63b8ff" stroke="#63b8ff" points="174.23,-34.18 183.75,-29.52 173.4,-27.23 174.23,-34.18"/>
</g>
<!-- Node3 -->
<g id="node3" class="node">
<title>Node3</title>
<g id="a_node3"><a xlink:href="class_argument.html#a7fab3d983e4a63b93e6f50df82ed6f84" target="_top" xlink:title=" ">
<polygon fill="white" stroke="#666666" points="457,-74 356,-74 356,-55 457,-55 457,-74"/>
<text text-anchor="middle" x="406.5" y="-62" font-family="Helvetica,sans-Serif" font-size="10.00">Argument::findStart</text>
</a>
</g>
</g>
<!-- Node2&#45;&gt;Node3 -->
<g id="edge2" class="edge">
<title>Node2&#45;&gt;Node3</title>
<path fill="none" stroke="#63b8ff" d="M301.67,-64.5C315.63,-64.5 331.01,-64.5 345.57,-64.5"/>
<polygon fill="#63b8ff" stroke="#63b8ff" points="345.98,-68 355.98,-64.5 345.98,-61 345.98,-68"/>
</g>
<!-- Node4 -->
<g id="node4" class="node">
<title>Node4</title>
<g id="a_node4"><a xlink:href="class_argument.html#a19696736b23d7f4f4c6e4125e67f59a8" target="_top" xlink:title=" ">
<polygon fill="white" stroke="#666666" points="635,-130 509,-130 509,-111 635,-111 635,-130"/>
<text text-anchor="middle" x="572" y="-118" font-family="Helvetica,sans-Serif" font-size="10.00">Argument::findLongName</text>
</a>
</g>
</g>
<!-- Node3&#45;&gt;Node4 -->
<g id="edge3" class="edge">
<title>Node3&#45;&gt;Node4</title>
<path fill="none" stroke="#63b8ff" d="M427.17,-74.15C444.26,-82.26 469.85,-93.73 493,-101.5 500.43,-103.99 508.37,-106.31 516.22,-108.4"/>
<polygon fill="#63b8ff" stroke="#63b8ff" points="515.52,-111.84 526.08,-110.94 517.26,-105.06 515.52,-111.84"/>
</g>
<!-- Node7 -->
<g id="node7" class="node">
<title>Node7</title>
<g id="a_node7"><a xlink:href="class_argument.html#a267c2e9b46491f60b264c39e08ad5686" target="_top" xlink:title=" ">
<polygon fill="white" stroke="#666666" points="624,-56 520,-56 520,-37 624,-37 624,-56"/>
<text text-anchor="middle" x="572" y="-44" font-family="Helvetica,sans-Serif" font-size="10.00">Argument::findPlace</text>
</a>
</g>
</g>
<!-- Node3&#45;&gt;Node7 -->
<g id="edge6" class="edge">
<title>Node3&#45;&gt;Node7</title>
<path fill="none" stroke="#63b8ff" d="M457.44,-59C474.01,-57.18 492.64,-55.13 509.94,-53.22"/>
<polygon fill="#63b8ff" stroke="#63b8ff" points="510.39,-56.69 519.95,-52.12 509.63,-49.74 510.39,-56.69"/>
</g>
<!-- Node8 -->
<g id="node8" class="node">
<title>Node8</title>
<g id="a_node8"><a xlink:href="class_argument.html#a3ec1ea9ca2d489a987e0fa335daaf061" target="_top" xlink:title=" ">
<polygon fill="white" stroke="#666666" points="636,-93 508,-93 508,-74 636,-74 636,-93"/>
<text text-anchor="middle" x="572" y="-81" font-family="Helvetica,sans-Serif" font-size="10.00">Argument::findShortName</text>
</a>
</g>
</g>
<!-- Node3&#45;&gt;Node8 -->
<g id="edge7" class="edge">
<title>Node3&#45;&gt;Node8</title>
<path fill="none" stroke="#63b8ff" d="M457.44,-70.3C470.09,-71.77 483.94,-73.38 497.49,-74.96"/>
<polygon fill="#63b8ff" stroke="#63b8ff" points="497.42,-78.47 507.76,-76.15 498.23,-71.52 497.42,-78.47"/>
</g>
<!-- Node9 -->
<g id="node9" class="node">
<title>Node9</title>
<g id="a_node9"><a xlink:href="class_commander.html#aed49189003860bfa85ab3bf8d320c5f6" target="_top" xlink:title="Get the instance if a system variable by its name.">
<polygon fill="white" stroke="#666666" points="651,-19 493,-19 493,0 651,0 651,-19"/>
<text text-anchor="middle" x="572" y="-7" font-family="Helvetica,sans-Serif" font-size="10.00">Commander::getSystemVariable</text>
</a>
</g>
</g>
<!-- Node3&#45;&gt;Node9 -->
<g id="edge10" class="edge">
<title>Node3&#45;&gt;Node9</title>
<path fill="none" stroke="#63b8ff" d="M426.8,-54.94C443.88,-46.78 469.65,-35.18 493,-27.5 499.48,-25.37 506.33,-23.4 513.19,-21.6"/>
<polygon fill="#63b8ff" stroke="#63b8ff" points="514.34,-24.92 523.19,-19.09 512.63,-18.13 514.34,-24.92"/>
</g>
<!-- Node5 -->
<g id="node5" class="node">
<title>Node5</title>
<g id="a_node5"><a xlink:href="class_argument.html#af21c1965c64a5f3984cbf42bcf1eec5f" target="_top" xlink:title=" ">
<polygon fill="white" stroke="#666666" points="788,-130 690,-130 690,-111 788,-111 788,-130"/>
<text text-anchor="middle" x="739" y="-118" font-family="Helvetica,sans-Serif" font-size="10.00">Argument::inString</text>
</a>
</g>
</g>
<!-- Node4&#45;&gt;Node5 -->
<g id="edge4" class="edge">
<title>Node4&#45;&gt;Node5</title>
<path fill="none" stroke="#63b8ff" d="M635.38,-120.5C649.92,-120.5 665.35,-120.5 679.7,-120.5"/>
<polygon fill="#63b8ff" stroke="#63b8ff" points="679.94,-124 689.94,-120.5 679.94,-117 679.94,-124"/>
</g>
<!-- Node6 -->
<g id="node6" class="node">
<title>Node6</title>
<g id="a_node6"><a xlink:href="class_argument.html#a8f98fbce9e55886c0b3a84c6f92572e5" target="_top" xlink:title=" ">
<polygon fill="white" stroke="#666666" points="791,-93 687,-93 687,-74 791,-74 791,-93"/>
<text text-anchor="middle" x="739" y="-81" font-family="Helvetica,sans-Serif" font-size="10.00">Argument::substring</text>
</a>
</g>
</g>
<!-- Node4&#45;&gt;Node6 -->
<g id="edge5" class="edge">
<title>Node4&#45;&gt;Node6</title>
<path fill="none" stroke="#63b8ff" d="M615.49,-110.97C636.87,-106.18 662.97,-100.32 685.58,-95.25"/>
<polygon fill="#63b8ff" stroke="#63b8ff" points="686.37,-98.66 695.37,-93.06 684.84,-91.83 686.37,-98.66"/>
</g>
<!-- Node8&#45;&gt;Node5 -->
<g id="edge8" class="edge">
<title>Node8&#45;&gt;Node5</title>
<path fill="none" stroke="#63b8ff" d="M615.49,-93.03C636.87,-97.82 662.97,-103.68 685.58,-108.75"/>
<polygon fill="#63b8ff" stroke="#63b8ff" points="684.84,-112.17 695.37,-110.94 686.37,-105.34 684.84,-112.17"/>
</g>
<!-- Node8&#45;&gt;Node6 -->
<g id="edge9" class="edge">
<title>Node8&#45;&gt;Node6</title>
<path fill="none" stroke="#63b8ff" d="M636.32,-83.5C649.52,-83.5 663.4,-83.5 676.53,-83.5"/>
<polygon fill="#63b8ff" stroke="#63b8ff" points="676.87,-87 686.87,-83.5 676.87,-80 676.87,-87"/>
</g>
</g>
</svg>
