<?xml version="1.0" encoding="UTF-8" standalone="no"?>
<!DOCTYPE svg PUBLIC "-//W3C//DTD SVG 1.1//EN"
 "http://www.w3.org/Graphics/SVG/1.1/DTD/svg11.dtd">
<!-- Generated by graphviz version 5.0.1 (20220820.1526)
 -->
<!-- Title: commander_digitalRead_func Pages: 1 -->
<svg width="795pt" height="169pt"
 viewBox="0.00 0.00 795.00 168.50" xmlns="http://www.w3.org/2000/svg" xmlns:xlink="http://www.w3.org/1999/xlink">
<g id="graph0" class="graph" transform="scale(1 1) rotate(0) translate(4 164.5)">
<title>commander_digitalRead_func</title>
<!-- Node1 -->
<g id="node1" class="node">
<title>Node1</title>
<g id="a_node1"><a xlink:title="Premade function for digitalRead command.">
<polygon fill="#999999" stroke="#666666" points="144,-85.5 0,-85.5 0,-66.5 144,-66.5 144,-85.5"/>
<text text-anchor="middle" x="72" y="-73.5" font-family="Helvetica,sans-Serif" font-size="10.00">commander_digitalRead_func</text>
</a>
</g>
</g>
<!-- Node2 -->
<g id="node2" class="node">
<title>Node2</title>
<g id="a_node2"><a xlink:href="class_argument.html#a11a9933e5a65f1cbf0525cd9bd2a29ca" target="_top" xlink:title=" ">
<polygon fill="white" stroke="#666666" points="442.5,-142.5 362.5,-142.5 362.5,-123.5 442.5,-123.5 442.5,-142.5"/>
<text text-anchor="middle" x="402.5" y="-130.5" font-family="Helvetica,sans-Serif" font-size="10.00">Argument::find</text>
</a>
</g>
</g>
<!-- Node1&#45;&gt;Node2 -->
<g id="edge1" class="edge">
<title>Node1&#45;&gt;Node2</title>
<path fill="none" stroke="#63b8ff" d="M95.5,-85.58C116.85,-94.23 150.02,-106.56 180,-113 238.31,-125.52 306.9,-130.21 352.13,-131.97"/>
<polygon fill="#63b8ff" stroke="#63b8ff" points="352.14,-135.47 362.26,-132.32 352.39,-128.47 352.14,-135.47"/>
</g>
<!-- Node7 -->
<g id="node7" class="node">
<title>Node7</title>
<g id="a_node7"><a xlink:href="class_argument.html#a5d0ae00347ef7108f6cab6c270ac5728" target="_top" xlink:title=" ">
<polygon fill="white" stroke="#666666" points="297.5,-67.5 198.5,-67.5 198.5,-48.5 297.5,-48.5 297.5,-67.5"/>
<text text-anchor="middle" x="248" y="-55.5" font-family="Helvetica,sans-Serif" font-size="10.00">Argument::isFound</text>
</a>
</g>
</g>
<!-- Node1&#45;&gt;Node7 -->
<g id="edge8" class="edge">
<title>Node1&#45;&gt;Node7</title>
<path fill="none" stroke="#63b8ff" d="M144.02,-68.65C158.69,-67.14 173.99,-65.55 188.17,-64.09"/>
<polygon fill="#63b8ff" stroke="#63b8ff" points="188.68,-67.55 198.27,-63.04 187.96,-60.59 188.68,-67.55"/>
</g>
<!-- Node8 -->
<g id="node8" class="node">
<title>Node8</title>
<g id="a_node8"><a xlink:href="class_argument.html#aeabd957dda6add595aa860761ea337f1" target="_top" xlink:title=" ">
<polygon fill="white" stroke="#666666" points="297.5,-104.5 198.5,-104.5 198.5,-85.5 297.5,-85.5 297.5,-104.5"/>
<text text-anchor="middle" x="248" y="-92.5" font-family="Helvetica,sans-Serif" font-size="10.00">Argument::parseInt</text>
</a>
</g>
</g>
<!-- Node1&#45;&gt;Node8 -->
<g id="edge9" class="edge">
<title>Node1&#45;&gt;Node8</title>
<path fill="none" stroke="#63b8ff" d="M144.02,-83.76C158.69,-85.36 173.99,-87.03 188.17,-88.58"/>
<polygon fill="#63b8ff" stroke="#63b8ff" points="187.95,-92.07 198.27,-89.68 188.71,-85.11 187.95,-92.07"/>
</g>
<!-- Node12 -->
<g id="node12" class="node">
<title>Node12</title>
<g id="a_node12"><a xlink:href="class_commander.html#a11b7236808d55ed1c497e719117cdf3d" target="_top" xlink:title="Print &#39;Argument error!&#39; to a specified Serial channel.">
<polygon fill="white" stroke="#666666" points="316,-30 180,-30 180,0 316,0 316,-30"/>
<text text-anchor="start" x="188" y="-18" font-family="Helvetica,sans-Serif" font-size="10.00">Commander::printArgument</text>
<text text-anchor="middle" x="248" y="-7" font-family="Helvetica,sans-Serif" font-size="10.00">Error</text>
</a>
</g>
</g>
<!-- Node1&#45;&gt;Node12 -->
<g id="edge16" class="edge">
<title>Node1&#45;&gt;Node12</title>
<path fill="none" stroke="#63b8ff" d="M100.19,-66.47C125.29,-57.67 163.25,-44.36 194.29,-33.48"/>
<polygon fill="#63b8ff" stroke="#63b8ff" points="195.82,-36.65 204.1,-30.04 193.51,-30.05 195.82,-36.65"/>
</g>
<!-- Node3 -->
<g id="node3" class="node">
<title>Node3</title>
<g id="a_node3"><a xlink:href="class_argument.html#a19696736b23d7f4f4c6e4125e67f59a8" target="_top" xlink:title="Find the start position of a long named argument.">
<polygon fill="white" stroke="#666666" points="631,-160.5 505,-160.5 505,-141.5 631,-141.5 631,-160.5"/>
<text text-anchor="middle" x="568" y="-148.5" font-family="Helvetica,sans-Serif" font-size="10.00">Argument::findLongName</text>
</a>
</g>
</g>
<!-- Node2&#45;&gt;Node3 -->
<g id="edge2" class="edge">
<title>Node2&#45;&gt;Node3</title>
<path fill="none" stroke="#63b8ff" d="M442.66,-137.31C458.22,-139.02 476.63,-141.05 494.45,-143.01"/>
<polygon fill="#63b8ff" stroke="#63b8ff" points="494.53,-146.54 504.85,-144.16 495.3,-139.58 494.53,-146.54"/>
</g>
<!-- Node6 -->
<g id="node6" class="node">
<title>Node6</title>
<g id="a_node6"><a xlink:href="class_argument.html#a3ec1ea9ca2d489a987e0fa335daaf061" target="_top" xlink:title="Find the start position of a short named argument.">
<polygon fill="white" stroke="#666666" points="632,-123.5 504,-123.5 504,-104.5 632,-104.5 632,-123.5"/>
<text text-anchor="middle" x="568" y="-111.5" font-family="Helvetica,sans-Serif" font-size="10.00">Argument::findShortName</text>
</a>
</g>
</g>
<!-- Node2&#45;&gt;Node6 -->
<g id="edge5" class="edge">
<title>Node2&#45;&gt;Node6</title>
<path fill="none" stroke="#63b8ff" d="M442.66,-128.45C457.98,-126.67 476.07,-124.57 493.64,-122.53"/>
<polygon fill="#63b8ff" stroke="#63b8ff" points="494.37,-125.96 503.9,-121.33 493.56,-119.01 494.37,-125.96"/>
</g>
<!-- Node4 -->
<g id="node4" class="node">
<title>Node4</title>
<g id="a_node4"><a xlink:href="class_argument.html#af21c1965c64a5f3984cbf42bcf1eec5f" target="_top" xlink:title=" ">
<polygon fill="white" stroke="#666666" points="784,-123.5 686,-123.5 686,-104.5 784,-104.5 784,-123.5"/>
<text text-anchor="middle" x="735" y="-111.5" font-family="Helvetica,sans-Serif" font-size="10.00">Argument::inString</text>
</a>
</g>
</g>
<!-- Node3&#45;&gt;Node4 -->
<g id="edge3" class="edge">
<title>Node3&#45;&gt;Node4</title>
<path fill="none" stroke="#63b8ff" d="M611.49,-141.47C632.87,-136.68 658.97,-130.82 681.58,-125.75"/>
<polygon fill="#63b8ff" stroke="#63b8ff" points="682.37,-129.16 691.37,-123.56 680.84,-122.33 682.37,-129.16"/>
</g>
<!-- Node5 -->
<g id="node5" class="node">
<title>Node5</title>
<g id="a_node5"><a xlink:href="class_argument.html#a8f98fbce9e55886c0b3a84c6f92572e5" target="_top" xlink:title=" ">
<polygon fill="white" stroke="#666666" points="787,-160.5 683,-160.5 683,-141.5 787,-141.5 787,-160.5"/>
<text text-anchor="middle" x="735" y="-148.5" font-family="Helvetica,sans-Serif" font-size="10.00">Argument::substring</text>
</a>
</g>
</g>
<!-- Node3&#45;&gt;Node5 -->
<g id="edge4" class="edge">
<title>Node3&#45;&gt;Node5</title>
<path fill="none" stroke="#63b8ff" d="M631.38,-151C644.91,-151 659.2,-151 672.69,-151"/>
<polygon fill="#63b8ff" stroke="#63b8ff" points="672.81,-154.5 682.81,-151 672.81,-147.5 672.81,-154.5"/>
</g>
<!-- Node6&#45;&gt;Node4 -->
<g id="edge6" class="edge">
<title>Node6&#45;&gt;Node4</title>
<path fill="none" stroke="#63b8ff" d="M632.32,-114C646.65,-114 661.81,-114 675.91,-114"/>
<polygon fill="#63b8ff" stroke="#63b8ff" points="675.97,-117.5 685.97,-114 675.97,-110.5 675.97,-117.5"/>
</g>
<!-- Node6&#45;&gt;Node5 -->
<g id="edge7" class="edge">
<title>Node6&#45;&gt;Node5</title>
<path fill="none" stroke="#63b8ff" d="M611.49,-123.53C632.87,-128.32 658.97,-134.18 681.58,-139.25"/>
<polygon fill="#63b8ff" stroke="#63b8ff" points="680.84,-142.67 691.37,-141.44 682.37,-135.84 680.84,-142.67"/>
</g>
<!-- Node9 -->
<g id="node9" class="node">
<title>Node9</title>
<g id="a_node9"><a xlink:href="class_argument.html#a7fab3d983e4a63b93e6f50df82ed6f84" target="_top" xlink:title=" ">
<polygon fill="white" stroke="#666666" points="453,-104.5 352,-104.5 352,-85.5 453,-85.5 453,-104.5"/>
<text text-anchor="middle" x="402.5" y="-92.5" font-family="Helvetica,sans-Serif" font-size="10.00">Argument::findStart</text>
</a>
</g>
</g>
<!-- Node8&#45;&gt;Node9 -->
<g id="edge10" class="edge">
<title>Node8&#45;&gt;Node9</title>
<path fill="none" stroke="#63b8ff" d="M297.67,-95C311.63,-95 327.01,-95 341.57,-95"/>
<polygon fill="#63b8ff" stroke="#63b8ff" points="341.98,-98.5 351.98,-95 341.98,-91.5 341.98,-98.5"/>
</g>
<!-- Node9&#45;&gt;Node3 -->
<g id="edge13" class="edge">
<title>Node9&#45;&gt;Node3</title>
<path fill="none" stroke="#63b8ff" d="M430.2,-104.58C437.65,-107.44 445.71,-110.69 453,-114 469.47,-121.48 472.04,-126.69 489,-133 494.81,-135.16 500.97,-137.12 507.17,-138.87"/>
<polygon fill="#63b8ff" stroke="#63b8ff" points="506.35,-142.28 516.92,-141.47 508.15,-135.51 506.35,-142.28"/>
</g>
<!-- Node9&#45;&gt;Node6 -->
<g id="edge14" class="edge">
<title>Node9&#45;&gt;Node6</title>
<path fill="none" stroke="#63b8ff" d="M453.44,-100.8C466.09,-102.27 479.94,-103.88 493.49,-105.46"/>
<polygon fill="#63b8ff" stroke="#63b8ff" points="493.42,-108.97 503.76,-106.65 494.23,-102.02 493.42,-108.97"/>
</g>
<!-- Node10 -->
<g id="node10" class="node">
<title>Node10</title>
<g id="a_node10"><a xlink:href="class_argument.html#a41a3be1503f99c0ab973d0c7b45fe2bd" target="_top" xlink:title="Find the start position of a place dependent argument.">
<polygon fill="white" stroke="#666666" points="626,-86.5 510,-86.5 510,-67.5 626,-67.5 626,-86.5"/>
<text text-anchor="middle" x="568" y="-74.5" font-family="Helvetica,sans-Serif" font-size="10.00">Argument::findByPlace</text>
</a>
</g>
</g>
<!-- Node9&#45;&gt;Node10 -->
<g id="edge11" class="edge">
<title>Node9&#45;&gt;Node10</title>
<path fill="none" stroke="#63b8ff" d="M453.44,-89.5C468.08,-87.89 484.33,-86.1 499.85,-84.39"/>
<polygon fill="#63b8ff" stroke="#63b8ff" points="500.37,-87.86 509.92,-83.28 499.6,-80.9 500.37,-87.86"/>
</g>
<!-- Node11 -->
<g id="node11" class="node">
<title>Node11</title>
<g id="a_node11"><a xlink:href="class_commander.html#a8c61dd05384f4a5d02932c602f8d8e00" target="_top" xlink:title="Get the instance if a system variable by its name.">
<polygon fill="white" stroke="#666666" points="647,-49.5 489,-49.5 489,-30.5 647,-30.5 647,-49.5"/>
<text text-anchor="middle" x="568" y="-37.5" font-family="Helvetica,sans-Serif" font-size="10.00">Commander::getSystemVariable</text>
</a>
</g>
</g>
<!-- Node9&#45;&gt;Node11 -->
<g id="edge15" class="edge">
<title>Node9&#45;&gt;Node11</title>
<path fill="none" stroke="#63b8ff" d="M422.8,-85.44C439.88,-77.28 465.65,-65.68 489,-58 495.48,-55.87 502.33,-53.9 509.19,-52.1"/>
<polygon fill="#63b8ff" stroke="#63b8ff" points="510.34,-55.42 519.19,-49.59 508.63,-48.63 510.34,-55.42"/>
</g>
<!-- Node10&#45;&gt;Node4 -->
<g id="edge12" class="edge">
<title>Node10&#45;&gt;Node4</title>
<path fill="none" stroke="#63b8ff" d="M611.49,-86.53C632.87,-91.32 658.97,-97.18 681.58,-102.25"/>
<polygon fill="#63b8ff" stroke="#63b8ff" points="680.84,-105.67 691.37,-104.44 682.37,-98.84 680.84,-105.67"/>
</g>
</g>
</svg>
