<?xml version="1.0" encoding="UTF-8" standalone="no"?>
<!DOCTYPE svg PUBLIC "-//W3C//DTD SVG 1.1//EN"
 "http://www.w3.org/Graphics/SVG/1.1/DTD/svg11.dtd">
<!-- Generated by graphviz version 5.0.1 (20220820.1526)
 -->
<!-- Title: commander_cos_func Pages: 1 -->
<!--zoomable 150 -->
<svg id="main" version="1.1" xmlns="http://www.w3.org/2000/svg" xmlns:xlink="http://www.w3.org/1999/xlink" xml:space="preserve" onload="init(evt)">
<style type="text/css"><![CDATA[
.edge:hover path { stroke: red; }
.edge:hover polygon { stroke: red; fill: red; }
]]></style>
<script type="text/javascript"><![CDATA[
var edges = document.getElementsByTagName('g');
if (edges && edges.length) {
  for (var i=0;i<edges.length;i++) {
    if (edges[i].id.substr(0,4)=='edge') {
      edges[i].setAttribute('class','edge');
    }
  }
}
]]></script>
        <defs>
                <circle id="rim" cx="0" cy="0" r="7"/>
                <circle id="rim2" cx="0" cy="0" r="3.5"/>
                <g id="zoomPlus">
                        <use xlink:href="#rim" fill="#404040">
                                <set attributeName="fill" to="#808080" begin="zoomplus.mouseover" end="zoomplus.mouseout"/>
                        </use>
                        <path d="M-4,0h8M0,-4v8" fill="none" stroke="white" stroke-width="1.5" pointer-events="none"/>
                </g>
                <g id="zoomMin">
                        <use xlink:href="#rim" fill="#404040">
                                <set attributeName="fill" to="#808080" begin="zoomminus.mouseover" end="zoomminus.mouseout"/>
                        </use>
                        <path d="M-4,0h8" fill="none" stroke="white" stroke-width="1.5" pointer-events="none"/>
                </g>
                <g id="dirArrow">
                        <path fill="none" stroke="white" stroke-width="1.5" d="M0,-3.0v7 M-2.5,-0.5L0,-3.0L2.5,-0.5"/>
                </g>
               <g id="resetDef">
                       <use xlink:href="#rim2" fill="#404040">
                               <set attributeName="fill" to="#808080" begin="reset.mouseover" end="reset.mouseout"/>
                       </use>
               </g>
        </defs>

<script type="text/javascript">
var viewWidth = 763;
var viewHeight = 150;
var sectionId = 'dynsection-4';
</script>
<script xlink:href="svgpan.js"/>
<svg id="graph" class="graph">
<g id="viewport">
<title>commander_cos_func</title>
<!-- Node1 -->
<g id="node1" class="node">
<title>Node1</title>
<g id="a_node1"><a xlink:title="Premade function for cos command.">
<polygon fill="#999999" stroke="#666666" points="112,-67.5 0,-67.5 0,-48.5 112,-48.5 112,-67.5"/>
<text text-anchor="middle" x="56" y="-55.5" font-family="Helvetica,sans-Serif" font-size="10.00">commander_cos_func</text>
</a>
</g>
</g>
<!-- Node2 -->
<g id="node2" class="node">
<title>Node2</title>
<g id="a_node2"><a xlink:href="class_argument.html#a2258f3363dbb1d462286a41d4ab3b8ad" target="_top" xlink:title=" ">
<polygon fill="white" stroke="#666666" points="271,-67.5 161,-67.5 161,-48.5 271,-48.5 271,-67.5"/>
<text text-anchor="middle" x="216" y="-55.5" font-family="Helvetica,sans-Serif" font-size="10.00">Argument::parseFloat</text>
</a>
</g>
</g>
<!-- Node1&#45;&gt;Node2 -->
<g id="edge1" class="edge">
<title>Node1&#45;&gt;Node2</title>
<path fill="none" stroke="#63b8ff" d="M112.26,-58C124.69,-58 137.98,-58 150.74,-58"/>
<polygon fill="#63b8ff" stroke="#63b8ff" points="150.84,-61.5 160.84,-58 150.84,-54.5 150.84,-61.5"/>
</g>
<!-- Node10 -->
<g id="node10" class="node">
<title>Node10</title>
<g id="a_node10"><a xlink:href="class_argument.html#aeabd957dda6add595aa860761ea337f1" target="_top" xlink:title=" ">
<polygon fill="white" stroke="#666666" points="265.5,-104.5 166.5,-104.5 166.5,-85.5 265.5,-85.5 265.5,-104.5"/>
<text text-anchor="middle" x="216" y="-92.5" font-family="Helvetica,sans-Serif" font-size="10.00">Argument::parseInt</text>
</a>
</g>
</g>
<!-- Node1&#45;&gt;Node10 -->
<g id="edge12" class="edge">
<title>Node1&#45;&gt;Node10</title>
<path fill="none" stroke="#63b8ff" d="M97.69,-67.53C117.97,-72.28 142.71,-78.07 164.22,-83.11"/>
<polygon fill="#63b8ff" stroke="#63b8ff" points="163.64,-86.57 174.17,-85.44 165.24,-79.75 163.64,-86.57"/>
</g>
<!-- Node11 -->
<g id="node11" class="node">
<title>Node11</title>
<g id="a_node11"><a xlink:href="class_commander.html#a11b7236808d55ed1c497e719117cdf3d" target="_top" xlink:title="Print &#39;Argument error!&#39; to a specified Serial channel.">
<polygon fill="white" stroke="#666666" points="284,-30 148,-30 148,0 284,0 284,-30"/>
<text text-anchor="start" x="156" y="-18" font-family="Helvetica,sans-Serif" font-size="10.00">Commander::printArgument</text>
<text text-anchor="middle" x="216" y="-7" font-family="Helvetica,sans-Serif" font-size="10.00">Error</text>
</a>
</g>
</g>
<!-- Node1&#45;&gt;Node11 -->
<g id="edge14" class="edge">
<title>Node1&#45;&gt;Node11</title>
<path fill="none" stroke="#63b8ff" d="M92.07,-48.46C109.1,-43.82 130.13,-38.1 149.94,-32.71"/>
<polygon fill="#63b8ff" stroke="#63b8ff" points="151.13,-36.01 159.86,-30.01 149.29,-29.26 151.13,-36.01"/>
</g>
<!-- Node3 -->
<g id="node3" class="node">
<title>Node3</title>
<g id="a_node3"><a xlink:href="class_argument.html#a7fab3d983e4a63b93e6f50df82ed6f84" target="_top" xlink:title=" ">
<polygon fill="white" stroke="#666666" points="421,-85.5 320,-85.5 320,-66.5 421,-66.5 421,-85.5"/>
<text text-anchor="middle" x="370.5" y="-73.5" font-family="Helvetica,sans-Serif" font-size="10.00">Argument::findStart</text>
</a>
</g>
</g>
<!-- Node2&#45;&gt;Node3 -->
<g id="edge2" class="edge">
<title>Node2&#45;&gt;Node3</title>
<path fill="none" stroke="#63b8ff" d="M271.2,-64.4C283.69,-65.87 297.05,-67.45 309.77,-68.95"/>
<polygon fill="#63b8ff" stroke="#63b8ff" points="309.46,-72.44 319.8,-70.13 310.28,-65.49 309.46,-72.44"/>
</g>
<!-- Node4 -->
<g id="node4" class="node">
<title>Node4</title>
<g id="a_node4"><a xlink:href="class_argument.html#a41a3be1503f99c0ab973d0c7b45fe2bd" target="_top" xlink:title="Find the start position of a place dependent argument.">
<polygon fill="white" stroke="#666666" points="594,-141.5 478,-141.5 478,-122.5 594,-122.5 594,-141.5"/>
<text text-anchor="middle" x="536" y="-129.5" font-family="Helvetica,sans-Serif" font-size="10.00">Argument::findByPlace</text>
</a>
</g>
</g>
<!-- Node3&#45;&gt;Node4 -->
<g id="edge3" class="edge">
<title>Node3&#45;&gt;Node4</title>
<path fill="none" stroke="#63b8ff" d="M390.1,-85.51C407.15,-93.93 433.27,-106.07 457,-114 463.46,-116.16 470.32,-118.15 477.17,-119.96"/>
<polygon fill="#63b8ff" stroke="#63b8ff" points="476.61,-123.43 487.16,-122.49 478.32,-116.65 476.61,-123.43"/>
</g>
<!-- Node6 -->
<g id="node6" class="node">
<title>Node6</title>
<g id="a_node6"><a xlink:href="class_argument.html#a19696736b23d7f4f4c6e4125e67f59a8" target="_top" xlink:title="Find the start position of a long named argument.">
<polygon fill="white" stroke="#666666" points="599,-104.5 473,-104.5 473,-85.5 599,-85.5 599,-104.5"/>
<text text-anchor="middle" x="536" y="-92.5" font-family="Helvetica,sans-Serif" font-size="10.00">Argument::findLongName</text>
</a>
</g>
</g>
<!-- Node3&#45;&gt;Node6 -->
<g id="edge5" class="edge">
<title>Node3&#45;&gt;Node6</title>
<path fill="none" stroke="#63b8ff" d="M421.44,-81.8C434.52,-83.32 448.88,-84.99 462.86,-86.62"/>
<polygon fill="#63b8ff" stroke="#63b8ff" points="462.61,-90.11 472.94,-87.79 463.41,-83.16 462.61,-90.11"/>
</g>
<!-- Node8 -->
<g id="node8" class="node">
<title>Node8</title>
<g id="a_node8"><a xlink:href="class_argument.html#a3ec1ea9ca2d489a987e0fa335daaf061" target="_top" xlink:title="Find the start position of a short named argument.">
<polygon fill="white" stroke="#666666" points="600,-67.5 472,-67.5 472,-48.5 600,-48.5 600,-67.5"/>
<text text-anchor="middle" x="536" y="-55.5" font-family="Helvetica,sans-Serif" font-size="10.00">Argument::findShortName</text>
</a>
</g>
</g>
<!-- Node3&#45;&gt;Node8 -->
<g id="edge8" class="edge">
<title>Node3&#45;&gt;Node8</title>
<path fill="none" stroke="#63b8ff" d="M421.44,-70.5C434.09,-69.11 447.94,-67.58 461.49,-66.09"/>
<polygon fill="#63b8ff" stroke="#63b8ff" points="462.2,-69.54 471.76,-64.96 461.44,-62.58 462.2,-69.54"/>
</g>
<!-- Node9 -->
<g id="node9" class="node">
<title>Node9</title>
<g id="a_node9"><a xlink:href="class_commander.html#a8c61dd05384f4a5d02932c602f8d8e00" target="_top" xlink:title="Get the instance if a system variable by its name.">
<polygon fill="white" stroke="#666666" points="615,-30.5 457,-30.5 457,-11.5 615,-11.5 615,-30.5"/>
<text text-anchor="middle" x="536" y="-18.5" font-family="Helvetica,sans-Serif" font-size="10.00">Commander::getSystemVariable</text>
</a>
</g>
</g>
<!-- Node3&#45;&gt;Node9 -->
<g id="edge11" class="edge">
<title>Node3&#45;&gt;Node9</title>
<path fill="none" stroke="#63b8ff" d="M390.8,-66.44C407.88,-58.28 433.65,-46.68 457,-39 463.48,-36.87 470.33,-34.9 477.19,-33.1"/>
<polygon fill="#63b8ff" stroke="#63b8ff" points="478.34,-36.42 487.19,-30.59 476.63,-29.63 478.34,-36.42"/>
</g>
<!-- Node5 -->
<g id="node5" class="node">
<title>Node5</title>
<g id="a_node5"><a xlink:href="class_argument.html#af21c1965c64a5f3984cbf42bcf1eec5f" target="_top" xlink:title=" ">
<polygon fill="white" stroke="#666666" points="752,-104.5 654,-104.5 654,-85.5 752,-85.5 752,-104.5"/>
<text text-anchor="middle" x="703" y="-92.5" font-family="Helvetica,sans-Serif" font-size="10.00">Argument::inString</text>
</a>
</g>
</g>
<!-- Node4&#45;&gt;Node5 -->
<g id="edge4" class="edge">
<title>Node4&#45;&gt;Node5</title>
<path fill="none" stroke="#63b8ff" d="M579.49,-122.47C600.87,-117.68 626.97,-111.82 649.58,-106.75"/>
<polygon fill="#63b8ff" stroke="#63b8ff" points="650.37,-110.16 659.37,-104.56 648.84,-103.33 650.37,-110.16"/>
</g>
<!-- Node6&#45;&gt;Node5 -->
<g id="edge6" class="edge">
<title>Node6&#45;&gt;Node5</title>
<path fill="none" stroke="#63b8ff" d="M599.38,-95C613.92,-95 629.35,-95 643.7,-95"/>
<polygon fill="#63b8ff" stroke="#63b8ff" points="643.94,-98.5 653.94,-95 643.94,-91.5 643.94,-98.5"/>
</g>
<!-- Node7 -->
<g id="node7" class="node">
<title>Node7</title>
<g id="a_node7"><a xlink:href="class_argument.html#a8f98fbce9e55886c0b3a84c6f92572e5" target="_top" xlink:title=" ">
<polygon fill="white" stroke="#666666" points="755,-67.5 651,-67.5 651,-48.5 755,-48.5 755,-67.5"/>
<text text-anchor="middle" x="703" y="-55.5" font-family="Helvetica,sans-Serif" font-size="10.00">Argument::substring</text>
</a>
</g>
</g>
<!-- Node6&#45;&gt;Node7 -->
<g id="edge7" class="edge">
<title>Node6&#45;&gt;Node7</title>
<path fill="none" stroke="#63b8ff" d="M579.49,-85.47C600.87,-80.68 626.97,-74.82 649.58,-69.75"/>
<polygon fill="#63b8ff" stroke="#63b8ff" points="650.37,-73.16 659.37,-67.56 648.84,-66.33 650.37,-73.16"/>
</g>
<!-- Node8&#45;&gt;Node5 -->
<g id="edge9" class="edge">
<title>Node8&#45;&gt;Node5</title>
<path fill="none" stroke="#63b8ff" d="M579.49,-67.53C600.87,-72.32 626.97,-78.18 649.58,-83.25"/>
<polygon fill="#63b8ff" stroke="#63b8ff" points="648.84,-86.67 659.37,-85.44 650.37,-79.84 648.84,-86.67"/>
</g>
<!-- Node8&#45;&gt;Node7 -->
<g id="edge10" class="edge">
<title>Node8&#45;&gt;Node7</title>
<path fill="none" stroke="#63b8ff" d="M600.32,-58C613.52,-58 627.4,-58 640.53,-58"/>
<polygon fill="#63b8ff" stroke="#63b8ff" points="640.87,-61.5 650.87,-58 640.87,-54.5 640.87,-61.5"/>
</g>
<!-- Node10&#45;&gt;Node3 -->
<g id="edge13" class="edge">
<title>Node10&#45;&gt;Node3</title>
<path fill="none" stroke="#63b8ff" d="M265.67,-88.94C279.77,-87.18 295.31,-85.24 309.99,-83.41"/>
<polygon fill="#63b8ff" stroke="#63b8ff" points="310.49,-86.88 319.98,-82.17 309.63,-79.93 310.49,-86.88"/>
</g>
</g>
</svg>
        <g id="navigator" transform="translate(0 0)" fill="#404254">
                <rect fill="#f2f5e9" fill-opacity="0.5" stroke="#606060" stroke-width=".5" x="0" y="0" width="60" height="60"/>
                <use id="zoomplus" xlink:href="#zoomPlus" x="17" y="9" onmousedown="handleZoom(evt,'in')"/>
                <use id="zoomminus" xlink:href="#zoomMin" x="42" y="9" onmousedown="handleZoom(evt,'out')"/>
                <use id="reset" xlink:href="#resetDef" x="30" y="36" onmousedown="handleReset()"/>
                <g id="arrowUp" xlink:href="#dirArrow" transform="translate(30 24)" onmousedown="handlePan(0,-1)">
                  <use xlink:href="#rim" fill="#404040">
                        <set attributeName="fill" to="#808080" begin="arrowUp.mouseover" end="arrowUp.mouseout"/>
                  </use>
                  <path fill="none" stroke="white" stroke-width="1.5" d="M0,-3.0v7 M-2.5,-0.5L0,-3.0L2.5,-0.5"/>
                </g>
                <g id="arrowRight" xlink:href="#dirArrow" transform="rotate(90) translate(36 -43)" onmousedown="handlePan(1,0)">
                  <use xlink:href="#rim" fill="#404040">
                        <set attributeName="fill" to="#808080" begin="arrowRight.mouseover" end="arrowRight.mouseout"/>
                  </use>
                  <path fill="none" stroke="white" stroke-width="1.5" d="M0,-3.0v7 M-2.5,-0.5L0,-3.0L2.5,-0.5"/>
                </g>
                <g id="arrowDown" xlink:href="#dirArrow" transform="rotate(180) translate(-30 -48)" onmousedown="handlePan(0,1)">
                  <use xlink:href="#rim" fill="#404040">
                        <set attributeName="fill" to="#808080" begin="arrowDown.mouseover" end="arrowDown.mouseout"/>
                  </use>
                  <path fill="none" stroke="white" stroke-width="1.5" d="M0,-3.0v7 M-2.5,-0.5L0,-3.0L2.5,-0.5"/>
                </g>
                <g id="arrowLeft" xlink:href="#dirArrow" transform="rotate(270) translate(-36 17)" onmousedown="handlePan(-1,0)">
                  <use xlink:href="#rim" fill="#404040">
                        <set attributeName="fill" to="#808080" begin="arrowLeft.mouseover" end="arrowLeft.mouseout"/>
                  </use>
                  <path fill="none" stroke="white" stroke-width="1.5" d="M0,-3.0v7 M-2.5,-0.5L0,-3.0L2.5,-0.5"/>
                </g>
        </g>
        <svg viewBox="0 0 15 15" width="100%" height="30px" preserveAspectRatio="xMaxYMin meet">
         <g id="arrow_out" transform="scale(0.3 0.3)">
          <a xlink:href="_commander-_a_p_i-_commands_8hpp_abfe392815068d05be5e099def983b5ec_cgraph_org.svg" target="_base">
           <rect id="button" ry="5" rx="5" y="6" x="6" height="38" width="38"
                fill="#f2f5e9" fill-opacity="0.5" stroke="#606060" stroke-width="1.0"/>
           <path id="arrow"
             d="M 11.500037,31.436501 C 11.940474,20.09759 22.043105,11.32322 32.158766,21.979434 L 37.068811,17.246167 C 37.068811,17.246167 37.088388,32 37.088388,32 L 22.160133,31.978069 C 22.160133,31.978069 26.997745,27.140456 26.997745,27.140456 C 18.528582,18.264221 13.291696,25.230495 11.500037,31.436501 z"
             style="fill:#404040;"/>
          </a>
         </g>
        </svg>
</svg>
