<?xml version="1.0" encoding="UTF-8" standalone="no"?>
<!DOCTYPE svg PUBLIC "-//W3C//DTD SVG 1.1//EN"
 "http://www.w3.org/Graphics/SVG/1.1/DTD/svg11.dtd">
<!-- Generated by graphviz version 5.0.1 (20220820.1526)
 -->
<!-- Title: commander_exportTarget_func Pages: 1 -->
<svg width="812pt" height="150pt"
 viewBox="0.00 0.00 812.00 149.50" xmlns="http://www.w3.org/2000/svg" xmlns:xlink="http://www.w3.org/1999/xlink">
<g id="graph0" class="graph" transform="scale(1 1) rotate(0) translate(4 145.5)">
<title>commander_exportTarget_func</title>
<!-- Node1 -->
<g id="node1" class="node">
<title>Node1</title>
<g id="a_node1"><a xlink:title="Premade function for not command.">
<polygon fill="#999999" stroke="#666666" points="150,-85.5 0,-85.5 0,-66.5 150,-66.5 150,-85.5"/>
<text text-anchor="middle" x="75" y="-73.5" font-family="Helvetica,sans-Serif" font-size="10.00">commander_exportTarget_func</text>
</a>
</g>
</g>
<!-- Node2 -->
<g id="node2" class="node">
<title>Node2</title>
<g id="a_node2"><a xlink:href="class_argument.html#a578656131acb2afb90691ed5d949daa5" target="_top" xlink:title=" ">
<polygon fill="white" stroke="#666666" points="333,-141.5 186,-141.5 186,-122.5 333,-122.5 333,-141.5"/>
<text text-anchor="middle" x="259.5" y="-129.5" font-family="Helvetica,sans-Serif" font-size="10.00">Argument::getSystemVariable</text>
</a>
</g>
</g>
<!-- Node1&#45;&gt;Node2 -->
<g id="edge1" class="edge">
<title>Node1&#45;&gt;Node2</title>
<path fill="none" stroke="#63b8ff" d="M101.57,-85.56C123.73,-93.67 156.75,-105.33 186,-114 192.92,-116.05 200.27,-118.06 207.52,-119.95"/>
<polygon fill="#63b8ff" stroke="#63b8ff" points="206.75,-123.37 217.3,-122.45 208.48,-116.58 206.75,-123.37"/>
</g>
<!-- Node3 -->
<g id="node3" class="node">
<title>Node3</title>
<g id="a_node3"><a xlink:href="class_argument.html#a2258f3363dbb1d462286a41d4ab3b8ad" target="_top" xlink:title=" ">
<polygon fill="white" stroke="#666666" points="314.5,-104.5 204.5,-104.5 204.5,-85.5 314.5,-85.5 314.5,-104.5"/>
<text text-anchor="middle" x="259.5" y="-92.5" font-family="Helvetica,sans-Serif" font-size="10.00">Argument::parseFloat</text>
</a>
</g>
</g>
<!-- Node1&#45;&gt;Node3 -->
<g id="edge2" class="edge">
<title>Node1&#45;&gt;Node3</title>
<path fill="none" stroke="#63b8ff" d="M150.23,-83.73C164.84,-85.25 180.06,-86.83 194.3,-88.32"/>
<polygon fill="#63b8ff" stroke="#63b8ff" points="194.18,-91.82 204.48,-89.38 194.9,-84.86 194.18,-91.82"/>
</g>
<!-- Node11 -->
<g id="node11" class="node">
<title>Node11</title>
<g id="a_node11"><a xlink:href="class_argument.html#aeabd957dda6add595aa860761ea337f1" target="_top" xlink:title=" ">
<polygon fill="white" stroke="#666666" points="309,-67.5 210,-67.5 210,-48.5 309,-48.5 309,-67.5"/>
<text text-anchor="middle" x="259.5" y="-55.5" font-family="Helvetica,sans-Serif" font-size="10.00">Argument::parseInt</text>
</a>
</g>
</g>
<!-- Node1&#45;&gt;Node11 -->
<g id="edge12" class="edge">
<title>Node1&#45;&gt;Node11</title>
<path fill="none" stroke="#63b8ff" d="M150.23,-68.68C166.74,-67.05 184.03,-65.35 199.82,-63.79"/>
<polygon fill="#63b8ff" stroke="#63b8ff" points="200.34,-67.25 209.95,-62.79 199.66,-60.29 200.34,-67.25"/>
</g>
<!-- Node12 -->
<g id="node12" class="node">
<title>Node12</title>
<g id="a_node12"><a xlink:href="class_commander.html#a11b7236808d55ed1c497e719117cdf3d" target="_top" xlink:title="Print &#39;Argument error!&#39; to a specified Serial channel.">
<polygon fill="white" stroke="#666666" points="327.5,-30 191.5,-30 191.5,0 327.5,0 327.5,-30"/>
<text text-anchor="start" x="199.5" y="-18" font-family="Helvetica,sans-Serif" font-size="10.00">Commander::printArgument</text>
<text text-anchor="middle" x="259.5" y="-7" font-family="Helvetica,sans-Serif" font-size="10.00">Error</text>
</a>
</g>
</g>
<!-- Node1&#45;&gt;Node12 -->
<g id="edge14" class="edge">
<title>Node1&#45;&gt;Node12</title>
<path fill="none" stroke="#63b8ff" d="M104.48,-66.38C126.68,-58.89 158.29,-48.25 186,-39 191.56,-37.14 197.36,-35.21 203.15,-33.29"/>
<polygon fill="#63b8ff" stroke="#63b8ff" points="204.46,-36.54 212.85,-30.07 202.26,-29.9 204.46,-36.54"/>
</g>
<!-- Node4 -->
<g id="node4" class="node">
<title>Node4</title>
<g id="a_node4"><a xlink:href="class_argument.html#a7fab3d983e4a63b93e6f50df82ed6f84" target="_top" xlink:title=" ">
<polygon fill="white" stroke="#666666" points="470,-85.5 369,-85.5 369,-66.5 470,-66.5 470,-85.5"/>
<text text-anchor="middle" x="419.5" y="-73.5" font-family="Helvetica,sans-Serif" font-size="10.00">Argument::findStart</text>
</a>
</g>
</g>
<!-- Node3&#45;&gt;Node4 -->
<g id="edge3" class="edge">
<title>Node3&#45;&gt;Node4</title>
<path fill="none" stroke="#63b8ff" d="M314.87,-88.46C328.95,-86.77 344.19,-84.94 358.54,-83.21"/>
<polygon fill="#63b8ff" stroke="#63b8ff" points="359.29,-86.65 368.8,-81.98 358.45,-79.7 359.29,-86.65"/>
</g>
<!-- Node5 -->
<g id="node5" class="node">
<title>Node5</title>
<g id="a_node5"><a xlink:href="class_argument.html#a19696736b23d7f4f4c6e4125e67f59a8" target="_top" xlink:title=" ">
<polygon fill="white" stroke="#666666" points="648,-141.5 522,-141.5 522,-122.5 648,-122.5 648,-141.5"/>
<text text-anchor="middle" x="585" y="-129.5" font-family="Helvetica,sans-Serif" font-size="10.00">Argument::findLongName</text>
</a>
</g>
</g>
<!-- Node4&#45;&gt;Node5 -->
<g id="edge4" class="edge">
<title>Node4&#45;&gt;Node5</title>
<path fill="none" stroke="#63b8ff" d="M439.1,-85.51C456.15,-93.93 482.27,-106.07 506,-114 512.46,-116.16 519.32,-118.15 526.17,-119.96"/>
<polygon fill="#63b8ff" stroke="#63b8ff" points="525.61,-123.43 536.16,-122.49 527.32,-116.65 525.61,-123.43"/>
</g>
<!-- Node8 -->
<g id="node8" class="node">
<title>Node8</title>
<g id="a_node8"><a xlink:href="class_argument.html#a267c2e9b46491f60b264c39e08ad5686" target="_top" xlink:title=" ">
<polygon fill="white" stroke="#666666" points="637,-67.5 533,-67.5 533,-48.5 637,-48.5 637,-67.5"/>
<text text-anchor="middle" x="585" y="-55.5" font-family="Helvetica,sans-Serif" font-size="10.00">Argument::findPlace</text>
</a>
</g>
</g>
<!-- Node4&#45;&gt;Node8 -->
<g id="edge7" class="edge">
<title>Node4&#45;&gt;Node8</title>
<path fill="none" stroke="#63b8ff" d="M470.44,-70.5C487.01,-68.68 505.64,-66.63 522.94,-64.72"/>
<polygon fill="#63b8ff" stroke="#63b8ff" points="523.39,-68.19 532.95,-63.62 522.63,-61.24 523.39,-68.19"/>
</g>
<!-- Node9 -->
<g id="node9" class="node">
<title>Node9</title>
<g id="a_node9"><a xlink:href="class_argument.html#a3ec1ea9ca2d489a987e0fa335daaf061" target="_top" xlink:title=" ">
<polygon fill="white" stroke="#666666" points="649,-104.5 521,-104.5 521,-85.5 649,-85.5 649,-104.5"/>
<text text-anchor="middle" x="585" y="-92.5" font-family="Helvetica,sans-Serif" font-size="10.00">Argument::findShortName</text>
</a>
</g>
</g>
<!-- Node4&#45;&gt;Node9 -->
<g id="edge8" class="edge">
<title>Node4&#45;&gt;Node9</title>
<path fill="none" stroke="#63b8ff" d="M470.44,-81.8C483.09,-83.27 496.94,-84.88 510.49,-86.46"/>
<polygon fill="#63b8ff" stroke="#63b8ff" points="510.42,-89.97 520.76,-87.65 511.23,-83.02 510.42,-89.97"/>
</g>
<!-- Node10 -->
<g id="node10" class="node">
<title>Node10</title>
<g id="a_node10"><a xlink:href="class_commander.html#aed49189003860bfa85ab3bf8d320c5f6" target="_top" xlink:title="Get the instance if a system variable by its name.">
<polygon fill="white" stroke="#666666" points="664,-30.5 506,-30.5 506,-11.5 664,-11.5 664,-30.5"/>
<text text-anchor="middle" x="585" y="-18.5" font-family="Helvetica,sans-Serif" font-size="10.00">Commander::getSystemVariable</text>
</a>
</g>
</g>
<!-- Node4&#45;&gt;Node10 -->
<g id="edge11" class="edge">
<title>Node4&#45;&gt;Node10</title>
<path fill="none" stroke="#63b8ff" d="M439.8,-66.44C456.88,-58.28 482.65,-46.68 506,-39 512.48,-36.87 519.33,-34.9 526.19,-33.1"/>
<polygon fill="#63b8ff" stroke="#63b8ff" points="527.34,-36.42 536.19,-30.59 525.63,-29.63 527.34,-36.42"/>
</g>
<!-- Node6 -->
<g id="node6" class="node">
<title>Node6</title>
<g id="a_node6"><a xlink:href="class_argument.html#af21c1965c64a5f3984cbf42bcf1eec5f" target="_top" xlink:title=" ">
<polygon fill="white" stroke="#666666" points="801,-141.5 703,-141.5 703,-122.5 801,-122.5 801,-141.5"/>
<text text-anchor="middle" x="752" y="-129.5" font-family="Helvetica,sans-Serif" font-size="10.00">Argument::inString</text>
</a>
</g>
</g>
<!-- Node5&#45;&gt;Node6 -->
<g id="edge5" class="edge">
<title>Node5&#45;&gt;Node6</title>
<path fill="none" stroke="#63b8ff" d="M648.38,-132C662.92,-132 678.35,-132 692.7,-132"/>
<polygon fill="#63b8ff" stroke="#63b8ff" points="692.94,-135.5 702.94,-132 692.94,-128.5 692.94,-135.5"/>
</g>
<!-- Node7 -->
<g id="node7" class="node">
<title>Node7</title>
<g id="a_node7"><a xlink:href="class_argument.html#a8f98fbce9e55886c0b3a84c6f92572e5" target="_top" xlink:title=" ">
<polygon fill="white" stroke="#666666" points="804,-104.5 700,-104.5 700,-85.5 804,-85.5 804,-104.5"/>
<text text-anchor="middle" x="752" y="-92.5" font-family="Helvetica,sans-Serif" font-size="10.00">Argument::substring</text>
</a>
</g>
</g>
<!-- Node5&#45;&gt;Node7 -->
<g id="edge6" class="edge">
<title>Node5&#45;&gt;Node7</title>
<path fill="none" stroke="#63b8ff" d="M628.49,-122.47C649.87,-117.68 675.97,-111.82 698.58,-106.75"/>
<polygon fill="#63b8ff" stroke="#63b8ff" points="699.37,-110.16 708.37,-104.56 697.84,-103.33 699.37,-110.16"/>
</g>
<!-- Node9&#45;&gt;Node6 -->
<g id="edge9" class="edge">
<title>Node9&#45;&gt;Node6</title>
<path fill="none" stroke="#63b8ff" d="M628.49,-104.53C649.87,-109.32 675.97,-115.18 698.58,-120.25"/>
<polygon fill="#63b8ff" stroke="#63b8ff" points="697.84,-123.67 708.37,-122.44 699.37,-116.84 697.84,-123.67"/>
</g>
<!-- Node9&#45;&gt;Node7 -->
<g id="edge10" class="edge">
<title>Node9&#45;&gt;Node7</title>
<path fill="none" stroke="#63b8ff" d="M649.32,-95C662.52,-95 676.4,-95 689.53,-95"/>
<polygon fill="#63b8ff" stroke="#63b8ff" points="689.87,-98.5 699.87,-95 689.87,-91.5 689.87,-98.5"/>
</g>
<!-- Node11&#45;&gt;Node4 -->
<g id="edge13" class="edge">
<title>Node11&#45;&gt;Node4</title>
<path fill="none" stroke="#63b8ff" d="M309.19,-63.55C324.89,-65.34 342.46,-67.34 358.85,-69.2"/>
<polygon fill="#63b8ff" stroke="#63b8ff" points="358.54,-72.69 368.88,-70.35 359.34,-65.74 358.54,-72.69"/>
</g>
</g>
</svg>
