<?xml version="1.0" encoding="UTF-8" standalone="no"?>
<!DOCTYPE svg PUBLIC "-//W3C//DTD SVG 1.1//EN"
 "http://www.w3.org/Graphics/SVG/1.1/DTD/svg11.dtd">
<!-- Generated by graphviz version 5.0.1 (20220820.1526)
 -->
<!-- Title: commander_analogWrite_func Pages: 1 -->
<!--zoomable 138 -->
<svg id="main" version="1.1" xmlns="http://www.w3.org/2000/svg" xmlns:xlink="http://www.w3.org/1999/xlink" xml:space="preserve" onload="init(evt)">
<style type="text/css"><![CDATA[
.edge:hover path { stroke: red; }
.edge:hover polygon { stroke: red; fill: red; }
]]></style>
<script type="text/javascript"><![CDATA[
var edges = document.getElementsByTagName('g');
if (edges && edges.length) {
  for (var i=0;i<edges.length;i++) {
    if (edges[i].id.substr(0,4)=='edge') {
      edges[i].setAttribute('class','edge');
    }
  }
}
]]></script>
        <defs>
                <circle id="rim" cx="0" cy="0" r="7"/>
                <circle id="rim2" cx="0" cy="0" r="3.5"/>
                <g id="zoomPlus">
                        <use xlink:href="#rim" fill="#404040">
                                <set attributeName="fill" to="#808080" begin="zoomplus.mouseover" end="zoomplus.mouseout"/>
                        </use>
                        <path d="M-4,0h8M0,-4v8" fill="none" stroke="white" stroke-width="1.5" pointer-events="none"/>
                </g>
                <g id="zoomMin">
                        <use xlink:href="#rim" fill="#404040">
                                <set attributeName="fill" to="#808080" begin="zoomminus.mouseover" end="zoomminus.mouseout"/>
                        </use>
                        <path d="M-4,0h8" fill="none" stroke="white" stroke-width="1.5" pointer-events="none"/>
                </g>
                <g id="dirArrow">
                        <path fill="none" stroke="white" stroke-width="1.5" d="M0,-3.0v7 M-2.5,-0.5L0,-3.0L2.5,-0.5"/>
                </g>
               <g id="resetDef">
                       <use xlink:href="#rim2" fill="#404040">
                               <set attributeName="fill" to="#808080" begin="reset.mouseover" end="reset.mouseout"/>
                       </use>
               </g>
        </defs>

<script type="text/javascript">
var viewWidth = 799;
var viewHeight = 138;
var sectionId = 'dynsection-2';
</script>
<script xlink:href="svgpan.js"/>
<svg id="graph" class="graph">
<g id="viewport">
<title>commander_analogWrite_func</title>
<!-- Node1 -->
<g id="node1" class="node">
<title>Node1</title>
<g id="a_node1"><a xlink:title="Premade function for analogRead command.">
<polygon fill="#999999" stroke="#666666" points="148,-52 0,-52 0,-33 148,-33 148,-52"/>
<text text-anchor="middle" x="74" y="-40" font-family="Helvetica,sans-Serif" font-size="10.00">commander_analogWrite_func</text>
</a>
</g>
</g>
<!-- Node2 -->
<g id="node2" class="node">
<title>Node2</title>
<g id="a_node2"><a xlink:href="class_argument.html#aeabd957dda6add595aa860761ea337f1" target="_top" xlink:title=" ">
<polygon fill="white" stroke="#666666" points="301.5,-74 202.5,-74 202.5,-55 301.5,-55 301.5,-74"/>
<text text-anchor="middle" x="252" y="-62" font-family="Helvetica,sans-Serif" font-size="10.00">Argument::parseInt</text>
</a>
</g>
</g>
<!-- Node1&#45;&gt;Node2 -->
<g id="edge1" class="edge">
<title>Node1&#45;&gt;Node2</title>
<path fill="none" stroke="#63b8ff" d="M148.11,-51.64C162.85,-53.48 178.17,-55.4 192.34,-57.17"/>
<polygon fill="#63b8ff" stroke="#63b8ff" points="192.08,-60.66 202.44,-58.43 192.95,-53.72 192.08,-60.66"/>
</g>
<!-- Node10 -->
<g id="node10" class="node">
<title>Node10</title>
<g id="a_node10"><a xlink:href="class_commander.html#a11b7236808d55ed1c497e719117cdf3d" target="_top" xlink:title="Print &#39;Argument error!&#39; to a specified Serial channel.">
<polygon fill="white" stroke="#666666" points="320,-36.5 184,-36.5 184,-6.5 320,-6.5 320,-36.5"/>
<text text-anchor="start" x="192" y="-24.5" font-family="Helvetica,sans-Serif" font-size="10.00">Commander::printArgument</text>
<text text-anchor="middle" x="252" y="-13.5" font-family="Helvetica,sans-Serif" font-size="10.00">Error</text>
</a>
</g>
</g>
<!-- Node1&#45;&gt;Node10 -->
<g id="edge12" class="edge">
<title>Node1&#45;&gt;Node10</title>
<path fill="none" stroke="#63b8ff" d="M148.11,-33.78C156.6,-32.76 165.27,-31.73 173.81,-30.71"/>
<polygon fill="#63b8ff" stroke="#63b8ff" points="174.23,-34.18 183.75,-29.52 173.4,-27.23 174.23,-34.18"/>
</g>
<!-- Node3 -->
<g id="node3" class="node">
<title>Node3</title>
<g id="a_node3"><a xlink:href="class_argument.html#a7fab3d983e4a63b93e6f50df82ed6f84" target="_top" xlink:title=" ">
<polygon fill="white" stroke="#666666" points="457,-74 356,-74 356,-55 457,-55 457,-74"/>
<text text-anchor="middle" x="406.5" y="-62" font-family="Helvetica,sans-Serif" font-size="10.00">Argument::findStart</text>
</a>
</g>
</g>
<!-- Node2&#45;&gt;Node3 -->
<g id="edge2" class="edge">
<title>Node2&#45;&gt;Node3</title>
<path fill="none" stroke="#63b8ff" d="M301.67,-64.5C315.63,-64.5 331.01,-64.5 345.57,-64.5"/>
<polygon fill="#63b8ff" stroke="#63b8ff" points="345.98,-68 355.98,-64.5 345.98,-61 345.98,-68"/>
</g>
<!-- Node4 -->
<g id="node4" class="node">
<title>Node4</title>
<g id="a_node4"><a xlink:href="class_argument.html#a41a3be1503f99c0ab973d0c7b45fe2bd" target="_top" xlink:title="Find the start position of a place dependent argument.">
<polygon fill="white" stroke="#666666" points="630,-130 514,-130 514,-111 630,-111 630,-130"/>
<text text-anchor="middle" x="572" y="-118" font-family="Helvetica,sans-Serif" font-size="10.00">Argument::findByPlace</text>
</a>
</g>
</g>
<!-- Node3&#45;&gt;Node4 -->
<g id="edge3" class="edge">
<title>Node3&#45;&gt;Node4</title>
<path fill="none" stroke="#63b8ff" d="M426.1,-74.01C443.15,-82.43 469.27,-94.57 493,-102.5 499.46,-104.66 506.32,-106.65 513.17,-108.46"/>
<polygon fill="#63b8ff" stroke="#63b8ff" points="512.61,-111.93 523.16,-110.99 514.32,-105.15 512.61,-111.93"/>
</g>
<!-- Node6 -->
<g id="node6" class="node">
<title>Node6</title>
<g id="a_node6"><a xlink:href="class_argument.html#a19696736b23d7f4f4c6e4125e67f59a8" target="_top" xlink:title="Find the start position of a long named argument.">
<polygon fill="white" stroke="#666666" points="635,-93 509,-93 509,-74 635,-74 635,-93"/>
<text text-anchor="middle" x="572" y="-81" font-family="Helvetica,sans-Serif" font-size="10.00">Argument::findLongName</text>
</a>
</g>
</g>
<!-- Node3&#45;&gt;Node6 -->
<g id="edge5" class="edge">
<title>Node3&#45;&gt;Node6</title>
<path fill="none" stroke="#63b8ff" d="M457.44,-70.3C470.52,-71.82 484.88,-73.49 498.86,-75.12"/>
<polygon fill="#63b8ff" stroke="#63b8ff" points="498.61,-78.61 508.94,-76.29 499.41,-71.66 498.61,-78.61"/>
</g>
<!-- Node8 -->
<g id="node8" class="node">
<title>Node8</title>
<g id="a_node8"><a xlink:href="class_argument.html#a3ec1ea9ca2d489a987e0fa335daaf061" target="_top" xlink:title="Find the start position of a short named argument.">
<polygon fill="white" stroke="#666666" points="636,-56 508,-56 508,-37 636,-37 636,-56"/>
<text text-anchor="middle" x="572" y="-44" font-family="Helvetica,sans-Serif" font-size="10.00">Argument::findShortName</text>
</a>
</g>
</g>
<!-- Node3&#45;&gt;Node8 -->
<g id="edge8" class="edge">
<title>Node3&#45;&gt;Node8</title>
<path fill="none" stroke="#63b8ff" d="M457.44,-59C470.09,-57.61 483.94,-56.08 497.49,-54.59"/>
<polygon fill="#63b8ff" stroke="#63b8ff" points="498.2,-58.04 507.76,-53.46 497.44,-51.08 498.2,-58.04"/>
</g>
<!-- Node9 -->
<g id="node9" class="node">
<title>Node9</title>
<g id="a_node9"><a xlink:href="class_commander.html#a8c61dd05384f4a5d02932c602f8d8e00" target="_top" xlink:title="Get the instance if a system variable by its name.">
<polygon fill="white" stroke="#666666" points="651,-19 493,-19 493,0 651,0 651,-19"/>
<text text-anchor="middle" x="572" y="-7" font-family="Helvetica,sans-Serif" font-size="10.00">Commander::getSystemVariable</text>
</a>
</g>
</g>
<!-- Node3&#45;&gt;Node9 -->
<g id="edge11" class="edge">
<title>Node3&#45;&gt;Node9</title>
<path fill="none" stroke="#63b8ff" d="M426.8,-54.94C443.88,-46.78 469.65,-35.18 493,-27.5 499.48,-25.37 506.33,-23.4 513.19,-21.6"/>
<polygon fill="#63b8ff" stroke="#63b8ff" points="514.34,-24.92 523.19,-19.09 512.63,-18.13 514.34,-24.92"/>
</g>
<!-- Node5 -->
<g id="node5" class="node">
<title>Node5</title>
<g id="a_node5"><a xlink:href="class_argument.html#af21c1965c64a5f3984cbf42bcf1eec5f" target="_top" xlink:title=" ">
<polygon fill="white" stroke="#666666" points="788,-93 690,-93 690,-74 788,-74 788,-93"/>
<text text-anchor="middle" x="739" y="-81" font-family="Helvetica,sans-Serif" font-size="10.00">Argument::inString</text>
</a>
</g>
</g>
<!-- Node4&#45;&gt;Node5 -->
<g id="edge4" class="edge">
<title>Node4&#45;&gt;Node5</title>
<path fill="none" stroke="#63b8ff" d="M615.49,-110.97C636.87,-106.18 662.97,-100.32 685.58,-95.25"/>
<polygon fill="#63b8ff" stroke="#63b8ff" points="686.37,-98.66 695.37,-93.06 684.84,-91.83 686.37,-98.66"/>
</g>
<!-- Node6&#45;&gt;Node5 -->
<g id="edge6" class="edge">
<title>Node6&#45;&gt;Node5</title>
<path fill="none" stroke="#63b8ff" d="M635.38,-83.5C649.92,-83.5 665.35,-83.5 679.7,-83.5"/>
<polygon fill="#63b8ff" stroke="#63b8ff" points="679.94,-87 689.94,-83.5 679.94,-80 679.94,-87"/>
</g>
<!-- Node7 -->
<g id="node7" class="node">
<title>Node7</title>
<g id="a_node7"><a xlink:href="class_argument.html#a8f98fbce9e55886c0b3a84c6f92572e5" target="_top" xlink:title=" ">
<polygon fill="white" stroke="#666666" points="791,-56 687,-56 687,-37 791,-37 791,-56"/>
<text text-anchor="middle" x="739" y="-44" font-family="Helvetica,sans-Serif" font-size="10.00">Argument::substring</text>
</a>
</g>
</g>
<!-- Node6&#45;&gt;Node7 -->
<g id="edge7" class="edge">
<title>Node6&#45;&gt;Node7</title>
<path fill="none" stroke="#63b8ff" d="M615.49,-73.97C636.87,-69.18 662.97,-63.32 685.58,-58.25"/>
<polygon fill="#63b8ff" stroke="#63b8ff" points="686.37,-61.66 695.37,-56.06 684.84,-54.83 686.37,-61.66"/>
</g>
<!-- Node8&#45;&gt;Node5 -->
<g id="edge9" class="edge">
<title>Node8&#45;&gt;Node5</title>
<path fill="none" stroke="#63b8ff" d="M615.49,-56.03C636.87,-60.82 662.97,-66.68 685.58,-71.75"/>
<polygon fill="#63b8ff" stroke="#63b8ff" points="684.84,-75.17 695.37,-73.94 686.37,-68.34 684.84,-75.17"/>
</g>
<!-- Node8&#45;&gt;Node7 -->
<g id="edge10" class="edge">
<title>Node8&#45;&gt;Node7</title>
<path fill="none" stroke="#63b8ff" d="M636.32,-46.5C649.52,-46.5 663.4,-46.5 676.53,-46.5"/>
<polygon fill="#63b8ff" stroke="#63b8ff" points="676.87,-50 686.87,-46.5 676.87,-43 676.87,-50"/>
</g>
</g>
</svg>
        <g id="navigator" transform="translate(0 0)" fill="#404254">
                <rect fill="#f2f5e9" fill-opacity="0.5" stroke="#606060" stroke-width=".5" x="0" y="0" width="60" height="60"/>
                <use id="zoomplus" xlink:href="#zoomPlus" x="17" y="9" onmousedown="handleZoom(evt,'in')"/>
                <use id="zoomminus" xlink:href="#zoomMin" x="42" y="9" onmousedown="handleZoom(evt,'out')"/>
                <use id="reset" xlink:href="#resetDef" x="30" y="36" onmousedown="handleReset()"/>
                <g id="arrowUp" xlink:href="#dirArrow" transform="translate(30 24)" onmousedown="handlePan(0,-1)">
                  <use xlink:href="#rim" fill="#404040">
                        <set attributeName="fill" to="#808080" begin="arrowUp.mouseover" end="arrowUp.mouseout"/>
                  </use>
                  <path fill="none" stroke="white" stroke-width="1.5" d="M0,-3.0v7 M-2.5,-0.5L0,-3.0L2.5,-0.5"/>
                </g>
                <g id="arrowRight" xlink:href="#dirArrow" transform="rotate(90) translate(36 -43)" onmousedown="handlePan(1,0)">
                  <use xlink:href="#rim" fill="#404040">
                        <set attributeName="fill" to="#808080" begin="arrowRight.mouseover" end="arrowRight.mouseout"/>
                  </use>
                  <path fill="none" stroke="white" stroke-width="1.5" d="M0,-3.0v7 M-2.5,-0.5L0,-3.0L2.5,-0.5"/>
                </g>
                <g id="arrowDown" xlink:href="#dirArrow" transform="rotate(180) translate(-30 -48)" onmousedown="handlePan(0,1)">
                  <use xlink:href="#rim" fill="#404040">
                        <set attributeName="fill" to="#808080" begin="arrowDown.mouseover" end="arrowDown.mouseout"/>
                  </use>
                  <path fill="none" stroke="white" stroke-width="1.5" d="M0,-3.0v7 M-2.5,-0.5L0,-3.0L2.5,-0.5"/>
                </g>
                <g id="arrowLeft" xlink:href="#dirArrow" transform="rotate(270) translate(-36 17)" onmousedown="handlePan(-1,0)">
                  <use xlink:href="#rim" fill="#404040">
                        <set attributeName="fill" to="#808080" begin="arrowLeft.mouseover" end="arrowLeft.mouseout"/>
                  </use>
                  <path fill="none" stroke="white" stroke-width="1.5" d="M0,-3.0v7 M-2.5,-0.5L0,-3.0L2.5,-0.5"/>
                </g>
        </g>
        <svg viewBox="0 0 15 15" width="100%" height="30px" preserveAspectRatio="xMaxYMin meet">
         <g id="arrow_out" transform="scale(0.3 0.3)">
          <a xlink:href="_commander-_a_p_i-_commands_8hpp_a0bb64a637cbaa4134e0cc9d1a7453ecf_cgraph_org.svg" target="_base">
           <rect id="button" ry="5" rx="5" y="6" x="6" height="38" width="38"
                fill="#f2f5e9" fill-opacity="0.5" stroke="#606060" stroke-width="1.0"/>
           <path id="arrow"
             d="M 11.500037,31.436501 C 11.940474,20.09759 22.043105,11.32322 32.158766,21.979434 L 37.068811,17.246167 C 37.068811,17.246167 37.088388,32 37.088388,32 L 22.160133,31.978069 C 22.160133,31.978069 26.997745,27.140456 26.997745,27.140456 C 18.528582,18.264221 13.291696,25.230495 11.500037,31.436501 z"
             style="fill:#404040;"/>
          </a>
         </g>
        </svg>
</svg>
