<?xml version="1.0" encoding="UTF-8" standalone="no"?>
<!DOCTYPE svg PUBLIC "-//W3C//DTD SVG 1.1//EN"
 "http://www.w3.org/Graphics/SVG/1.1/DTD/svg11.dtd">
<!-- Generated by graphviz version 5.0.1 (20220820.1526)
 -->
<!-- Title: commander_exportTarget_func Pages: 1 -->
<svg width="812pt" height="138pt"
 viewBox="0.00 0.00 812.00 138.00" xmlns="http://www.w3.org/2000/svg" xmlns:xlink="http://www.w3.org/1999/xlink">
<g id="graph0" class="graph" transform="scale(1 1) rotate(0) translate(4 134)">
<title>commander_exportTarget_func</title>
<!-- Node1 -->
<g id="node1" class="node">
<title>Node1</title>
<g id="a_node1"><a xlink:title="Premade function for not command.">
<polygon fill="#999999" stroke="#666666" points="150,-74 0,-74 0,-55 150,-55 150,-74"/>
<text text-anchor="middle" x="75" y="-62" font-family="Helvetica,sans-Serif" font-size="10.00">commander_exportTarget_func</text>
</a>
</g>
</g>
<!-- Node2 -->
<g id="node2" class="node">
<title>Node2</title>
<g id="a_node2"><a xlink:href="class_argument.html#a3fcba064664dc671c8d32611fb904661" target="_top" xlink:title=" ">
<polygon fill="white" stroke="#666666" points="333,-111 186,-111 186,-92 333,-92 333,-111"/>
<text text-anchor="middle" x="259.5" y="-99" font-family="Helvetica,sans-Serif" font-size="10.00">Argument::getSystemVariable</text>
</a>
</g>
</g>
<!-- Node1&#45;&gt;Node2 -->
<g id="edge1" class="edge">
<title>Node1&#45;&gt;Node2</title>
<path fill="none" stroke="#63b8ff" d="M123,-74.03C146.96,-78.89 176.29,-84.83 201.53,-89.95"/>
<polygon fill="#63b8ff" stroke="#63b8ff" points="200.85,-93.38 211.34,-91.94 202.24,-86.52 200.85,-93.38"/>
</g>
<!-- Node3 -->
<g id="node3" class="node">
<title>Node3</title>
<g id="a_node3"><a xlink:href="class_argument.html#a2258f3363dbb1d462286a41d4ab3b8ad" target="_top" xlink:title=" ">
<polygon fill="white" stroke="#666666" points="314.5,-74 204.5,-74 204.5,-55 314.5,-55 314.5,-74"/>
<text text-anchor="middle" x="259.5" y="-62" font-family="Helvetica,sans-Serif" font-size="10.00">Argument::parseFloat</text>
</a>
</g>
</g>
<!-- Node1&#45;&gt;Node3 -->
<g id="edge2" class="edge">
<title>Node1&#45;&gt;Node3</title>
<path fill="none" stroke="#63b8ff" d="M150.23,-64.5C164.84,-64.5 180.06,-64.5 194.3,-64.5"/>
<polygon fill="#63b8ff" stroke="#63b8ff" points="194.48,-68 204.48,-64.5 194.48,-61 194.48,-68"/>
</g>
<!-- Node11 -->
<g id="node11" class="node">
<title>Node11</title>
<g id="a_node11"><a xlink:href="class_commander.html#a11b7236808d55ed1c497e719117cdf3d" target="_top" xlink:title="Print &#39;Argument error!&#39; to a specified Serial channel.">
<polygon fill="white" stroke="#666666" points="327.5,-36.5 191.5,-36.5 191.5,-6.5 327.5,-6.5 327.5,-36.5"/>
<text text-anchor="start" x="199.5" y="-24.5" font-family="Helvetica,sans-Serif" font-size="10.00">Commander::printArgument</text>
<text text-anchor="middle" x="259.5" y="-13.5" font-family="Helvetica,sans-Serif" font-size="10.00">Error</text>
</a>
</g>
</g>
<!-- Node1&#45;&gt;Node11 -->
<g id="edge13" class="edge">
<title>Node1&#45;&gt;Node11</title>
<path fill="none" stroke="#63b8ff" d="M116.5,-54.96C136.63,-50.22 161.58,-44.34 184.92,-38.84"/>
<polygon fill="#63b8ff" stroke="#63b8ff" points="185.88,-42.21 194.81,-36.51 184.27,-35.39 185.88,-42.21"/>
</g>
<!-- Node4 -->
<g id="node4" class="node">
<title>Node4</title>
<g id="a_node4"><a xlink:href="class_argument.html#a7fab3d983e4a63b93e6f50df82ed6f84" target="_top" xlink:title=" ">
<polygon fill="white" stroke="#666666" points="470,-74 369,-74 369,-55 470,-55 470,-74"/>
<text text-anchor="middle" x="419.5" y="-62" font-family="Helvetica,sans-Serif" font-size="10.00">Argument::findStart</text>
</a>
</g>
</g>
<!-- Node3&#45;&gt;Node4 -->
<g id="edge3" class="edge">
<title>Node3&#45;&gt;Node4</title>
<path fill="none" stroke="#63b8ff" d="M314.87,-64.5C328.95,-64.5 344.19,-64.5 358.54,-64.5"/>
<polygon fill="#63b8ff" stroke="#63b8ff" points="358.8,-68 368.8,-64.5 358.8,-61 358.8,-68"/>
</g>
<!-- Node5 -->
<g id="node5" class="node">
<title>Node5</title>
<g id="a_node5"><a xlink:href="class_argument.html#a41a3be1503f99c0ab973d0c7b45fe2bd" target="_top" xlink:title="Find the start position of a place dependent argument.">
<polygon fill="white" stroke="#666666" points="643,-130 527,-130 527,-111 643,-111 643,-130"/>
<text text-anchor="middle" x="585" y="-118" font-family="Helvetica,sans-Serif" font-size="10.00">Argument::findByPlace</text>
</a>
</g>
</g>
<!-- Node4&#45;&gt;Node5 -->
<g id="edge4" class="edge">
<title>Node4&#45;&gt;Node5</title>
<path fill="none" stroke="#63b8ff" d="M439.1,-74.01C456.15,-82.43 482.27,-94.57 506,-102.5 512.46,-104.66 519.32,-106.65 526.17,-108.46"/>
<polygon fill="#63b8ff" stroke="#63b8ff" points="525.61,-111.93 536.16,-110.99 527.32,-105.15 525.61,-111.93"/>
</g>
<!-- Node7 -->
<g id="node7" class="node">
<title>Node7</title>
<g id="a_node7"><a xlink:href="class_argument.html#a19696736b23d7f4f4c6e4125e67f59a8" target="_top" xlink:title="Find the start position of a long named argument.">
<polygon fill="white" stroke="#666666" points="648,-93 522,-93 522,-74 648,-74 648,-93"/>
<text text-anchor="middle" x="585" y="-81" font-family="Helvetica,sans-Serif" font-size="10.00">Argument::findLongName</text>
</a>
</g>
</g>
<!-- Node4&#45;&gt;Node7 -->
<g id="edge6" class="edge">
<title>Node4&#45;&gt;Node7</title>
<path fill="none" stroke="#63b8ff" d="M470.44,-70.3C483.52,-71.82 497.88,-73.49 511.86,-75.12"/>
<polygon fill="#63b8ff" stroke="#63b8ff" points="511.61,-78.61 521.94,-76.29 512.41,-71.66 511.61,-78.61"/>
</g>
<!-- Node9 -->
<g id="node9" class="node">
<title>Node9</title>
<g id="a_node9"><a xlink:href="class_argument.html#a3ec1ea9ca2d489a987e0fa335daaf061" target="_top" xlink:title="Find the start position of a short named argument.">
<polygon fill="white" stroke="#666666" points="649,-56 521,-56 521,-37 649,-37 649,-56"/>
<text text-anchor="middle" x="585" y="-44" font-family="Helvetica,sans-Serif" font-size="10.00">Argument::findShortName</text>
</a>
</g>
</g>
<!-- Node4&#45;&gt;Node9 -->
<g id="edge9" class="edge">
<title>Node4&#45;&gt;Node9</title>
<path fill="none" stroke="#63b8ff" d="M470.44,-59C483.09,-57.61 496.94,-56.08 510.49,-54.59"/>
<polygon fill="#63b8ff" stroke="#63b8ff" points="511.2,-58.04 520.76,-53.46 510.44,-51.08 511.2,-58.04"/>
</g>
<!-- Node10 -->
<g id="node10" class="node">
<title>Node10</title>
<g id="a_node10"><a xlink:href="class_commander.html#a8c61dd05384f4a5d02932c602f8d8e00" target="_top" xlink:title="Get the instance if a system variable by its name.">
<polygon fill="white" stroke="#666666" points="664,-19 506,-19 506,0 664,0 664,-19"/>
<text text-anchor="middle" x="585" y="-7" font-family="Helvetica,sans-Serif" font-size="10.00">Commander::getSystemVariable</text>
</a>
</g>
</g>
<!-- Node4&#45;&gt;Node10 -->
<g id="edge12" class="edge">
<title>Node4&#45;&gt;Node10</title>
<path fill="none" stroke="#63b8ff" d="M439.8,-54.94C456.88,-46.78 482.65,-35.18 506,-27.5 512.48,-25.37 519.33,-23.4 526.19,-21.6"/>
<polygon fill="#63b8ff" stroke="#63b8ff" points="527.34,-24.92 536.19,-19.09 525.63,-18.13 527.34,-24.92"/>
</g>
<!-- Node6 -->
<g id="node6" class="node">
<title>Node6</title>
<g id="a_node6"><a xlink:href="class_argument.html#af21c1965c64a5f3984cbf42bcf1eec5f" target="_top" xlink:title=" ">
<polygon fill="white" stroke="#666666" points="801,-93 703,-93 703,-74 801,-74 801,-93"/>
<text text-anchor="middle" x="752" y="-81" font-family="Helvetica,sans-Serif" font-size="10.00">Argument::inString</text>
</a>
</g>
</g>
<!-- Node5&#45;&gt;Node6 -->
<g id="edge5" class="edge">
<title>Node5&#45;&gt;Node6</title>
<path fill="none" stroke="#63b8ff" d="M628.49,-110.97C649.87,-106.18 675.97,-100.32 698.58,-95.25"/>
<polygon fill="#63b8ff" stroke="#63b8ff" points="699.37,-98.66 708.37,-93.06 697.84,-91.83 699.37,-98.66"/>
</g>
<!-- Node7&#45;&gt;Node6 -->
<g id="edge7" class="edge">
<title>Node7&#45;&gt;Node6</title>
<path fill="none" stroke="#63b8ff" d="M648.38,-83.5C662.92,-83.5 678.35,-83.5 692.7,-83.5"/>
<polygon fill="#63b8ff" stroke="#63b8ff" points="692.94,-87 702.94,-83.5 692.94,-80 692.94,-87"/>
</g>
<!-- Node8 -->
<g id="node8" class="node">
<title>Node8</title>
<g id="a_node8"><a xlink:href="class_argument.html#a8f98fbce9e55886c0b3a84c6f92572e5" target="_top" xlink:title=" ">
<polygon fill="white" stroke="#666666" points="804,-56 700,-56 700,-37 804,-37 804,-56"/>
<text text-anchor="middle" x="752" y="-44" font-family="Helvetica,sans-Serif" font-size="10.00">Argument::substring</text>
</a>
</g>
</g>
<!-- Node7&#45;&gt;Node8 -->
<g id="edge8" class="edge">
<title>Node7&#45;&gt;Node8</title>
<path fill="none" stroke="#63b8ff" d="M628.49,-73.97C649.87,-69.18 675.97,-63.32 698.58,-58.25"/>
<polygon fill="#63b8ff" stroke="#63b8ff" points="699.37,-61.66 708.37,-56.06 697.84,-54.83 699.37,-61.66"/>
</g>
<!-- Node9&#45;&gt;Node6 -->
<g id="edge10" class="edge">
<title>Node9&#45;&gt;Node6</title>
<path fill="none" stroke="#63b8ff" d="M628.49,-56.03C649.87,-60.82 675.97,-66.68 698.58,-71.75"/>
<polygon fill="#63b8ff" stroke="#63b8ff" points="697.84,-75.17 708.37,-73.94 699.37,-68.34 697.84,-75.17"/>
</g>
<!-- Node9&#45;&gt;Node8 -->
<g id="edge11" class="edge">
<title>Node9&#45;&gt;Node8</title>
<path fill="none" stroke="#63b8ff" d="M649.32,-46.5C662.52,-46.5 676.4,-46.5 689.53,-46.5"/>
<polygon fill="#63b8ff" stroke="#63b8ff" points="689.87,-50 699.87,-46.5 689.87,-43 689.87,-50"/>
</g>
</g>
</svg>
