<?xml version="1.0" encoding="UTF-8" standalone="no"?>
<!DOCTYPE svg PUBLIC "-//W3C//DTD SVG 1.1//EN"
 "http://www.w3.org/Graphics/SVG/1.1/DTD/svg11.dtd">
<!-- Generated by graphviz version 5.0.1 (20220820.1526)
 -->
<!-- Title: commander_digitalWrite_func Pages: 1 -->
<!--zoomable 169 -->
<svg id="main" version="1.1" xmlns="http://www.w3.org/2000/svg" xmlns:xlink="http://www.w3.org/1999/xlink" xml:space="preserve" onload="init(evt)">
<style type="text/css"><![CDATA[
.edge:hover path { stroke: red; }
.edge:hover polygon { stroke: red; fill: red; }
]]></style>
<script type="text/javascript"><![CDATA[
var edges = document.getElementsByTagName('g');
if (edges && edges.length) {
  for (var i=0;i<edges.length;i++) {
    if (edges[i].id.substr(0,4)=='edge') {
      edges[i].setAttribute('class','edge');
    }
  }
}
]]></script>
        <defs>
                <circle id="rim" cx="0" cy="0" r="7"/>
                <circle id="rim2" cx="0" cy="0" r="3.5"/>
                <g id="zoomPlus">
                        <use xlink:href="#rim" fill="#404040">
                                <set attributeName="fill" to="#808080" begin="zoomplus.mouseover" end="zoomplus.mouseout"/>
                        </use>
                        <path d="M-4,0h8M0,-4v8" fill="none" stroke="white" stroke-width="1.5" pointer-events="none"/>
                </g>
                <g id="zoomMin">
                        <use xlink:href="#rim" fill="#404040">
                                <set attributeName="fill" to="#808080" begin="zoomminus.mouseover" end="zoomminus.mouseout"/>
                        </use>
                        <path d="M-4,0h8" fill="none" stroke="white" stroke-width="1.5" pointer-events="none"/>
                </g>
                <g id="dirArrow">
                        <path fill="none" stroke="white" stroke-width="1.5" d="M0,-3.0v7 M-2.5,-0.5L0,-3.0L2.5,-0.5"/>
                </g>
               <g id="resetDef">
                       <use xlink:href="#rim2" fill="#404040">
                               <set attributeName="fill" to="#808080" begin="reset.mouseover" end="reset.mouseout"/>
                       </use>
               </g>
        </defs>

<script type="text/javascript">
var viewWidth = 796;
var viewHeight = 169;
var sectionId = 'dynsection-1';
</script>
<script xlink:href="svgpan.js"/>
<svg id="graph" class="graph">
<g id="viewport">
<title>commander_digitalWrite_func</title>
<!-- Node1 -->
<g id="node1" class="node">
<title>Node1</title>
<g id="a_node1"><a xlink:title="Premade function for digitalWrite command.">
<polygon fill="#999999" stroke="#666666" points="145,-85.5 0,-85.5 0,-66.5 145,-66.5 145,-85.5"/>
<text text-anchor="middle" x="72.5" y="-73.5" font-family="Helvetica,sans-Serif" font-size="10.00">commander_digitalWrite_func</text>
</a>
</g>
</g>
<!-- Node2 -->
<g id="node2" class="node">
<title>Node2</title>
<g id="a_node2"><a xlink:href="class_argument.html#a11a9933e5a65f1cbf0525cd9bd2a29ca" target="_top" xlink:title=" ">
<polygon fill="white" stroke="#666666" points="443.5,-142.5 363.5,-142.5 363.5,-123.5 443.5,-123.5 443.5,-142.5"/>
<text text-anchor="middle" x="403.5" y="-130.5" font-family="Helvetica,sans-Serif" font-size="10.00">Argument::find</text>
</a>
</g>
</g>
<!-- Node1&#45;&gt;Node2 -->
<g id="edge1" class="edge">
<title>Node1&#45;&gt;Node2</title>
<path fill="none" stroke="#63b8ff" d="M96.11,-85.58C117.56,-94.23 150.89,-106.56 181,-113 239.32,-125.48 307.91,-130.18 353.13,-131.95"/>
<polygon fill="#63b8ff" stroke="#63b8ff" points="353.14,-135.45 363.26,-132.31 353.39,-128.45 353.14,-135.45"/>
</g>
<!-- Node7 -->
<g id="node7" class="node">
<title>Node7</title>
<g id="a_node7"><a xlink:href="class_argument.html#a5d0ae00347ef7108f6cab6c270ac5728" target="_top" xlink:title=" ">
<polygon fill="white" stroke="#666666" points="298.5,-67.5 199.5,-67.5 199.5,-48.5 298.5,-48.5 298.5,-67.5"/>
<text text-anchor="middle" x="249" y="-55.5" font-family="Helvetica,sans-Serif" font-size="10.00">Argument::isFound</text>
</a>
</g>
</g>
<!-- Node1&#45;&gt;Node7 -->
<g id="edge8" class="edge">
<title>Node1&#45;&gt;Node7</title>
<path fill="none" stroke="#63b8ff" d="M145.23,-68.6C159.91,-67.09 175.19,-65.51 189.34,-64.05"/>
<polygon fill="#63b8ff" stroke="#63b8ff" points="189.83,-67.52 199.42,-63.01 189.11,-60.56 189.83,-67.52"/>
</g>
<!-- Node8 -->
<g id="node8" class="node">
<title>Node8</title>
<g id="a_node8"><a xlink:href="class_argument.html#aeabd957dda6add595aa860761ea337f1" target="_top" xlink:title=" ">
<polygon fill="white" stroke="#666666" points="298.5,-104.5 199.5,-104.5 199.5,-85.5 298.5,-85.5 298.5,-104.5"/>
<text text-anchor="middle" x="249" y="-92.5" font-family="Helvetica,sans-Serif" font-size="10.00">Argument::parseInt</text>
</a>
</g>
</g>
<!-- Node1&#45;&gt;Node8 -->
<g id="edge9" class="edge">
<title>Node1&#45;&gt;Node8</title>
<path fill="none" stroke="#63b8ff" d="M145.23,-83.81C159.91,-85.41 175.19,-87.07 189.34,-88.61"/>
<polygon fill="#63b8ff" stroke="#63b8ff" points="189.1,-92.11 199.42,-89.71 189.86,-85.15 189.1,-92.11"/>
</g>
<!-- Node12 -->
<g id="node12" class="node">
<title>Node12</title>
<g id="a_node12"><a xlink:href="class_commander.html#a11b7236808d55ed1c497e719117cdf3d" target="_top" xlink:title="Print &#39;Argument error!&#39; to a specified Serial channel.">
<polygon fill="white" stroke="#666666" points="317,-30 181,-30 181,0 317,0 317,-30"/>
<text text-anchor="start" x="189" y="-18" font-family="Helvetica,sans-Serif" font-size="10.00">Commander::printArgument</text>
<text text-anchor="middle" x="249" y="-7" font-family="Helvetica,sans-Serif" font-size="10.00">Error</text>
</a>
</g>
</g>
<!-- Node1&#45;&gt;Node12 -->
<g id="edge15" class="edge">
<title>Node1&#45;&gt;Node12</title>
<path fill="none" stroke="#63b8ff" d="M100.77,-66.47C125.94,-57.67 164.01,-44.36 195.14,-33.48"/>
<polygon fill="#63b8ff" stroke="#63b8ff" points="196.69,-36.64 204.98,-30.04 194.38,-30.04 196.69,-36.64"/>
</g>
<!-- Node3 -->
<g id="node3" class="node">
<title>Node3</title>
<g id="a_node3"><a xlink:href="class_argument.html#a19696736b23d7f4f4c6e4125e67f59a8" target="_top" xlink:title=" ">
<polygon fill="white" stroke="#666666" points="632,-160.5 506,-160.5 506,-141.5 632,-141.5 632,-160.5"/>
<text text-anchor="middle" x="569" y="-148.5" font-family="Helvetica,sans-Serif" font-size="10.00">Argument::findLongName</text>
</a>
</g>
</g>
<!-- Node2&#45;&gt;Node3 -->
<g id="edge2" class="edge">
<title>Node2&#45;&gt;Node3</title>
<path fill="none" stroke="#63b8ff" d="M443.66,-137.31C459.22,-139.02 477.63,-141.05 495.45,-143.01"/>
<polygon fill="#63b8ff" stroke="#63b8ff" points="495.53,-146.54 505.85,-144.16 496.3,-139.58 495.53,-146.54"/>
</g>
<!-- Node6 -->
<g id="node6" class="node">
<title>Node6</title>
<g id="a_node6"><a xlink:href="class_argument.html#a3ec1ea9ca2d489a987e0fa335daaf061" target="_top" xlink:title=" ">
<polygon fill="white" stroke="#666666" points="633,-123.5 505,-123.5 505,-104.5 633,-104.5 633,-123.5"/>
<text text-anchor="middle" x="569" y="-111.5" font-family="Helvetica,sans-Serif" font-size="10.00">Argument::findShortName</text>
</a>
</g>
</g>
<!-- Node2&#45;&gt;Node6 -->
<g id="edge5" class="edge">
<title>Node2&#45;&gt;Node6</title>
<path fill="none" stroke="#63b8ff" d="M443.66,-128.45C458.98,-126.67 477.07,-124.57 494.64,-122.53"/>
<polygon fill="#63b8ff" stroke="#63b8ff" points="495.37,-125.96 504.9,-121.33 494.56,-119.01 495.37,-125.96"/>
</g>
<!-- Node4 -->
<g id="node4" class="node">
<title>Node4</title>
<g id="a_node4"><a xlink:href="class_argument.html#af21c1965c64a5f3984cbf42bcf1eec5f" target="_top" xlink:title=" ">
<polygon fill="white" stroke="#666666" points="785,-160.5 687,-160.5 687,-141.5 785,-141.5 785,-160.5"/>
<text text-anchor="middle" x="736" y="-148.5" font-family="Helvetica,sans-Serif" font-size="10.00">Argument::inString</text>
</a>
</g>
</g>
<!-- Node3&#45;&gt;Node4 -->
<g id="edge3" class="edge">
<title>Node3&#45;&gt;Node4</title>
<path fill="none" stroke="#63b8ff" d="M632.38,-151C646.92,-151 662.35,-151 676.7,-151"/>
<polygon fill="#63b8ff" stroke="#63b8ff" points="676.94,-154.5 686.94,-151 676.94,-147.5 676.94,-154.5"/>
</g>
<!-- Node5 -->
<g id="node5" class="node">
<title>Node5</title>
<g id="a_node5"><a xlink:href="class_argument.html#a8f98fbce9e55886c0b3a84c6f92572e5" target="_top" xlink:title=" ">
<polygon fill="white" stroke="#666666" points="788,-123.5 684,-123.5 684,-104.5 788,-104.5 788,-123.5"/>
<text text-anchor="middle" x="736" y="-111.5" font-family="Helvetica,sans-Serif" font-size="10.00">Argument::substring</text>
</a>
</g>
</g>
<!-- Node3&#45;&gt;Node5 -->
<g id="edge4" class="edge">
<title>Node3&#45;&gt;Node5</title>
<path fill="none" stroke="#63b8ff" d="M612.49,-141.47C633.87,-136.68 659.97,-130.82 682.58,-125.75"/>
<polygon fill="#63b8ff" stroke="#63b8ff" points="683.37,-129.16 692.37,-123.56 681.84,-122.33 683.37,-129.16"/>
</g>
<!-- Node6&#45;&gt;Node4 -->
<g id="edge6" class="edge">
<title>Node6&#45;&gt;Node4</title>
<path fill="none" stroke="#63b8ff" d="M612.49,-123.53C633.87,-128.32 659.97,-134.18 682.58,-139.25"/>
<polygon fill="#63b8ff" stroke="#63b8ff" points="681.84,-142.67 692.37,-141.44 683.37,-135.84 681.84,-142.67"/>
</g>
<!-- Node6&#45;&gt;Node5 -->
<g id="edge7" class="edge">
<title>Node6&#45;&gt;Node5</title>
<path fill="none" stroke="#63b8ff" d="M633.32,-114C646.52,-114 660.4,-114 673.53,-114"/>
<polygon fill="#63b8ff" stroke="#63b8ff" points="673.87,-117.5 683.87,-114 673.87,-110.5 673.87,-117.5"/>
</g>
<!-- Node9 -->
<g id="node9" class="node">
<title>Node9</title>
<g id="a_node9"><a xlink:href="class_argument.html#a7fab3d983e4a63b93e6f50df82ed6f84" target="_top" xlink:title=" ">
<polygon fill="white" stroke="#666666" points="454,-104.5 353,-104.5 353,-85.5 454,-85.5 454,-104.5"/>
<text text-anchor="middle" x="403.5" y="-92.5" font-family="Helvetica,sans-Serif" font-size="10.00">Argument::findStart</text>
</a>
</g>
</g>
<!-- Node8&#45;&gt;Node9 -->
<g id="edge10" class="edge">
<title>Node8&#45;&gt;Node9</title>
<path fill="none" stroke="#63b8ff" d="M298.67,-95C312.63,-95 328.01,-95 342.57,-95"/>
<polygon fill="#63b8ff" stroke="#63b8ff" points="342.98,-98.5 352.98,-95 342.98,-91.5 342.98,-98.5"/>
</g>
<!-- Node9&#45;&gt;Node3 -->
<g id="edge11" class="edge">
<title>Node9&#45;&gt;Node3</title>
<path fill="none" stroke="#63b8ff" d="M431.2,-104.58C438.65,-107.44 446.71,-110.69 454,-114 470.47,-121.48 473.04,-126.69 490,-133 495.81,-135.16 501.97,-137.12 508.17,-138.87"/>
<polygon fill="#63b8ff" stroke="#63b8ff" points="507.35,-142.28 517.92,-141.47 509.15,-135.51 507.35,-142.28"/>
</g>
<!-- Node9&#45;&gt;Node6 -->
<g id="edge13" class="edge">
<title>Node9&#45;&gt;Node6</title>
<path fill="none" stroke="#63b8ff" d="M454.44,-100.8C467.09,-102.27 480.94,-103.88 494.49,-105.46"/>
<polygon fill="#63b8ff" stroke="#63b8ff" points="494.42,-108.97 504.76,-106.65 495.23,-102.02 494.42,-108.97"/>
</g>
<!-- Node10 -->
<g id="node10" class="node">
<title>Node10</title>
<g id="a_node10"><a xlink:href="class_argument.html#a267c2e9b46491f60b264c39e08ad5686" target="_top" xlink:title=" ">
<polygon fill="white" stroke="#666666" points="621,-86.5 517,-86.5 517,-67.5 621,-67.5 621,-86.5"/>
<text text-anchor="middle" x="569" y="-74.5" font-family="Helvetica,sans-Serif" font-size="10.00">Argument::findPlace</text>
</a>
</g>
</g>
<!-- Node9&#45;&gt;Node10 -->
<g id="edge12" class="edge">
<title>Node9&#45;&gt;Node10</title>
<path fill="none" stroke="#63b8ff" d="M454.44,-89.5C471.01,-87.68 489.64,-85.63 506.94,-83.72"/>
<polygon fill="#63b8ff" stroke="#63b8ff" points="507.39,-87.19 516.95,-82.62 506.63,-80.24 507.39,-87.19"/>
</g>
<!-- Node11 -->
<g id="node11" class="node">
<title>Node11</title>
<g id="a_node11"><a xlink:href="class_commander.html#aed49189003860bfa85ab3bf8d320c5f6" target="_top" xlink:title="Get the instance if a system variable by its name.">
<polygon fill="white" stroke="#666666" points="648,-49.5 490,-49.5 490,-30.5 648,-30.5 648,-49.5"/>
<text text-anchor="middle" x="569" y="-37.5" font-family="Helvetica,sans-Serif" font-size="10.00">Commander::getSystemVariable</text>
</a>
</g>
</g>
<!-- Node9&#45;&gt;Node11 -->
<g id="edge14" class="edge">
<title>Node9&#45;&gt;Node11</title>
<path fill="none" stroke="#63b8ff" d="M423.8,-85.44C440.88,-77.28 466.65,-65.68 490,-58 496.48,-55.87 503.33,-53.9 510.19,-52.1"/>
<polygon fill="#63b8ff" stroke="#63b8ff" points="511.34,-55.42 520.19,-49.59 509.63,-48.63 511.34,-55.42"/>
</g>
</g>
</svg>
        <g id="navigator" transform="translate(0 0)" fill="#404254">
                <rect fill="#f2f5e9" fill-opacity="0.5" stroke="#606060" stroke-width=".5" x="0" y="0" width="60" height="60"/>
                <use id="zoomplus" xlink:href="#zoomPlus" x="17" y="9" onmousedown="handleZoom(evt,'in')"/>
                <use id="zoomminus" xlink:href="#zoomMin" x="42" y="9" onmousedown="handleZoom(evt,'out')"/>
                <use id="reset" xlink:href="#resetDef" x="30" y="36" onmousedown="handleReset()"/>
                <g id="arrowUp" xlink:href="#dirArrow" transform="translate(30 24)" onmousedown="handlePan(0,-1)">
                  <use xlink:href="#rim" fill="#404040">
                        <set attributeName="fill" to="#808080" begin="arrowUp.mouseover" end="arrowUp.mouseout"/>
                  </use>
                  <path fill="none" stroke="white" stroke-width="1.5" d="M0,-3.0v7 M-2.5,-0.5L0,-3.0L2.5,-0.5"/>
                </g>
                <g id="arrowRight" xlink:href="#dirArrow" transform="rotate(90) translate(36 -43)" onmousedown="handlePan(1,0)">
                  <use xlink:href="#rim" fill="#404040">
                        <set attributeName="fill" to="#808080" begin="arrowRight.mouseover" end="arrowRight.mouseout"/>
                  </use>
                  <path fill="none" stroke="white" stroke-width="1.5" d="M0,-3.0v7 M-2.5,-0.5L0,-3.0L2.5,-0.5"/>
                </g>
                <g id="arrowDown" xlink:href="#dirArrow" transform="rotate(180) translate(-30 -48)" onmousedown="handlePan(0,1)">
                  <use xlink:href="#rim" fill="#404040">
                        <set attributeName="fill" to="#808080" begin="arrowDown.mouseover" end="arrowDown.mouseout"/>
                  </use>
                  <path fill="none" stroke="white" stroke-width="1.5" d="M0,-3.0v7 M-2.5,-0.5L0,-3.0L2.5,-0.5"/>
                </g>
                <g id="arrowLeft" xlink:href="#dirArrow" transform="rotate(270) translate(-36 17)" onmousedown="handlePan(-1,0)">
                  <use xlink:href="#rim" fill="#404040">
                        <set attributeName="fill" to="#808080" begin="arrowLeft.mouseover" end="arrowLeft.mouseout"/>
                  </use>
                  <path fill="none" stroke="white" stroke-width="1.5" d="M0,-3.0v7 M-2.5,-0.5L0,-3.0L2.5,-0.5"/>
                </g>
        </g>
        <svg viewBox="0 0 15 15" width="100%" height="30px" preserveAspectRatio="xMaxYMin meet">
         <g id="arrow_out" transform="scale(0.3 0.3)">
          <a xlink:href="_commander-_a_p_i-_digital-_i_o-_commands_8cpp_a6eccd6af580b31fb8ef7e6e038a0a322_cgraph_org.svg" target="_base">
           <rect id="button" ry="5" rx="5" y="6" x="6" height="38" width="38"
                fill="#f2f5e9" fill-opacity="0.5" stroke="#606060" stroke-width="1.0"/>
           <path id="arrow"
             d="M 11.500037,31.436501 C 11.940474,20.09759 22.043105,11.32322 32.158766,21.979434 L 37.068811,17.246167 C 37.068811,17.246167 37.088388,32 37.088388,32 L 22.160133,31.978069 C 22.160133,31.978069 26.997745,27.140456 26.997745,27.140456 C 18.528582,18.264221 13.291696,25.230495 11.500037,31.436501 z"
             style="fill:#404040;"/>
          </a>
         </g>
        </svg>
</svg>
