<?xml version="1.0" encoding="UTF-8" standalone="no"?>
<!DOCTYPE svg PUBLIC "-//W3C//DTD SVG 1.1//EN"
 "http://www.w3.org/Graphics/SVG/1.1/DTD/svg11.dtd">
<!-- Generated by graphviz version 5.0.1 (20220820.1526)
 -->
<!-- Title: commander_export_func Pages: 1 -->
<svg width="774pt" height="138pt"
 viewBox="0.00 0.00 774.00 138.00" xmlns="http://www.w3.org/2000/svg" xmlns:xlink="http://www.w3.org/1999/xlink">
<g id="graph0" class="graph" transform="scale(1 1) rotate(0) translate(4 134)">
<title>commander_export_func</title>
<!-- Node1 -->
<g id="node1" class="node">
<title>Node1</title>
<g id="a_node1"><a xlink:title="Premade function for not command.">
<polygon fill="#999999" stroke="#666666" points="123,-52 0,-52 0,-33 123,-33 123,-52"/>
<text text-anchor="middle" x="61.5" y="-40" font-family="Helvetica,sans-Serif" font-size="10.00">commander_export_func</text>
</a>
</g>
</g>
<!-- Node2 -->
<g id="node2" class="node">
<title>Node2</title>
<g id="a_node2"><a xlink:href="class_argument.html#a2258f3363dbb1d462286a41d4ab3b8ad" target="_top" xlink:title=" ">
<polygon fill="white" stroke="#666666" points="282,-74 172,-74 172,-55 282,-55 282,-74"/>
<text text-anchor="middle" x="227" y="-62" font-family="Helvetica,sans-Serif" font-size="10.00">Argument::parseFloat</text>
</a>
</g>
</g>
<!-- Node1&#45;&gt;Node2 -->
<g id="edge1" class="edge">
<title>Node1&#45;&gt;Node2</title>
<path fill="none" stroke="#63b8ff" d="M123.38,-50.69C135.92,-52.38 149.16,-54.16 161.81,-55.86"/>
<polygon fill="#63b8ff" stroke="#63b8ff" points="161.42,-59.34 171.8,-57.21 162.36,-52.4 161.42,-59.34"/>
</g>
<!-- Node10 -->
<g id="node10" class="node">
<title>Node10</title>
<g id="a_node10"><a xlink:href="class_commander.html#a11b7236808d55ed1c497e719117cdf3d" target="_top" xlink:title="Print &#39;Argument error!&#39; to a specified Serial channel.">
<polygon fill="white" stroke="#666666" points="295,-36.5 159,-36.5 159,-6.5 295,-6.5 295,-36.5"/>
<text text-anchor="start" x="167" y="-24.5" font-family="Helvetica,sans-Serif" font-size="10.00">Commander::printArgument</text>
<text text-anchor="middle" x="227" y="-13.5" font-family="Helvetica,sans-Serif" font-size="10.00">Error</text>
</a>
</g>
</g>
<!-- Node1&#45;&gt;Node10 -->
<g id="edge11" class="edge">
<title>Node1&#45;&gt;Node10</title>
<path fill="none" stroke="#63b8ff" d="M123.38,-34.68C131.67,-33.62 140.26,-32.51 148.79,-31.42"/>
<polygon fill="#63b8ff" stroke="#63b8ff" points="149.28,-34.88 158.75,-30.14 148.39,-27.94 149.28,-34.88"/>
</g>
<!-- Node3 -->
<g id="node3" class="node">
<title>Node3</title>
<g id="a_node3"><a xlink:href="class_argument.html#a7fab3d983e4a63b93e6f50df82ed6f84" target="_top" xlink:title=" ">
<polygon fill="white" stroke="#666666" points="432,-74 331,-74 331,-55 432,-55 432,-74"/>
<text text-anchor="middle" x="381.5" y="-62" font-family="Helvetica,sans-Serif" font-size="10.00">Argument::findStart</text>
</a>
</g>
</g>
<!-- Node2&#45;&gt;Node3 -->
<g id="edge2" class="edge">
<title>Node2&#45;&gt;Node3</title>
<path fill="none" stroke="#63b8ff" d="M282.2,-64.5C294.69,-64.5 308.05,-64.5 320.77,-64.5"/>
<polygon fill="#63b8ff" stroke="#63b8ff" points="320.8,-68 330.8,-64.5 320.8,-61 320.8,-68"/>
</g>
<!-- Node4 -->
<g id="node4" class="node">
<title>Node4</title>
<g id="a_node4"><a xlink:href="class_argument.html#a19696736b23d7f4f4c6e4125e67f59a8" target="_top" xlink:title=" ">
<polygon fill="white" stroke="#666666" points="610,-130 484,-130 484,-111 610,-111 610,-130"/>
<text text-anchor="middle" x="547" y="-118" font-family="Helvetica,sans-Serif" font-size="10.00">Argument::findLongName</text>
</a>
</g>
</g>
<!-- Node3&#45;&gt;Node4 -->
<g id="edge3" class="edge">
<title>Node3&#45;&gt;Node4</title>
<path fill="none" stroke="#63b8ff" d="M402.17,-74.15C419.26,-82.26 444.85,-93.73 468,-101.5 475.43,-103.99 483.37,-106.31 491.22,-108.4"/>
<polygon fill="#63b8ff" stroke="#63b8ff" points="490.52,-111.84 501.08,-110.94 492.26,-105.06 490.52,-111.84"/>
</g>
<!-- Node7 -->
<g id="node7" class="node">
<title>Node7</title>
<g id="a_node7"><a xlink:href="class_argument.html#a267c2e9b46491f60b264c39e08ad5686" target="_top" xlink:title=" ">
<polygon fill="white" stroke="#666666" points="599,-56 495,-56 495,-37 599,-37 599,-56"/>
<text text-anchor="middle" x="547" y="-44" font-family="Helvetica,sans-Serif" font-size="10.00">Argument::findPlace</text>
</a>
</g>
</g>
<!-- Node3&#45;&gt;Node7 -->
<g id="edge6" class="edge">
<title>Node3&#45;&gt;Node7</title>
<path fill="none" stroke="#63b8ff" d="M432.44,-59C449.01,-57.18 467.64,-55.13 484.94,-53.22"/>
<polygon fill="#63b8ff" stroke="#63b8ff" points="485.39,-56.69 494.95,-52.12 484.63,-49.74 485.39,-56.69"/>
</g>
<!-- Node8 -->
<g id="node8" class="node">
<title>Node8</title>
<g id="a_node8"><a xlink:href="class_argument.html#a3ec1ea9ca2d489a987e0fa335daaf061" target="_top" xlink:title=" ">
<polygon fill="white" stroke="#666666" points="611,-93 483,-93 483,-74 611,-74 611,-93"/>
<text text-anchor="middle" x="547" y="-81" font-family="Helvetica,sans-Serif" font-size="10.00">Argument::findShortName</text>
</a>
</g>
</g>
<!-- Node3&#45;&gt;Node8 -->
<g id="edge7" class="edge">
<title>Node3&#45;&gt;Node8</title>
<path fill="none" stroke="#63b8ff" d="M432.44,-70.3C445.09,-71.77 458.94,-73.38 472.49,-74.96"/>
<polygon fill="#63b8ff" stroke="#63b8ff" points="472.42,-78.47 482.76,-76.15 473.23,-71.52 472.42,-78.47"/>
</g>
<!-- Node9 -->
<g id="node9" class="node">
<title>Node9</title>
<g id="a_node9"><a xlink:href="class_commander.html#aed49189003860bfa85ab3bf8d320c5f6" target="_top" xlink:title="Get the instance if a system variable by its name.">
<polygon fill="white" stroke="#666666" points="626,-19 468,-19 468,0 626,0 626,-19"/>
<text text-anchor="middle" x="547" y="-7" font-family="Helvetica,sans-Serif" font-size="10.00">Commander::getSystemVariable</text>
</a>
</g>
</g>
<!-- Node3&#45;&gt;Node9 -->
<g id="edge10" class="edge">
<title>Node3&#45;&gt;Node9</title>
<path fill="none" stroke="#63b8ff" d="M401.8,-54.94C418.88,-46.78 444.65,-35.18 468,-27.5 474.48,-25.37 481.33,-23.4 488.19,-21.6"/>
<polygon fill="#63b8ff" stroke="#63b8ff" points="489.34,-24.92 498.19,-19.09 487.63,-18.13 489.34,-24.92"/>
</g>
<!-- Node5 -->
<g id="node5" class="node">
<title>Node5</title>
<g id="a_node5"><a xlink:href="class_argument.html#af21c1965c64a5f3984cbf42bcf1eec5f" target="_top" xlink:title=" ">
<polygon fill="white" stroke="#666666" points="763,-130 665,-130 665,-111 763,-111 763,-130"/>
<text text-anchor="middle" x="714" y="-118" font-family="Helvetica,sans-Serif" font-size="10.00">Argument::inString</text>
</a>
</g>
</g>
<!-- Node4&#45;&gt;Node5 -->
<g id="edge4" class="edge">
<title>Node4&#45;&gt;Node5</title>
<path fill="none" stroke="#63b8ff" d="M610.38,-120.5C624.92,-120.5 640.35,-120.5 654.7,-120.5"/>
<polygon fill="#63b8ff" stroke="#63b8ff" points="654.94,-124 664.94,-120.5 654.94,-117 654.94,-124"/>
</g>
<!-- Node6 -->
<g id="node6" class="node">
<title>Node6</title>
<g id="a_node6"><a xlink:href="class_argument.html#a8f98fbce9e55886c0b3a84c6f92572e5" target="_top" xlink:title=" ">
<polygon fill="white" stroke="#666666" points="766,-93 662,-93 662,-74 766,-74 766,-93"/>
<text text-anchor="middle" x="714" y="-81" font-family="Helvetica,sans-Serif" font-size="10.00">Argument::substring</text>
</a>
</g>
</g>
<!-- Node4&#45;&gt;Node6 -->
<g id="edge5" class="edge">
<title>Node4&#45;&gt;Node6</title>
<path fill="none" stroke="#63b8ff" d="M590.49,-110.97C611.87,-106.18 637.97,-100.32 660.58,-95.25"/>
<polygon fill="#63b8ff" stroke="#63b8ff" points="661.37,-98.66 670.37,-93.06 659.84,-91.83 661.37,-98.66"/>
</g>
<!-- Node8&#45;&gt;Node5 -->
<g id="edge8" class="edge">
<title>Node8&#45;&gt;Node5</title>
<path fill="none" stroke="#63b8ff" d="M590.49,-93.03C611.87,-97.82 637.97,-103.68 660.58,-108.75"/>
<polygon fill="#63b8ff" stroke="#63b8ff" points="659.84,-112.17 670.37,-110.94 661.37,-105.34 659.84,-112.17"/>
</g>
<!-- Node8&#45;&gt;Node6 -->
<g id="edge9" class="edge">
<title>Node8&#45;&gt;Node6</title>
<path fill="none" stroke="#63b8ff" d="M611.32,-83.5C624.52,-83.5 638.4,-83.5 651.53,-83.5"/>
<polygon fill="#63b8ff" stroke="#63b8ff" points="651.87,-87 661.87,-83.5 651.87,-80 651.87,-87"/>
</g>
</g>
</svg>
