<?xml version="1.0" encoding="UTF-8" standalone="no"?>
<!DOCTYPE svg PUBLIC "-//W3C//DTD SVG 1.1//EN"
 "http://www.w3.org/Graphics/SVG/1.1/DTD/svg11.dtd">
<!-- Generated by graphviz version 5.0.1 (20220820.1526)
 -->
<!-- Title: src/Commander&#45;IO.hpp Pages: 1 -->
<svg width="271pt" height="82pt"
 viewBox="0.00 0.00 271.00 82.00" xmlns="http://www.w3.org/2000/svg" xmlns:xlink="http://www.w3.org/1999/xlink">
<g id="graph0" class="graph" transform="scale(1 1) rotate(0) translate(4 78)">
<title>src/Commander&#45;IO.hpp</title>
<!-- Node1 -->
<g id="node1" class="node">
<title>Node1</title>
<g id="a_node1"><a xlink:title=" ">
<polygon fill="#999999" stroke="#666666" points="151,-74 34,-74 34,-55 151,-55 151,-74"/>
<text text-anchor="middle" x="92.5" y="-62" font-family="Helvetica,sans-Serif" font-size="10.00">src/Commander&#45;IO.hpp</text>
</a>
</g>
</g>
<!-- Node2 -->
<g id="node2" class="node">
<title>Node2</title>
<g id="a_node2"><a xlink:title=" ">
<polygon fill="#e0e0e0" stroke="#999999" points="49,-19 0,-19 0,0 49,0 49,-19"/>
<text text-anchor="middle" x="24.5" y="-7" font-family="Helvetica,sans-Serif" font-size="10.00">stdint.h</text>
</a>
</g>
</g>
<!-- Node1&#45;&gt;Node2 -->
<g id="edge1" class="edge">
<title>Node1&#45;&gt;Node2</title>
<path fill="none" stroke="#63b8ff" d="M81.57,-54.98C71.42,-47.07 56.08,-35.11 43.85,-25.58"/>
<polygon fill="#63b8ff" stroke="#63b8ff" points="45.66,-22.56 35.62,-19.17 41.36,-28.08 45.66,-22.56"/>
</g>
<!-- Node3 -->
<g id="node3" class="node">
<title>Node3</title>
<g id="a_node3"><a xlink:title=" ">
<polygon fill="#e0e0e0" stroke="#999999" points="118,-19 67,-19 67,0 118,0 118,-19"/>
<text text-anchor="middle" x="92.5" y="-7" font-family="Helvetica,sans-Serif" font-size="10.00">stddef.h</text>
</a>
</g>
</g>
<!-- Node1&#45;&gt;Node3 -->
<g id="edge2" class="edge">
<title>Node1&#45;&gt;Node3</title>
<path fill="none" stroke="#63b8ff" d="M92.5,-54.75C92.5,-47.8 92.5,-37.85 92.5,-29.13"/>
<polygon fill="#63b8ff" stroke="#63b8ff" points="96,-29.09 92.5,-19.09 89,-29.09 96,-29.09"/>
</g>
<!-- Node4 -->
<g id="node4" class="node">
<title>Node4</title>
<g id="a_node4"><a xlink:href="_commander-_settings_8hpp.html" target="_top" xlink:title=" ">
<polygon fill="white" stroke="#666666" points="263,-19 136,-19 136,0 263,0 263,-19"/>
<text text-anchor="middle" x="199.5" y="-7" font-family="Helvetica,sans-Serif" font-size="10.00">Commander&#45;Settings.hpp</text>
</a>
</g>
</g>
<!-- Node1&#45;&gt;Node4 -->
<g id="edge3" class="edge">
<title>Node1&#45;&gt;Node4</title>
<path fill="none" stroke="#63b8ff" d="M109.69,-54.98C126.75,-46.54 153.13,-33.47 172.9,-23.68"/>
<polygon fill="#63b8ff" stroke="#63b8ff" points="174.59,-26.75 182,-19.17 171.48,-20.47 174.59,-26.75"/>
</g>
</g>
</svg>
