<?xml version="1.0" encoding="UTF-8" standalone="no"?>
<!DOCTYPE svg PUBLIC "-//W3C//DTD SVG 1.1//EN"
 "http://www.w3.org/Graphics/SVG/1.1/DTD/svg11.dtd">
<!-- Generated by graphviz version 5.0.1 (20220820.1526)
 -->
<!-- Title: src/Commander&#45;Settings.hpp Pages: 1 -->
<svg width="266pt" height="192pt"
 viewBox="0.00 0.00 266.00 192.00" xmlns="http://www.w3.org/2000/svg" xmlns:xlink="http://www.w3.org/1999/xlink">
<g id="graph0" class="graph" transform="scale(1 1) rotate(0) translate(4 188)">
<title>src/Commander&#45;Settings.hpp</title>
<!-- Node1 -->
<g id="node1" class="node">
<title>Node1</title>
<g id="a_node1"><a xlink:title=" ">
<polygon fill="#999999" stroke="#666666" points="176,-184 33,-184 33,-165 176,-165 176,-184"/>
<text text-anchor="middle" x="104.5" y="-172" font-family="Helvetica,sans-Serif" font-size="10.00">src/Commander&#45;Settings.hpp</text>
</a>
</g>
</g>
<!-- Node2 -->
<g id="node2" class="node">
<title>Node2</title>
<g id="a_node2"><a xlink:href="_commander-_a_p_i_8hpp.html" target="_top" xlink:title=" ">
<polygon fill="white" stroke="#666666" points="123,-74 0,-74 0,-55 123,-55 123,-74"/>
<text text-anchor="middle" x="61.5" y="-62" font-family="Helvetica,sans-Serif" font-size="10.00">src/Commander&#45;API.hpp</text>
</a>
</g>
</g>
<!-- Node1&#45;&gt;Node2 -->
<g id="edge1" class="edge">
<title>Node1&#45;&gt;Node2</title>
<path fill="none" stroke="#63b8ff" d="M94.58,-156.02C90.23,-147.95 85.27,-138.15 81.5,-129 73.66,-109.98 67.05,-86.71 63.75,-74.3"/>
<polygon fill="#63b8ff" stroke="#63b8ff" points="91.56,-157.79 99.46,-164.85 97.68,-154.4 91.56,-157.79"/>
</g>
<!-- Node4 -->
<g id="node4" class="node">
<title>Node4</title>
<g id="a_node4"><a xlink:href="_commander-_i_o_8hpp.html" target="_top" xlink:title=" ">
<polygon fill="white" stroke="#666666" points="207,-129 90,-129 90,-110 207,-110 207,-129"/>
<text text-anchor="middle" x="148.5" y="-117" font-family="Helvetica,sans-Serif" font-size="10.00">src/Commander&#45;IO.hpp</text>
</a>
</g>
</g>
<!-- Node1&#45;&gt;Node4 -->
<g id="edge3" class="edge">
<title>Node1&#45;&gt;Node4</title>
<path fill="none" stroke="#63b8ff" d="M118.23,-156.96C125.9,-147.72 135.13,-136.6 141.37,-129.09"/>
<polygon fill="#63b8ff" stroke="#63b8ff" points="115.46,-154.82 111.77,-164.75 120.85,-159.29 115.46,-154.82"/>
</g>
<!-- Node3 -->
<g id="node3" class="node">
<title>Node3</title>
<g id="a_node3"><a xlink:href="_commander-_a_p_i_8cpp.html" target="_top" xlink:title=" ">
<polygon fill="white" stroke="#666666" points="123,-19 0,-19 0,0 123,0 123,-19"/>
<text text-anchor="middle" x="61.5" y="-7" font-family="Helvetica,sans-Serif" font-size="10.00">src/Commander&#45;API.cpp</text>
</a>
</g>
</g>
<!-- Node2&#45;&gt;Node3 -->
<g id="edge2" class="edge">
<title>Node2&#45;&gt;Node3</title>
<path fill="none" stroke="#63b8ff" d="M61.5,-44.66C61.5,-35.93 61.5,-25.99 61.5,-19.09"/>
<polygon fill="#63b8ff" stroke="#63b8ff" points="58,-44.75 61.5,-54.75 65,-44.75 58,-44.75"/>
</g>
<!-- Node4&#45;&gt;Node2 -->
<g id="edge4" class="edge">
<title>Node4&#45;&gt;Node2</title>
<path fill="none" stroke="#63b8ff" d="M125.84,-104.7C109.99,-95.04 89.31,-82.44 75.73,-74.17"/>
<polygon fill="#63b8ff" stroke="#63b8ff" points="124.16,-107.77 134.52,-109.98 127.8,-101.79 124.16,-107.77"/>
</g>
<!-- Node5 -->
<g id="node5" class="node">
<title>Node5</title>
<g id="a_node5"><a xlink:href="_commander-_i_o_8cpp.html" target="_top" xlink:title=" ">
<polygon fill="white" stroke="#666666" points="258,-74 141,-74 141,-55 258,-55 258,-74"/>
<text text-anchor="middle" x="199.5" y="-62" font-family="Helvetica,sans-Serif" font-size="10.00">src/Commander&#45;IO.cpp</text>
</a>
</g>
</g>
<!-- Node4&#45;&gt;Node5 -->
<g id="edge5" class="edge">
<title>Node4&#45;&gt;Node5</title>
<path fill="none" stroke="#63b8ff" d="M163.88,-102.52C172.87,-93.18 183.86,-81.75 191.24,-74.09"/>
<polygon fill="#63b8ff" stroke="#63b8ff" points="161.33,-100.12 156.92,-109.75 166.38,-104.97 161.33,-100.12"/>
</g>
</g>
</svg>
