<?xml version="1.0" encoding="UTF-8" standalone="no"?>
<!DOCTYPE svg PUBLIC "-//W3C//DTD SVG 1.1//EN"
 "http://www.w3.org/Graphics/SVG/1.1/DTD/svg11.dtd">
<!-- Generated by graphviz version 5.0.1 (20220820.1526)
 -->
<!-- Title: commander_not_func Pages: 1 -->
<svg width="761pt" height="138pt"
 viewBox="0.00 0.00 761.00 138.00" xmlns="http://www.w3.org/2000/svg" xmlns:xlink="http://www.w3.org/1999/xlink">
<g id="graph0" class="graph" transform="scale(1 1) rotate(0) translate(4 134)">
<title>commander_not_func</title>
<!-- Node1 -->
<g id="node1" class="node">
<title>Node1</title>
<g id="a_node1"><a xlink:title="Premade function for not command.">
<polygon fill="#999999" stroke="#666666" points="110,-52 0,-52 0,-33 110,-33 110,-52"/>
<text text-anchor="middle" x="55" y="-40" font-family="Helvetica,sans-Serif" font-size="10.00">commander_not_func</text>
</a>
</g>
</g>
<!-- Node2 -->
<g id="node2" class="node">
<title>Node2</title>
<g id="a_node2"><a xlink:href="class_argument.html#aeabd957dda6add595aa860761ea337f1" target="_top" xlink:title=" ">
<polygon fill="white" stroke="#666666" points="263.5,-74 164.5,-74 164.5,-55 263.5,-55 263.5,-74"/>
<text text-anchor="middle" x="214" y="-62" font-family="Helvetica,sans-Serif" font-size="10.00">Argument::parseInt</text>
</a>
</g>
</g>
<!-- Node1&#45;&gt;Node2 -->
<g id="edge1" class="edge">
<title>Node1&#45;&gt;Node2</title>
<path fill="none" stroke="#63b8ff" d="M110.03,-50.07C124.23,-52.06 139.63,-54.22 154.07,-56.24"/>
<polygon fill="#63b8ff" stroke="#63b8ff" points="154.01,-59.77 164.39,-57.69 154.98,-52.84 154.01,-59.77"/>
</g>
<!-- Node10 -->
<g id="node10" class="node">
<title>Node10</title>
<g id="a_node10"><a xlink:href="class_commander.html#a11b7236808d55ed1c497e719117cdf3d" target="_top" xlink:title="Print &#39;Argument error!&#39; to a specified Serial channel.">
<polygon fill="white" stroke="#666666" points="282,-36.5 146,-36.5 146,-6.5 282,-6.5 282,-36.5"/>
<text text-anchor="start" x="154" y="-24.5" font-family="Helvetica,sans-Serif" font-size="10.00">Commander::printArgument</text>
<text text-anchor="middle" x="214" y="-13.5" font-family="Helvetica,sans-Serif" font-size="10.00">Error</text>
</a>
</g>
</g>
<!-- Node1&#45;&gt;Node10 -->
<g id="edge12" class="edge">
<title>Node1&#45;&gt;Node10</title>
<path fill="none" stroke="#63b8ff" d="M110.03,-35.27C118.32,-34.16 127.01,-33 135.68,-31.84"/>
<polygon fill="#63b8ff" stroke="#63b8ff" points="136.38,-35.28 145.83,-30.48 135.45,-28.34 136.38,-35.28"/>
</g>
<!-- Node3 -->
<g id="node3" class="node">
<title>Node3</title>
<g id="a_node3"><a xlink:href="class_argument.html#a7fab3d983e4a63b93e6f50df82ed6f84" target="_top" xlink:title=" ">
<polygon fill="white" stroke="#666666" points="419,-74 318,-74 318,-55 419,-55 419,-74"/>
<text text-anchor="middle" x="368.5" y="-62" font-family="Helvetica,sans-Serif" font-size="10.00">Argument::findStart</text>
</a>
</g>
</g>
<!-- Node2&#45;&gt;Node3 -->
<g id="edge2" class="edge">
<title>Node2&#45;&gt;Node3</title>
<path fill="none" stroke="#63b8ff" d="M263.67,-64.5C277.63,-64.5 293.01,-64.5 307.57,-64.5"/>
<polygon fill="#63b8ff" stroke="#63b8ff" points="307.98,-68 317.98,-64.5 307.98,-61 307.98,-68"/>
</g>
<!-- Node4 -->
<g id="node4" class="node">
<title>Node4</title>
<g id="a_node4"><a xlink:href="class_argument.html#a41a3be1503f99c0ab973d0c7b45fe2bd" target="_top" xlink:title="Find the start position of a place dependent argument.">
<polygon fill="white" stroke="#666666" points="592,-130 476,-130 476,-111 592,-111 592,-130"/>
<text text-anchor="middle" x="534" y="-118" font-family="Helvetica,sans-Serif" font-size="10.00">Argument::findByPlace</text>
</a>
</g>
</g>
<!-- Node3&#45;&gt;Node4 -->
<g id="edge3" class="edge">
<title>Node3&#45;&gt;Node4</title>
<path fill="none" stroke="#63b8ff" d="M388.1,-74.01C405.15,-82.43 431.27,-94.57 455,-102.5 461.46,-104.66 468.32,-106.65 475.17,-108.46"/>
<polygon fill="#63b8ff" stroke="#63b8ff" points="474.61,-111.93 485.16,-110.99 476.32,-105.15 474.61,-111.93"/>
</g>
<!-- Node6 -->
<g id="node6" class="node">
<title>Node6</title>
<g id="a_node6"><a xlink:href="class_argument.html#a19696736b23d7f4f4c6e4125e67f59a8" target="_top" xlink:title="Find the start position of a long named argument.">
<polygon fill="white" stroke="#666666" points="597,-93 471,-93 471,-74 597,-74 597,-93"/>
<text text-anchor="middle" x="534" y="-81" font-family="Helvetica,sans-Serif" font-size="10.00">Argument::findLongName</text>
</a>
</g>
</g>
<!-- Node3&#45;&gt;Node6 -->
<g id="edge5" class="edge">
<title>Node3&#45;&gt;Node6</title>
<path fill="none" stroke="#63b8ff" d="M419.44,-70.3C432.52,-71.82 446.88,-73.49 460.86,-75.12"/>
<polygon fill="#63b8ff" stroke="#63b8ff" points="460.61,-78.61 470.94,-76.29 461.41,-71.66 460.61,-78.61"/>
</g>
<!-- Node8 -->
<g id="node8" class="node">
<title>Node8</title>
<g id="a_node8"><a xlink:href="class_argument.html#a3ec1ea9ca2d489a987e0fa335daaf061" target="_top" xlink:title="Find the start position of a short named argument.">
<polygon fill="white" stroke="#666666" points="598,-56 470,-56 470,-37 598,-37 598,-56"/>
<text text-anchor="middle" x="534" y="-44" font-family="Helvetica,sans-Serif" font-size="10.00">Argument::findShortName</text>
</a>
</g>
</g>
<!-- Node3&#45;&gt;Node8 -->
<g id="edge8" class="edge">
<title>Node3&#45;&gt;Node8</title>
<path fill="none" stroke="#63b8ff" d="M419.44,-59C432.09,-57.61 445.94,-56.08 459.49,-54.59"/>
<polygon fill="#63b8ff" stroke="#63b8ff" points="460.2,-58.04 469.76,-53.46 459.44,-51.08 460.2,-58.04"/>
</g>
<!-- Node9 -->
<g id="node9" class="node">
<title>Node9</title>
<g id="a_node9"><a xlink:href="class_commander.html#a8c61dd05384f4a5d02932c602f8d8e00" target="_top" xlink:title="Get the instance if a system variable by its name.">
<polygon fill="white" stroke="#666666" points="613,-19 455,-19 455,0 613,0 613,-19"/>
<text text-anchor="middle" x="534" y="-7" font-family="Helvetica,sans-Serif" font-size="10.00">Commander::getSystemVariable</text>
</a>
</g>
</g>
<!-- Node3&#45;&gt;Node9 -->
<g id="edge11" class="edge">
<title>Node3&#45;&gt;Node9</title>
<path fill="none" stroke="#63b8ff" d="M388.8,-54.94C405.88,-46.78 431.65,-35.18 455,-27.5 461.48,-25.37 468.33,-23.4 475.19,-21.6"/>
<polygon fill="#63b8ff" stroke="#63b8ff" points="476.34,-24.92 485.19,-19.09 474.63,-18.13 476.34,-24.92"/>
</g>
<!-- Node5 -->
<g id="node5" class="node">
<title>Node5</title>
<g id="a_node5"><a xlink:href="class_argument.html#af21c1965c64a5f3984cbf42bcf1eec5f" target="_top" xlink:title=" ">
<polygon fill="white" stroke="#666666" points="750,-93 652,-93 652,-74 750,-74 750,-93"/>
<text text-anchor="middle" x="701" y="-81" font-family="Helvetica,sans-Serif" font-size="10.00">Argument::inString</text>
</a>
</g>
</g>
<!-- Node4&#45;&gt;Node5 -->
<g id="edge4" class="edge">
<title>Node4&#45;&gt;Node5</title>
<path fill="none" stroke="#63b8ff" d="M577.49,-110.97C598.87,-106.18 624.97,-100.32 647.58,-95.25"/>
<polygon fill="#63b8ff" stroke="#63b8ff" points="648.37,-98.66 657.37,-93.06 646.84,-91.83 648.37,-98.66"/>
</g>
<!-- Node6&#45;&gt;Node5 -->
<g id="edge6" class="edge">
<title>Node6&#45;&gt;Node5</title>
<path fill="none" stroke="#63b8ff" d="M597.38,-83.5C611.92,-83.5 627.35,-83.5 641.7,-83.5"/>
<polygon fill="#63b8ff" stroke="#63b8ff" points="641.94,-87 651.94,-83.5 641.94,-80 641.94,-87"/>
</g>
<!-- Node7 -->
<g id="node7" class="node">
<title>Node7</title>
<g id="a_node7"><a xlink:href="class_argument.html#a8f98fbce9e55886c0b3a84c6f92572e5" target="_top" xlink:title=" ">
<polygon fill="white" stroke="#666666" points="753,-56 649,-56 649,-37 753,-37 753,-56"/>
<text text-anchor="middle" x="701" y="-44" font-family="Helvetica,sans-Serif" font-size="10.00">Argument::substring</text>
</a>
</g>
</g>
<!-- Node6&#45;&gt;Node7 -->
<g id="edge7" class="edge">
<title>Node6&#45;&gt;Node7</title>
<path fill="none" stroke="#63b8ff" d="M577.49,-73.97C598.87,-69.18 624.97,-63.32 647.58,-58.25"/>
<polygon fill="#63b8ff" stroke="#63b8ff" points="648.37,-61.66 657.37,-56.06 646.84,-54.83 648.37,-61.66"/>
</g>
<!-- Node8&#45;&gt;Node5 -->
<g id="edge9" class="edge">
<title>Node8&#45;&gt;Node5</title>
<path fill="none" stroke="#63b8ff" d="M577.49,-56.03C598.87,-60.82 624.97,-66.68 647.58,-71.75"/>
<polygon fill="#63b8ff" stroke="#63b8ff" points="646.84,-75.17 657.37,-73.94 648.37,-68.34 646.84,-75.17"/>
</g>
<!-- Node8&#45;&gt;Node7 -->
<g id="edge10" class="edge">
<title>Node8&#45;&gt;Node7</title>
<path fill="none" stroke="#63b8ff" d="M598.32,-46.5C611.52,-46.5 625.4,-46.5 638.53,-46.5"/>
<polygon fill="#63b8ff" stroke="#63b8ff" points="638.87,-50 648.87,-46.5 638.87,-43 638.87,-50"/>
</g>
</g>
</svg>
