<?xml version="1.0" encoding="UTF-8" standalone="no"?>
<!DOCTYPE svg PUBLIC "-//W3C//DTD SVG 1.1//EN"
 "http://www.w3.org/Graphics/SVG/1.1/DTD/svg11.dtd">
<!-- Generated by graphviz version 5.0.1 (20220820.1526)
 -->
<!-- Title: commander_echo_func Pages: 1 -->
<svg width="518pt" height="46pt"
 viewBox="0.00 0.00 518.00 46.00" xmlns="http://www.w3.org/2000/svg" xmlns:xlink="http://www.w3.org/1999/xlink">
<g id="graph0" class="graph" transform="scale(1 1) rotate(0) translate(4 42)">
<title>commander_echo_func</title>
<!-- Node1 -->
<g id="node1" class="node">
<title>Node1</title>
<g id="a_node1"><a xlink:title="Premade function for echo command.">
<polygon fill="#999999" stroke="#666666" points="117,-38 0,-38 0,-19 117,-19 117,-38"/>
<text text-anchor="middle" x="58.5" y="-26" font-family="Helvetica,sans-Serif" font-size="10.00">commander_echo_func</text>
</a>
</g>
</g>
<!-- Node2 -->
<g id="node2" class="node">
<title>Node2</title>
<g id="a_node2"><a xlink:href="class_commander.html#aed49189003860bfa85ab3bf8d320c5f6" target="_top" xlink:title="Get the instance if a system variable by its name.">
<polygon fill="white" stroke="#666666" points="510,-38 352,-38 352,-19 510,-19 510,-38"/>
<text text-anchor="middle" x="431" y="-26" font-family="Helvetica,sans-Serif" font-size="10.00">Commander::getSystemVariable</text>
</a>
</g>
</g>
<!-- Node1&#45;&gt;Node2 -->
<g id="edge1" class="edge">
<title>Node1&#45;&gt;Node2</title>
<path fill="none" stroke="#63b8ff" d="M117.39,-28.5C177.52,-28.5 272.36,-28.5 341.82,-28.5"/>
<polygon fill="#63b8ff" stroke="#63b8ff" points="341.88,-32 351.88,-28.5 341.88,-25 341.88,-32"/>
</g>
<!-- Node3 -->
<g id="node3" class="node">
<title>Node3</title>
<g id="a_node3"><a xlink:href="class_commander.html#af9ef97a7482a31282c53fd98062a940c" target="_top" xlink:title="Print the value of a system variable.">
<polygon fill="white" stroke="#666666" points="316,-19 153,-19 153,0 316,0 316,-19"/>
<text text-anchor="middle" x="234.5" y="-7" font-family="Helvetica,sans-Serif" font-size="10.00">Commander::printSystemVariable</text>
</a>
</g>
</g>
<!-- Node1&#45;&gt;Node3 -->
<g id="edge2" class="edge">
<title>Node1&#45;&gt;Node3</title>
<path fill="none" stroke="#63b8ff" d="M117.44,-22.17C125.61,-21.28 134.17,-20.35 142.78,-19.41"/>
<polygon fill="#63b8ff" stroke="#63b8ff" points="143.32,-22.87 152.88,-18.3 142.56,-15.91 143.32,-22.87"/>
</g>
<!-- Node3&#45;&gt;Node2 -->
<g id="edge3" class="edge">
<title>Node3&#45;&gt;Node2</title>
<path fill="none" stroke="#63b8ff" d="M316.01,-17.37C324.5,-18.19 333.17,-19.04 341.74,-19.88"/>
<polygon fill="#63b8ff" stroke="#63b8ff" points="341.44,-23.37 351.74,-20.85 342.12,-16.4 341.44,-23.37"/>
</g>
</g>
</svg>
