<?xml version="1.0" encoding="UTF-8" standalone="no"?>
<!DOCTYPE svg PUBLIC "-//W3C//DTD SVG 1.1//EN"
 "http://www.w3.org/Graphics/SVG/1.1/DTD/svg11.dtd">
<!-- Generated by graphviz version 5.0.1 (20220820.1526)
 -->
<!-- Title: Argument::find Pages: 1 -->
<svg width="269pt" height="101pt"
 viewBox="0.00 0.00 269.00 101.00" xmlns="http://www.w3.org/2000/svg" xmlns:xlink="http://www.w3.org/1999/xlink">
<g id="graph0" class="graph" transform="scale(1 1) rotate(0) translate(4 97)">
<title>Argument::find</title>
<!-- Node1 -->
<g id="node1" class="node">
<title>Node1</title>
<g id="a_node1"><a xlink:title=" ">
<polygon fill="#999999" stroke="#666666" points="261,-56 181,-56 181,-37 261,-37 261,-56"/>
<text text-anchor="middle" x="221" y="-44" font-family="Helvetica,sans-Serif" font-size="10.00">Argument::find</text>
</a>
</g>
</g>
<!-- Node2 -->
<g id="node2" class="node">
<title>Node2</title>
<g id="a_node2"><a xlink:href="_commander-_a_p_i-_digital-_i_o-_commands_8cpp.html#a9ab5698b019086fe8d2c3d06a3f917fb" target="_top" xlink:title="Premade function for digitalRead command.">
<polygon fill="white" stroke="#666666" points="144.5,-93 0.5,-93 0.5,-74 144.5,-74 144.5,-93"/>
<text text-anchor="middle" x="72.5" y="-81" font-family="Helvetica,sans-Serif" font-size="10.00">commander_digitalRead_func</text>
</a>
</g>
</g>
<!-- Node1&#45;&gt;Node2 -->
<g id="edge1" class="edge">
<title>Node1&#45;&gt;Node2</title>
<path fill="none" stroke="#63b8ff" d="M172.51,-58.54C163.38,-60.85 153.89,-63.25 145,-65.5 134.08,-68.26 122.22,-71.25 111.35,-73.98"/>
<polygon fill="#63b8ff" stroke="#63b8ff" points="173.4,-61.93 182.23,-56.08 171.68,-55.14 173.4,-61.93"/>
</g>
<!-- Node3 -->
<g id="node3" class="node">
<title>Node3</title>
<g id="a_node3"><a xlink:href="_commander-_a_p_i-_digital-_i_o-_commands_8cpp.html#a6eccd6af580b31fb8ef7e6e038a0a322" target="_top" xlink:title="Premade function for digitalWrite command.">
<polygon fill="white" stroke="#666666" points="145,-56 0,-56 0,-37 145,-37 145,-56"/>
<text text-anchor="middle" x="72.5" y="-44" font-family="Helvetica,sans-Serif" font-size="10.00">commander_digitalWrite_func</text>
</a>
</g>
</g>
<!-- Node1&#45;&gt;Node3 -->
<g id="edge2" class="edge">
<title>Node1&#45;&gt;Node3</title>
<path fill="none" stroke="#63b8ff" d="M170.62,-46.5C162.4,-46.5 153.74,-46.5 145.11,-46.5"/>
<polygon fill="#63b8ff" stroke="#63b8ff" points="170.74,-50 180.74,-46.5 170.74,-43 170.74,-50"/>
</g>
<!-- Node4 -->
<g id="node4" class="node">
<title>Node4</title>
<g id="a_node4"><a xlink:href="_commander-_a_p_i-_digital-_i_o-_commands_8cpp.html#af1ce6ff8336c159da938303fbc2a2770" target="_top" xlink:title="Premade function for pinMode command.">
<polygon fill="white" stroke="#666666" points="139,-19 6,-19 6,0 139,0 139,-19"/>
<text text-anchor="middle" x="72.5" y="-7" font-family="Helvetica,sans-Serif" font-size="10.00">commander_pinMode_func</text>
</a>
</g>
</g>
<!-- Node1&#45;&gt;Node4 -->
<g id="edge3" class="edge">
<title>Node1&#45;&gt;Node4</title>
<path fill="none" stroke="#63b8ff" d="M172.51,-34.51C152.7,-29.5 130.01,-23.77 111.35,-19.06"/>
<polygon fill="#63b8ff" stroke="#63b8ff" points="171.72,-37.92 182.27,-36.97 173.43,-31.13 171.72,-37.92"/>
</g>
</g>
</svg>
