<?xml version="1.0" encoding="UTF-8" standalone="no"?>
<!DOCTYPE svg PUBLIC "-//W3C//DTD SVG 1.1//EN"
 "http://www.w3.org/Graphics/SVG/1.1/DTD/svg11.dtd">
<!-- Generated by graphviz version 5.0.1 (20220820.1526)
 -->
<!-- Title: commandResponseWiFiClient::print Pages: 1 -->
<svg width="340pt" height="86pt"
 viewBox="0.00 0.00 340.00 86.00" xmlns="http://www.w3.org/2000/svg" xmlns:xlink="http://www.w3.org/1999/xlink">
<g id="graph0" class="graph" transform="scale(1 1) rotate(0) translate(4 82)">
<title>commandResponseWiFiClient::print</title>
<!-- Node1 -->
<g id="node1" class="node">
<title>Node1</title>
<g id="a_node1"><a xlink:title=" ">
<polygon fill="#999999" stroke="#666666" points="332,-54 184,-54 184,-24 332,-24 332,-54"/>
<text text-anchor="start" x="192" y="-42" font-family="Helvetica,sans-Serif" font-size="10.00">commandResponseWiFiClient</text>
<text text-anchor="middle" x="258" y="-31" font-family="Helvetica,sans-Serif" font-size="10.00">::print</text>
</a>
</g>
</g>
<!-- Node1&#45;&gt;Node1 -->
<g id="edge1" class="edge">
<title>Node1&#45;&gt;Node1</title>
<path fill="none" stroke="#63b8ff" d="M290.21,-64.6C285.81,-68.97 275.07,-72 258,-72 229.25,-72 218.47,-63.41 225.66,-54.28"/>
<polygon fill="#63b8ff" stroke="#63b8ff" points="293.71,-64.32 290.34,-54.28 286.71,-64.23 293.71,-64.32"/>
</g>
<!-- Node2 -->
<g id="node2" class="node">
<title>Node2</title>
<g id="a_node2"><a xlink:href="classcommand_response_wi_fi_client.html#ac1ae390dfec6505dc75c61edeb48dbc7" target="_top" xlink:title=" ">
<polygon fill="white" stroke="#666666" points="148,-78 0,-78 0,-48 148,-48 148,-78"/>
<text text-anchor="start" x="8" y="-66" font-family="Helvetica,sans-Serif" font-size="10.00">commandResponseWiFiClient</text>
<text text-anchor="middle" x="74" y="-55" font-family="Helvetica,sans-Serif" font-size="10.00">::printf</text>
</a>
</g>
</g>
<!-- Node1&#45;&gt;Node2 -->
<g id="edge2" class="edge">
<title>Node1&#45;&gt;Node2</title>
<path fill="none" stroke="#63b8ff" d="M173.76,-49.98C165.2,-51.11 156.54,-52.25 148.09,-53.36"/>
<polygon fill="#63b8ff" stroke="#63b8ff" points="174.3,-53.44 183.76,-48.66 173.39,-46.5 174.3,-53.44"/>
</g>
<!-- Node3 -->
<g id="node3" class="node">
<title>Node3</title>
<g id="a_node3"><a xlink:href="classcommand_response_wi_fi_client.html#a78c0f30f4021e45907b009c6cab53c60" target="_top" xlink:title=" ">
<polygon fill="white" stroke="#666666" points="148,-30 0,-30 0,0 148,0 148,-30"/>
<text text-anchor="start" x="8" y="-18" font-family="Helvetica,sans-Serif" font-size="10.00">commandResponseWiFiClient</text>
<text text-anchor="middle" x="74" y="-7" font-family="Helvetica,sans-Serif" font-size="10.00">::println</text>
</a>
</g>
</g>
<!-- Node1&#45;&gt;Node3 -->
<g id="edge3" class="edge">
<title>Node1&#45;&gt;Node3</title>
<path fill="none" stroke="#63b8ff" d="M173.76,-28.02C165.2,-26.89 156.54,-25.75 148.09,-24.64"/>
<polygon fill="#63b8ff" stroke="#63b8ff" points="173.39,-31.5 183.76,-29.34 174.3,-24.56 173.39,-31.5"/>
</g>
</g>
</svg>
