<?xml version="1.0" encoding="UTF-8" standalone="no"?>
<!DOCTYPE svg PUBLIC "-//W3C//DTD SVG 1.1//EN"
 "http://www.w3.org/Graphics/SVG/1.1/DTD/svg11.dtd">
<!-- Generated by graphviz version 5.0.1 (20220820.1526)
 -->
<!-- Title: CommanderDatabase::init Pages: 1 -->
<svg width="332pt" height="86pt"
 viewBox="0.00 0.00 332.00 86.00" xmlns="http://www.w3.org/2000/svg" xmlns:xlink="http://www.w3.org/1999/xlink">
<g id="graph0" class="graph" transform="scale(1 1) rotate(0) translate(4 82)">
<title>CommanderDatabase::init</title>
<!-- Node1 -->
<g id="node1" class="node">
<title>Node1</title>
<g id="a_node1"><a xlink:title="Init function.">
<polygon fill="#999999" stroke="#666666" points="129,-48.5 0,-48.5 0,-29.5 129,-29.5 129,-48.5"/>
<text text-anchor="middle" x="64.5" y="-36.5" font-family="Helvetica,sans-Serif" font-size="10.00">CommanderDatabase::init</text>
</a>
</g>
</g>
<!-- Node2 -->
<g id="node2" class="node">
<title>Node2</title>
<g id="a_node2"><a xlink:href="class_commander_database.html#af5f3b1f8dd593bb409a6e00357799c0c" target="_top" xlink:title=" ">
<polygon fill="white" stroke="#666666" points="324,-78 165,-78 165,-48 324,-48 324,-78"/>
<text text-anchor="start" x="173" y="-66" font-family="Helvetica,sans-Serif" font-size="10.00">CommanderDatabase::</text>
<text text-anchor="middle" x="244.5" y="-55" font-family="Helvetica,sans-Serif" font-size="10.00">strcmpElementCharArrayRegular</text>
</a>
</g>
</g>
<!-- Node1&#45;&gt;Node2 -->
<g id="edge1" class="edge">
<title>Node1&#45;&gt;Node2</title>
<path fill="none" stroke="#63b8ff" d="M129.01,-47.56C137.33,-48.69 145.98,-49.85 154.63,-51.02"/>
<polygon fill="#63b8ff" stroke="#63b8ff" points="154.38,-54.52 164.76,-52.38 155.32,-47.58 154.38,-54.52"/>
</g>
<!-- Node3 -->
<g id="node3" class="node">
<title>Node3</title>
<g id="a_node3"><a xlink:href="class_commander_database.html#ab555ef1d1bb206ecdb6611a2ced1ede6" target="_top" xlink:title=" ">
<polygon fill="white" stroke="#666666" points="320.5,-30 168.5,-30 168.5,0 320.5,0 320.5,-30"/>
<text text-anchor="start" x="176.5" y="-18" font-family="Helvetica,sans-Serif" font-size="10.00">CommanderDatabase::</text>
<text text-anchor="middle" x="244.5" y="-7" font-family="Helvetica,sans-Serif" font-size="10.00">strcmpElementElementRegular</text>
</a>
</g>
</g>
<!-- Node1&#45;&gt;Node3 -->
<g id="edge2" class="edge">
<title>Node1&#45;&gt;Node3</title>
<path fill="none" stroke="#63b8ff" d="M129.01,-30.44C138.49,-29.16 148.4,-27.82 158.25,-26.49"/>
<polygon fill="#63b8ff" stroke="#63b8ff" points="159.02,-29.92 168.46,-25.12 158.09,-22.98 159.02,-29.92"/>
</g>
</g>
</svg>
