<?xml version="1.0" encoding="UTF-8" standalone="no"?>
<!DOCTYPE svg PUBLIC "-//W3C//DTD SVG 1.1//EN"
 "http://www.w3.org/Graphics/SVG/1.1/DTD/svg11.dtd">
<!-- Generated by graphviz version 5.0.1 (20220820.1526)
 -->
<!-- Title: Commander::printHelp Pages: 1 -->
<svg width="597pt" height="45pt"
 viewBox="0.00 0.00 597.00 45.00" xmlns="http://www.w3.org/2000/svg" xmlns:xlink="http://www.w3.org/1999/xlink">
<g id="graph0" class="graph" transform="scale(1 1) rotate(0) translate(4 41)">
<title>Commander::printHelp</title>
<!-- Node1 -->
<g id="node1" class="node">
<title>Node1</title>
<g id="a_node1"><a xlink:title="Print the help text to a specified Stream.">
<polygon fill="#999999" stroke="#666666" points="589,-19 476,-19 476,0 589,0 589,-19"/>
<text text-anchor="middle" x="532.5" y="-7" font-family="Helvetica,sans-Serif" font-size="10.00">Commander::printHelp</text>
</a>
</g>
</g>
<!-- Node2 -->
<g id="node2" class="node">
<title>Node2</title>
<g id="a_node2"><a xlink:href="class_commander.html#a727e0665319b4d3451ee8d3672b967b6" target="_top" xlink:title="Command execution.">
<polygon fill="white" stroke="#666666" points="440,-19 286,-19 286,0 440,0 440,-19"/>
<text text-anchor="middle" x="363" y="-7" font-family="Helvetica,sans-Serif" font-size="10.00">Commander::executeCommand</text>
</a>
</g>
</g>
<!-- Node1&#45;&gt;Node2 -->
<g id="edge1" class="edge">
<title>Node1&#45;&gt;Node2</title>
<path fill="none" stroke="#63b8ff" d="M465.65,-9.5C457.27,-9.5 448.63,-9.5 440.11,-9.5"/>
<polygon fill="#63b8ff" stroke="#63b8ff" points="465.72,-13 475.72,-9.5 465.72,-6 465.72,-13"/>
</g>
<!-- Node2&#45;&gt;Node2 -->
<g id="edge4" class="edge">
<title>Node2&#45;&gt;Node2</title>
<path fill="none" stroke="#63b8ff" d="M394.44,-27.45C393.54,-32.82 383.06,-37 363,-37 333.14,-37 324.51,-27.73 337.11,-19.08"/>
<polygon fill="#63b8ff" stroke="#63b8ff" points="397.34,-25.49 388.89,-19.08 391.5,-29.35 397.34,-25.49"/>
</g>
<!-- Node3 -->
<g id="node3" class="node">
<title>Node3</title>
<g id="a_node3"><a xlink:href="class_commander.html#a847b09150ab48c2bd2e4d8dbf9c5f72b" target="_top" xlink:title="Execution function for Stream response.">
<polygon fill="white" stroke="#666666" points="250,-19 140,-19 140,0 250,0 250,-19"/>
<text text-anchor="middle" x="195" y="-7" font-family="Helvetica,sans-Serif" font-size="10.00">Commander::execute</text>
</a>
</g>
</g>
<!-- Node2&#45;&gt;Node3 -->
<g id="edge2" class="edge">
<title>Node2&#45;&gt;Node3</title>
<path fill="none" stroke="#63b8ff" d="M275.71,-9.5C267.12,-9.5 258.57,-9.5 250.43,-9.5"/>
<polygon fill="#63b8ff" stroke="#63b8ff" points="275.8,-13 285.8,-9.5 275.8,-6 275.8,-13"/>
</g>
<!-- Node4 -->
<g id="node4" class="node">
<title>Node4</title>
<g id="a_node4"><a xlink:href="class_commander.html#a566db8c9ab5fc802e30e9204873c894b" target="_top" xlink:title="Create a very very simple command lime.">
<polygon fill="white" stroke="#666666" points="104,-19 0,-19 0,0 104,0 104,-19"/>
<text text-anchor="middle" x="52" y="-7" font-family="Helvetica,sans-Serif" font-size="10.00">Commander::update</text>
</a>
</g>
</g>
<!-- Node3&#45;&gt;Node4 -->
<g id="edge3" class="edge">
<title>Node3&#45;&gt;Node4</title>
<path fill="none" stroke="#63b8ff" d="M129.66,-9.5C121.2,-9.5 112.62,-9.5 104.42,-9.5"/>
<polygon fill="#63b8ff" stroke="#63b8ff" points="129.89,-13 139.89,-9.5 129.89,-6 129.89,-13"/>
</g>
</g>
</svg>
