<?xml version="1.0" encoding="UTF-8" standalone="no"?>
<!DOCTYPE svg PUBLIC "-//W3C//DTD SVG 1.1//EN"
 "http://www.w3.org/Graphics/SVG/1.1/DTD/svg11.dtd">
<!-- Generated by graphviz version 5.0.1 (20220820.1526)
 -->
<!-- Title: Commander::swap_api_elements Pages: 1 -->
<svg width="545pt" height="56pt"
 viewBox="0.00 0.00 545.00 56.00" xmlns="http://www.w3.org/2000/svg" xmlns:xlink="http://www.w3.org/1999/xlink">
<g id="graph0" class="graph" transform="scale(1 1) rotate(0) translate(4 52)">
<title>Commander::swap_api_elements</title>
<!-- Node1 -->
<g id="node1" class="node">
<title>Node1</title>
<g id="a_node1"><a xlink:title="Swap two API elements in the tree.">
<polygon fill="#999999" stroke="#666666" points="537,-30 421,-30 421,0 537,0 537,-30"/>
<text text-anchor="start" x="429" y="-18" font-family="Helvetica,sans-Serif" font-size="10.00">Commander::swap_api</text>
<text text-anchor="middle" x="479" y="-7" font-family="Helvetica,sans-Serif" font-size="10.00">_elements</text>
</a>
</g>
</g>
<!-- Node2 -->
<g id="node2" class="node">
<title>Node2</title>
<g id="a_node2"><a xlink:href="class_commander.html#a8415264e9cdf820c7ad1872cc36811bd" target="_top" xlink:title="Recursive function optimize a section in the tree.">
<polygon fill="white" stroke="#666666" points="385,-30 272,-30 272,0 385,0 385,-30"/>
<text text-anchor="start" x="280" y="-18" font-family="Helvetica,sans-Serif" font-size="10.00">Commander::recursive</text>
<text text-anchor="middle" x="328.5" y="-7" font-family="Helvetica,sans-Serif" font-size="10.00">_optimizer</text>
</a>
</g>
</g>
<!-- Node1&#45;&gt;Node2 -->
<g id="edge1" class="edge">
<title>Node1&#45;&gt;Node2</title>
<path fill="none" stroke="#63b8ff" d="M410.42,-15C402.02,-15 393.5,-15 385.3,-15"/>
<polygon fill="#63b8ff" stroke="#63b8ff" points="410.59,-18.5 420.59,-15 410.59,-11.5 410.59,-18.5"/>
</g>
<!-- Node2&#45;&gt;Node2 -->
<g id="edge4" class="edge">
<title>Node2&#45;&gt;Node2</title>
<path fill="none" stroke="#63b8ff" d="M354.41,-40.6C350.87,-44.97 342.23,-48 328.5,-48 305.38,-48 296.7,-39.41 302.48,-30.28"/>
<polygon fill="#63b8ff" stroke="#63b8ff" points="357.91,-40.31 354.52,-30.28 350.91,-40.24 357.91,-40.31"/>
</g>
<!-- Node3 -->
<g id="node3" class="node">
<title>Node3</title>
<g id="a_node3"><a xlink:href="class_commander.html#ad435a3490d9ae4b4dda2c88e2fbf0421" target="_top" xlink:title="Optimizes the tree to make it balanced.">
<polygon fill="white" stroke="#666666" points="236,-30 124,-30 124,0 236,0 236,-30"/>
<text text-anchor="start" x="132" y="-18" font-family="Helvetica,sans-Serif" font-size="10.00">Commander::optimize</text>
<text text-anchor="middle" x="180" y="-7" font-family="Helvetica,sans-Serif" font-size="10.00">_api_tree</text>
</a>
</g>
</g>
<!-- Node2&#45;&gt;Node3 -->
<g id="edge2" class="edge">
<title>Node2&#45;&gt;Node3</title>
<path fill="none" stroke="#63b8ff" d="M261.47,-15C253.01,-15 244.43,-15 236.16,-15"/>
<polygon fill="#63b8ff" stroke="#63b8ff" points="261.7,-18.5 271.7,-15 261.7,-11.5 261.7,-18.5"/>
</g>
<!-- Node4 -->
<g id="node4" class="node">
<title>Node4</title>
<g id="a_node4"><a xlink:href="class_commander.html#a5d9d12c3d15cf350593f4c2b11ec05d8" target="_top" xlink:title="Initializer.">
<polygon fill="white" stroke="#666666" points="88,-24.5 0,-24.5 0,-5.5 88,-5.5 88,-24.5"/>
<text text-anchor="middle" x="44" y="-12.5" font-family="Helvetica,sans-Serif" font-size="10.00">Commander::init</text>
</a>
</g>
</g>
<!-- Node3&#45;&gt;Node4 -->
<g id="edge3" class="edge">
<title>Node3&#45;&gt;Node4</title>
<path fill="none" stroke="#63b8ff" d="M113.66,-15C105.05,-15 96.4,-15 88.28,-15"/>
<polygon fill="#63b8ff" stroke="#63b8ff" points="113.72,-18.5 123.72,-15 113.72,-11.5 113.72,-18.5"/>
</g>
</g>
</svg>
