<?xml version="1.0" encoding="UTF-8" standalone="no"?>
<!DOCTYPE svg PUBLIC "-//W3C//DTD SVG 1.1//EN"
 "http://www.w3.org/Graphics/SVG/1.1/DTD/svg11.dtd">
<!-- Generated by graphviz version 5.0.1 (20220820.1526)
 -->
<!-- Title: Commander::commandExists Pages: 1 -->
<svg width="320pt" height="45pt"
 viewBox="0.00 0.00 320.00 45.00" xmlns="http://www.w3.org/2000/svg" xmlns:xlink="http://www.w3.org/1999/xlink">
<g id="graph0" class="graph" transform="scale(1 1) rotate(0) translate(4 41)">
<title>Commander::commandExists</title>
<!-- Node1 -->
<g id="node1" class="node">
<title>Node1</title>
<g id="a_node1"><a xlink:title=" ">
<polygon fill="#999999" stroke="#666666" points="312,-19 166,-19 166,0 312,0 312,-19"/>
<text text-anchor="middle" x="239" y="-7" font-family="Helvetica,sans-Serif" font-size="10.00">Commander::commandExists</text>
</a>
</g>
</g>
<!-- Node2 -->
<g id="node2" class="node">
<title>Node2</title>
<g id="a_node2"><a xlink:href="class_commander.html#aac68f68e3998310826cabd5eb86df4b1" target="_top" xlink:title=" ">
<polygon fill="white" stroke="#666666" points="130,-19 0,-19 0,0 130,0 130,-19"/>
<text text-anchor="middle" x="65" y="-7" font-family="Helvetica,sans-Serif" font-size="10.00">Commander::generateHint</text>
</a>
</g>
</g>
<!-- Node1&#45;&gt;Node2 -->
<g id="edge1" class="edge">
<title>Node1&#45;&gt;Node2</title>
<path fill="none" stroke="#63b8ff" d="M155.3,-9.5C146.86,-9.5 138.37,-9.5 130.17,-9.5"/>
<polygon fill="#63b8ff" stroke="#63b8ff" points="155.56,-13 165.56,-9.5 155.55,-6 155.56,-13"/>
</g>
<!-- Node2&#45;&gt;Node2 -->
<g id="edge2" class="edge">
<title>Node2&#45;&gt;Node2</title>
<path fill="none" stroke="#63b8ff" d="M97.56,-27.45C96.63,-32.82 85.78,-37 65,-37 34.07,-37 25.13,-27.73 38.18,-19.08"/>
<polygon fill="#63b8ff" stroke="#63b8ff" points="100.36,-25.35 91.82,-19.08 94.59,-29.31 100.36,-25.35"/>
</g>
</g>
</svg>
