<?xml version="1.0" encoding="UTF-8" standalone="no"?>
<!DOCTYPE svg PUBLIC "-//W3C//DTD SVG 1.1//EN"
 "http://www.w3.org/Graphics/SVG/1.1/DTD/svg11.dtd">
<!-- Generated by graphviz version 5.0.1 (20220820.1526)
 -->
<!-- Title: commanderPipeChannel::available Pages: 1 -->
<svg width="466pt" height="51pt"
 viewBox="0.00 0.00 466.00 50.50" xmlns="http://www.w3.org/2000/svg" xmlns:xlink="http://www.w3.org/1999/xlink">
<g id="graph0" class="graph" transform="scale(1 1) rotate(0) translate(4 46.5)">
<title>commanderPipeChannel::available</title>
<!-- Node1 -->
<g id="node1" class="node">
<title>Node1</title>
<g id="a_node1"><a xlink:title="Available bytes in the channel.">
<polygon fill="#999999" stroke="#666666" points="458,-30 336,-30 336,0 458,0 458,-30"/>
<text text-anchor="start" x="344" y="-18" font-family="Helvetica,sans-Serif" font-size="10.00">commanderPipeChannel</text>
<text text-anchor="middle" x="397" y="-7" font-family="Helvetica,sans-Serif" font-size="10.00">::available</text>
</a>
</g>
</g>
<!-- Node2 -->
<g id="node2" class="node">
<title>Node2</title>
<g id="a_node2"><a xlink:href="class_commander.html#add4dd1e824524f3682d1862d26cfa6a6" target="_top" xlink:title="Command execution.">
<polygon fill="white" stroke="#666666" points="300,-24.5 146,-24.5 146,-5.5 300,-5.5 300,-24.5"/>
<text text-anchor="middle" x="223" y="-12.5" font-family="Helvetica,sans-Serif" font-size="10.00">Commander::executeCommand</text>
</a>
</g>
</g>
<!-- Node1&#45;&gt;Node2 -->
<g id="edge1" class="edge">
<title>Node1&#45;&gt;Node2</title>
<path fill="none" stroke="#63b8ff" d="M325.7,-15C317.28,-15 308.65,-15 300.15,-15"/>
<polygon fill="#63b8ff" stroke="#63b8ff" points="325.84,-18.5 335.84,-15 325.84,-11.5 325.84,-18.5"/>
</g>
<!-- Node2&#45;&gt;Node2 -->
<g id="edge3" class="edge">
<title>Node2&#45;&gt;Node2</title>
<path fill="none" stroke="#63b8ff" d="M254.44,-32.95C253.54,-38.32 243.06,-42.5 223,-42.5 193.14,-42.5 184.51,-33.23 197.11,-24.58"/>
<polygon fill="#63b8ff" stroke="#63b8ff" points="257.34,-30.99 248.89,-24.58 251.5,-34.85 257.34,-30.99"/>
</g>
<!-- Node3 -->
<g id="node3" class="node">
<title>Node3</title>
<g id="a_node3"><a xlink:href="class_commander.html#af6609b049d9524db60aac35dbba58cec" target="_top" xlink:title="Default execution function.">
<polygon fill="white" stroke="#666666" points="110,-24.5 0,-24.5 0,-5.5 110,-5.5 110,-24.5"/>
<text text-anchor="middle" x="55" y="-12.5" font-family="Helvetica,sans-Serif" font-size="10.00">Commander::execute</text>
</a>
</g>
</g>
<!-- Node2&#45;&gt;Node3 -->
<g id="edge2" class="edge">
<title>Node2&#45;&gt;Node3</title>
<path fill="none" stroke="#63b8ff" d="M135.71,-15C127.12,-15 118.57,-15 110.43,-15"/>
<polygon fill="#63b8ff" stroke="#63b8ff" points="135.8,-18.5 145.8,-15 135.8,-11.5 135.8,-18.5"/>
</g>
</g>
</svg>
