<?xml version="1.0" encoding="UTF-8" standalone="no"?>
<!DOCTYPE svg PUBLIC "-//W3C//DTD SVG 1.1//EN"
 "http://www.w3.org/Graphics/SVG/1.1/DTD/svg11.dtd">
<!-- Generated by graphviz version 5.0.1 (20220820.1526)
 -->
<!-- Title: Commander::getSystemVariable Pages: 1 -->
<svg width="553pt" height="101pt"
 viewBox="0.00 0.00 553.00 101.00" xmlns="http://www.w3.org/2000/svg" xmlns:xlink="http://www.w3.org/1999/xlink">
<g id="graph0" class="graph" transform="scale(1 1) rotate(0) translate(4 97)">
<title>Commander::getSystemVariable</title>
<!-- Node1 -->
<g id="node1" class="node">
<title>Node1</title>
<g id="a_node1"><a xlink:title="Get the instance if a system variable by its name.">
<polygon fill="#999999" stroke="#666666" points="545,-37 387,-37 387,-18 545,-18 545,-37"/>
<text text-anchor="middle" x="466" y="-25" font-family="Helvetica,sans-Serif" font-size="10.00">Commander::getSystemVariable</text>
</a>
</g>
</g>
<!-- Node2 -->
<g id="node2" class="node">
<title>Node2</title>
<g id="a_node2"><a xlink:href="class_argument.html#a7fab3d983e4a63b93e6f50df82ed6f84" target="_top" xlink:title=" ">
<polygon fill="white" stroke="#666666" points="320,-56 219,-56 219,-37 320,-37 320,-56"/>
<text text-anchor="middle" x="269.5" y="-44" font-family="Helvetica,sans-Serif" font-size="10.00">Argument::findStart</text>
</a>
</g>
</g>
<!-- Node1&#45;&gt;Node2 -->
<g id="edge1" class="edge">
<title>Node1&#45;&gt;Node2</title>
<path fill="none" stroke="#63b8ff" d="M376.64,-36.13C357.23,-38.03 337.35,-39.97 320.12,-41.65"/>
<polygon fill="#63b8ff" stroke="#63b8ff" points="377.12,-39.6 386.73,-35.15 376.44,-32.63 377.12,-39.6"/>
</g>
<!-- Node6 -->
<g id="node6" class="node">
<title>Node6</title>
<g id="a_node6"><a xlink:href="class_commander.html#af9ef97a7482a31282c53fd98062a940c" target="_top" xlink:title="Print the value of a system variable.">
<polygon fill="white" stroke="#666666" points="351,-19 188,-19 188,0 351,0 351,-19"/>
<text text-anchor="middle" x="269.5" y="-7" font-family="Helvetica,sans-Serif" font-size="10.00">Commander::printSystemVariable</text>
</a>
</g>
</g>
<!-- Node1&#45;&gt;Node6 -->
<g id="edge5" class="edge">
<title>Node1&#45;&gt;Node6</title>
<path fill="none" stroke="#63b8ff" d="M376.77,-19.33C368.23,-18.54 359.6,-17.75 351.15,-16.96"/>
<polygon fill="#63b8ff" stroke="#63b8ff" points="376.45,-22.82 386.73,-20.26 377.1,-15.85 376.45,-22.82"/>
</g>
<!-- Node3 -->
<g id="node3" class="node">
<title>Node3</title>
<g id="a_node3"><a xlink:href="class_argument.html#a2258f3363dbb1d462286a41d4ab3b8ad" target="_top" xlink:title=" ">
<polygon fill="white" stroke="#666666" points="131,-93 21,-93 21,-74 131,-74 131,-93"/>
<text text-anchor="middle" x="76" y="-81" font-family="Helvetica,sans-Serif" font-size="10.00">Argument::parseFloat</text>
</a>
</g>
</g>
<!-- Node2&#45;&gt;Node3 -->
<g id="edge2" class="edge">
<title>Node2&#45;&gt;Node3</title>
<path fill="none" stroke="#63b8ff" d="M209.25,-57.95C182.7,-63.08 151.76,-69.06 126.48,-73.94"/>
<polygon fill="#63b8ff" stroke="#63b8ff" points="210.03,-61.36 219.18,-56.03 208.7,-54.49 210.03,-61.36"/>
</g>
<!-- Node4 -->
<g id="node4" class="node">
<title>Node4</title>
<g id="a_node4"><a xlink:href="class_argument.html#aeabd957dda6add595aa860761ea337f1" target="_top" xlink:title=" ">
<polygon fill="white" stroke="#666666" points="125.5,-56 26.5,-56 26.5,-37 125.5,-37 125.5,-56"/>
<text text-anchor="middle" x="76" y="-44" font-family="Helvetica,sans-Serif" font-size="10.00">Argument::parseInt</text>
</a>
</g>
</g>
<!-- Node2&#45;&gt;Node4 -->
<g id="edge3" class="edge">
<title>Node2&#45;&gt;Node4</title>
<path fill="none" stroke="#63b8ff" d="M208.67,-46.5C181.94,-46.5 150.84,-46.5 125.57,-46.5"/>
<polygon fill="#63b8ff" stroke="#63b8ff" points="208.69,-50 218.69,-46.5 208.69,-43 208.69,-50"/>
</g>
<!-- Node5 -->
<g id="node5" class="node">
<title>Node5</title>
<g id="a_node5"><a xlink:href="class_argument.html#a91aa4b22990c4532a437afb1ed58acf4" target="_top" xlink:title=" ">
<polygon fill="white" stroke="#666666" points="152,-19 0,-19 0,0 152,0 152,-19"/>
<text text-anchor="middle" x="76" y="-7" font-family="Helvetica,sans-Serif" font-size="10.00">Argument::parseStringFunction</text>
</a>
</g>
</g>
<!-- Node2&#45;&gt;Node5 -->
<g id="edge4" class="edge">
<title>Node2&#45;&gt;Node5</title>
<path fill="none" stroke="#63b8ff" d="M209.25,-35.05C182.7,-29.92 151.76,-23.94 126.48,-19.06"/>
<polygon fill="#63b8ff" stroke="#63b8ff" points="208.7,-38.51 219.18,-36.97 210.03,-31.64 208.7,-38.51"/>
</g>
</g>
</svg>
