<?xml version="1.0" encoding="UTF-8" standalone="no"?>
<!DOCTYPE svg PUBLIC "-//W3C//DTD SVG 1.1//EN"
 "http://www.w3.org/Graphics/SVG/1.1/DTD/svg11.dtd">
<!-- Generated by graphviz version 5.0.1 (20220820.1526)
 -->
<!-- Title: Commander::executeCommand Pages: 1 -->
<svg width="329pt" height="179pt"
 viewBox="0.00 0.00 329.00 179.00" xmlns="http://www.w3.org/2000/svg" xmlns:xlink="http://www.w3.org/1999/xlink">
<g id="graph0" class="graph" transform="scale(1 1) rotate(0) translate(4 175)">
<title>Commander::executeCommand</title>
<!-- Node1 -->
<g id="node1" class="node">
<title>Node1</title>
<g id="a_node1"><a xlink:title="Command execution.">
<polygon fill="#999999" stroke="#666666" points="154,-94.5 0,-94.5 0,-75.5 154,-75.5 154,-94.5"/>
<text text-anchor="middle" x="77" y="-82.5" font-family="Helvetica,sans-Serif" font-size="10.00">Commander::executeCommand</text>
</a>
</g>
</g>
<!-- Node1&#45;&gt;Node1 -->
<g id="edge2" class="edge">
<title>Node1&#45;&gt;Node1</title>
<path fill="none" stroke="#63b8ff" d="M49.57,-94.58C36.22,-103.23 45.36,-112.5 77,-112.5 98.26,-112.5 109.36,-108.32 110.31,-102.95"/>
<polygon fill="#63b8ff" stroke="#63b8ff" points="113.05,-100.76 104.43,-94.58 107.32,-104.78 113.05,-100.76"/>
</g>
<!-- Node2 -->
<g id="node2" class="node">
<title>Node2</title>
<g id="a_node2"><a xlink:href="classcommander_pipe_channel.html#ad67f75499feea46a4f1cb71a0b98587b" target="_top" xlink:title="Available bytes in the channel.">
<polygon fill="white" stroke="#666666" points="316.5,-171 194.5,-171 194.5,-141 316.5,-141 316.5,-171"/>
<text text-anchor="start" x="202.5" y="-159" font-family="Helvetica,sans-Serif" font-size="10.00">commanderPipeChannel</text>
<text text-anchor="middle" x="255.5" y="-148" font-family="Helvetica,sans-Serif" font-size="10.00">::available</text>
</a>
</g>
</g>
<!-- Node1&#45;&gt;Node2 -->
<g id="edge1" class="edge">
<title>Node1&#45;&gt;Node2</title>
<path fill="none" stroke="#63b8ff" d="M100.2,-94.63C122.72,-104.33 158.63,-119.59 190,-132 194.42,-133.75 199.02,-135.53 203.65,-137.3"/>
<polygon fill="#63b8ff" stroke="#63b8ff" points="202.52,-140.62 213.11,-140.89 205,-134.07 202.52,-140.62"/>
</g>
<!-- Node3 -->
<g id="node3" class="node">
<title>Node3</title>
<g id="a_node3"><a xlink:href="class_commander.html#a79a36c570d33547d859fa0c9c6fc99d6" target="_top" xlink:title="Search for a character in a string.">
<polygon fill="white" stroke="#666666" points="311,-122.5 200,-122.5 200,-103.5 311,-103.5 311,-122.5"/>
<text text-anchor="middle" x="255.5" y="-110.5" font-family="Helvetica,sans-Serif" font-size="10.00">Commander::hasChar</text>
</a>
</g>
</g>
<!-- Node1&#45;&gt;Node3 -->
<g id="edge3" class="edge">
<title>Node1&#45;&gt;Node3</title>
<path fill="none" stroke="#63b8ff" d="M138.25,-94.56C154.79,-97.18 172.79,-100.04 189.58,-102.7"/>
<polygon fill="#63b8ff" stroke="#63b8ff" points="189.43,-106.22 199.86,-104.33 190.53,-99.31 189.43,-106.22"/>
</g>
<!-- Node4 -->
<g id="node4" class="node">
<title>Node4</title>
<g id="a_node4"><a xlink:href="class_commander.html#a578efc09c061fd0c784fabc2844d2c40" target="_top" xlink:title="Help function.">
<polygon fill="white" stroke="#666666" points="321,-67.5 190,-67.5 190,-48.5 321,-48.5 321,-67.5"/>
<text text-anchor="middle" x="255.5" y="-55.5" font-family="Helvetica,sans-Serif" font-size="10.00">Commander::helpFunction</text>
</a>
</g>
</g>
<!-- Node1&#45;&gt;Node4 -->
<g id="edge4" class="edge">
<title>Node1&#45;&gt;Node4</title>
<path fill="none" stroke="#63b8ff" d="M140.23,-75.48C153.8,-73.4 168.28,-71.19 182.21,-69.06"/>
<polygon fill="#63b8ff" stroke="#63b8ff" points="182.88,-72.5 192.24,-67.52 181.83,-65.58 182.88,-72.5"/>
</g>
<!-- Node5 -->
<g id="node5" class="node">
<title>Node5</title>
<g id="a_node5"><a xlink:href="classcommander_pipe_channel.html#ac94b25ee07795603b3197f4c289efe92" target="_top" xlink:title="Read one byte form the channel.">
<polygon fill="white" stroke="#666666" points="316.5,-30 194.5,-30 194.5,0 316.5,0 316.5,-30"/>
<text text-anchor="start" x="202.5" y="-18" font-family="Helvetica,sans-Serif" font-size="10.00">commanderPipeChannel</text>
<text text-anchor="middle" x="255.5" y="-7" font-family="Helvetica,sans-Serif" font-size="10.00">::read</text>
</a>
</g>
</g>
<!-- Node1&#45;&gt;Node5 -->
<g id="edge6" class="edge">
<title>Node1&#45;&gt;Node5</title>
<path fill="none" stroke="#63b8ff" d="M101.56,-75.43C124.21,-66.27 159.4,-52.08 190,-40 195.1,-37.99 200.43,-35.9 205.74,-33.83"/>
<polygon fill="#63b8ff" stroke="#63b8ff" points="207.2,-37.02 215.24,-30.13 204.66,-30.49 207.2,-37.02"/>
</g>
<!-- Node4&#45;&gt;Node4 -->
<g id="edge5" class="edge">
<title>Node4&#45;&gt;Node4</title>
<path fill="none" stroke="#63b8ff" d="M228.07,-67.58C214.72,-76.23 223.86,-85.5 255.5,-85.5 276.76,-85.5 287.86,-81.32 288.81,-75.95"/>
<polygon fill="#63b8ff" stroke="#63b8ff" points="291.55,-73.76 282.93,-67.58 285.82,-77.78 291.55,-73.76"/>
</g>
</g>
</svg>
