<?xml version="1.0" encoding="UTF-8" standalone="no"?>
<!DOCTYPE svg PUBLIC "-//W3C//DTD SVG 1.1//EN"
 "http://www.w3.org/Graphics/SVG/1.1/DTD/svg11.dtd">
<!-- Generated by graphviz version 5.0.1 (20220820.1526)
 -->
<!-- Title: commandResponseWiFiClient::select Pages: 1 -->
<svg width="357pt" height="64pt"
 viewBox="0.00 0.00 357.00 64.00" xmlns="http://www.w3.org/2000/svg" xmlns:xlink="http://www.w3.org/1999/xlink">
<g id="graph0" class="graph" transform="scale(1 1) rotate(0) translate(4 60)">
<title>commandResponseWiFiClient::select</title>
<!-- Node1 -->
<g id="node1" class="node">
<title>Node1</title>
<g id="a_node1"><a xlink:title=" ">
<polygon fill="#999999" stroke="#666666" points="349,-42.5 201,-42.5 201,-12.5 349,-12.5 349,-42.5"/>
<text text-anchor="start" x="209" y="-30.5" font-family="Helvetica,sans-Serif" font-size="10.00">commandResponseWiFiClient</text>
<text text-anchor="middle" x="275" y="-19.5" font-family="Helvetica,sans-Serif" font-size="10.00">::select</text>
</a>
</g>
</g>
<!-- Node2 -->
<g id="node2" class="node">
<title>Node2</title>
<g id="a_node2"><a xlink:href="class_commander.html#a38d2a34b7f74faad69817e6b4c1e131a" target="_top" xlink:title="Debug channel for WiFiClient.">
<polygon fill="white" stroke="#666666" points="165,-56 0,-56 0,-37 165,-37 165,-56"/>
<text text-anchor="middle" x="82.5" y="-44" font-family="Helvetica,sans-Serif" font-size="10.00">Commander::attachDebugChannel</text>
</a>
</g>
</g>
<!-- Node1&#45;&gt;Node2 -->
<g id="edge1" class="edge">
<title>Node1&#45;&gt;Node2</title>
<path fill="none" stroke="#63b8ff" d="M190.69,-35.81C182.27,-36.65 173.71,-37.5 165.3,-38.34"/>
<polygon fill="#63b8ff" stroke="#63b8ff" points="191.29,-39.27 200.89,-34.79 190.59,-32.3 191.29,-39.27"/>
</g>
<!-- Node3 -->
<g id="node3" class="node">
<title>Node3</title>
<g id="a_node3"><a xlink:href="class_commander.html#a1c0e2ee151df6bf5546e2398facb15c6" target="_top" xlink:title="Execution function for WiFi Client response.">
<polygon fill="white" stroke="#666666" points="137.5,-19 27.5,-19 27.5,0 137.5,0 137.5,-19"/>
<text text-anchor="middle" x="82.5" y="-7" font-family="Helvetica,sans-Serif" font-size="10.00">Commander::execute</text>
</a>
</g>
</g>
<!-- Node1&#45;&gt;Node3 -->
<g id="edge2" class="edge">
<title>Node1&#45;&gt;Node3</title>
<path fill="none" stroke="#63b8ff" d="M190.71,-19.63C172.77,-17.94 154.26,-16.19 137.77,-14.63"/>
<polygon fill="#63b8ff" stroke="#63b8ff" points="190.61,-23.14 200.89,-20.59 191.27,-16.17 190.61,-23.14"/>
</g>
</g>
</svg>
