<?xml version="1.0" encoding="UTF-8" standalone="no"?>
<!DOCTYPE svg PUBLIC "-//W3C//DTD SVG 1.1//EN"
 "http://www.w3.org/Graphics/SVG/1.1/DTD/svg11.dtd">
<!-- Generated by graphviz version 5.0.1 (20220820.1526)
 -->
<!-- Title: Commander::execute Pages: 1 -->
<svg width="475pt" height="179pt"
 viewBox="0.00 0.00 475.00 179.00" xmlns="http://www.w3.org/2000/svg" xmlns:xlink="http://www.w3.org/1999/xlink">
<g id="graph0" class="graph" transform="scale(1 1) rotate(0) translate(4 175)">
<title>Commander::execute</title>
<!-- Node1 -->
<g id="node1" class="node">
<title>Node1</title>
<g id="a_node1"><a xlink:title="Execution function for Serial response.">
<polygon fill="#999999" stroke="#666666" points="110,-94.5 0,-94.5 0,-75.5 110,-75.5 110,-94.5"/>
<text text-anchor="middle" x="55" y="-82.5" font-family="Helvetica,sans-Serif" font-size="10.00">Commander::execute</text>
</a>
</g>
</g>
<!-- Node2 -->
<g id="node2" class="node">
<title>Node2</title>
<g id="a_node2"><a xlink:href="class_commander.html#a31be5be6e4b41cec2f2f836969fe7932" target="_top" xlink:title="Command execution.">
<polygon fill="white" stroke="#666666" points="300,-94.5 146,-94.5 146,-75.5 300,-75.5 300,-94.5"/>
<text text-anchor="middle" x="223" y="-82.5" font-family="Helvetica,sans-Serif" font-size="10.00">Commander::executeCommand</text>
</a>
</g>
</g>
<!-- Node1&#45;&gt;Node2 -->
<g id="edge1" class="edge">
<title>Node1&#45;&gt;Node2</title>
<path fill="none" stroke="#63b8ff" d="M110.35,-85C118.51,-85 127.09,-85 135.71,-85"/>
<polygon fill="#63b8ff" stroke="#63b8ff" points="135.83,-88.5 145.83,-85 135.83,-81.5 135.83,-88.5"/>
</g>
<!-- Node2&#45;&gt;Node2 -->
<g id="edge3" class="edge">
<title>Node2&#45;&gt;Node2</title>
<path fill="none" stroke="#63b8ff" d="M197.11,-94.58C184.51,-103.23 193.14,-112.5 223,-112.5 243.06,-112.5 253.54,-108.32 254.44,-102.95"/>
<polygon fill="#63b8ff" stroke="#63b8ff" points="257.34,-100.99 248.89,-94.58 251.5,-104.85 257.34,-100.99"/>
</g>
<!-- Node3 -->
<g id="node3" class="node">
<title>Node3</title>
<g id="a_node3"><a xlink:href="classcommander_pipe_channel.html#ad67f75499feea46a4f1cb71a0b98587b" target="_top" xlink:title="Available bytes in the channel.">
<polygon fill="white" stroke="#666666" points="462.5,-171 340.5,-171 340.5,-141 462.5,-141 462.5,-171"/>
<text text-anchor="start" x="348.5" y="-159" font-family="Helvetica,sans-Serif" font-size="10.00">commanderPipeChannel</text>
<text text-anchor="middle" x="401.5" y="-148" font-family="Helvetica,sans-Serif" font-size="10.00">::available</text>
</a>
</g>
</g>
<!-- Node2&#45;&gt;Node3 -->
<g id="edge2" class="edge">
<title>Node2&#45;&gt;Node3</title>
<path fill="none" stroke="#63b8ff" d="M246.2,-94.63C268.72,-104.33 304.63,-119.59 336,-132 340.42,-133.75 345.02,-135.53 349.65,-137.3"/>
<polygon fill="#63b8ff" stroke="#63b8ff" points="348.52,-140.62 359.11,-140.89 351,-134.07 348.52,-140.62"/>
</g>
<!-- Node4 -->
<g id="node4" class="node">
<title>Node4</title>
<g id="a_node4"><a xlink:href="class_commander.html#a79a36c570d33547d859fa0c9c6fc99d6" target="_top" xlink:title="Search for a character in a string.">
<polygon fill="white" stroke="#666666" points="457,-122.5 346,-122.5 346,-103.5 457,-103.5 457,-122.5"/>
<text text-anchor="middle" x="401.5" y="-110.5" font-family="Helvetica,sans-Serif" font-size="10.00">Commander::hasChar</text>
</a>
</g>
</g>
<!-- Node2&#45;&gt;Node4 -->
<g id="edge4" class="edge">
<title>Node2&#45;&gt;Node4</title>
<path fill="none" stroke="#63b8ff" d="M284.25,-94.56C300.79,-97.18 318.79,-100.04 335.58,-102.7"/>
<polygon fill="#63b8ff" stroke="#63b8ff" points="335.43,-106.22 345.86,-104.33 336.53,-99.31 335.43,-106.22"/>
</g>
<!-- Node5 -->
<g id="node5" class="node">
<title>Node5</title>
<g id="a_node5"><a xlink:href="class_commander.html#a578efc09c061fd0c784fabc2844d2c40" target="_top" xlink:title="Help function.">
<polygon fill="white" stroke="#666666" points="467,-67.5 336,-67.5 336,-48.5 467,-48.5 467,-67.5"/>
<text text-anchor="middle" x="401.5" y="-55.5" font-family="Helvetica,sans-Serif" font-size="10.00">Commander::helpFunction</text>
</a>
</g>
</g>
<!-- Node2&#45;&gt;Node5 -->
<g id="edge5" class="edge">
<title>Node2&#45;&gt;Node5</title>
<path fill="none" stroke="#63b8ff" d="M286.23,-75.48C299.8,-73.4 314.28,-71.19 328.21,-69.06"/>
<polygon fill="#63b8ff" stroke="#63b8ff" points="328.88,-72.5 338.24,-67.52 327.83,-65.58 328.88,-72.5"/>
</g>
<!-- Node6 -->
<g id="node6" class="node">
<title>Node6</title>
<g id="a_node6"><a xlink:href="classcommander_pipe_channel.html#ac94b25ee07795603b3197f4c289efe92" target="_top" xlink:title="Read one byte form the channel.">
<polygon fill="white" stroke="#666666" points="462.5,-30 340.5,-30 340.5,0 462.5,0 462.5,-30"/>
<text text-anchor="start" x="348.5" y="-18" font-family="Helvetica,sans-Serif" font-size="10.00">commanderPipeChannel</text>
<text text-anchor="middle" x="401.5" y="-7" font-family="Helvetica,sans-Serif" font-size="10.00">::read</text>
</a>
</g>
</g>
<!-- Node2&#45;&gt;Node6 -->
<g id="edge7" class="edge">
<title>Node2&#45;&gt;Node6</title>
<path fill="none" stroke="#63b8ff" d="M247.56,-75.43C270.21,-66.27 305.4,-52.08 336,-40 341.1,-37.99 346.43,-35.9 351.74,-33.83"/>
<polygon fill="#63b8ff" stroke="#63b8ff" points="353.2,-37.02 361.24,-30.13 350.66,-30.49 353.2,-37.02"/>
</g>
<!-- Node5&#45;&gt;Node5 -->
<g id="edge6" class="edge">
<title>Node5&#45;&gt;Node5</title>
<path fill="none" stroke="#63b8ff" d="M374.07,-67.58C360.72,-76.23 369.86,-85.5 401.5,-85.5 422.76,-85.5 433.86,-81.32 434.81,-75.95"/>
<polygon fill="#63b8ff" stroke="#63b8ff" points="437.55,-73.76 428.93,-67.58 431.82,-77.78 437.55,-73.76"/>
</g>
</g>
</svg>
