<?xml version="1.0" encoding="UTF-8" standalone="no"?>
<!DOCTYPE svg PUBLIC "-//W3C//DTD SVG 1.1//EN"
 "http://www.w3.org/Graphics/SVG/1.1/DTD/svg11.dtd">
<!-- Generated by graphviz version 5.0.1 (20220820.1526)
 -->
<!-- Title: Argument Pages: 1 -->
<svg width="432pt" height="456pt"
 viewBox="0.00 0.00 432.00 456.00" xmlns="http://www.w3.org/2000/svg" xmlns:xlink="http://www.w3.org/1999/xlink">
<g id="graph0" class="graph" transform="scale(1 1) rotate(0) translate(4 452)">
<title>Argument</title>
<!-- Node1 -->
<g id="node1" class="node">
<title>Node1</title>
<g id="a_node1"><a xlink:title="Argument class.">
<polygon fill="#999999" stroke="#666666" points="296,-316 177,-316 177,0 296,0 296,-316"/>
<text text-anchor="middle" x="236.5" y="-304" font-family="Helvetica,sans-Serif" font-size="10.00">{Argument</text>
<text text-anchor="start" x="185" y="-293" font-family="Helvetica,sans-Serif" font-size="10.00">|&#45; source</text>
<text text-anchor="start" x="185" y="-282" font-family="Helvetica,sans-Serif" font-size="10.00">&#45; sourceSize</text>
<text text-anchor="start" x="185" y="-271" font-family="Helvetica,sans-Serif" font-size="10.00">&#45; place</text>
<text text-anchor="start" x="185" y="-260" font-family="Helvetica,sans-Serif" font-size="10.00">&#45; shortName</text>
<text text-anchor="start" x="185" y="-249" font-family="Helvetica,sans-Serif" font-size="10.00">&#45; longName</text>
<text text-anchor="start" x="185" y="-238" font-family="Helvetica,sans-Serif" font-size="10.00">&#45; failedString</text>
<text text-anchor="start" x="185" y="-227" font-family="Helvetica,sans-Serif" font-size="10.00">|+ Argument()</text>
<text text-anchor="start" x="185" y="-216" font-family="Helvetica,sans-Serif" font-size="10.00">+ Argument()</text>
<text text-anchor="start" x="185" y="-205" font-family="Helvetica,sans-Serif" font-size="10.00">+ Argument()</text>
<text text-anchor="start" x="185" y="-194" font-family="Helvetica,sans-Serif" font-size="10.00">+ operator int()</text>
<text text-anchor="start" x="185" y="-183" font-family="Helvetica,sans-Serif" font-size="10.00">+ operator float()</text>
<text text-anchor="start" x="185" y="-172" font-family="Helvetica,sans-Serif" font-size="10.00">+ operator char *()</text>
<text text-anchor="start" x="185" y="-161" font-family="Helvetica,sans-Serif" font-size="10.00">+ operator bool()</text>
<text text-anchor="start" x="185" y="-150" font-family="Helvetica,sans-Serif" font-size="10.00">+ parseInt()</text>
<text text-anchor="start" x="185" y="-139" font-family="Helvetica,sans-Serif" font-size="10.00">+ parseFloat()</text>
<text text-anchor="start" x="185" y="-128" font-family="Helvetica,sans-Serif" font-size="10.00">+ parseStringFunction()</text>
<text text-anchor="start" x="185" y="-117" font-family="Helvetica,sans-Serif" font-size="10.00">+ find()</text>
<text text-anchor="start" x="185" y="-106" font-family="Helvetica,sans-Serif" font-size="10.00">+ isFound()</text>
<text text-anchor="start" x="185" y="-95" font-family="Helvetica,sans-Serif" font-size="10.00">+ getSystemVariable()</text>
<text text-anchor="start" x="185" y="-84" font-family="Helvetica,sans-Serif" font-size="10.00">&#45; __attribute__()</text>
<text text-anchor="start" x="185" y="-73" font-family="Helvetica,sans-Serif" font-size="10.00">&#45; findShortName()</text>
<text text-anchor="start" x="185" y="-62" font-family="Helvetica,sans-Serif" font-size="10.00">&#45; findLongName()</text>
<text text-anchor="start" x="185" y="-51" font-family="Helvetica,sans-Serif" font-size="10.00">&#45; findByPlace()</text>
<text text-anchor="start" x="185" y="-40" font-family="Helvetica,sans-Serif" font-size="10.00">&#45; findStart()</text>
<text text-anchor="start" x="185" y="-29" font-family="Helvetica,sans-Serif" font-size="10.00">&#45; inString()</text>
<text text-anchor="start" x="185" y="-18" font-family="Helvetica,sans-Serif" font-size="10.00">&#45; substring()</text>
<text text-anchor="middle" x="236.5" y="-7" font-family="Helvetica,sans-Serif" font-size="10.00">}</text>
</a>
</g>
</g>
<!-- Node2 -->
<g id="node2" class="node">
<title>Node2</title>
<g id="a_node2"><a xlink:href="struct_commander_database_1_1data_record__t.html" target="_top" xlink:title="Data record element.">
<polygon fill="white" stroke="#666666" points="119,-448 0,-448 0,-363 119,-363 119,-448"/>
<text text-anchor="start" x="8" y="-436" font-family="Helvetica,sans-Serif" font-size="10.00">{CommanderDatabase&lt;</text>
<text text-anchor="middle" x="59.5" y="-425" font-family="Helvetica,sans-Serif" font-size="10.00"> T &gt;::dataRecord_t</text>
<text text-anchor="start" x="8" y="-414" font-family="Helvetica,sans-Serif" font-size="10.00">|+ place</text>
<text text-anchor="start" x="8" y="-403" font-family="Helvetica,sans-Serif" font-size="10.00">+ name</text>
<text text-anchor="start" x="8" y="-392" font-family="Helvetica,sans-Serif" font-size="10.00">+ data</text>
<text text-anchor="start" x="8" y="-381" font-family="Helvetica,sans-Serif" font-size="10.00">+ name_P</text>
<text text-anchor="middle" x="59.5" y="-370" font-family="Helvetica,sans-Serif" font-size="10.00">|}</text>
</a>
</g>
</g>
<!-- Node2&#45;&gt;Node1 -->
<g id="edge1" class="edge">
<title>Node2&#45;&gt;Node1</title>
<path fill="none" stroke="#404040" d="M89.53,-362.85C111.44,-332.46 142,-290.07 169.59,-251.81"/>
<polygon fill="none" stroke="#404040" points="169.89,-251.39 170.15,-244.19 176.9,-241.66 176.64,-248.87 169.89,-251.39"/>
<text text-anchor="middle" x="144.5" y="-337" font-family="Helvetica,sans-Serif" font-size="10.00"> &#45;systemVariable</text>
</g>
<!-- Node2&#45;&gt;Node2 -->
<g id="edge2" class="edge">
<title>Node2&#45;&gt;Node2</title>
<path fill="none" stroke="#404040" d="M119.29,-417.1C129.73,-415.55 137,-411.69 137,-405.5 137,-402.02 134.7,-399.27 130.83,-397.26"/>
<polygon fill="none" stroke="#404040" points="130.81,-397.26 123.93,-399.42 119.29,-393.9 126.17,-391.74 130.81,-397.26"/>
<text text-anchor="middle" x="149.5" y="-408.5" font-family="Helvetica,sans-Serif" font-size="10.00"> +left</text>
<text text-anchor="middle" x="149.5" y="-397.5" font-family="Helvetica,sans-Serif" font-size="10.00">+right</text>
</g>
<!-- Node3 -->
<g id="node3" class="node">
<title>Node3</title>
<g id="a_node3"><a xlink:href="struct_argument_1_1bool_fields.html" target="_top" xlink:title=" ">
<polygon fill="white" stroke="#666666" points="292.5,-431.5 180.5,-431.5 180.5,-379.5 292.5,-379.5 292.5,-431.5"/>
<text text-anchor="middle" x="236.5" y="-419.5" font-family="Helvetica,sans-Serif" font-size="10.00">{Argument::boolFields</text>
<text text-anchor="start" x="188.5" y="-408.5" font-family="Helvetica,sans-Serif" font-size="10.00">|+ parsed</text>
<text text-anchor="start" x="188.5" y="-397.5" font-family="Helvetica,sans-Serif" font-size="10.00">+ found</text>
<text text-anchor="middle" x="236.5" y="-386.5" font-family="Helvetica,sans-Serif" font-size="10.00">|}</text>
</a>
</g>
</g>
<!-- Node3&#45;&gt;Node1 -->
<g id="edge3" class="edge">
<title>Node3&#45;&gt;Node1</title>
<path fill="none" stroke="#404040" d="M236.5,-379.15C236.5,-365.7 236.5,-347.88 236.5,-328.2"/>
<polygon fill="none" stroke="#404040" points="236.5,-328.07 232.5,-322.07 236.5,-316.07 240.5,-322.07 236.5,-328.07"/>
<text text-anchor="middle" x="255.5" y="-337" font-family="Helvetica,sans-Serif" font-size="10.00"> &#45;bFields</text>
</g>
<!-- Node4 -->
<g id="node4" class="node">
<title>Node4</title>
<g id="a_node4"><a xlink:href="union_argument_1_1return_data.html" target="_top" xlink:title=" ">
<polygon fill="white" stroke="#666666" points="424,-437 311,-437 311,-374 424,-374 424,-437"/>
<text text-anchor="middle" x="367.5" y="-425" font-family="Helvetica,sans-Serif" font-size="10.00">{Argument::returnData</text>
<text text-anchor="start" x="319" y="-414" font-family="Helvetica,sans-Serif" font-size="10.00">|+ i</text>
<text text-anchor="start" x="319" y="-403" font-family="Helvetica,sans-Serif" font-size="10.00">+ f</text>
<text text-anchor="start" x="319" y="-392" font-family="Helvetica,sans-Serif" font-size="10.00">+ c</text>
<text text-anchor="middle" x="367.5" y="-381" font-family="Helvetica,sans-Serif" font-size="10.00">|}</text>
</a>
</g>
</g>
<!-- Node4&#45;&gt;Node1 -->
<g id="edge4" class="edge">
<title>Node4&#45;&gt;Node1</title>
<path fill="none" stroke="#404040" d="M351.17,-373.9C338.52,-350.2 320.11,-315.69 301.72,-281.23"/>
<polygon fill="none" stroke="#404040" points="301.67,-281.14 295.32,-277.73 296.03,-270.55 302.38,-273.96 301.67,-281.14"/>
<text text-anchor="middle" x="340.5" y="-337" font-family="Helvetica,sans-Serif" font-size="10.00"> &#45;ret</text>
</g>
</g>
</svg>
