<?xml version="1.0" encoding="UTF-8" standalone="no"?>
<!DOCTYPE svg PUBLIC "-//W3C//DTD SVG 1.1//EN"
 "http://www.w3.org/Graphics/SVG/1.1/DTD/svg11.dtd">
<!-- Generated by graphviz version 5.0.1 (20220820.1526)
 -->
<!-- Title: Commander::find_api_index_by_place Pages: 1 -->
<svg width="730pt" height="112pt"
 viewBox="0.00 0.00 730.00 111.50" xmlns="http://www.w3.org/2000/svg" xmlns:xlink="http://www.w3.org/1999/xlink">
<g id="graph0" class="graph" transform="scale(1 1) rotate(0) translate(4 107.5)">
<title>Commander::find_api_index_by_place</title>
<!-- Node1 -->
<g id="node1" class="node">
<title>Node1</title>
<g id="a_node1"><a xlink:title="Find an API element in the tree by alphabetical place.">
<polygon fill="#999999" stroke="#666666" points="722,-60 614,-60 614,-30 722,-30 722,-60"/>
<text text-anchor="start" x="622" y="-48" font-family="Helvetica,sans-Serif" font-size="10.00">Commander::find_api</text>
<text text-anchor="middle" x="668" y="-37" font-family="Helvetica,sans-Serif" font-size="10.00">_index_by_place</text>
</a>
</g>
</g>
<!-- Node2 -->
<g id="node2" class="node">
<title>Node2</title>
<g id="a_node2"><a xlink:href="class_commander.html#a0fab647689fcd4557145386ff585aec1" target="_top" xlink:title="Print the help text to a specified Stream.">
<polygon fill="white" stroke="#666666" points="576.5,-80.5 463.5,-80.5 463.5,-61.5 576.5,-61.5 576.5,-80.5"/>
<text text-anchor="middle" x="520" y="-68.5" font-family="Helvetica,sans-Serif" font-size="10.00">Commander::printHelp</text>
</a>
</g>
</g>
<!-- Node1&#45;&gt;Node2 -->
<g id="edge1" class="edge">
<title>Node1&#45;&gt;Node2</title>
<path fill="none" stroke="#63b8ff" d="M603.9,-56.24C594.21,-57.96 584.28,-59.73 574.82,-61.42"/>
<polygon fill="#63b8ff" stroke="#63b8ff" points="604.65,-59.66 613.88,-54.46 603.42,-52.77 604.65,-59.66"/>
</g>
<!-- Node5 -->
<g id="node5" class="node">
<title>Node5</title>
<g id="a_node5"><a xlink:href="class_commander.html#a05f64743655f673fb18871e71ae75c9c" target="_top" xlink:title="Swap two API elements in the tree.">
<polygon fill="white" stroke="#666666" points="578,-39 462,-39 462,-9 578,-9 578,-39"/>
<text text-anchor="start" x="470" y="-27" font-family="Helvetica,sans-Serif" font-size="10.00">Commander::swap_api</text>
<text text-anchor="middle" x="520" y="-16" font-family="Helvetica,sans-Serif" font-size="10.00">_elements</text>
</a>
</g>
</g>
<!-- Node1&#45;&gt;Node5 -->
<g id="edge5" class="edge">
<title>Node1&#45;&gt;Node5</title>
<path fill="none" stroke="#63b8ff" d="M603.97,-35.93C595.43,-34.71 586.7,-33.45 578.27,-32.24"/>
<polygon fill="#63b8ff" stroke="#63b8ff" points="603.48,-39.4 613.88,-37.36 604.48,-32.47 603.48,-39.4"/>
</g>
<!-- Node3 -->
<g id="node3" class="node">
<title>Node3</title>
<g id="a_node3"><a xlink:href="class_commander.html#add4dd1e824524f3682d1862d26cfa6a6" target="_top" xlink:title="Command execution.">
<polygon fill="white" stroke="#666666" points="426,-85.5 272,-85.5 272,-66.5 426,-66.5 426,-85.5"/>
<text text-anchor="middle" x="349" y="-73.5" font-family="Helvetica,sans-Serif" font-size="10.00">Commander::executeCommand</text>
</a>
</g>
</g>
<!-- Node2&#45;&gt;Node3 -->
<g id="edge2" class="edge">
<title>Node2&#45;&gt;Node3</title>
<path fill="none" stroke="#63b8ff" d="M453.04,-72.95C444.26,-73.21 435.19,-73.48 426.26,-73.74"/>
<polygon fill="#63b8ff" stroke="#63b8ff" points="453.3,-76.45 463.19,-72.65 453.1,-69.45 453.3,-76.45"/>
</g>
<!-- Node3&#45;&gt;Node3 -->
<g id="edge4" class="edge">
<title>Node3&#45;&gt;Node3</title>
<path fill="none" stroke="#63b8ff" d="M380.44,-93.95C379.54,-99.32 369.06,-103.5 349,-103.5 319.14,-103.5 310.51,-94.23 323.11,-85.58"/>
<polygon fill="#63b8ff" stroke="#63b8ff" points="383.34,-91.99 374.89,-85.58 377.5,-95.85 383.34,-91.99"/>
</g>
<!-- Node4 -->
<g id="node4" class="node">
<title>Node4</title>
<g id="a_node4"><a xlink:href="class_commander.html#af6609b049d9524db60aac35dbba58cec" target="_top" xlink:title="Default execution function.">
<polygon fill="white" stroke="#666666" points="235,-85.5 125,-85.5 125,-66.5 235,-66.5 235,-85.5"/>
<text text-anchor="middle" x="180" y="-73.5" font-family="Helvetica,sans-Serif" font-size="10.00">Commander::execute</text>
</a>
</g>
</g>
<!-- Node3&#45;&gt;Node4 -->
<g id="edge3" class="edge">
<title>Node3&#45;&gt;Node4</title>
<path fill="none" stroke="#63b8ff" d="M261.64,-76C252.62,-76 243.63,-76 235.12,-76"/>
<polygon fill="#63b8ff" stroke="#63b8ff" points="261.83,-79.5 271.83,-76 261.83,-72.5 261.83,-79.5"/>
</g>
<!-- Node6 -->
<g id="node6" class="node">
<title>Node6</title>
<g id="a_node6"><a xlink:href="class_commander.html#a8415264e9cdf820c7ad1872cc36811bd" target="_top" xlink:title="Recursive function optimize a section in the tree.">
<polygon fill="white" stroke="#666666" points="405.5,-30 292.5,-30 292.5,0 405.5,0 405.5,-30"/>
<text text-anchor="start" x="300.5" y="-18" font-family="Helvetica,sans-Serif" font-size="10.00">Commander::recursive</text>
<text text-anchor="middle" x="349" y="-7" font-family="Helvetica,sans-Serif" font-size="10.00">_optimizer</text>
</a>
</g>
</g>
<!-- Node5&#45;&gt;Node6 -->
<g id="edge6" class="edge">
<title>Node5&#45;&gt;Node6</title>
<path fill="none" stroke="#63b8ff" d="M451.43,-20.4C436.27,-19.59 420.34,-18.75 405.72,-17.97"/>
<polygon fill="#63b8ff" stroke="#63b8ff" points="451.61,-23.92 461.78,-20.95 451.98,-16.93 451.61,-23.92"/>
</g>
<!-- Node6&#45;&gt;Node6 -->
<g id="edge9" class="edge">
<title>Node6&#45;&gt;Node6</title>
<path fill="none" stroke="#63b8ff" d="M378.41,-40.6C374.39,-44.97 364.59,-48 349,-48 322.75,-48 312.91,-39.41 319.47,-30.28"/>
<polygon fill="#63b8ff" stroke="#63b8ff" points="381.91,-40.32 378.53,-30.28 374.91,-40.23 381.91,-40.32"/>
</g>
<!-- Node7 -->
<g id="node7" class="node">
<title>Node7</title>
<g id="a_node7"><a xlink:href="class_commander.html#ad435a3490d9ae4b4dda2c88e2fbf0421" target="_top" xlink:title="Optimizes the tree to make it balanced.">
<polygon fill="white" stroke="#666666" points="236,-30 124,-30 124,0 236,0 236,-30"/>
<text text-anchor="start" x="132" y="-18" font-family="Helvetica,sans-Serif" font-size="10.00">Commander::optimize</text>
<text text-anchor="middle" x="180" y="-7" font-family="Helvetica,sans-Serif" font-size="10.00">_api_tree</text>
</a>
</g>
</g>
<!-- Node6&#45;&gt;Node7 -->
<g id="edge7" class="edge">
<title>Node6&#45;&gt;Node7</title>
<path fill="none" stroke="#63b8ff" d="M282.01,-15C266.8,-15 250.77,-15 236.08,-15"/>
<polygon fill="#63b8ff" stroke="#63b8ff" points="282.39,-18.5 292.39,-15 282.39,-11.5 282.39,-18.5"/>
</g>
<!-- Node8 -->
<g id="node8" class="node">
<title>Node8</title>
<g id="a_node8"><a xlink:href="class_commander.html#a5d9d12c3d15cf350593f4c2b11ec05d8" target="_top" xlink:title="Initializer.">
<polygon fill="white" stroke="#666666" points="88,-24.5 0,-24.5 0,-5.5 88,-5.5 88,-24.5"/>
<text text-anchor="middle" x="44" y="-12.5" font-family="Helvetica,sans-Serif" font-size="10.00">Commander::init</text>
</a>
</g>
</g>
<!-- Node7&#45;&gt;Node8 -->
<g id="edge8" class="edge">
<title>Node7&#45;&gt;Node8</title>
<path fill="none" stroke="#63b8ff" d="M113.66,-15C105.05,-15 96.4,-15 88.28,-15"/>
<polygon fill="#63b8ff" stroke="#63b8ff" points="113.72,-18.5 123.72,-15 113.72,-11.5 113.72,-18.5"/>
</g>
</g>
</svg>
