<?xml version="1.0" encoding="UTF-8" standalone="no"?>
<!DOCTYPE svg PUBLIC "-//W3C//DTD SVG 1.1//EN"
 "http://www.w3.org/Graphics/SVG/1.1/DTD/svg11.dtd">
<!-- Generated by graphviz version 5.0.1 (20220820.1526)
 -->
<!-- Title: Commander::executeCommand Pages: 1 -->
<svg width="455pt" height="64pt"
 viewBox="0.00 0.00 455.00 64.00" xmlns="http://www.w3.org/2000/svg" xmlns:xlink="http://www.w3.org/1999/xlink">
<g id="graph0" class="graph" transform="scale(1 1) rotate(0) translate(4 60)">
<title>Commander::executeCommand</title>
<!-- Node1 -->
<g id="node1" class="node">
<title>Node1</title>
<g id="a_node1"><a xlink:title="Command execution.">
<polygon fill="#999999" stroke="#666666" points="154,-37 0,-37 0,-18 154,-18 154,-37"/>
<text text-anchor="middle" x="77" y="-25" font-family="Helvetica,sans-Serif" font-size="10.00">Commander::executeCommand</text>
</a>
</g>
</g>
<!-- Node1&#45;&gt;Node1 -->
<g id="edge1" class="edge">
<title>Node1&#45;&gt;Node1</title>
<path fill="none" stroke="#63b8ff" d="M51.11,-37.08C38.51,-45.73 47.14,-55 77,-55 97.06,-55 107.54,-50.82 108.44,-45.45"/>
<polygon fill="#63b8ff" stroke="#63b8ff" points="111.34,-43.49 102.89,-37.08 105.5,-47.35 111.34,-43.49"/>
</g>
<!-- Node2 -->
<g id="node2" class="node">
<title>Node2</title>
<g id="a_node2"><a xlink:href="class_commander.html#a9b8d9afbf4e766034a2161109387c7ff" target="_top" xlink:title="Search for a character in a string.">
<polygon fill="white" stroke="#666666" points="302,-56 191,-56 191,-37 302,-37 302,-56"/>
<text text-anchor="middle" x="246.5" y="-44" font-family="Helvetica,sans-Serif" font-size="10.00">Commander::hasChar</text>
</a>
</g>
</g>
<!-- Node1&#45;&gt;Node2 -->
<g id="edge2" class="edge">
<title>Node1&#45;&gt;Node2</title>
<path fill="none" stroke="#63b8ff" d="M154.4,-36.17C163.2,-37.16 172.12,-38.18 180.75,-39.16"/>
<polygon fill="#63b8ff" stroke="#63b8ff" points="180.4,-42.64 190.73,-40.29 181.19,-35.68 180.4,-42.64"/>
</g>
<!-- Node4 -->
<g id="node4" class="node">
<title>Node4</title>
<g id="a_node4"><a xlink:href="class_commander.html#a0fab647689fcd4557145386ff585aec1" target="_top" xlink:title="Print the help text to a specified Stream.">
<polygon fill="white" stroke="#666666" points="303,-19 190,-19 190,0 303,0 303,-19"/>
<text text-anchor="middle" x="246.5" y="-7" font-family="Helvetica,sans-Serif" font-size="10.00">Commander::printHelp</text>
</a>
</g>
</g>
<!-- Node1&#45;&gt;Node4 -->
<g id="edge4" class="edge">
<title>Node1&#45;&gt;Node4</title>
<path fill="none" stroke="#63b8ff" d="M154.4,-19.29C162.86,-18.38 171.43,-17.46 179.75,-16.57"/>
<polygon fill="#63b8ff" stroke="#63b8ff" points="180.18,-20.04 189.74,-15.49 179.43,-13.08 180.18,-20.04"/>
</g>
<!-- Node3 -->
<g id="node3" class="node">
<title>Node3</title>
<g id="a_node3"><a xlink:href="class_commander.html#a80f04d459243886a6d92bce2a15eea5e" target="_top" xlink:title="Detect if character is in the string.">
<polygon fill="white" stroke="#666666" points="447,-56 339,-56 339,-37 447,-37 447,-56"/>
<text text-anchor="middle" x="393" y="-44" font-family="Helvetica,sans-Serif" font-size="10.00">Commander::inString</text>
</a>
</g>
</g>
<!-- Node2&#45;&gt;Node3 -->
<g id="edge3" class="edge">
<title>Node2&#45;&gt;Node3</title>
<path fill="none" stroke="#63b8ff" d="M302.13,-46.5C310.75,-46.5 319.72,-46.5 328.52,-46.5"/>
<polygon fill="#63b8ff" stroke="#63b8ff" points="328.73,-50 338.73,-46.5 328.73,-43 328.73,-50"/>
</g>
</g>
</svg>
