<?xml version="1.0" encoding="UTF-8" standalone="no"?>
<!DOCTYPE svg PUBLIC "-//W3C//DTD SVG 1.1//EN"
 "http://www.w3.org/Graphics/SVG/1.1/DTD/svg11.dtd">
<!-- Generated by graphviz version 5.0.1 (20220820.1526)
 -->
<!-- Title: Commander::init Pages: 1 -->
<!--zoomable 230 -->
<svg id="main" version="1.1" xmlns="http://www.w3.org/2000/svg" xmlns:xlink="http://www.w3.org/1999/xlink" xml:space="preserve" onload="init(evt)">
<style type="text/css"><![CDATA[
.edge:hover path { stroke: red; }
.edge:hover polygon { stroke: red; fill: red; }
]]></style>
<script type="text/javascript"><![CDATA[
var edges = document.getElementsByTagName('g');
if (edges && edges.length) {
  for (var i=0;i<edges.length;i++) {
    if (edges[i].id.substr(0,4)=='edge') {
      edges[i].setAttribute('class','edge');
    }
  }
}
]]></script>
        <defs>
                <circle id="rim" cx="0" cy="0" r="7"/>
                <circle id="rim2" cx="0" cy="0" r="3.5"/>
                <g id="zoomPlus">
                        <use xlink:href="#rim" fill="#404040">
                                <set attributeName="fill" to="#808080" begin="zoomplus.mouseover" end="zoomplus.mouseout"/>
                        </use>
                        <path d="M-4,0h8M0,-4v8" fill="none" stroke="white" stroke-width="1.5" pointer-events="none"/>
                </g>
                <g id="zoomMin">
                        <use xlink:href="#rim" fill="#404040">
                                <set attributeName="fill" to="#808080" begin="zoomminus.mouseover" end="zoomminus.mouseout"/>
                        </use>
                        <path d="M-4,0h8" fill="none" stroke="white" stroke-width="1.5" pointer-events="none"/>
                </g>
                <g id="dirArrow">
                        <path fill="none" stroke="white" stroke-width="1.5" d="M0,-3.0v7 M-2.5,-0.5L0,-3.0L2.5,-0.5"/>
                </g>
               <g id="resetDef">
                       <use xlink:href="#rim2" fill="#404040">
                               <set attributeName="fill" to="#808080" begin="reset.mouseover" end="reset.mouseout"/>
                       </use>
               </g>
        </defs>

<script type="text/javascript">
var viewWidth = 718;
var viewHeight = 230;
var sectionId = 'dynsection-13';
</script>
<script xlink:href="svgpan.js"/>
<svg id="graph" class="graph">
<g id="viewport">
<title>Commander::init</title>
<!-- Node1 -->
<g id="node1" class="node">
<title>Node1</title>
<g id="a_node1"><a xlink:title="Initializer.">
<polygon fill="#999999" stroke="#666666" points="88,-120.5 0,-120.5 0,-101.5 88,-101.5 88,-120.5"/>
<text text-anchor="middle" x="44" y="-108.5" font-family="Helvetica,sans-Serif" font-size="10.00">Commander::init</text>
</a>
</g>
</g>
<!-- Node2 -->
<g id="node2" class="node">
<title>Node2</title>
<g id="a_node2"><a xlink:href="class_commander.html#a427d055d672b7bbfc7f70005d48c372f" target="_top" xlink:title="Compare two API&#45;tree element&#39;s name.">
<polygon fill="white" stroke="#666666" points="257.5,-222 131.5,-222 131.5,-192 257.5,-192 257.5,-222"/>
<text text-anchor="start" x="139.5" y="-210" font-family="Helvetica,sans-Serif" font-size="10.00">Commander::commander</text>
<text text-anchor="middle" x="194.5" y="-199" font-family="Helvetica,sans-Serif" font-size="10.00">_strcmp_progmem</text>
</a>
</g>
</g>
<!-- Node1&#45;&gt;Node2 -->
<g id="edge1" class="edge">
<title>Node1&#45;&gt;Node2</title>
<path fill="none" stroke="#63b8ff" d="M53.26,-120.75C66.67,-136 94.64,-165.57 124,-183 126.8,-184.66 129.73,-186.23 132.74,-187.71"/>
<polygon fill="#63b8ff" stroke="#63b8ff" points="131.39,-190.94 141.94,-191.87 134.28,-184.56 131.39,-190.94"/>
</g>
<!-- Node3 -->
<g id="node3" class="node">
<title>Node3</title>
<g id="a_node3"><a xlink:href="class_commander.html#ac1f57477577657c1df6fc30efaa05c7e" target="_top" xlink:title="Compare two API&#45;tree element&#39;s name.">
<polygon fill="white" stroke="#666666" points="257.5,-174 131.5,-174 131.5,-144 257.5,-144 257.5,-174"/>
<text text-anchor="start" x="139.5" y="-162" font-family="Helvetica,sans-Serif" font-size="10.00">Commander::commander</text>
<text text-anchor="middle" x="194.5" y="-151" font-family="Helvetica,sans-Serif" font-size="10.00">_strcmp_regular</text>
</a>
</g>
</g>
<!-- Node1&#45;&gt;Node3 -->
<g id="edge2" class="edge">
<title>Node1&#45;&gt;Node3</title>
<path fill="none" stroke="#63b8ff" d="M74.69,-120.6C92.6,-126.39 116,-133.95 137.29,-140.83"/>
<polygon fill="#63b8ff" stroke="#63b8ff" points="136.31,-144.19 146.9,-143.94 138.46,-137.53 136.31,-144.19"/>
</g>
<!-- Node4 -->
<g id="node4" class="node">
<title>Node4</title>
<g id="a_node4"><a xlink:href="class_commander.html#a2762a5be3813cd54c9091487829bdf8b" target="_top" xlink:title="Compare an API&#45;tree element&#39;s name with a regular string.">
<polygon fill="white" stroke="#666666" points="265,-126 124,-126 124,-96 265,-96 265,-126"/>
<text text-anchor="start" x="132" y="-114" font-family="Helvetica,sans-Serif" font-size="10.00">Commander::commander</text>
<text text-anchor="middle" x="194.5" y="-103" font-family="Helvetica,sans-Serif" font-size="10.00">_strcmp_tree_ram_progmem</text>
</a>
</g>
</g>
<!-- Node1&#45;&gt;Node4 -->
<g id="edge3" class="edge">
<title>Node1&#45;&gt;Node4</title>
<path fill="none" stroke="#63b8ff" d="M88.35,-111C96.35,-111 104.93,-111 113.62,-111"/>
<polygon fill="#63b8ff" stroke="#63b8ff" points="113.83,-114.5 123.83,-111 113.83,-107.5 113.83,-114.5"/>
</g>
<!-- Node5 -->
<g id="node5" class="node">
<title>Node5</title>
<g id="a_node5"><a xlink:href="class_commander.html#ad445a486713469de3b397c6fe305c480" target="_top" xlink:title="Compare an API&#45;tree element&#39;s name with a regular string.">
<polygon fill="white" stroke="#666666" points="259.5,-78 129.5,-78 129.5,-48 259.5,-48 259.5,-78"/>
<text text-anchor="start" x="137.5" y="-66" font-family="Helvetica,sans-Serif" font-size="10.00">Commander::commander</text>
<text text-anchor="middle" x="194.5" y="-55" font-family="Helvetica,sans-Serif" font-size="10.00">_strcmp_tree_ram_regular</text>
</a>
</g>
</g>
<!-- Node1&#45;&gt;Node5 -->
<g id="edge4" class="edge">
<title>Node1&#45;&gt;Node5</title>
<path fill="none" stroke="#63b8ff" d="M74.69,-101.4C92.6,-95.61 116,-88.05 137.29,-81.17"/>
<polygon fill="#63b8ff" stroke="#63b8ff" points="138.46,-84.47 146.9,-78.06 136.31,-77.81 138.46,-84.47"/>
</g>
<!-- Node6 -->
<g id="node6" class="node">
<title>Node6</title>
<g id="a_node6"><a xlink:href="class_commander.html#ad435a3490d9ae4b4dda2c88e2fbf0421" target="_top" xlink:title="Optimizes the tree to make it balanced.">
<polygon fill="white" stroke="#666666" points="250.5,-30 138.5,-30 138.5,0 250.5,0 250.5,-30"/>
<text text-anchor="start" x="146.5" y="-18" font-family="Helvetica,sans-Serif" font-size="10.00">Commander::optimize</text>
<text text-anchor="middle" x="194.5" y="-7" font-family="Helvetica,sans-Serif" font-size="10.00">_api_tree</text>
</a>
</g>
</g>
<!-- Node1&#45;&gt;Node6 -->
<g id="edge5" class="edge">
<title>Node1&#45;&gt;Node6</title>
<path fill="none" stroke="#63b8ff" d="M53.26,-101.25C66.67,-86 94.64,-56.43 124,-39 126.8,-37.34 129.73,-35.77 132.74,-34.29"/>
<polygon fill="#63b8ff" stroke="#63b8ff" points="134.28,-37.44 141.94,-30.13 131.39,-31.06 134.28,-37.44"/>
</g>
<!-- Node7 -->
<g id="node7" class="node">
<title>Node7</title>
<g id="a_node7"><a xlink:href="class_commander.html#a8415264e9cdf820c7ad1872cc36811bd" target="_top" xlink:title="Recursive function optimize a section in the tree.">
<polygon fill="white" stroke="#666666" points="414,-30 301,-30 301,0 414,0 414,-30"/>
<text text-anchor="start" x="309" y="-18" font-family="Helvetica,sans-Serif" font-size="10.00">Commander::recursive</text>
<text text-anchor="middle" x="357.5" y="-7" font-family="Helvetica,sans-Serif" font-size="10.00">_optimizer</text>
</a>
</g>
</g>
<!-- Node6&#45;&gt;Node7 -->
<g id="edge6" class="edge">
<title>Node6&#45;&gt;Node7</title>
<path fill="none" stroke="#63b8ff" d="M250.91,-15C263.81,-15 277.67,-15 290.96,-15"/>
<polygon fill="#63b8ff" stroke="#63b8ff" points="290.99,-18.5 300.99,-15 290.99,-11.5 290.99,-18.5"/>
</g>
<!-- Node7&#45;&gt;Node7 -->
<g id="edge7" class="edge">
<title>Node7&#45;&gt;Node7</title>
<path fill="none" stroke="#63b8ff" d="M331.13,-30.28C325.27,-39.41 334.06,-48 357.5,-48 371.42,-48 380.17,-44.97 383.76,-40.6"/>
<polygon fill="#63b8ff" stroke="#63b8ff" points="387.26,-40.31 383.87,-30.28 380.26,-40.24 387.26,-40.31"/>
</g>
<!-- Node8 -->
<g id="node8" class="node">
<title>Node8</title>
<g id="a_node8"><a xlink:href="class_commander.html#a05f64743655f673fb18871e71ae75c9c" target="_top" xlink:title="Swap two API elements in the tree.">
<polygon fill="white" stroke="#666666" points="566,-30 450,-30 450,0 566,0 566,-30"/>
<text text-anchor="start" x="458" y="-18" font-family="Helvetica,sans-Serif" font-size="10.00">Commander::swap_api</text>
<text text-anchor="middle" x="508" y="-7" font-family="Helvetica,sans-Serif" font-size="10.00">_elements</text>
</a>
</g>
</g>
<!-- Node7&#45;&gt;Node8 -->
<g id="edge8" class="edge">
<title>Node7&#45;&gt;Node8</title>
<path fill="none" stroke="#63b8ff" d="M414.22,-15C422.62,-15 431.36,-15 439.96,-15"/>
<polygon fill="#63b8ff" stroke="#63b8ff" points="439.98,-18.5 449.98,-15 439.98,-11.5 439.98,-18.5"/>
</g>
<!-- Node9 -->
<g id="node9" class="node">
<title>Node9</title>
<g id="a_node9"><a xlink:href="class_commander.html#a8634a1c3c680d0a598fa8b6b5445ca39" target="_top" xlink:title="Find an API element in the tree by alphabetical place.">
<polygon fill="white" stroke="#666666" points="710,-30 602,-30 602,0 710,0 710,-30"/>
<text text-anchor="start" x="610" y="-18" font-family="Helvetica,sans-Serif" font-size="10.00">Commander::find_api</text>
<text text-anchor="middle" x="656" y="-7" font-family="Helvetica,sans-Serif" font-size="10.00">_index_by_place</text>
</a>
</g>
</g>
<!-- Node8&#45;&gt;Node9 -->
<g id="edge9" class="edge">
<title>Node8&#45;&gt;Node9</title>
<path fill="none" stroke="#63b8ff" d="M566.28,-15C574.58,-15 583.15,-15 591.56,-15"/>
<polygon fill="#63b8ff" stroke="#63b8ff" points="591.69,-18.5 601.69,-15 591.69,-11.5 591.69,-18.5"/>
</g>
</g>
</svg>
        <g id="navigator" transform="translate(0 0)" fill="#404254">
                <rect fill="#f2f5e9" fill-opacity="0.5" stroke="#606060" stroke-width=".5" x="0" y="0" width="60" height="60"/>
                <use id="zoomplus" xlink:href="#zoomPlus" x="17" y="9" onmousedown="handleZoom(evt,'in')"/>
                <use id="zoomminus" xlink:href="#zoomMin" x="42" y="9" onmousedown="handleZoom(evt,'out')"/>
                <use id="reset" xlink:href="#resetDef" x="30" y="36" onmousedown="handleReset()"/>
                <g id="arrowUp" xlink:href="#dirArrow" transform="translate(30 24)" onmousedown="handlePan(0,-1)">
                  <use xlink:href="#rim" fill="#404040">
                        <set attributeName="fill" to="#808080" begin="arrowUp.mouseover" end="arrowUp.mouseout"/>
                  </use>
                  <path fill="none" stroke="white" stroke-width="1.5" d="M0,-3.0v7 M-2.5,-0.5L0,-3.0L2.5,-0.5"/>
                </g>
                <g id="arrowRight" xlink:href="#dirArrow" transform="rotate(90) translate(36 -43)" onmousedown="handlePan(1,0)">
                  <use xlink:href="#rim" fill="#404040">
                        <set attributeName="fill" to="#808080" begin="arrowRight.mouseover" end="arrowRight.mouseout"/>
                  </use>
                  <path fill="none" stroke="white" stroke-width="1.5" d="M0,-3.0v7 M-2.5,-0.5L0,-3.0L2.5,-0.5"/>
                </g>
                <g id="arrowDown" xlink:href="#dirArrow" transform="rotate(180) translate(-30 -48)" onmousedown="handlePan(0,1)">
                  <use xlink:href="#rim" fill="#404040">
                        <set attributeName="fill" to="#808080" begin="arrowDown.mouseover" end="arrowDown.mouseout"/>
                  </use>
                  <path fill="none" stroke="white" stroke-width="1.5" d="M0,-3.0v7 M-2.5,-0.5L0,-3.0L2.5,-0.5"/>
                </g>
                <g id="arrowLeft" xlink:href="#dirArrow" transform="rotate(270) translate(-36 17)" onmousedown="handlePan(-1,0)">
                  <use xlink:href="#rim" fill="#404040">
                        <set attributeName="fill" to="#808080" begin="arrowLeft.mouseover" end="arrowLeft.mouseout"/>
                  </use>
                  <path fill="none" stroke="white" stroke-width="1.5" d="M0,-3.0v7 M-2.5,-0.5L0,-3.0L2.5,-0.5"/>
                </g>
        </g>
        <svg viewBox="0 0 15 15" width="100%" height="30px" preserveAspectRatio="xMaxYMin meet">
         <g id="arrow_out" transform="scale(0.3 0.3)">
          <a xlink:href="class_commander_a5d9d12c3d15cf350593f4c2b11ec05d8_cgraph_org.svg" target="_base">
           <rect id="button" ry="5" rx="5" y="6" x="6" height="38" width="38"
                fill="#f2f5e9" fill-opacity="0.5" stroke="#606060" stroke-width="1.0"/>
           <path id="arrow"
             d="M 11.500037,31.436501 C 11.940474,20.09759 22.043105,11.32322 32.158766,21.979434 L 37.068811,17.246167 C 37.068811,17.246167 37.088388,32 37.088388,32 L 22.160133,31.978069 C 22.160133,31.978069 26.997745,27.140456 26.997745,27.140456 C 18.528582,18.264221 13.291696,25.230495 11.500037,31.436501 z"
             style="fill:#404040;"/>
          </a>
         </g>
        </svg>
</svg>
