<?xml version="1.0" encoding="UTF-8" standalone="no"?>
<!DOCTYPE svg PUBLIC "-//W3C//DTD SVG 1.1//EN"
 "http://www.w3.org/Graphics/SVG/1.1/DTD/svg11.dtd">
<!-- Generated by graphviz version 5.0.1 (20220820.1526)
 -->
<!-- Title: Argument::findPlace Pages: 1 -->
<svg width="623pt" height="434pt"
 viewBox="0.00 0.00 623.00 434.00" xmlns="http://www.w3.org/2000/svg" xmlns:xlink="http://www.w3.org/1999/xlink">
<g id="graph0" class="graph" transform="scale(1 1) rotate(0) translate(4 430)">
<title>Argument::findPlace</title>
<!-- Node1 -->
<g id="node1" class="node">
<title>Node1</title>
<g id="a_node1"><a xlink:title=" ">
<polygon fill="#999999" stroke="#666666" points="615,-223 511,-223 511,-204 615,-204 615,-223"/>
<text text-anchor="middle" x="563" y="-211" font-family="Helvetica,sans-Serif" font-size="10.00">Argument::findPlace</text>
</a>
</g>
</g>
<!-- Node2 -->
<g id="node2" class="node">
<title>Node2</title>
<g id="a_node2"><a xlink:href="class_argument.html#a7fab3d983e4a63b93e6f50df82ed6f84" target="_top" xlink:title=" ">
<polygon fill="white" stroke="#666666" points="475,-223 374,-223 374,-204 475,-204 475,-223"/>
<text text-anchor="middle" x="424.5" y="-211" font-family="Helvetica,sans-Serif" font-size="10.00">Argument::findStart</text>
</a>
</g>
</g>
<!-- Node1&#45;&gt;Node2 -->
<g id="edge1" class="edge">
<title>Node1&#45;&gt;Node2</title>
<path fill="none" stroke="#63b8ff" d="M500.54,-213.5C492.05,-213.5 483.43,-213.5 475.19,-213.5"/>
<polygon fill="#63b8ff" stroke="#63b8ff" points="500.78,-217 510.78,-213.5 500.78,-210 500.78,-217"/>
</g>
<!-- Node3 -->
<g id="node3" class="node">
<title>Node3</title>
<g id="a_node3"><a xlink:href="class_argument.html#a2258f3363dbb1d462286a41d4ab3b8ad" target="_top" xlink:title=" ">
<polygon fill="white" stroke="#666666" points="317,-333 207,-333 207,-314 317,-314 317,-333"/>
<text text-anchor="middle" x="262" y="-321" font-family="Helvetica,sans-Serif" font-size="10.00">Argument::parseFloat</text>
</a>
</g>
</g>
<!-- Node2&#45;&gt;Node3 -->
<g id="edge2" class="edge">
<title>Node2&#45;&gt;Node3</title>
<path fill="none" stroke="#63b8ff" d="M401.28,-228.73C367.7,-251.75 304.98,-294.73 277.04,-313.87"/>
<polygon fill="#63b8ff" stroke="#63b8ff" points="403.27,-231.61 409.54,-223.07 399.31,-225.84 403.27,-231.61"/>
</g>
<!-- Node9 -->
<g id="node9" class="node">
<title>Node9</title>
<g id="a_node9"><a xlink:href="class_argument.html#aeabd957dda6add595aa860761ea337f1" target="_top" xlink:title=" ">
<polygon fill="white" stroke="#666666" points="311.5,-223 212.5,-223 212.5,-204 311.5,-204 311.5,-223"/>
<text text-anchor="middle" x="262" y="-211" font-family="Helvetica,sans-Serif" font-size="10.00">Argument::parseInt</text>
</a>
</g>
</g>
<!-- Node2&#45;&gt;Node9 -->
<g id="edge8" class="edge">
<title>Node2&#45;&gt;Node9</title>
<path fill="none" stroke="#63b8ff" d="M363.22,-213.5C346.24,-213.5 327.99,-213.5 311.77,-213.5"/>
<polygon fill="#63b8ff" stroke="#63b8ff" points="363.6,-217 373.6,-213.5 363.6,-210 363.6,-217"/>
</g>
<!-- Node17 -->
<g id="node17" class="node">
<title>Node17</title>
<g id="a_node17"><a xlink:href="class_argument.html#a91aa4b22990c4532a437afb1ed58acf4" target="_top" xlink:title=" ">
<polygon fill="white" stroke="#666666" points="338,-186 186,-186 186,-167 338,-167 338,-186"/>
<text text-anchor="middle" x="262" y="-174" font-family="Helvetica,sans-Serif" font-size="10.00">Argument::parseStringFunction</text>
</a>
</g>
</g>
<!-- Node2&#45;&gt;Node17 -->
<g id="edge20" class="edge">
<title>Node2&#45;&gt;Node17</title>
<path fill="none" stroke="#63b8ff" d="M372.36,-201.71C350.45,-196.66 325.19,-190.84 304.47,-186.06"/>
<polygon fill="#63b8ff" stroke="#63b8ff" points="371.64,-205.14 382.17,-203.97 373.21,-198.31 371.64,-205.14"/>
</g>
<!-- Node4 -->
<g id="node4" class="node">
<title>Node4</title>
<g id="a_node4"><a xlink:href="_commander-_a_p_i-_math-_commands_8cpp.html#a3a7adc51271281ccbe539d6d4b9ebd72" target="_top" xlink:title="Premade function for abs command.">
<polygon fill="white" stroke="#666666" points="131,-315 19,-315 19,-296 131,-296 131,-315"/>
<text text-anchor="middle" x="75" y="-303" font-family="Helvetica,sans-Serif" font-size="10.00">commander_abs_func</text>
</a>
</g>
</g>
<!-- Node3&#45;&gt;Node4 -->
<g id="edge3" class="edge">
<title>Node3&#45;&gt;Node4</title>
<path fill="none" stroke="#63b8ff" d="M196.98,-317.27C175.51,-315.18 151.76,-312.87 131.04,-310.85"/>
<polygon fill="#63b8ff" stroke="#63b8ff" points="196.7,-320.76 206.99,-318.25 197.38,-313.79 196.7,-320.76"/>
</g>
<!-- Node5 -->
<g id="node5" class="node">
<title>Node5</title>
<g id="a_node5"><a xlink:href="_commander-_a_p_i-_math-_commands_8cpp.html#a50d0b8fd181669321c028dc781232883" target="_top" xlink:title="Premade function for cos command.">
<polygon fill="white" stroke="#666666" points="131,-278 19,-278 19,-259 131,-259 131,-278"/>
<text text-anchor="middle" x="75" y="-266" font-family="Helvetica,sans-Serif" font-size="10.00">commander_cos_func</text>
</a>
</g>
</g>
<!-- Node3&#45;&gt;Node5 -->
<g id="edge4" class="edge">
<title>Node3&#45;&gt;Node5</title>
<path fill="none" stroke="#63b8ff" d="M223.62,-310.74C202.18,-303.57 174.69,-294.67 150,-287.5 138.66,-284.21 126.26,-280.91 114.91,-278.01"/>
<polygon fill="#63b8ff" stroke="#63b8ff" points="222.73,-314.13 233.32,-313.99 224.96,-307.49 222.73,-314.13"/>
</g>
<!-- Node6 -->
<g id="node6" class="node">
<title>Node6</title>
<g id="a_node6"><a xlink:href="_commander-_a_p_i-_system-_commands_8cpp.html#a97b609ad07bfd174ed3fb4bfe78b6c76" target="_top" xlink:title="Premade function for not command.">
<polygon fill="white" stroke="#666666" points="136.5,-426 13.5,-426 13.5,-407 136.5,-407 136.5,-426"/>
<text text-anchor="middle" x="75" y="-414" font-family="Helvetica,sans-Serif" font-size="10.00">commander_export_func</text>
</a>
</g>
</g>
<!-- Node3&#45;&gt;Node6 -->
<g id="edge5" class="edge">
<title>Node3&#45;&gt;Node6</title>
<path fill="none" stroke="#63b8ff" d="M241.95,-339.51C220.78,-356.52 184.96,-383.04 150,-398.5 142.38,-401.87 134.03,-404.67 125.77,-406.98"/>
<polygon fill="#63b8ff" stroke="#63b8ff" points="244.29,-342.11 249.82,-333.07 239.87,-336.69 244.29,-342.11"/>
</g>
<!-- Node7 -->
<g id="node7" class="node">
<title>Node7</title>
<g id="a_node7"><a xlink:href="_commander-_a_p_i-_system-_commands_8cpp.html#a57e458203eac6259ab72afb0bd7218b4" target="_top" xlink:title="Premade function for not command.">
<polygon fill="white" stroke="#666666" points="150,-389 0,-389 0,-370 150,-370 150,-389"/>
<text text-anchor="middle" x="75" y="-377" font-family="Helvetica,sans-Serif" font-size="10.00">commander_exportTarget_func</text>
</a>
</g>
</g>
<!-- Node3&#45;&gt;Node7 -->
<g id="edge6" class="edge">
<title>Node3&#45;&gt;Node7</title>
<path fill="none" stroke="#63b8ff" d="M225.74,-336.49C204.05,-344.25 175.6,-354.02 150,-361.5 139.72,-364.5 128.54,-367.41 118.05,-369.98"/>
<polygon fill="#63b8ff" stroke="#63b8ff" points="226.98,-339.77 235.2,-333.08 224.6,-333.18 226.98,-339.77"/>
</g>
<!-- Node8 -->
<g id="node8" class="node">
<title>Node8</title>
<g id="a_node8"><a xlink:href="_commander-_a_p_i-_math-_commands_8cpp.html#a2d1835760957b536f6d3aadf02109eaf" target="_top" xlink:title="Premade function for sin command.">
<polygon fill="white" stroke="#666666" points="129.5,-352 20.5,-352 20.5,-333 129.5,-333 129.5,-352"/>
<text text-anchor="middle" x="75" y="-340" font-family="Helvetica,sans-Serif" font-size="10.00">commander_sin_func</text>
</a>
</g>
</g>
<!-- Node3&#45;&gt;Node8 -->
<g id="edge7" class="edge">
<title>Node3&#45;&gt;Node8</title>
<path fill="none" stroke="#63b8ff" d="M196.8,-330.09C174.93,-332.34 150.72,-334.83 129.75,-336.98"/>
<polygon fill="#63b8ff" stroke="#63b8ff" points="197.4,-333.55 206.99,-329.05 196.69,-326.59 197.4,-333.55"/>
</g>
<!-- Node9&#45;&gt;Node4 -->
<g id="edge9" class="edge">
<title>Node9&#45;&gt;Node4</title>
<path fill="none" stroke="#63b8ff" d="M241.57,-229.55C220.33,-246.33 184.67,-272.29 150,-287.5 142.37,-290.85 134.02,-293.63 125.75,-295.94"/>
<polygon fill="#63b8ff" stroke="#63b8ff" points="243.89,-232.18 249.49,-223.19 239.5,-226.72 243.89,-232.18"/>
</g>
<!-- Node9&#45;&gt;Node5 -->
<g id="edge12" class="edge">
<title>Node9&#45;&gt;Node5</title>
<path fill="none" stroke="#63b8ff" d="M224.56,-226.5C203.01,-233.97 175.11,-243.27 150,-250.5 139.71,-253.46 128.52,-256.35 118.03,-258.92"/>
<polygon fill="#63b8ff" stroke="#63b8ff" points="225.99,-229.7 234.28,-223.1 223.68,-223.1 225.99,-229.7"/>
</g>
<!-- Node9&#45;&gt;Node7 -->
<g id="edge15" class="edge">
<title>Node9&#45;&gt;Node7</title>
<path fill="none" stroke="#63b8ff" d="M245.64,-231.11C230.03,-249.29 205.45,-278.7 186,-305.5 168.62,-329.45 174.1,-344.33 150,-361.5 145.26,-364.88 139.97,-367.62 134.45,-369.86"/>
<polygon fill="#63b8ff" stroke="#63b8ff" points="248.63,-233 252.52,-223.15 243.34,-228.43 248.63,-233"/>
</g>
<!-- Node9&#45;&gt;Node8 -->
<g id="edge19" class="edge">
<title>Node9&#45;&gt;Node8</title>
<path fill="none" stroke="#63b8ff" d="M248.18,-231.46C229.49,-256.29 192.32,-300.72 150,-324.5 143.78,-328 136.88,-330.82 129.89,-333.1"/>
<polygon fill="#63b8ff" stroke="#63b8ff" points="251.1,-233.41 254.21,-223.28 245.46,-229.25 251.1,-233.41"/>
</g>
<!-- Node10 -->
<g id="node10" class="node">
<title>Node10</title>
<g id="a_node10"><a xlink:href="_commander-_a_p_i-_analog-_i_o-_commands_8cpp.html#a040fe7020c8c586e4e3be14f8eac7437" target="_top" xlink:title="Premade function for analogRead command.">
<polygon fill="white" stroke="#666666" points="148.5,-204 1.5,-204 1.5,-185 148.5,-185 148.5,-204"/>
<text text-anchor="middle" x="75" y="-192" font-family="Helvetica,sans-Serif" font-size="10.00">commander_analogRead_func</text>
</a>
</g>
</g>
<!-- Node9&#45;&gt;Node10 -->
<g id="edge10" class="edge">
<title>Node9&#45;&gt;Node10</title>
<path fill="none" stroke="#63b8ff" d="M202.07,-207.45C185.09,-205.7 166.37,-203.78 148.66,-201.96"/>
<polygon fill="#63b8ff" stroke="#63b8ff" points="202.09,-210.97 212.39,-208.51 202.8,-204 202.09,-210.97"/>
</g>
<!-- Node11 -->
<g id="node11" class="node">
<title>Node11</title>
<g id="a_node11"><a xlink:href="_commander-_a_p_i-_analog-_i_o-_commands_8cpp.html#ab58776efa3ee65d1871b04583bf46674" target="_top" xlink:title="Premade function for analogRead command.">
<polygon fill="white" stroke="#666666" points="149,-167 1,-167 1,-148 149,-148 149,-167"/>
<text text-anchor="middle" x="75" y="-155" font-family="Helvetica,sans-Serif" font-size="10.00">commander_analogWrite_func</text>
</a>
</g>
</g>
<!-- Node9&#45;&gt;Node11 -->
<g id="edge11" class="edge">
<title>Node9&#45;&gt;Node11</title>
<path fill="none" stroke="#63b8ff" d="M203.01,-201.26C197.19,-199.53 191.44,-197.62 186,-195.5 168.94,-188.86 167.05,-182.17 150,-175.5 141.63,-172.22 132.48,-169.42 123.56,-167.07"/>
<polygon fill="#63b8ff" stroke="#63b8ff" points="202.22,-204.67 212.79,-203.98 204.1,-197.93 202.22,-204.67"/>
</g>
<!-- Node12 -->
<g id="node12" class="node">
<title>Node12</title>
<g id="a_node12"><a xlink:href="_commander-_a_p_i-_digital-_i_o-_commands_8cpp.html#a9ab5698b019086fe8d2c3d06a3f917fb" target="_top" xlink:title="Premade function for digitalRead command.">
<polygon fill="white" stroke="#666666" points="147,-130 3,-130 3,-111 147,-111 147,-130"/>
<text text-anchor="middle" x="75" y="-118" font-family="Helvetica,sans-Serif" font-size="10.00">commander_digitalRead_func</text>
</a>
</g>
</g>
<!-- Node9&#45;&gt;Node12 -->
<g id="edge13" class="edge">
<title>Node9&#45;&gt;Node12</title>
<path fill="none" stroke="#63b8ff" d="M202.73,-204.36C196.78,-202.04 191.07,-199.13 186,-195.5 161.64,-178.05 174.33,-155.98 150,-138.5 145.28,-135.11 139.99,-132.35 134.47,-130.1"/>
<polygon fill="#63b8ff" stroke="#63b8ff" points="201.62,-207.68 212.22,-207.56 203.86,-201.05 201.62,-207.68"/>
</g>
<!-- Node13 -->
<g id="node13" class="node">
<title>Node13</title>
<g id="a_node13"><a xlink:href="_commander-_a_p_i-_digital-_i_o-_commands_8cpp.html#a6eccd6af580b31fb8ef7e6e038a0a322" target="_top" xlink:title="Premade function for digitalWrite command.">
<polygon fill="white" stroke="#666666" points="147.5,-93 2.5,-93 2.5,-74 147.5,-74 147.5,-93"/>
<text text-anchor="middle" x="75" y="-81" font-family="Helvetica,sans-Serif" font-size="10.00">commander_digitalWrite_func</text>
</a>
</g>
</g>
<!-- Node9&#45;&gt;Node13 -->
<g id="edge14" class="edge">
<title>Node9&#45;&gt;Node13</title>
<path fill="none" stroke="#63b8ff" d="M202.7,-205.65C196.62,-203.1 190.89,-199.79 186,-195.5 152.38,-165.99 183.58,-131.06 150,-101.5 146.13,-98.09 141.72,-95.31 137.03,-93.03"/>
<polygon fill="#63b8ff" stroke="#63b8ff" points="201.88,-209.07 212.47,-209.05 204.18,-202.46 201.88,-209.07"/>
</g>
<!-- Node14 -->
<g id="node14" class="node">
<title>Node14</title>
<g id="a_node14"><a xlink:href="_commander-_a_p_i-_math-_commands_8cpp.html#a58c9da2e6253adcf21c0ae6333587637" target="_top" xlink:title="Premade function for not command.">
<polygon fill="white" stroke="#666666" points="130,-56 20,-56 20,-37 130,-37 130,-56"/>
<text text-anchor="middle" x="75" y="-44" font-family="Helvetica,sans-Serif" font-size="10.00">commander_not_func</text>
</a>
</g>
</g>
<!-- Node9&#45;&gt;Node14 -->
<g id="edge16" class="edge">
<title>Node9&#45;&gt;Node14</title>
<path fill="none" stroke="#63b8ff" d="M202.52,-206.21C196.42,-203.57 190.74,-200.08 186,-195.5 142.61,-153.51 193.32,-106.56 150,-64.5 144.4,-59.07 137.46,-55.18 130.08,-52.42"/>
<polygon fill="#63b8ff" stroke="#63b8ff" points="201.77,-209.66 212.36,-209.7 204.11,-203.06 201.77,-209.66"/>
</g>
<!-- Node15 -->
<g id="node15" class="node">
<title>Node15</title>
<g id="a_node15"><a xlink:href="_commander-_a_p_i-_digital-_i_o-_commands_8cpp.html#af1ce6ff8336c159da938303fbc2a2770" target="_top" xlink:title="Premade function for pinMode command.">
<polygon fill="white" stroke="#666666" points="141.5,-19 8.5,-19 8.5,0 141.5,0 141.5,-19"/>
<text text-anchor="middle" x="75" y="-7" font-family="Helvetica,sans-Serif" font-size="10.00">commander_pinMode_func</text>
</a>
</g>
</g>
<!-- Node9&#45;&gt;Node15 -->
<g id="edge17" class="edge">
<title>Node9&#45;&gt;Node15</title>
<path fill="none" stroke="#63b8ff" d="M202.94,-206.77C196.63,-204.05 190.78,-200.39 186,-195.5 132.67,-140.85 203.25,-82.23 150,-27.5 146.77,-24.18 143.05,-21.44 139.01,-19.17"/>
<polygon fill="#63b8ff" stroke="#63b8ff" points="201.85,-210.1 212.45,-210.12 204.18,-203.5 201.85,-210.1"/>
</g>
<!-- Node16 -->
<g id="node16" class="node">
<title>Node16</title>
<g id="a_node16"><a xlink:href="_commander-_a_p_i-_math-_commands_8cpp.html#a458aacbc1ec8f7887519596521934f42" target="_top" xlink:title="Premade function for random command.">
<polygon fill="white" stroke="#666666" points="139,-241 11,-241 11,-222 139,-222 139,-241"/>
<text text-anchor="middle" x="75" y="-229" font-family="Helvetica,sans-Serif" font-size="10.00">commander_random_func</text>
</a>
</g>
</g>
<!-- Node9&#45;&gt;Node16 -->
<g id="edge18" class="edge">
<title>Node9&#45;&gt;Node16</title>
<path fill="none" stroke="#63b8ff" d="M202.43,-219.2C182.32,-221.16 159.73,-223.35 139.26,-225.35"/>
<polygon fill="#63b8ff" stroke="#63b8ff" points="202.78,-222.68 212.39,-218.23 202.1,-215.71 202.78,-222.68"/>
</g>
</g>
</svg>
