<?xml version="1.0" encoding="UTF-8" standalone="no"?>
<!DOCTYPE svg PUBLIC "-//W3C//DTD SVG 1.1//EN"
 "http://www.w3.org/Graphics/SVG/1.1/DTD/svg11.dtd">
<!-- Generated by graphviz version 5.0.1 (20220820.1526)
 -->
<!-- Title: Argument::parseFloat Pages: 1 -->
<svg width="589pt" height="138pt"
 viewBox="0.00 0.00 589.00 138.00" xmlns="http://www.w3.org/2000/svg" xmlns:xlink="http://www.w3.org/1999/xlink">
<g id="graph0" class="graph" transform="scale(1 1) rotate(0) translate(4 134)">
<title>Argument::parseFloat</title>
<!-- Node1 -->
<g id="node1" class="node">
<title>Node1</title>
<g id="a_node1"><a xlink:title=" ">
<polygon fill="#999999" stroke="#666666" points="110,-74 0,-74 0,-55 110,-55 110,-74"/>
<text text-anchor="middle" x="55" y="-62" font-family="Helvetica,sans-Serif" font-size="10.00">Argument::parseFloat</text>
</a>
</g>
</g>
<!-- Node2 -->
<g id="node2" class="node">
<title>Node2</title>
<g id="a_node2"><a xlink:href="class_argument.html#a7fab3d983e4a63b93e6f50df82ed6f84" target="_top" xlink:title=" ">
<polygon fill="white" stroke="#666666" points="247,-74 146,-74 146,-55 247,-55 247,-74"/>
<text text-anchor="middle" x="196.5" y="-62" font-family="Helvetica,sans-Serif" font-size="10.00">Argument::findStart</text>
</a>
</g>
</g>
<!-- Node1&#45;&gt;Node2 -->
<g id="edge1" class="edge">
<title>Node1&#45;&gt;Node2</title>
<path fill="none" stroke="#63b8ff" d="M110.33,-64.5C118.6,-64.5 127.17,-64.5 135.55,-64.5"/>
<polygon fill="#63b8ff" stroke="#63b8ff" points="135.64,-68 145.64,-64.5 135.64,-61 135.64,-68"/>
</g>
<!-- Node3 -->
<g id="node3" class="node">
<title>Node3</title>
<g id="a_node3"><a xlink:href="class_argument.html#a41a3be1503f99c0ab973d0c7b45fe2bd" target="_top" xlink:title="Find the start position of a place dependent argument.">
<polygon fill="white" stroke="#666666" points="420,-130 304,-130 304,-111 420,-111 420,-130"/>
<text text-anchor="middle" x="362" y="-118" font-family="Helvetica,sans-Serif" font-size="10.00">Argument::findByPlace</text>
</a>
</g>
</g>
<!-- Node2&#45;&gt;Node3 -->
<g id="edge2" class="edge">
<title>Node2&#45;&gt;Node3</title>
<path fill="none" stroke="#63b8ff" d="M216.1,-74.01C233.15,-82.43 259.27,-94.57 283,-102.5 289.46,-104.66 296.32,-106.65 303.17,-108.46"/>
<polygon fill="#63b8ff" stroke="#63b8ff" points="302.61,-111.93 313.16,-110.99 304.32,-105.15 302.61,-111.93"/>
</g>
<!-- Node5 -->
<g id="node5" class="node">
<title>Node5</title>
<g id="a_node5"><a xlink:href="class_argument.html#a19696736b23d7f4f4c6e4125e67f59a8" target="_top" xlink:title="Find the start position of a long named argument.">
<polygon fill="white" stroke="#666666" points="425,-93 299,-93 299,-74 425,-74 425,-93"/>
<text text-anchor="middle" x="362" y="-81" font-family="Helvetica,sans-Serif" font-size="10.00">Argument::findLongName</text>
</a>
</g>
</g>
<!-- Node2&#45;&gt;Node5 -->
<g id="edge4" class="edge">
<title>Node2&#45;&gt;Node5</title>
<path fill="none" stroke="#63b8ff" d="M247.44,-70.3C260.52,-71.82 274.88,-73.49 288.86,-75.12"/>
<polygon fill="#63b8ff" stroke="#63b8ff" points="288.61,-78.61 298.94,-76.29 289.41,-71.66 288.61,-78.61"/>
</g>
<!-- Node7 -->
<g id="node7" class="node">
<title>Node7</title>
<g id="a_node7"><a xlink:href="class_argument.html#a3ec1ea9ca2d489a987e0fa335daaf061" target="_top" xlink:title="Find the start position of a short named argument.">
<polygon fill="white" stroke="#666666" points="426,-56 298,-56 298,-37 426,-37 426,-56"/>
<text text-anchor="middle" x="362" y="-44" font-family="Helvetica,sans-Serif" font-size="10.00">Argument::findShortName</text>
</a>
</g>
</g>
<!-- Node2&#45;&gt;Node7 -->
<g id="edge7" class="edge">
<title>Node2&#45;&gt;Node7</title>
<path fill="none" stroke="#63b8ff" d="M247.44,-59C260.09,-57.61 273.94,-56.08 287.49,-54.59"/>
<polygon fill="#63b8ff" stroke="#63b8ff" points="288.2,-58.04 297.76,-53.46 287.44,-51.08 288.2,-58.04"/>
</g>
<!-- Node8 -->
<g id="node8" class="node">
<title>Node8</title>
<g id="a_node8"><a xlink:href="class_commander.html#a8c61dd05384f4a5d02932c602f8d8e00" target="_top" xlink:title="Get the instance if a system variable by its name.">
<polygon fill="white" stroke="#666666" points="441,-19 283,-19 283,0 441,0 441,-19"/>
<text text-anchor="middle" x="362" y="-7" font-family="Helvetica,sans-Serif" font-size="10.00">Commander::getSystemVariable</text>
</a>
</g>
</g>
<!-- Node2&#45;&gt;Node8 -->
<g id="edge10" class="edge">
<title>Node2&#45;&gt;Node8</title>
<path fill="none" stroke="#63b8ff" d="M216.8,-54.94C233.88,-46.78 259.65,-35.18 283,-27.5 289.48,-25.37 296.33,-23.4 303.19,-21.6"/>
<polygon fill="#63b8ff" stroke="#63b8ff" points="304.34,-24.92 313.19,-19.09 302.63,-18.13 304.34,-24.92"/>
</g>
<!-- Node4 -->
<g id="node4" class="node">
<title>Node4</title>
<g id="a_node4"><a xlink:href="class_argument.html#af21c1965c64a5f3984cbf42bcf1eec5f" target="_top" xlink:title=" ">
<polygon fill="white" stroke="#666666" points="578,-93 480,-93 480,-74 578,-74 578,-93"/>
<text text-anchor="middle" x="529" y="-81" font-family="Helvetica,sans-Serif" font-size="10.00">Argument::inString</text>
</a>
</g>
</g>
<!-- Node3&#45;&gt;Node4 -->
<g id="edge3" class="edge">
<title>Node3&#45;&gt;Node4</title>
<path fill="none" stroke="#63b8ff" d="M405.49,-110.97C426.87,-106.18 452.97,-100.32 475.58,-95.25"/>
<polygon fill="#63b8ff" stroke="#63b8ff" points="476.37,-98.66 485.37,-93.06 474.84,-91.83 476.37,-98.66"/>
</g>
<!-- Node5&#45;&gt;Node4 -->
<g id="edge5" class="edge">
<title>Node5&#45;&gt;Node4</title>
<path fill="none" stroke="#63b8ff" d="M425.38,-83.5C439.92,-83.5 455.35,-83.5 469.7,-83.5"/>
<polygon fill="#63b8ff" stroke="#63b8ff" points="469.94,-87 479.94,-83.5 469.94,-80 469.94,-87"/>
</g>
<!-- Node6 -->
<g id="node6" class="node">
<title>Node6</title>
<g id="a_node6"><a xlink:href="class_argument.html#a8f98fbce9e55886c0b3a84c6f92572e5" target="_top" xlink:title=" ">
<polygon fill="white" stroke="#666666" points="581,-56 477,-56 477,-37 581,-37 581,-56"/>
<text text-anchor="middle" x="529" y="-44" font-family="Helvetica,sans-Serif" font-size="10.00">Argument::substring</text>
</a>
</g>
</g>
<!-- Node5&#45;&gt;Node6 -->
<g id="edge6" class="edge">
<title>Node5&#45;&gt;Node6</title>
<path fill="none" stroke="#63b8ff" d="M405.49,-73.97C426.87,-69.18 452.97,-63.32 475.58,-58.25"/>
<polygon fill="#63b8ff" stroke="#63b8ff" points="476.37,-61.66 485.37,-56.06 474.84,-54.83 476.37,-61.66"/>
</g>
<!-- Node7&#45;&gt;Node4 -->
<g id="edge8" class="edge">
<title>Node7&#45;&gt;Node4</title>
<path fill="none" stroke="#63b8ff" d="M405.49,-56.03C426.87,-60.82 452.97,-66.68 475.58,-71.75"/>
<polygon fill="#63b8ff" stroke="#63b8ff" points="474.84,-75.17 485.37,-73.94 476.37,-68.34 474.84,-75.17"/>
</g>
<!-- Node7&#45;&gt;Node6 -->
<g id="edge9" class="edge">
<title>Node7&#45;&gt;Node6</title>
<path fill="none" stroke="#63b8ff" d="M426.32,-46.5C439.52,-46.5 453.4,-46.5 466.53,-46.5"/>
<polygon fill="#63b8ff" stroke="#63b8ff" points="466.87,-50 476.87,-46.5 466.87,-43 466.87,-50"/>
</g>
</g>
</svg>
