<?xml version="1.0" encoding="UTF-8" standalone="no"?>
<!DOCTYPE svg PUBLIC "-//W3C//DTD SVG 1.1//EN"
 "http://www.w3.org/Graphics/SVG/1.1/DTD/svg11.dtd">
<!-- Generated by graphviz version 5.0.1 (20220820.1526)
 -->
<!-- Title: Commander::printArgumentError Pages: 1 -->
<svg width="330pt" height="434pt"
 viewBox="0.00 0.00 330.00 434.00" xmlns="http://www.w3.org/2000/svg" xmlns:xlink="http://www.w3.org/1999/xlink">
<g id="graph0" class="graph" transform="scale(1 1) rotate(0) translate(4 430)">
<title>Commander::printArgumentError</title>
<!-- Node1 -->
<g id="node1" class="node">
<title>Node1</title>
<g id="a_node1"><a xlink:title="Print &#39;Argument error!&#39; to a specified Serial channel.">
<polygon fill="#999999" stroke="#666666" points="322,-227.5 186,-227.5 186,-197.5 322,-197.5 322,-227.5"/>
<text text-anchor="start" x="194" y="-215.5" font-family="Helvetica,sans-Serif" font-size="10.00">Commander::printArgument</text>
<text text-anchor="middle" x="254" y="-204.5" font-family="Helvetica,sans-Serif" font-size="10.00">Error</text>
</a>
</g>
</g>
<!-- Node2 -->
<g id="node2" class="node">
<title>Node2</title>
<g id="a_node2"><a xlink:href="_commander-_a_p_i-_math-_commands_8cpp.html#ae7d6fa81c7ec3354378b1f948c0c8749" target="_top" xlink:title="Premade function for abs command.">
<polygon fill="white" stroke="#666666" points="131,-426 19,-426 19,-407 131,-407 131,-426"/>
<text text-anchor="middle" x="75" y="-414" font-family="Helvetica,sans-Serif" font-size="10.00">commander_abs_func</text>
</a>
</g>
</g>
<!-- Node1&#45;&gt;Node2 -->
<g id="edge1" class="edge">
<title>Node1&#45;&gt;Node2</title>
<path fill="none" stroke="#63b8ff" d="M246.33,-237.35C234.19,-277.63 204.55,-356.87 150,-398.5 144.43,-402.75 137.99,-406.01 131.29,-408.51"/>
<polygon fill="#63b8ff" stroke="#63b8ff" points="249.75,-238.11 249.17,-227.53 243.03,-236.17 249.75,-238.11"/>
</g>
<!-- Node3 -->
<g id="node3" class="node">
<title>Node3</title>
<g id="a_node3"><a xlink:href="_commander-_a_p_i-_analog-_i_o-_commands_8cpp.html#a22f364acaf405f853e1ff3787c35b53e" target="_top" xlink:title="Premade function for analogRead command.">
<polygon fill="white" stroke="#666666" points="148.5,-389 1.5,-389 1.5,-370 148.5,-370 148.5,-389"/>
<text text-anchor="middle" x="75" y="-377" font-family="Helvetica,sans-Serif" font-size="10.00">commander_analogRead_func</text>
</a>
</g>
</g>
<!-- Node1&#45;&gt;Node3 -->
<g id="edge2" class="edge">
<title>Node1&#45;&gt;Node3</title>
<path fill="none" stroke="#63b8ff" d="M242.66,-237.46C227.45,-271 195.79,-330.02 150,-361.5 144.99,-364.95 139.39,-367.73 133.57,-369.99"/>
<polygon fill="#63b8ff" stroke="#63b8ff" points="246.03,-238.49 246.85,-227.93 239.62,-235.68 246.03,-238.49"/>
</g>
<!-- Node4 -->
<g id="node4" class="node">
<title>Node4</title>
<g id="a_node4"><a xlink:href="_commander-_a_p_i-_analog-_i_o-_commands_8cpp.html#a0bb64a637cbaa4134e0cc9d1a7453ecf" target="_top" xlink:title="Premade function for analogRead command.">
<polygon fill="white" stroke="#666666" points="149,-352 1,-352 1,-333 149,-333 149,-352"/>
<text text-anchor="middle" x="75" y="-340" font-family="Helvetica,sans-Serif" font-size="10.00">commander_analogWrite_func</text>
</a>
</g>
</g>
<!-- Node1&#45;&gt;Node4 -->
<g id="edge3" class="edge">
<title>Node1&#45;&gt;Node4</title>
<path fill="none" stroke="#63b8ff" d="M237.6,-236.27C219.67,-261.99 187.65,-302.29 150,-324.5 144.19,-327.93 137.76,-330.7 131.19,-332.95"/>
<polygon fill="#63b8ff" stroke="#63b8ff" points="240.61,-238.07 243.34,-227.84 234.82,-234.13 240.61,-238.07"/>
</g>
<!-- Node5 -->
<g id="node5" class="node">
<title>Node5</title>
<g id="a_node5"><a xlink:href="_commander-_a_p_i-_commands_8cpp.html#a6df16c4b3429cad40911ef08ed94f45f" target="_top" xlink:title="Premade function for wifiScan command.">
<polygon fill="white" stroke="#666666" points="146.5,-315 3.5,-315 3.5,-296 146.5,-296 146.5,-315"/>
<text text-anchor="middle" x="75" y="-303" font-family="Helvetica,sans-Serif" font-size="10.00">commander_configTime_func</text>
</a>
</g>
</g>
<!-- Node1&#45;&gt;Node5 -->
<g id="edge4" class="edge">
<title>Node1&#45;&gt;Node5</title>
<path fill="none" stroke="#63b8ff" d="M228.84,-234.35C209,-251.2 179.46,-273.85 150,-287.5 142.68,-290.89 134.65,-293.69 126.66,-295.98"/>
<polygon fill="#63b8ff" stroke="#63b8ff" points="231.19,-236.95 236.46,-227.76 226.61,-231.65 231.19,-236.95"/>
</g>
<!-- Node6 -->
<g id="node6" class="node">
<title>Node6</title>
<g id="a_node6"><a xlink:href="_commander-_a_p_i-_math-_commands_8cpp.html#abfe392815068d05be5e099def983b5ec" target="_top" xlink:title="Premade function for cos command.">
<polygon fill="white" stroke="#666666" points="131,-278 19,-278 19,-259 131,-259 131,-278"/>
<text text-anchor="middle" x="75" y="-266" font-family="Helvetica,sans-Serif" font-size="10.00">commander_cos_func</text>
</a>
</g>
</g>
<!-- Node1&#45;&gt;Node6 -->
<g id="edge5" class="edge">
<title>Node1&#45;&gt;Node6</title>
<path fill="none" stroke="#63b8ff" d="M205.83,-231.2C188.43,-237.75 168.46,-244.87 150,-250.5 140.01,-253.55 129.14,-256.43 118.88,-258.95"/>
<polygon fill="#63b8ff" stroke="#63b8ff" points="207.1,-234.46 215.2,-227.63 204.61,-227.92 207.1,-234.46"/>
</g>
<!-- Node7 -->
<g id="node7" class="node">
<title>Node7</title>
<g id="a_node7"><a xlink:href="_commander-_a_p_i-_digital-_i_o-_commands_8cpp.html#a488c98390245a3d0d7172f364ec91ed8" target="_top" xlink:title="Premade function for digitalRead command.">
<polygon fill="white" stroke="#666666" points="147,-241 3,-241 3,-222 147,-222 147,-241"/>
<text text-anchor="middle" x="75" y="-229" font-family="Helvetica,sans-Serif" font-size="10.00">commander_digitalRead_func</text>
</a>
</g>
</g>
<!-- Node1&#45;&gt;Node7 -->
<g id="edge6" class="edge">
<title>Node1&#45;&gt;Node7</title>
<path fill="none" stroke="#63b8ff" d="M175.67,-220.8C166.22,-221.82 156.6,-222.85 147.25,-223.85"/>
<polygon fill="#63b8ff" stroke="#63b8ff" points="176.26,-224.26 185.83,-219.71 175.52,-217.3 176.26,-224.26"/>
</g>
<!-- Node8 -->
<g id="node8" class="node">
<title>Node8</title>
<g id="a_node8"><a xlink:href="_commander-_a_p_i-_digital-_i_o-_commands_8cpp.html#af309a2eb04319e75d4cc91e93894846e" target="_top" xlink:title="Premade function for digitalWrite command.">
<polygon fill="white" stroke="#666666" points="147.5,-204 2.5,-204 2.5,-185 147.5,-185 147.5,-204"/>
<text text-anchor="middle" x="75" y="-192" font-family="Helvetica,sans-Serif" font-size="10.00">commander_digitalWrite_func</text>
</a>
</g>
</g>
<!-- Node1&#45;&gt;Node8 -->
<g id="edge7" class="edge">
<title>Node1&#45;&gt;Node8</title>
<path fill="none" stroke="#63b8ff" d="M175.75,-204.64C166.38,-203.69 156.83,-202.72 147.55,-201.78"/>
<polygon fill="#63b8ff" stroke="#63b8ff" points="175.53,-208.14 185.83,-205.67 176.24,-201.18 175.53,-208.14"/>
</g>
<!-- Node9 -->
<g id="node9" class="node">
<title>Node9</title>
<g id="a_node9"><a xlink:href="_commander-_a_p_i-_system-_commands_8cpp.html#af867379096ae63ff42938a15749f2bd4" target="_top" xlink:title="Premade function for not command.">
<polygon fill="white" stroke="#666666" points="136.5,-167 13.5,-167 13.5,-148 136.5,-148 136.5,-167"/>
<text text-anchor="middle" x="75" y="-155" font-family="Helvetica,sans-Serif" font-size="10.00">commander_export_func</text>
</a>
</g>
</g>
<!-- Node1&#45;&gt;Node9 -->
<g id="edge8" class="edge">
<title>Node1&#45;&gt;Node9</title>
<path fill="none" stroke="#63b8ff" d="M202.62,-193.93C185.97,-188.05 167.28,-181.73 150,-176.5 138.95,-173.16 126.87,-169.89 115.73,-167.04"/>
<polygon fill="#63b8ff" stroke="#63b8ff" points="201.57,-197.27 212.16,-197.33 203.92,-190.68 201.57,-197.27"/>
</g>
<!-- Node10 -->
<g id="node10" class="node">
<title>Node10</title>
<g id="a_node10"><a xlink:href="_commander-_a_p_i-_system-_commands_8cpp.html#a67c664cbc5869ccf57996adeecbb6cd9" target="_top" xlink:title="Premade function for not command.">
<polygon fill="white" stroke="#666666" points="150,-130 0,-130 0,-111 150,-111 150,-130"/>
<text text-anchor="middle" x="75" y="-118" font-family="Helvetica,sans-Serif" font-size="10.00">commander_exportTarget_func</text>
</a>
</g>
</g>
<!-- Node1&#45;&gt;Node10 -->
<g id="edge9" class="edge">
<title>Node1&#45;&gt;Node10</title>
<path fill="none" stroke="#63b8ff" d="M228.07,-190.85C208.15,-174.58 178.88,-152.89 150,-139.5 141.82,-135.71 132.76,-132.59 123.87,-130.05"/>
<polygon fill="#63b8ff" stroke="#63b8ff" points="226.07,-193.74 236,-197.45 230.55,-188.36 226.07,-193.74"/>
</g>
<!-- Node11 -->
<g id="node11" class="node">
<title>Node11</title>
<g id="a_node11"><a xlink:href="_commander-_a_p_i-_digital-_i_o-_commands_8cpp.html#a2246eb22ddae467d2e4c311b95b1ca9f" target="_top" xlink:title="Premade function for pinMode command.">
<polygon fill="white" stroke="#666666" points="141.5,-93 8.5,-93 8.5,-74 141.5,-74 141.5,-93"/>
<text text-anchor="middle" x="75" y="-81" font-family="Helvetica,sans-Serif" font-size="10.00">commander_pinMode_func</text>
</a>
</g>
</g>
<!-- Node1&#45;&gt;Node11 -->
<g id="edge10" class="edge">
<title>Node1&#45;&gt;Node11</title>
<path fill="none" stroke="#63b8ff" d="M237.15,-188.84C219.04,-163.64 187.05,-124.45 150,-102.5 143.5,-98.65 136.22,-95.57 128.84,-93.11"/>
<polygon fill="#63b8ff" stroke="#63b8ff" points="234.36,-190.94 242.97,-197.11 240.08,-186.92 234.36,-190.94"/>
</g>
<!-- Node12 -->
<g id="node12" class="node">
<title>Node12</title>
<g id="a_node12"><a xlink:href="_commander-_a_p_i-_math-_commands_8cpp.html#aedeb7c7e023d071ecf07a9d6c64679d4" target="_top" xlink:title="Premade function for random command.">
<polygon fill="white" stroke="#666666" points="139,-56 11,-56 11,-37 139,-37 139,-56"/>
<text text-anchor="middle" x="75" y="-44" font-family="Helvetica,sans-Serif" font-size="10.00">commander_random_func</text>
</a>
</g>
</g>
<!-- Node1&#45;&gt;Node12 -->
<g id="edge11" class="edge">
<title>Node1&#45;&gt;Node12</title>
<path fill="none" stroke="#63b8ff" d="M242.51,-187.95C227.13,-154.96 195.28,-96.84 150,-65.5 144.44,-61.65 138.16,-58.58 131.66,-56.13"/>
<polygon fill="#63b8ff" stroke="#63b8ff" points="239.44,-189.66 246.75,-197.33 245.82,-186.78 239.44,-189.66"/>
</g>
<!-- Node13 -->
<g id="node13" class="node">
<title>Node13</title>
<g id="a_node13"><a xlink:href="_commander-_a_p_i-_math-_commands_8cpp.html#a1113369ca4b669dc0c6355fcf126cc42" target="_top" xlink:title="Premade function for sin command.">
<polygon fill="white" stroke="#666666" points="129.5,-19 20.5,-19 20.5,0 129.5,0 129.5,-19"/>
<text text-anchor="middle" x="75" y="-7" font-family="Helvetica,sans-Serif" font-size="10.00">commander_sin_func</text>
</a>
</g>
</g>
<!-- Node1&#45;&gt;Node13 -->
<g id="edge12" class="edge">
<title>Node1&#45;&gt;Node13</title>
<path fill="none" stroke="#63b8ff" d="M246.1,-187.7C233.7,-147.86 203.8,-69.9 150,-28.5 144.01,-23.89 137.02,-20.39 129.77,-17.74"/>
<polygon fill="#63b8ff" stroke="#63b8ff" points="242.79,-188.84 249.01,-197.41 249.49,-186.83 242.79,-188.84"/>
</g>
</g>
</svg>
