<?xml version="1.0" encoding="UTF-8" standalone="no"?>
<!DOCTYPE svg PUBLIC "-//W3C//DTD SVG 1.1//EN"
 "http://www.w3.org/Graphics/SVG/1.1/DTD/svg11.dtd">
<!-- Generated by graphviz version 5.0.1 (20220820.1526)
 -->
<!-- Title: Commander::inString Pages: 1 -->
<svg width="599pt" height="45pt"
 viewBox="0.00 0.00 599.00 45.00" xmlns="http://www.w3.org/2000/svg" xmlns:xlink="http://www.w3.org/1999/xlink">
<g id="graph0" class="graph" transform="scale(1 1) rotate(0) translate(4 41)">
<title>Commander::inString</title>
<!-- Node1 -->
<g id="node1" class="node">
<title>Node1</title>
<g id="a_node1"><a xlink:title=" ">
<polygon fill="#999999" stroke="#666666" points="591,-19 483,-19 483,0 591,0 591,-19"/>
<text text-anchor="middle" x="537" y="-7" font-family="Helvetica,sans-Serif" font-size="10.00">Commander::inString</text>
</a>
</g>
</g>
<!-- Node2 -->
<g id="node2" class="node">
<title>Node2</title>
<g id="a_node2"><a xlink:href="class_commander.html#aa1598c9d4039c1d0e8ec57f0f44ef98b" target="_top" xlink:title="Search for a character in a string.">
<polygon fill="white" stroke="#666666" points="447,-19 336,-19 336,0 447,0 447,-19"/>
<text text-anchor="middle" x="391.5" y="-7" font-family="Helvetica,sans-Serif" font-size="10.00">Commander::hasChar</text>
</a>
</g>
</g>
<!-- Node1&#45;&gt;Node2 -->
<g id="edge1" class="edge">
<title>Node1&#45;&gt;Node2</title>
<path fill="none" stroke="#63b8ff" d="M472.72,-9.5C464.22,-9.5 455.56,-9.5 447.23,-9.5"/>
<polygon fill="#63b8ff" stroke="#63b8ff" points="472.97,-13 482.97,-9.5 472.97,-6 472.97,-13"/>
</g>
<!-- Node3 -->
<g id="node3" class="node">
<title>Node3</title>
<g id="a_node3"><a xlink:href="class_commander.html#add4dd1e824524f3682d1862d26cfa6a6" target="_top" xlink:title="Command execution.">
<polygon fill="white" stroke="#666666" points="300,-19 146,-19 146,0 300,0 300,-19"/>
<text text-anchor="middle" x="223" y="-7" font-family="Helvetica,sans-Serif" font-size="10.00">Commander::executeCommand</text>
</a>
</g>
</g>
<!-- Node2&#45;&gt;Node3 -->
<g id="edge2" class="edge">
<title>Node2&#45;&gt;Node3</title>
<path fill="none" stroke="#63b8ff" d="M325.85,-9.5C317.41,-9.5 308.7,-9.5 300.1,-9.5"/>
<polygon fill="#63b8ff" stroke="#63b8ff" points="325.98,-13 335.98,-9.5 325.98,-6 325.98,-13"/>
</g>
<!-- Node3&#45;&gt;Node3 -->
<g id="edge4" class="edge">
<title>Node3&#45;&gt;Node3</title>
<path fill="none" stroke="#63b8ff" d="M254.44,-27.45C253.54,-32.82 243.06,-37 223,-37 193.14,-37 184.51,-27.73 197.11,-19.08"/>
<polygon fill="#63b8ff" stroke="#63b8ff" points="257.34,-25.49 248.89,-19.08 251.5,-29.35 257.34,-25.49"/>
</g>
<!-- Node4 -->
<g id="node4" class="node">
<title>Node4</title>
<g id="a_node4"><a xlink:href="class_commander.html#af6609b049d9524db60aac35dbba58cec" target="_top" xlink:title="Default execution function.">
<polygon fill="white" stroke="#666666" points="110,-19 0,-19 0,0 110,0 110,-19"/>
<text text-anchor="middle" x="55" y="-7" font-family="Helvetica,sans-Serif" font-size="10.00">Commander::execute</text>
</a>
</g>
</g>
<!-- Node3&#45;&gt;Node4 -->
<g id="edge3" class="edge">
<title>Node3&#45;&gt;Node4</title>
<path fill="none" stroke="#63b8ff" d="M135.71,-9.5C127.12,-9.5 118.57,-9.5 110.43,-9.5"/>
<polygon fill="#63b8ff" stroke="#63b8ff" points="135.8,-13 145.8,-9.5 135.8,-6 135.8,-13"/>
</g>
</g>
</svg>
