<?xml version="1.0" encoding="UTF-8" standalone="no"?>
<!DOCTYPE svg PUBLIC "-//W3C//DTD SVG 1.1//EN"
 "http://www.w3.org/Graphics/SVG/1.1/DTD/svg11.dtd">
<!-- Generated by graphviz version 5.0.1 (20220820.1526)
 -->
<!-- Title: Argument::findByPlace Pages: 1 -->
<svg width="635pt" height="471pt"
 viewBox="0.00 0.00 635.00 471.00" xmlns="http://www.w3.org/2000/svg" xmlns:xlink="http://www.w3.org/1999/xlink">
<g id="graph0" class="graph" transform="scale(1 1) rotate(0) translate(4 467)">
<title>Argument::findByPlace</title>
<!-- Node1 -->
<g id="node1" class="node">
<title>Node1</title>
<g id="a_node1"><a xlink:title="Find the start position of a place dependent argument.">
<polygon fill="#999999" stroke="#666666" points="627,-223 511,-223 511,-204 627,-204 627,-223"/>
<text text-anchor="middle" x="569" y="-211" font-family="Helvetica,sans-Serif" font-size="10.00">Argument::findByPlace</text>
</a>
</g>
</g>
<!-- Node2 -->
<g id="node2" class="node">
<title>Node2</title>
<g id="a_node2"><a xlink:href="class_argument.html#a7fab3d983e4a63b93e6f50df82ed6f84" target="_top" xlink:title=" ">
<polygon fill="white" stroke="#666666" points="475,-223 374,-223 374,-204 475,-204 475,-223"/>
<text text-anchor="middle" x="424.5" y="-211" font-family="Helvetica,sans-Serif" font-size="10.00">Argument::findStart</text>
</a>
</g>
</g>
<!-- Node1&#45;&gt;Node2 -->
<g id="edge1" class="edge">
<title>Node1&#45;&gt;Node2</title>
<path fill="none" stroke="#63b8ff" d="M500.83,-213.5C492.23,-213.5 483.56,-213.5 475.3,-213.5"/>
<polygon fill="#63b8ff" stroke="#63b8ff" points="500.86,-217 510.86,-213.5 500.86,-210 500.86,-217"/>
</g>
<!-- Node3 -->
<g id="node3" class="node">
<title>Node3</title>
<g id="a_node3"><a xlink:href="class_argument.html#a2258f3363dbb1d462286a41d4ab3b8ad" target="_top" xlink:title=" ">
<polygon fill="white" stroke="#666666" points="317,-370 207,-370 207,-351 317,-351 317,-370"/>
<text text-anchor="middle" x="262" y="-358" font-family="Helvetica,sans-Serif" font-size="10.00">Argument::parseFloat</text>
</a>
</g>
</g>
<!-- Node2&#45;&gt;Node3 -->
<g id="edge2" class="edge">
<title>Node2&#45;&gt;Node3</title>
<path fill="none" stroke="#63b8ff" d="M405.27,-230.2C371.64,-261 300.8,-325.88 273.78,-350.63"/>
<polygon fill="#63b8ff" stroke="#63b8ff" points="407.96,-232.48 412.97,-223.15 403.23,-227.32 407.96,-232.48"/>
</g>
<!-- Node9 -->
<g id="node9" class="node">
<title>Node9</title>
<g id="a_node9"><a xlink:href="class_argument.html#aeabd957dda6add595aa860761ea337f1" target="_top" xlink:title=" ">
<polygon fill="white" stroke="#666666" points="311.5,-223 212.5,-223 212.5,-204 311.5,-204 311.5,-223"/>
<text text-anchor="middle" x="262" y="-211" font-family="Helvetica,sans-Serif" font-size="10.00">Argument::parseInt</text>
</a>
</g>
</g>
<!-- Node2&#45;&gt;Node9 -->
<g id="edge8" class="edge">
<title>Node2&#45;&gt;Node9</title>
<path fill="none" stroke="#63b8ff" d="M363.22,-213.5C346.24,-213.5 327.99,-213.5 311.77,-213.5"/>
<polygon fill="#63b8ff" stroke="#63b8ff" points="363.6,-217 373.6,-213.5 363.6,-210 363.6,-217"/>
</g>
<!-- Node18 -->
<g id="node18" class="node">
<title>Node18</title>
<g id="a_node18"><a xlink:href="class_argument.html#a91aa4b22990c4532a437afb1ed58acf4" target="_top" xlink:title=" ">
<polygon fill="white" stroke="#666666" points="338,-186 186,-186 186,-167 338,-167 338,-186"/>
<text text-anchor="middle" x="262" y="-174" font-family="Helvetica,sans-Serif" font-size="10.00">Argument::parseStringFunction</text>
</a>
</g>
</g>
<!-- Node2&#45;&gt;Node18 -->
<g id="edge20" class="edge">
<title>Node2&#45;&gt;Node18</title>
<path fill="none" stroke="#63b8ff" d="M372.36,-201.71C350.45,-196.66 325.19,-190.84 304.47,-186.06"/>
<polygon fill="#63b8ff" stroke="#63b8ff" points="371.64,-205.14 382.17,-203.97 373.21,-198.31 371.64,-205.14"/>
</g>
<!-- Node4 -->
<g id="node4" class="node">
<title>Node4</title>
<g id="a_node4"><a xlink:href="_commander-_a_p_i-_math-_commands_8cpp.html#ae7d6fa81c7ec3354378b1f948c0c8749" target="_top" xlink:title="Premade function for abs command.">
<polygon fill="white" stroke="#666666" points="131,-389 19,-389 19,-370 131,-370 131,-389"/>
<text text-anchor="middle" x="75" y="-377" font-family="Helvetica,sans-Serif" font-size="10.00">commander_abs_func</text>
</a>
</g>
</g>
<!-- Node3&#45;&gt;Node4 -->
<g id="edge3" class="edge">
<title>Node3&#45;&gt;Node4</title>
<path fill="none" stroke="#63b8ff" d="M196.98,-367.07C175.51,-369.28 151.76,-371.72 131.04,-373.85"/>
<polygon fill="#63b8ff" stroke="#63b8ff" points="197.4,-370.55 206.99,-366.05 196.69,-363.59 197.4,-370.55"/>
</g>
<!-- Node5 -->
<g id="node5" class="node">
<title>Node5</title>
<g id="a_node5"><a xlink:href="_commander-_a_p_i-_math-_commands_8cpp.html#abfe392815068d05be5e099def983b5ec" target="_top" xlink:title="Premade function for cos command.">
<polygon fill="white" stroke="#666666" points="131,-352 19,-352 19,-333 131,-333 131,-352"/>
<text text-anchor="middle" x="75" y="-340" font-family="Helvetica,sans-Serif" font-size="10.00">commander_cos_func</text>
</a>
</g>
</g>
<!-- Node3&#45;&gt;Node5 -->
<g id="edge4" class="edge">
<title>Node3&#45;&gt;Node5</title>
<path fill="none" stroke="#63b8ff" d="M196.98,-354.27C175.51,-352.18 151.76,-349.87 131.04,-347.85"/>
<polygon fill="#63b8ff" stroke="#63b8ff" points="196.7,-357.76 206.99,-355.25 197.38,-350.79 196.7,-357.76"/>
</g>
<!-- Node6 -->
<g id="node6" class="node">
<title>Node6</title>
<g id="a_node6"><a xlink:href="_commander-_a_p_i-_system-_commands_8cpp.html#af867379096ae63ff42938a15749f2bd4" target="_top" xlink:title="Premade function for not command.">
<polygon fill="white" stroke="#666666" points="136.5,-426 13.5,-426 13.5,-407 136.5,-407 136.5,-426"/>
<text text-anchor="middle" x="75" y="-414" font-family="Helvetica,sans-Serif" font-size="10.00">commander_export_func</text>
</a>
</g>
</g>
<!-- Node3&#45;&gt;Node6 -->
<g id="edge5" class="edge">
<title>Node3&#45;&gt;Node6</title>
<path fill="none" stroke="#63b8ff" d="M225.74,-373.49C204.05,-381.25 175.6,-391.02 150,-398.5 139.72,-401.5 128.54,-404.41 118.05,-406.98"/>
<polygon fill="#63b8ff" stroke="#63b8ff" points="226.98,-376.77 235.2,-370.08 224.6,-370.18 226.98,-376.77"/>
</g>
<!-- Node7 -->
<g id="node7" class="node">
<title>Node7</title>
<g id="a_node7"><a xlink:href="_commander-_a_p_i-_system-_commands_8cpp.html#a67c664cbc5869ccf57996adeecbb6cd9" target="_top" xlink:title="Premade function for not command.">
<polygon fill="white" stroke="#666666" points="150,-463 0,-463 0,-444 150,-444 150,-463"/>
<text text-anchor="middle" x="75" y="-451" font-family="Helvetica,sans-Serif" font-size="10.00">commander_exportTarget_func</text>
</a>
</g>
</g>
<!-- Node3&#45;&gt;Node7 -->
<g id="edge6" class="edge">
<title>Node3&#45;&gt;Node7</title>
<path fill="none" stroke="#63b8ff" d="M241.95,-376.51C220.78,-393.52 184.96,-420.04 150,-435.5 142.38,-438.87 134.03,-441.67 125.77,-443.98"/>
<polygon fill="#63b8ff" stroke="#63b8ff" points="244.29,-379.11 249.82,-370.07 239.87,-373.69 244.29,-379.11"/>
</g>
<!-- Node8 -->
<g id="node8" class="node">
<title>Node8</title>
<g id="a_node8"><a xlink:href="_commander-_a_p_i-_math-_commands_8cpp.html#a1113369ca4b669dc0c6355fcf126cc42" target="_top" xlink:title="Premade function for sin command.">
<polygon fill="white" stroke="#666666" points="129.5,-315 20.5,-315 20.5,-296 129.5,-296 129.5,-315"/>
<text text-anchor="middle" x="75" y="-303" font-family="Helvetica,sans-Serif" font-size="10.00">commander_sin_func</text>
</a>
</g>
</g>
<!-- Node3&#45;&gt;Node8 -->
<g id="edge7" class="edge">
<title>Node3&#45;&gt;Node8</title>
<path fill="none" stroke="#63b8ff" d="M223.62,-347.74C202.18,-340.57 174.69,-331.67 150,-324.5 138.66,-321.21 126.26,-317.91 114.91,-315.01"/>
<polygon fill="#63b8ff" stroke="#63b8ff" points="222.73,-351.13 233.32,-350.99 224.96,-344.49 222.73,-351.13"/>
</g>
<!-- Node9&#45;&gt;Node4 -->
<g id="edge9" class="edge">
<title>Node9&#45;&gt;Node4</title>
<path fill="none" stroke="#63b8ff" d="M252.26,-232.4C236.52,-264.24 200.33,-328.32 150,-361.5 144.26,-365.28 137.8,-368.27 131.15,-370.64"/>
<polygon fill="#63b8ff" stroke="#63b8ff" points="255.46,-233.81 256.64,-223.28 249.15,-230.78 255.46,-233.81"/>
</g>
<!-- Node9&#45;&gt;Node5 -->
<g id="edge12" class="edge">
<title>Node9&#45;&gt;Node5</title>
<path fill="none" stroke="#63b8ff" d="M248.18,-231.46C229.49,-256.29 192.32,-300.72 150,-324.5 143.89,-327.93 137.14,-330.72 130.27,-332.97"/>
<polygon fill="#63b8ff" stroke="#63b8ff" points="251.1,-233.41 254.21,-223.28 245.46,-229.25 251.1,-233.41"/>
</g>
<!-- Node9&#45;&gt;Node8 -->
<g id="edge19" class="edge">
<title>Node9&#45;&gt;Node8</title>
<path fill="none" stroke="#63b8ff" d="M241.57,-229.55C220.33,-246.33 184.67,-272.29 150,-287.5 142.37,-290.85 134.02,-293.63 125.75,-295.94"/>
<polygon fill="#63b8ff" stroke="#63b8ff" points="243.89,-232.18 249.49,-223.19 239.5,-226.72 243.89,-232.18"/>
</g>
<!-- Node10 -->
<g id="node10" class="node">
<title>Node10</title>
<g id="a_node10"><a xlink:href="_commander-_a_p_i-_analog-_i_o-_commands_8cpp.html#a22f364acaf405f853e1ff3787c35b53e" target="_top" xlink:title="Premade function for analogRead command.">
<polygon fill="white" stroke="#666666" points="148.5,-19 1.5,-19 1.5,0 148.5,0 148.5,-19"/>
<text text-anchor="middle" x="75" y="-7" font-family="Helvetica,sans-Serif" font-size="10.00">commander_analogRead_func</text>
</a>
</g>
</g>
<!-- Node9&#45;&gt;Node10 -->
<g id="edge10" class="edge">
<title>Node9&#45;&gt;Node10</title>
<path fill="none" stroke="#63b8ff" d="M202.95,-206.77C196.63,-204.05 190.78,-200.39 186,-195.5 132.94,-141.19 202.63,-83.23 150,-28.5 146.32,-24.68 141.99,-21.58 137.29,-19.09"/>
<polygon fill="#63b8ff" stroke="#63b8ff" points="201.86,-210.09 212.45,-210.11 204.18,-203.49 201.86,-210.09"/>
</g>
<!-- Node11 -->
<g id="node11" class="node">
<title>Node11</title>
<g id="a_node11"><a xlink:href="_commander-_a_p_i-_analog-_i_o-_commands_8cpp.html#a0bb64a637cbaa4134e0cc9d1a7453ecf" target="_top" xlink:title="Premade function for analogRead command.">
<polygon fill="white" stroke="#666666" points="149,-278 1,-278 1,-259 149,-259 149,-278"/>
<text text-anchor="middle" x="75" y="-266" font-family="Helvetica,sans-Serif" font-size="10.00">commander_analogWrite_func</text>
</a>
</g>
</g>
<!-- Node9&#45;&gt;Node11 -->
<g id="edge11" class="edge">
<title>Node9&#45;&gt;Node11</title>
<path fill="none" stroke="#63b8ff" d="M224.56,-226.5C203.01,-233.97 175.11,-243.27 150,-250.5 139.71,-253.46 128.52,-256.35 118.03,-258.92"/>
<polygon fill="#63b8ff" stroke="#63b8ff" points="225.99,-229.7 234.28,-223.1 223.68,-223.1 225.99,-229.7"/>
</g>
<!-- Node12 -->
<g id="node12" class="node">
<title>Node12</title>
<g id="a_node12"><a xlink:href="_commander-_a_p_i-_digital-_i_o-_commands_8cpp.html#a488c98390245a3d0d7172f364ec91ed8" target="_top" xlink:title="Premade function for digitalRead command.">
<polygon fill="white" stroke="#666666" points="147,-241 3,-241 3,-222 147,-222 147,-241"/>
<text text-anchor="middle" x="75" y="-229" font-family="Helvetica,sans-Serif" font-size="10.00">commander_digitalRead_func</text>
</a>
</g>
</g>
<!-- Node9&#45;&gt;Node12 -->
<g id="edge13" class="edge">
<title>Node9&#45;&gt;Node12</title>
<path fill="none" stroke="#63b8ff" d="M202.33,-219.21C184.83,-220.91 165.46,-222.8 147.25,-224.57"/>
<polygon fill="#63b8ff" stroke="#63b8ff" points="202.78,-222.68 212.39,-218.23 202.1,-215.71 202.78,-222.68"/>
</g>
<!-- Node13 -->
<g id="node13" class="node">
<title>Node13</title>
<g id="a_node13"><a xlink:href="_commander-_a_p_i-_digital-_i_o-_commands_8cpp.html#af309a2eb04319e75d4cc91e93894846e" target="_top" xlink:title="Premade function for digitalWrite command.">
<polygon fill="white" stroke="#666666" points="147.5,-204 2.5,-204 2.5,-185 147.5,-185 147.5,-204"/>
<text text-anchor="middle" x="75" y="-192" font-family="Helvetica,sans-Serif" font-size="10.00">commander_digitalWrite_func</text>
</a>
</g>
</g>
<!-- Node9&#45;&gt;Node13 -->
<g id="edge14" class="edge">
<title>Node9&#45;&gt;Node13</title>
<path fill="none" stroke="#63b8ff" d="M202.39,-207.48C184.99,-205.69 165.73,-203.72 147.6,-201.85"/>
<polygon fill="#63b8ff" stroke="#63b8ff" points="202.09,-210.97 212.39,-208.51 202.8,-204 202.09,-210.97"/>
</g>
<!-- Node14 -->
<g id="node14" class="node">
<title>Node14</title>
<g id="a_node14"><a xlink:href="_commander-_a_p_i-_memory-_commands_8cpp.html#ac0009f7287654611dc82da625f2579a9" target="_top" xlink:title="Premade function for not command.">
<polygon fill="white" stroke="#666666" points="146.5,-167 3.5,-167 3.5,-148 146.5,-148 146.5,-167"/>
<text text-anchor="middle" x="75" y="-155" font-family="Helvetica,sans-Serif" font-size="10.00">commander_memDump_func</text>
</a>
</g>
</g>
<!-- Node9&#45;&gt;Node14 -->
<g id="edge15" class="edge">
<title>Node9&#45;&gt;Node14</title>
<path fill="none" stroke="#63b8ff" d="M203.31,-201.21C197.4,-199.49 191.54,-197.59 186,-195.5 169.07,-189.12 166.88,-183.02 150,-176.5 140.6,-172.87 130.25,-169.72 120.36,-167.09"/>
<polygon fill="#63b8ff" stroke="#63b8ff" points="202.68,-204.67 213.25,-203.94 204.53,-197.92 202.68,-204.67"/>
</g>
<!-- Node15 -->
<g id="node15" class="node">
<title>Node15</title>
<g id="a_node15"><a xlink:href="_commander-_a_p_i-_math-_commands_8cpp.html#aa0fa51a20a9af63d3f7e85012e533a7c" target="_top" xlink:title="Premade function for not command.">
<polygon fill="white" stroke="#666666" points="130,-130 20,-130 20,-111 130,-111 130,-130"/>
<text text-anchor="middle" x="75" y="-118" font-family="Helvetica,sans-Serif" font-size="10.00">commander_not_func</text>
</a>
</g>
</g>
<!-- Node9&#45;&gt;Node15 -->
<g id="edge16" class="edge">
<title>Node9&#45;&gt;Node15</title>
<path fill="none" stroke="#63b8ff" d="M202.76,-204.32C196.81,-202.01 191.09,-199.11 186,-195.5 161.88,-178.37 173.99,-156.82 150,-139.5 144.09,-135.23 137.3,-131.92 130.28,-129.35"/>
<polygon fill="#63b8ff" stroke="#63b8ff" points="201.66,-207.64 212.25,-207.51 203.89,-201.01 201.66,-207.64"/>
</g>
<!-- Node16 -->
<g id="node16" class="node">
<title>Node16</title>
<g id="a_node16"><a xlink:href="_commander-_a_p_i-_digital-_i_o-_commands_8cpp.html#a2246eb22ddae467d2e4c311b95b1ca9f" target="_top" xlink:title="Premade function for pinMode command.">
<polygon fill="white" stroke="#666666" points="141.5,-93 8.5,-93 8.5,-74 141.5,-74 141.5,-93"/>
<text text-anchor="middle" x="75" y="-81" font-family="Helvetica,sans-Serif" font-size="10.00">commander_pinMode_func</text>
</a>
</g>
</g>
<!-- Node9&#45;&gt;Node16 -->
<g id="edge17" class="edge">
<title>Node9&#45;&gt;Node16</title>
<path fill="none" stroke="#63b8ff" d="M202.72,-205.63C196.63,-203.08 190.9,-199.78 186,-195.5 152.63,-166.32 183.13,-131.94 150,-102.5 145.64,-98.62 140.59,-95.52 135.22,-93.03"/>
<polygon fill="#63b8ff" stroke="#63b8ff" points="201.89,-209.05 212.49,-209.03 204.2,-202.44 201.89,-209.05"/>
</g>
<!-- Node17 -->
<g id="node17" class="node">
<title>Node17</title>
<g id="a_node17"><a xlink:href="_commander-_a_p_i-_math-_commands_8cpp.html#aedeb7c7e023d071ecf07a9d6c64679d4" target="_top" xlink:title="Premade function for random command.">
<polygon fill="white" stroke="#666666" points="139,-56 11,-56 11,-37 139,-37 139,-56"/>
<text text-anchor="middle" x="75" y="-44" font-family="Helvetica,sans-Serif" font-size="10.00">commander_random_func</text>
</a>
</g>
</g>
<!-- Node9&#45;&gt;Node17 -->
<g id="edge18" class="edge">
<title>Node9&#45;&gt;Node17</title>
<path fill="none" stroke="#63b8ff" d="M202.53,-206.2C196.43,-203.56 190.74,-200.08 186,-195.5 142.88,-153.85 192.79,-107.49 150,-65.5 146.12,-61.69 141.58,-58.61 136.7,-56.13"/>
<polygon fill="#63b8ff" stroke="#63b8ff" points="201.78,-209.65 212.37,-209.69 204.12,-203.05 201.78,-209.65"/>
</g>
</g>
</svg>
