<?xml version="1.0" encoding="UTF-8" standalone="no"?>
<!DOCTYPE svg PUBLIC "-//W3C//DTD SVG 1.1//EN"
 "http://www.w3.org/Graphics/SVG/1.1/DTD/svg11.dtd">
<!-- Generated by graphviz version 5.0.1 (20220820.1526)
 -->
<!-- Title: Commander::getSystemVariable Pages: 1 -->
<svg width="739pt" height="471pt"
 viewBox="0.00 0.00 739.00 471.00" xmlns="http://www.w3.org/2000/svg" xmlns:xlink="http://www.w3.org/1999/xlink">
<g id="graph0" class="graph" transform="scale(1 1) rotate(0) translate(4 467)">
<title>Commander::getSystemVariable</title>
<!-- Node1 -->
<g id="node1" class="node">
<title>Node1</title>
<g id="a_node1"><a xlink:title="Get the instance if a system variable by its name.">
<polygon fill="#999999" stroke="#666666" points="731,-351 573,-351 573,-332 731,-332 731,-351"/>
<text text-anchor="middle" x="652" y="-339" font-family="Helvetica,sans-Serif" font-size="10.00">Commander::getSystemVariable</text>
</a>
</g>
</g>
<!-- Node2 -->
<g id="node2" class="node">
<title>Node2</title>
<g id="a_node2"><a xlink:href="_commander-_a_p_i-_system-_commands_8cpp.html#a5c9542cd570d909676496bb437d824ea" target="_top" xlink:title="Premade function for echo command.">
<polygon fill="white" stroke="#666666" points="320.5,-389 203.5,-389 203.5,-370 320.5,-370 320.5,-389"/>
<text text-anchor="middle" x="262" y="-377" font-family="Helvetica,sans-Serif" font-size="10.00">commander_echo_func</text>
</a>
</g>
</g>
<!-- Node1&#45;&gt;Node2 -->
<g id="edge1" class="edge">
<title>Node1&#45;&gt;Node2</title>
<path fill="none" stroke="#63b8ff" d="M562.6,-345.88C508.11,-349.08 436.87,-354.15 374,-361.5 354.9,-363.73 334.07,-366.91 315.66,-369.98"/>
<polygon fill="#63b8ff" stroke="#63b8ff" points="563.14,-349.35 572.92,-345.29 562.73,-342.37 563.14,-349.35"/>
</g>
<!-- Node3 -->
<g id="node3" class="node">
<title>Node3</title>
<g id="a_node3"><a xlink:href="class_argument.html#a7fab3d983e4a63b93e6f50df82ed6f84" target="_top" xlink:title=" ">
<polygon fill="white" stroke="#666666" points="506,-277 405,-277 405,-258 506,-258 506,-277"/>
<text text-anchor="middle" x="455.5" y="-265" font-family="Helvetica,sans-Serif" font-size="10.00">Argument::findStart</text>
</a>
</g>
</g>
<!-- Node1&#45;&gt;Node3 -->
<g id="edge2" class="edge">
<title>Node1&#45;&gt;Node3</title>
<path fill="none" stroke="#63b8ff" d="M616.19,-328.26C577.52,-313.54 516.04,-290.15 481.74,-277.1"/>
<polygon fill="#63b8ff" stroke="#63b8ff" points="615.38,-331.69 625.97,-331.98 617.87,-325.15 615.38,-331.69"/>
</g>
<!-- Node20 -->
<g id="node20" class="node">
<title>Node20</title>
<g id="a_node20"><a xlink:href="class_commander.html#af9ef97a7482a31282c53fd98062a940c" target="_top" xlink:title="Print the value of a system variable.">
<polygon fill="white" stroke="#666666" points="537,-389 374,-389 374,-370 537,-370 537,-389"/>
<text text-anchor="middle" x="455.5" y="-377" font-family="Helvetica,sans-Serif" font-size="10.00">Commander::printSystemVariable</text>
</a>
</g>
</g>
<!-- Node1&#45;&gt;Node20 -->
<g id="edge22" class="edge">
<title>Node1&#45;&gt;Node20</title>
<path fill="none" stroke="#63b8ff" d="M592.19,-352.99C564.44,-358.41 531.71,-364.81 505.35,-369.96"/>
<polygon fill="#63b8ff" stroke="#63b8ff" points="593.03,-356.39 602.17,-351.04 591.68,-349.52 593.03,-356.39"/>
</g>
<!-- Node4 -->
<g id="node4" class="node">
<title>Node4</title>
<g id="a_node4"><a xlink:href="class_argument.html#a2258f3363dbb1d462286a41d4ab3b8ad" target="_top" xlink:title=" ">
<polygon fill="white" stroke="#666666" points="317,-352 207,-352 207,-333 317,-333 317,-352"/>
<text text-anchor="middle" x="262" y="-340" font-family="Helvetica,sans-Serif" font-size="10.00">Argument::parseFloat</text>
</a>
</g>
</g>
<!-- Node3&#45;&gt;Node4 -->
<g id="edge3" class="edge">
<title>Node3&#45;&gt;Node4</title>
<path fill="none" stroke="#63b8ff" d="M420.2,-280.93C382.01,-295.89 321.25,-319.69 287.55,-332.89"/>
<polygon fill="#63b8ff" stroke="#63b8ff" points="421.82,-284.06 429.86,-277.15 419.27,-277.54 421.82,-284.06"/>
</g>
<!-- Node10 -->
<g id="node10" class="node">
<title>Node10</title>
<g id="a_node10"><a xlink:href="class_argument.html#aeabd957dda6add595aa860761ea337f1" target="_top" xlink:title=" ">
<polygon fill="white" stroke="#666666" points="311.5,-241 212.5,-241 212.5,-222 311.5,-222 311.5,-241"/>
<text text-anchor="middle" x="262" y="-229" font-family="Helvetica,sans-Serif" font-size="10.00">Argument::parseInt</text>
</a>
</g>
</g>
<!-- Node3&#45;&gt;Node10 -->
<g id="edge9" class="edge">
<title>Node3&#45;&gt;Node10</title>
<path fill="none" stroke="#63b8ff" d="M394.67,-256.25C367.94,-251.23 336.84,-245.38 311.57,-240.63"/>
<polygon fill="#63b8ff" stroke="#63b8ff" points="394.21,-259.73 404.69,-258.14 395.5,-252.85 394.21,-259.73"/>
</g>
<!-- Node19 -->
<g id="node19" class="node">
<title>Node19</title>
<g id="a_node19"><a xlink:href="class_argument.html#a91aa4b22990c4532a437afb1ed58acf4" target="_top" xlink:title=" ">
<polygon fill="white" stroke="#666666" points="338,-204 186,-204 186,-185 338,-185 338,-204"/>
<text text-anchor="middle" x="262" y="-192" font-family="Helvetica,sans-Serif" font-size="10.00">Argument::parseStringFunction</text>
</a>
</g>
</g>
<!-- Node3&#45;&gt;Node19 -->
<g id="edge21" class="edge">
<title>Node3&#45;&gt;Node19</title>
<path fill="none" stroke="#63b8ff" d="M428.34,-253.24C405.15,-241.07 370.08,-223.79 338,-212.5 328.91,-209.3 318.99,-206.48 309.44,-204.07"/>
<polygon fill="#63b8ff" stroke="#63b8ff" points="426.74,-256.35 437.21,-257.95 430.02,-250.17 426.74,-256.35"/>
</g>
<!-- Node5 -->
<g id="node5" class="node">
<title>Node5</title>
<g id="a_node5"><a xlink:href="_commander-_a_p_i-_math-_commands_8cpp.html#ae7d6fa81c7ec3354378b1f948c0c8749" target="_top" xlink:title="Premade function for abs command.">
<polygon fill="white" stroke="#666666" points="131,-315 19,-315 19,-296 131,-296 131,-315"/>
<text text-anchor="middle" x="75" y="-303" font-family="Helvetica,sans-Serif" font-size="10.00">commander_abs_func</text>
</a>
</g>
</g>
<!-- Node4&#45;&gt;Node5 -->
<g id="edge4" class="edge">
<title>Node4&#45;&gt;Node5</title>
<path fill="none" stroke="#63b8ff" d="M203.42,-330.98C177.85,-325.87 148.12,-319.92 123.8,-315.06"/>
<polygon fill="#63b8ff" stroke="#63b8ff" points="202.87,-334.44 213.36,-332.97 204.24,-327.58 202.87,-334.44"/>
</g>
<!-- Node6 -->
<g id="node6" class="node">
<title>Node6</title>
<g id="a_node6"><a xlink:href="_commander-_a_p_i-_math-_commands_8cpp.html#abfe392815068d05be5e099def983b5ec" target="_top" xlink:title="Premade function for cos command.">
<polygon fill="white" stroke="#666666" points="131,-389 19,-389 19,-370 131,-370 131,-389"/>
<text text-anchor="middle" x="75" y="-377" font-family="Helvetica,sans-Serif" font-size="10.00">commander_cos_func</text>
</a>
</g>
</g>
<!-- Node4&#45;&gt;Node6 -->
<g id="edge5" class="edge">
<title>Node4&#45;&gt;Node6</title>
<path fill="none" stroke="#63b8ff" d="M203.42,-354.02C177.85,-359.13 148.12,-365.08 123.8,-369.94"/>
<polygon fill="#63b8ff" stroke="#63b8ff" points="204.24,-357.42 213.36,-352.03 202.87,-350.56 204.24,-357.42"/>
</g>
<!-- Node7 -->
<g id="node7" class="node">
<title>Node7</title>
<g id="a_node7"><a xlink:href="_commander-_a_p_i-_system-_commands_8cpp.html#af867379096ae63ff42938a15749f2bd4" target="_top" xlink:title="Premade function for not command.">
<polygon fill="white" stroke="#666666" points="136.5,-463 13.5,-463 13.5,-444 136.5,-444 136.5,-463"/>
<text text-anchor="middle" x="75" y="-451" font-family="Helvetica,sans-Serif" font-size="10.00">commander_export_func</text>
</a>
</g>
</g>
<!-- Node4&#45;&gt;Node7 -->
<g id="edge6" class="edge">
<title>Node4&#45;&gt;Node7</title>
<path fill="none" stroke="#63b8ff" d="M197.44,-354.17C193.36,-356.23 189.49,-358.66 186,-361.5 157.63,-384.58 178.48,-412.55 150,-435.5 145.78,-438.9 141.01,-441.68 135.98,-443.93"/>
<polygon fill="#63b8ff" stroke="#63b8ff" points="198.85,-357.37 206.65,-350.19 196.08,-350.94 198.85,-357.37"/>
</g>
<!-- Node8 -->
<g id="node8" class="node">
<title>Node8</title>
<g id="a_node8"><a xlink:href="_commander-_a_p_i-_system-_commands_8cpp.html#a67c664cbc5869ccf57996adeecbb6cd9" target="_top" xlink:title="Premade function for not command.">
<polygon fill="white" stroke="#666666" points="150,-426 0,-426 0,-407 150,-407 150,-426"/>
<text text-anchor="middle" x="75" y="-414" font-family="Helvetica,sans-Serif" font-size="10.00">commander_exportTarget_func</text>
</a>
</g>
</g>
<!-- Node4&#45;&gt;Node8 -->
<g id="edge7" class="edge">
<title>Node4&#45;&gt;Node8</title>
<path fill="none" stroke="#63b8ff" d="M198.36,-355.51C194.07,-357.26 189.9,-359.25 186,-361.5 166.13,-372.97 169.92,-387.12 150,-398.5 144.03,-401.91 137.43,-404.68 130.71,-406.92"/>
<polygon fill="#63b8ff" stroke="#63b8ff" points="199.72,-358.74 207.91,-352.03 197.32,-352.16 199.72,-358.74"/>
</g>
<!-- Node9 -->
<g id="node9" class="node">
<title>Node9</title>
<g id="a_node9"><a xlink:href="_commander-_a_p_i-_math-_commands_8cpp.html#a1113369ca4b669dc0c6355fcf126cc42" target="_top" xlink:title="Premade function for sin command.">
<polygon fill="white" stroke="#666666" points="129.5,-352 20.5,-352 20.5,-333 129.5,-333 129.5,-352"/>
<text text-anchor="middle" x="75" y="-340" font-family="Helvetica,sans-Serif" font-size="10.00">commander_sin_func</text>
</a>
</g>
</g>
<!-- Node4&#45;&gt;Node9 -->
<g id="edge8" class="edge">
<title>Node4&#45;&gt;Node9</title>
<path fill="none" stroke="#63b8ff" d="M196.8,-342.5C174.93,-342.5 150.72,-342.5 129.75,-342.5"/>
<polygon fill="#63b8ff" stroke="#63b8ff" points="196.99,-346 206.99,-342.5 196.99,-339 196.99,-346"/>
</g>
<!-- Node10&#45;&gt;Node5 -->
<g id="edge10" class="edge">
<title>Node10&#45;&gt;Node5</title>
<path fill="none" stroke="#63b8ff" d="M236.28,-246.04C214.26,-258.49 180.84,-276.14 150,-287.5 141.19,-290.74 131.58,-293.57 122.28,-295.97"/>
<polygon fill="#63b8ff" stroke="#63b8ff" points="238.04,-249.07 244.98,-241.06 234.56,-242.99 238.04,-249.07"/>
</g>
<!-- Node10&#45;&gt;Node6 -->
<g id="edge13" class="edge">
<title>Node10&#45;&gt;Node6</title>
<path fill="none" stroke="#63b8ff" d="M246.65,-249.52C219.5,-283.42 162.24,-353.97 150,-361.5 144.26,-365.03 137.86,-367.87 131.31,-370.15"/>
<polygon fill="#63b8ff" stroke="#63b8ff" points="249.64,-251.38 253.15,-241.38 244.18,-247.01 249.64,-251.38"/>
</g>
<!-- Node10&#45;&gt;Node9 -->
<g id="edge20" class="edge">
<title>Node10&#45;&gt;Node9</title>
<path fill="none" stroke="#63b8ff" d="M245.51,-248.61C225.5,-269.66 188.63,-304.98 150,-324.5 143.27,-327.9 135.87,-330.68 128.43,-332.94"/>
<polygon fill="#63b8ff" stroke="#63b8ff" points="248.29,-250.76 252.55,-241.06 243.17,-245.99 248.29,-250.76"/>
</g>
<!-- Node11 -->
<g id="node11" class="node">
<title>Node11</title>
<g id="a_node11"><a xlink:href="_commander-_a_p_i-_analog-_i_o-_commands_8cpp.html#a22f364acaf405f853e1ff3787c35b53e" target="_top" xlink:title="Premade function for analogRead command.">
<polygon fill="white" stroke="#666666" points="148.5,-204 1.5,-204 1.5,-185 148.5,-185 148.5,-204"/>
<text text-anchor="middle" x="75" y="-192" font-family="Helvetica,sans-Serif" font-size="10.00">commander_analogRead_func</text>
</a>
</g>
</g>
<!-- Node10&#45;&gt;Node11 -->
<g id="edge11" class="edge">
<title>Node10&#45;&gt;Node11</title>
<path fill="none" stroke="#63b8ff" d="M203.42,-219.98C177.85,-214.87 148.12,-208.92 123.8,-204.06"/>
<polygon fill="#63b8ff" stroke="#63b8ff" points="202.87,-223.44 213.36,-221.97 204.24,-216.58 202.87,-223.44"/>
</g>
<!-- Node12 -->
<g id="node12" class="node">
<title>Node12</title>
<g id="a_node12"><a xlink:href="_commander-_a_p_i-_analog-_i_o-_commands_8cpp.html#a0bb64a637cbaa4134e0cc9d1a7453ecf" target="_top" xlink:title="Premade function for analogRead command.">
<polygon fill="white" stroke="#666666" points="149,-167 1,-167 1,-148 149,-148 149,-167"/>
<text text-anchor="middle" x="75" y="-155" font-family="Helvetica,sans-Serif" font-size="10.00">commander_analogWrite_func</text>
</a>
</g>
</g>
<!-- Node10&#45;&gt;Node12 -->
<g id="edge12" class="edge">
<title>Node10&#45;&gt;Node12</title>
<path fill="none" stroke="#63b8ff" d="M202.49,-220.1C196.74,-217.98 191.14,-215.47 186,-212.5 166.13,-201.03 169.92,-186.88 150,-175.5 144.03,-172.09 137.43,-169.32 130.71,-167.08"/>
<polygon fill="#63b8ff" stroke="#63b8ff" points="201.66,-223.51 212.26,-223.31 203.85,-216.86 201.66,-223.51"/>
</g>
<!-- Node13 -->
<g id="node13" class="node">
<title>Node13</title>
<g id="a_node13"><a xlink:href="_commander-_a_p_i-_digital-_i_o-_commands_8cpp.html#a488c98390245a3d0d7172f364ec91ed8" target="_top" xlink:title="Premade function for digitalRead command.">
<polygon fill="white" stroke="#666666" points="147,-130 3,-130 3,-111 147,-111 147,-130"/>
<text text-anchor="middle" x="75" y="-118" font-family="Helvetica,sans-Serif" font-size="10.00">commander_digitalRead_func</text>
</a>
</g>
</g>
<!-- Node10&#45;&gt;Node13 -->
<g id="edge14" class="edge">
<title>Node10&#45;&gt;Node13</title>
<path fill="none" stroke="#63b8ff" d="M202.79,-222.3C196.74,-219.77 190.99,-216.56 186,-212.5 157.63,-189.42 178.48,-161.45 150,-138.5 145.78,-135.1 141.01,-132.32 135.98,-130.07"/>
<polygon fill="#63b8ff" stroke="#63b8ff" points="201.88,-225.69 212.48,-225.74 204.23,-219.09 201.88,-225.69"/>
</g>
<!-- Node14 -->
<g id="node14" class="node">
<title>Node14</title>
<g id="a_node14"><a xlink:href="_commander-_a_p_i-_digital-_i_o-_commands_8cpp.html#af309a2eb04319e75d4cc91e93894846e" target="_top" xlink:title="Premade function for digitalWrite command.">
<polygon fill="white" stroke="#666666" points="147.5,-93 2.5,-93 2.5,-74 147.5,-74 147.5,-93"/>
<text text-anchor="middle" x="75" y="-81" font-family="Helvetica,sans-Serif" font-size="10.00">commander_digitalWrite_func</text>
</a>
</g>
</g>
<!-- Node10&#45;&gt;Node14 -->
<g id="edge15" class="edge">
<title>Node10&#45;&gt;Node14</title>
<path fill="none" stroke="#63b8ff" d="M202.45,-223.07C196.41,-220.41 190.76,-216.96 186,-212.5 148.15,-177.05 188.02,-136.77 150,-101.5 146.41,-98.17 142.32,-95.43 137.94,-93.18"/>
<polygon fill="#63b8ff" stroke="#63b8ff" points="201.58,-226.49 212.18,-226.65 204,-219.91 201.58,-226.49"/>
</g>
<!-- Node15 -->
<g id="node15" class="node">
<title>Node15</title>
<g id="a_node15"><a xlink:href="_commander-_a_p_i-_memory-_commands_8cpp.html#ac0009f7287654611dc82da625f2579a9" target="_top" xlink:title="Premade function for not command.">
<polygon fill="white" stroke="#666666" points="146.5,-56 3.5,-56 3.5,-37 146.5,-37 146.5,-56"/>
<text text-anchor="middle" x="75" y="-44" font-family="Helvetica,sans-Serif" font-size="10.00">commander_memDump_func</text>
</a>
</g>
</g>
<!-- Node10&#45;&gt;Node15 -->
<g id="edge16" class="edge">
<title>Node10&#45;&gt;Node15</title>
<path fill="none" stroke="#63b8ff" d="M202.36,-223.53C196.29,-220.79 190.65,-217.2 186,-212.5 138.36,-164.4 197.87,-112.37 150,-64.5 146.63,-61.13 142.75,-58.36 138.56,-56.08"/>
<polygon fill="#63b8ff" stroke="#63b8ff" points="201.58,-226.97 212.17,-227.17 204.01,-220.41 201.58,-226.97"/>
</g>
<!-- Node16 -->
<g id="node16" class="node">
<title>Node16</title>
<g id="a_node16"><a xlink:href="_commander-_a_p_i-_math-_commands_8cpp.html#aa0fa51a20a9af63d3f7e85012e533a7c" target="_top" xlink:title="Premade function for not command.">
<polygon fill="white" stroke="#666666" points="130,-19 20,-19 20,0 130,0 130,-19"/>
<text text-anchor="middle" x="75" y="-7" font-family="Helvetica,sans-Serif" font-size="10.00">commander_not_func</text>
</a>
</g>
</g>
<!-- Node10&#45;&gt;Node16 -->
<g id="edge17" class="edge">
<title>Node10&#45;&gt;Node16</title>
<path fill="none" stroke="#63b8ff" d="M202.82,-224.05C196.53,-221.24 190.71,-217.48 186,-212.5 128.45,-151.64 207.84,-88.09 150,-27.5 144.52,-21.76 137.55,-17.72 130.08,-14.91"/>
<polygon fill="#63b8ff" stroke="#63b8ff" points="201.71,-227.37 212.31,-227.53 204.13,-220.8 201.71,-227.37"/>
</g>
<!-- Node17 -->
<g id="node17" class="node">
<title>Node17</title>
<g id="a_node17"><a xlink:href="_commander-_a_p_i-_digital-_i_o-_commands_8cpp.html#a2246eb22ddae467d2e4c311b95b1ca9f" target="_top" xlink:title="Premade function for pinMode command.">
<polygon fill="white" stroke="#666666" points="141.5,-278 8.5,-278 8.5,-259 141.5,-259 141.5,-278"/>
<text text-anchor="middle" x="75" y="-266" font-family="Helvetica,sans-Serif" font-size="10.00">commander_pinMode_func</text>
</a>
</g>
</g>
<!-- Node10&#45;&gt;Node17 -->
<g id="edge18" class="edge">
<title>Node10&#45;&gt;Node17</title>
<path fill="none" stroke="#63b8ff" d="M203.42,-243.02C177.85,-248.13 148.12,-254.08 123.8,-258.94"/>
<polygon fill="#63b8ff" stroke="#63b8ff" points="204.24,-246.42 213.36,-241.03 202.87,-239.56 204.24,-246.42"/>
</g>
<!-- Node18 -->
<g id="node18" class="node">
<title>Node18</title>
<g id="a_node18"><a xlink:href="_commander-_a_p_i-_math-_commands_8cpp.html#aedeb7c7e023d071ecf07a9d6c64679d4" target="_top" xlink:title="Premade function for random command.">
<polygon fill="white" stroke="#666666" points="139,-241 11,-241 11,-222 139,-222 139,-241"/>
<text text-anchor="middle" x="75" y="-229" font-family="Helvetica,sans-Serif" font-size="10.00">commander_random_func</text>
</a>
</g>
</g>
<!-- Node10&#45;&gt;Node18 -->
<g id="edge19" class="edge">
<title>Node10&#45;&gt;Node18</title>
<path fill="none" stroke="#63b8ff" d="M202.16,-231.5C182.12,-231.5 159.63,-231.5 139.26,-231.5"/>
<polygon fill="#63b8ff" stroke="#63b8ff" points="202.39,-235 212.39,-231.5 202.39,-228 202.39,-235"/>
</g>
<!-- Node20&#45;&gt;Node2 -->
<g id="edge23" class="edge">
<title>Node20&#45;&gt;Node2</title>
<path fill="none" stroke="#63b8ff" d="M363.72,-379.5C349.04,-379.5 334.2,-379.5 320.6,-379.5"/>
<polygon fill="#63b8ff" stroke="#63b8ff" points="363.84,-383 373.84,-379.5 363.84,-376 363.84,-383"/>
</g>
</g>
</svg>
