<?xml version="1.0" encoding="UTF-8" standalone="no"?>
<!DOCTYPE svg PUBLIC "-//W3C//DTD SVG 1.1//EN"
 "http://www.w3.org/Graphics/SVG/1.1/DTD/svg11.dtd">
<!-- Generated by graphviz version 5.0.1 (20220820.1526)
 -->
<!-- Title: CommanderDatabase::CommanderDatabase Pages: 1 -->
<svg width="324pt" height="182pt"
 viewBox="0.00 0.00 324.00 182.00" xmlns="http://www.w3.org/2000/svg" xmlns:xlink="http://www.w3.org/1999/xlink">
<g id="graph0" class="graph" transform="scale(1 1) rotate(0) translate(4 178)">
<title>CommanderDatabase::CommanderDatabase</title>
<!-- Node1 -->
<g id="node1" class="node">
<title>Node1</title>
<g id="a_node1"><a xlink:title="Empty constructor.">
<polygon fill="#999999" stroke="#666666" points="116,-102 0,-102 0,-72 116,-72 116,-102"/>
<text text-anchor="start" x="8" y="-90" font-family="Helvetica,sans-Serif" font-size="10.00">CommanderDatabase::</text>
<text text-anchor="middle" x="58" y="-79" font-family="Helvetica,sans-Serif" font-size="10.00">CommanderDatabase</text>
</a>
</g>
</g>
<!-- Node2 -->
<g id="node2" class="node">
<title>Node2</title>
<g id="a_node2"><a xlink:href="class_commander_database.html#af5f3b1f8dd593bb409a6e00357799c0c" target="_top" xlink:title=" ">
<polygon fill="white" stroke="#666666" points="313.5,-174 154.5,-174 154.5,-144 313.5,-144 313.5,-174"/>
<text text-anchor="start" x="162.5" y="-162" font-family="Helvetica,sans-Serif" font-size="10.00">CommanderDatabase::</text>
<text text-anchor="middle" x="234" y="-151" font-family="Helvetica,sans-Serif" font-size="10.00">strcmpElementCharArrayRegular</text>
</a>
</g>
</g>
<!-- Node1&#45;&gt;Node2 -->
<g id="edge1" class="edge">
<title>Node1&#45;&gt;Node2</title>
<path fill="none" stroke="#63b8ff" d="M84.84,-102.01C103.16,-112.24 128.57,-125.58 152,-135 157.02,-137.02 162.27,-138.95 167.59,-140.78"/>
<polygon fill="#63b8ff" stroke="#63b8ff" points="166.59,-144.14 177.19,-143.97 168.8,-137.5 166.59,-144.14"/>
</g>
<!-- Node3 -->
<g id="node3" class="node">
<title>Node3</title>
<g id="a_node3"><a xlink:href="class_commander_database.html#ab555ef1d1bb206ecdb6611a2ced1ede6" target="_top" xlink:title=" ">
<polygon fill="white" stroke="#666666" points="310,-126 158,-126 158,-96 310,-96 310,-126"/>
<text text-anchor="start" x="166" y="-114" font-family="Helvetica,sans-Serif" font-size="10.00">CommanderDatabase::</text>
<text text-anchor="middle" x="234" y="-103" font-family="Helvetica,sans-Serif" font-size="10.00">strcmpElementElementRegular</text>
</a>
</g>
</g>
<!-- Node1&#45;&gt;Node3 -->
<g id="edge2" class="edge">
<title>Node1&#45;&gt;Node3</title>
<path fill="none" stroke="#63b8ff" d="M116.46,-94.93C126.51,-96.31 137.16,-97.78 147.77,-99.24"/>
<polygon fill="#63b8ff" stroke="#63b8ff" points="147.53,-102.74 157.92,-100.64 148.49,-95.81 147.53,-102.74"/>
</g>
<!-- Node4 -->
<g id="node4" class="node">
<title>Node4</title>
<g id="a_node4"><a xlink:href="class_commander_database.html#abc680a084e2cb5eadfc2eafd549e8670" target="_top" xlink:title=" ">
<polygon fill="white" stroke="#666666" points="316,-78 152,-78 152,-48 316,-48 316,-78"/>
<text text-anchor="start" x="160" y="-66" font-family="Helvetica,sans-Serif" font-size="10.00">CommanderDatabase::</text>
<text text-anchor="middle" x="234" y="-55" font-family="Helvetica,sans-Serif" font-size="10.00">strncmpElementCharArrayRegular</text>
</a>
</g>
</g>
<!-- Node1&#45;&gt;Node4 -->
<g id="edge3" class="edge">
<title>Node1&#45;&gt;Node4</title>
<path fill="none" stroke="#63b8ff" d="M116.46,-79.07C124.64,-77.95 133.22,-76.76 141.85,-75.57"/>
<polygon fill="#63b8ff" stroke="#63b8ff" points="142.56,-79.01 151.99,-74.17 141.6,-72.07 142.56,-79.01"/>
</g>
<!-- Node5 -->
<g id="node5" class="node">
<title>Node5</title>
<g id="a_node5"><a xlink:href="class_commander_database.html#ac64344ab1ff93851b5420252c7636f8c" target="_top" xlink:title=" ">
<polygon fill="white" stroke="#666666" points="312.5,-30 155.5,-30 155.5,0 312.5,0 312.5,-30"/>
<text text-anchor="start" x="163.5" y="-18" font-family="Helvetica,sans-Serif" font-size="10.00">CommanderDatabase::</text>
<text text-anchor="middle" x="234" y="-7" font-family="Helvetica,sans-Serif" font-size="10.00">strncmpElementElementRegular</text>
</a>
</g>
</g>
<!-- Node1&#45;&gt;Node5 -->
<g id="edge4" class="edge">
<title>Node1&#45;&gt;Node5</title>
<path fill="none" stroke="#63b8ff" d="M84.84,-71.99C103.16,-61.76 128.57,-48.42 152,-39 157.02,-36.98 162.27,-35.05 167.59,-33.22"/>
<polygon fill="#63b8ff" stroke="#63b8ff" points="168.8,-36.5 177.19,-30.03 166.59,-29.86 168.8,-36.5"/>
</g>
</g>
</svg>
