<?xml version="1.0" encoding="UTF-8" standalone="no"?>
<!DOCTYPE svg PUBLIC "-//W3C//DTD SVG 1.1//EN"
 "http://www.w3.org/Graphics/SVG/1.1/DTD/svg11.dtd">
<!-- Generated by graphviz version 5.0.1 (20220820.1526)
 -->
<!-- Title: commandResponse Pages: 1 -->
<svg width="308pt" height="113pt"
 viewBox="0.00 0.00 308.00 112.50" xmlns="http://www.w3.org/2000/svg" xmlns:xlink="http://www.w3.org/1999/xlink">
<g id="graph0" class="graph" transform="scale(1 1) rotate(0) translate(4 108.5)">
<title>commandResponse</title>
<!-- Node1 -->
<g id="node1" class="node">
<title>Node1</title>
<g id="a_node1"><a xlink:title="Default response class.">
<polygon fill="#999999" stroke="#666666" points="103,-56 0,-56 0,-37 103,-37 103,-56"/>
<text text-anchor="middle" x="51.5" y="-44" font-family="Helvetica,sans-Serif" font-size="10.00">commandResponse</text>
</a>
</g>
</g>
<!-- Node2 -->
<g id="node2" class="node">
<title>Node2</title>
<g id="a_node2"><a xlink:href="classcommand_response_arduino32_u4_serial.html" target="_top" xlink:title="Arduino Serial_ response subclass.">
<polygon fill="white" stroke="#666666" points="292.5,-104.5 146.5,-104.5 146.5,-74.5 292.5,-74.5 292.5,-104.5"/>
<text text-anchor="start" x="154.5" y="-92.5" font-family="Helvetica,sans-Serif" font-size="10.00">commandResponseArduino32</text>
<text text-anchor="middle" x="219.5" y="-81.5" font-family="Helvetica,sans-Serif" font-size="10.00">U4Serial</text>
</a>
</g>
</g>
<!-- Node1&#45;&gt;Node2 -->
<g id="edge1" class="edge">
<title>Node1&#45;&gt;Node2</title>
<path fill="none" stroke="#63b8ff" d="M99.27,-58.62C118.31,-63.55 140.52,-69.3 160.57,-74.49"/>
<polygon fill="#63b8ff" stroke="#63b8ff" points="99.9,-55.16 89.34,-56.04 98.14,-61.94 99.9,-55.16"/>
</g>
<!-- Node3 -->
<g id="node3" class="node">
<title>Node3</title>
<g id="a_node3"><a xlink:href="classcommand_response_arduino_serial.html" target="_top" xlink:title="Arduino Hardware serial response subclass.">
<polygon fill="white" stroke="#666666" points="300,-56 139,-56 139,-37 300,-37 300,-56"/>
<text text-anchor="middle" x="219.5" y="-44" font-family="Helvetica,sans-Serif" font-size="10.00">commandResponseArduinoSerial</text>
</a>
</g>
</g>
<!-- Node1&#45;&gt;Node3 -->
<g id="edge2" class="edge">
<title>Node1&#45;&gt;Node3</title>
<path fill="none" stroke="#63b8ff" d="M113.45,-46.5C121.69,-46.5 130.24,-46.5 138.74,-46.5"/>
<polygon fill="#63b8ff" stroke="#63b8ff" points="113.21,-43 103.21,-46.5 113.21,-50 113.21,-43"/>
</g>
<!-- Node4 -->
<g id="node4" class="node">
<title>Node4</title>
<g id="a_node4"><a xlink:href="classcommand_response_wi_fi_client.html" target="_top" xlink:title="Arduino Hardware serial response subclass.">
<polygon fill="white" stroke="#666666" points="293.5,-19 145.5,-19 145.5,0 293.5,0 293.5,-19"/>
<text text-anchor="middle" x="219.5" y="-7" font-family="Helvetica,sans-Serif" font-size="10.00">commandResponseWiFiClient</text>
</a>
</g>
</g>
<!-- Node1&#45;&gt;Node4 -->
<g id="edge3" class="edge">
<title>Node1&#45;&gt;Node4</title>
<path fill="none" stroke="#63b8ff" d="M105.08,-34.78C127.81,-29.71 154.08,-23.86 175.61,-19.06"/>
<polygon fill="#63b8ff" stroke="#63b8ff" points="104.25,-31.38 95.25,-36.97 105.77,-38.21 104.25,-31.38"/>
</g>
</g>
</svg>
