<?xml version="1.0" encoding="UTF-8" standalone="no"?>
<!DOCTYPE svg PUBLIC "-//W3C//DTD SVG 1.1//EN"
 "http://www.w3.org/Graphics/SVG/1.1/DTD/svg11.dtd">
<!-- Generated by graphviz version 5.0.1 (20220820.1526)
 -->
<!-- Title: AutoComplete::generateHint Pages: 1 -->
<svg width="338pt" height="94pt"
 viewBox="0.00 0.00 338.00 93.50" xmlns="http://www.w3.org/2000/svg" xmlns:xlink="http://www.w3.org/1999/xlink">
<g id="graph0" class="graph" transform="scale(1 1) rotate(0) translate(4 89.5)">
<title>AutoComplete::generateHint</title>
<!-- Node1 -->
<g id="node1" class="node">
<title>Node1</title>
<g id="a_node1"><a xlink:title=" ">
<polygon fill="#999999" stroke="#666666" points="139,-49 0,-49 0,-30 139,-30 139,-49"/>
<text text-anchor="middle" x="69.5" y="-37" font-family="Helvetica,sans-Serif" font-size="10.00">AutoComplete::generateHint</text>
</a>
</g>
</g>
<!-- Node2 -->
<g id="node2" class="node">
<title>Node2</title>
<g id="a_node2"><a xlink:href="class_auto_complete.html#a767b85d91b86b421107272f65206079c" target="_top" xlink:title=" ">
<polygon fill="white" stroke="#666666" points="318.5,-85.5 186.5,-85.5 186.5,-55.5 318.5,-55.5 318.5,-85.5"/>
<text text-anchor="start" x="194.5" y="-73.5" font-family="Helvetica,sans-Serif" font-size="10.00">AutoComplete::searchLast</text>
<text text-anchor="middle" x="252.5" y="-62.5" font-family="Helvetica,sans-Serif" font-size="10.00">MatchingNode</text>
</a>
</g>
</g>
<!-- Node1&#45;&gt;Node2 -->
<g id="edge1" class="edge">
<title>Node1&#45;&gt;Node2</title>
<path fill="none" stroke="#63b8ff" d="M126.28,-49.05C142.02,-51.75 159.42,-54.73 176.11,-57.59"/>
<polygon fill="#63b8ff" stroke="#63b8ff" points="175.94,-61.11 186.38,-59.35 177.12,-54.21 175.94,-61.11"/>
</g>
<!-- Node3 -->
<g id="node3" class="node">
<title>Node3</title>
<g id="a_node3"><a xlink:href="class_auto_complete.html#ab82d4b27cc9a412771f49f468a1e1920" target="_top" xlink:title=" ">
<polygon fill="white" stroke="#666666" points="330,-19 175,-19 175,0 330,0 330,-19"/>
<text text-anchor="middle" x="252.5" y="-7" font-family="Helvetica,sans-Serif" font-size="10.00">AutoComplete::searchRecursive</text>
</a>
</g>
</g>
<!-- Node1&#45;&gt;Node3 -->
<g id="edge2" class="edge">
<title>Node1&#45;&gt;Node3</title>
<path fill="none" stroke="#63b8ff" d="M128.27,-29.93C145.99,-26.99 165.64,-23.73 183.96,-20.7"/>
<polygon fill="#63b8ff" stroke="#63b8ff" points="184.68,-24.12 193.97,-19.04 183.53,-17.22 184.68,-24.12"/>
</g>
<!-- Node3&#45;&gt;Node3 -->
<g id="edge3" class="edge">
<title>Node3&#45;&gt;Node3</title>
<path fill="none" stroke="#63b8ff" d="M224.45,-19.08C210.8,-27.73 220.15,-37 252.5,-37 274.74,-37 286.11,-32.62 286.61,-27.07"/>
<polygon fill="#63b8ff" stroke="#63b8ff" points="289.38,-24.94 280.55,-19.08 283.8,-29.17 289.38,-24.94"/>
</g>
</g>
</svg>
