<?xml version="1.0" encoding="UTF-8" standalone="no"?>
<!DOCTYPE svg PUBLIC "-//W3C//DTD SVG 1.1//EN"
 "http://www.w3.org/Graphics/SVG/1.1/DTD/svg11.dtd">
<!-- Generated by graphviz version 5.0.1 (20220820.1526)
 -->
<!-- Title: Commander::generateHint Pages: 1 -->
<svg width="464pt" height="64pt"
 viewBox="0.00 0.00 464.00 64.00" xmlns="http://www.w3.org/2000/svg" xmlns:xlink="http://www.w3.org/1999/xlink">
<g id="graph0" class="graph" transform="scale(1 1) rotate(0) translate(4 60)">
<title>Commander::generateHint</title>
<!-- Node1 -->
<g id="node1" class="node">
<title>Node1</title>
<g id="a_node1"><a xlink:title=" ">
<polygon fill="#999999" stroke="#666666" points="130,-37 0,-37 0,-18 130,-18 130,-37"/>
<text text-anchor="middle" x="65" y="-25" font-family="Helvetica,sans-Serif" font-size="10.00">Commander::generateHint</text>
</a>
</g>
</g>
<!-- Node1&#45;&gt;Node1 -->
<g id="edge2" class="edge">
<title>Node1&#45;&gt;Node1</title>
<path fill="none" stroke="#63b8ff" d="M38.18,-37.08C25.13,-45.73 34.07,-55 65,-55 85.78,-55 96.63,-50.82 97.56,-45.45"/>
<polygon fill="#63b8ff" stroke="#63b8ff" points="100.36,-43.35 91.82,-37.08 94.59,-47.31 100.36,-43.35"/>
</g>
<!-- Node2 -->
<g id="node2" class="node">
<title>Node2</title>
<g id="a_node2"><a xlink:href="class_commander.html#ae221922a03ec631c1efc3f64a4cb719d" target="_top" xlink:title=" ">
<polygon fill="white" stroke="#666666" points="312,-56 166,-56 166,-37 312,-37 312,-56"/>
<text text-anchor="middle" x="239" y="-44" font-family="Helvetica,sans-Serif" font-size="10.00">Commander::commandExists</text>
</a>
</g>
</g>
<!-- Node1&#45;&gt;Node2 -->
<g id="edge1" class="edge">
<title>Node1&#45;&gt;Node2</title>
<path fill="none" stroke="#63b8ff" d="M130.05,-34.57C138.42,-35.5 147.09,-36.46 155.72,-37.41"/>
<polygon fill="#63b8ff" stroke="#63b8ff" points="155.47,-40.9 165.8,-38.52 156.24,-33.95 155.47,-40.9"/>
</g>
<!-- Node3 -->
<g id="node3" class="node">
<title>Node3</title>
<g id="a_node3"><a xlink:href="class_commander.html#a9b8d9afbf4e766034a2161109387c7ff" target="_top" xlink:title="Search for a character in a string.">
<polygon fill="white" stroke="#666666" points="294.5,-19 183.5,-19 183.5,0 294.5,0 294.5,-19"/>
<text text-anchor="middle" x="239" y="-7" font-family="Helvetica,sans-Serif" font-size="10.00">Commander::hasChar</text>
</a>
</g>
</g>
<!-- Node1&#45;&gt;Node3 -->
<g id="edge3" class="edge">
<title>Node1&#45;&gt;Node3</title>
<path fill="none" stroke="#63b8ff" d="M130.05,-20.8C144.19,-19.32 159.18,-17.75 173.34,-16.27"/>
<polygon fill="#63b8ff" stroke="#63b8ff" points="173.91,-19.73 183.49,-15.2 173.18,-12.76 173.91,-19.73"/>
</g>
<!-- Node4 -->
<g id="node4" class="node">
<title>Node4</title>
<g id="a_node4"><a xlink:href="class_commander.html#a80f04d459243886a6d92bce2a15eea5e" target="_top" xlink:title="Detect if character is in the string.">
<polygon fill="white" stroke="#666666" points="456,-19 348,-19 348,0 456,0 456,-19"/>
<text text-anchor="middle" x="402" y="-7" font-family="Helvetica,sans-Serif" font-size="10.00">Commander::inString</text>
</a>
</g>
</g>
<!-- Node3&#45;&gt;Node4 -->
<g id="edge4" class="edge">
<title>Node3&#45;&gt;Node4</title>
<path fill="none" stroke="#63b8ff" d="M294.51,-9.5C308.38,-9.5 323.41,-9.5 337.68,-9.5"/>
<polygon fill="#63b8ff" stroke="#63b8ff" points="337.91,-13 347.91,-9.5 337.91,-6 337.91,-13"/>
</g>
</g>
</svg>
