<?xml version="1.0" encoding="UTF-8" standalone="no"?>
<!DOCTYPE svg PUBLIC "-//W3C//DTD SVG 1.1//EN"
 "http://www.w3.org/Graphics/SVG/1.1/DTD/svg11.dtd">
<!-- Generated by graphviz version 5.0.1 (20220820.1526)
 -->
<!-- Title: Argument::parseInt Pages: 1 -->
<svg width="291pt" height="397pt"
 viewBox="0.00 0.00 291.00 397.00" xmlns="http://www.w3.org/2000/svg" xmlns:xlink="http://www.w3.org/1999/xlink">
<g id="graph0" class="graph" transform="scale(1 1) rotate(0) translate(4 393)">
<title>Argument::parseInt</title>
<!-- Node1 -->
<g id="node1" class="node">
<title>Node1</title>
<g id="a_node1"><a xlink:title=" ">
<polygon fill="#999999" stroke="#666666" points="283,-204 184,-204 184,-185 283,-185 283,-204"/>
<text text-anchor="middle" x="233.5" y="-192" font-family="Helvetica,sans-Serif" font-size="10.00">Argument::parseInt</text>
</a>
</g>
</g>
<!-- Node2 -->
<g id="node2" class="node">
<title>Node2</title>
<g id="a_node2"><a xlink:href="_commander-_a_p_i-_math-_commands_8cpp.html#ae7d6fa81c7ec3354378b1f948c0c8749" target="_top" xlink:title="Premade function for abs command.">
<polygon fill="white" stroke="#666666" points="130,-389 18,-389 18,-370 130,-370 130,-389"/>
<text text-anchor="middle" x="74" y="-377" font-family="Helvetica,sans-Serif" font-size="10.00">commander_abs_func</text>
</a>
</g>
</g>
<!-- Node1&#45;&gt;Node2 -->
<g id="edge1" class="edge">
<title>Node1&#45;&gt;Node2</title>
<path fill="none" stroke="#63b8ff" d="M228.23,-214.19C219.55,-249.39 196.41,-322.98 148,-361.5 142.69,-365.73 136.52,-368.98 130.07,-371.48"/>
<polygon fill="#63b8ff" stroke="#63b8ff" points="231.7,-214.74 230.56,-204.21 224.88,-213.16 231.7,-214.74"/>
</g>
<!-- Node3 -->
<g id="node3" class="node">
<title>Node3</title>
<g id="a_node3"><a xlink:href="_commander-_a_p_i-_analog-_i_o-_commands_8cpp.html#a22f364acaf405f853e1ff3787c35b53e" target="_top" xlink:title="Premade function for analogRead command.">
<polygon fill="white" stroke="#666666" points="147.5,-352 0.5,-352 0.5,-333 147.5,-333 147.5,-352"/>
<text text-anchor="middle" x="74" y="-340" font-family="Helvetica,sans-Serif" font-size="10.00">commander_analogRead_func</text>
</a>
</g>
</g>
<!-- Node1&#45;&gt;Node3 -->
<g id="edge2" class="edge">
<title>Node1&#45;&gt;Node3</title>
<path fill="none" stroke="#63b8ff" d="M225.37,-213.8C213.73,-242.51 187.88,-296.15 148,-324.5 143.21,-327.9 137.85,-330.67 132.27,-332.91"/>
<polygon fill="#63b8ff" stroke="#63b8ff" points="228.77,-214.7 229.13,-204.12 222.24,-212.17 228.77,-214.7"/>
</g>
<!-- Node4 -->
<g id="node4" class="node">
<title>Node4</title>
<g id="a_node4"><a xlink:href="_commander-_a_p_i-_analog-_i_o-_commands_8cpp.html#a0bb64a637cbaa4134e0cc9d1a7453ecf" target="_top" xlink:title="Premade function for analogRead command.">
<polygon fill="white" stroke="#666666" points="148,-315 0,-315 0,-296 148,-296 148,-315"/>
<text text-anchor="middle" x="74" y="-303" font-family="Helvetica,sans-Serif" font-size="10.00">commander_analogWrite_func</text>
</a>
</g>
</g>
<!-- Node1&#45;&gt;Node4 -->
<g id="edge3" class="edge">
<title>Node1&#45;&gt;Node4</title>
<path fill="none" stroke="#63b8ff" d="M221.05,-212.56C206.62,-233.79 179.83,-268.53 148,-287.5 142.28,-290.91 135.94,-293.67 129.46,-295.92"/>
<polygon fill="#63b8ff" stroke="#63b8ff" points="224.03,-214.39 226.62,-204.11 218.19,-210.54 224.03,-214.39"/>
</g>
<!-- Node5 -->
<g id="node5" class="node">
<title>Node5</title>
<g id="a_node5"><a xlink:href="_commander-_a_p_i-_math-_commands_8cpp.html#abfe392815068d05be5e099def983b5ec" target="_top" xlink:title="Premade function for cos command.">
<polygon fill="white" stroke="#666666" points="130,-278 18,-278 18,-259 130,-259 130,-278"/>
<text text-anchor="middle" x="74" y="-266" font-family="Helvetica,sans-Serif" font-size="10.00">commander_cos_func</text>
</a>
</g>
</g>
<!-- Node1&#45;&gt;Node5 -->
<g id="edge4" class="edge">
<title>Node1&#45;&gt;Node5</title>
<path fill="none" stroke="#63b8ff" d="M212.69,-210.49C196.25,-223.03 171.8,-240.06 148,-250.5 140.35,-253.86 131.96,-256.66 123.68,-258.98"/>
<polygon fill="#63b8ff" stroke="#63b8ff" points="215.21,-212.96 220.95,-204.05 210.91,-207.44 215.21,-212.96"/>
</g>
<!-- Node6 -->
<g id="node6" class="node">
<title>Node6</title>
<g id="a_node6"><a xlink:href="_commander-_a_p_i-_digital-_i_o-_commands_8cpp.html#a488c98390245a3d0d7172f364ec91ed8" target="_top" xlink:title="Premade function for digitalRead command.">
<polygon fill="white" stroke="#666666" points="146,-241 2,-241 2,-222 146,-222 146,-241"/>
<text text-anchor="middle" x="74" y="-229" font-family="Helvetica,sans-Serif" font-size="10.00">commander_digitalRead_func</text>
</a>
</g>
</g>
<!-- Node1&#45;&gt;Node6 -->
<g id="edge5" class="edge">
<title>Node1&#45;&gt;Node6</title>
<path fill="none" stroke="#63b8ff" d="M182.03,-206.36C160.59,-211.39 135.94,-217.18 115.7,-221.94"/>
<polygon fill="#63b8ff" stroke="#63b8ff" points="183.01,-209.72 191.94,-204.03 181.4,-202.91 183.01,-209.72"/>
</g>
<!-- Node7 -->
<g id="node7" class="node">
<title>Node7</title>
<g id="a_node7"><a xlink:href="_commander-_a_p_i-_digital-_i_o-_commands_8cpp.html#af309a2eb04319e75d4cc91e93894846e" target="_top" xlink:title="Premade function for digitalWrite command.">
<polygon fill="white" stroke="#666666" points="146.5,-204 1.5,-204 1.5,-185 146.5,-185 146.5,-204"/>
<text text-anchor="middle" x="74" y="-192" font-family="Helvetica,sans-Serif" font-size="10.00">commander_digitalWrite_func</text>
</a>
</g>
</g>
<!-- Node1&#45;&gt;Node7 -->
<g id="edge6" class="edge">
<title>Node1&#45;&gt;Node7</title>
<path fill="none" stroke="#63b8ff" d="M173.74,-194.5C164.87,-194.5 155.64,-194.5 146.54,-194.5"/>
<polygon fill="#63b8ff" stroke="#63b8ff" points="173.96,-198 183.96,-194.5 173.96,-191 173.96,-198"/>
</g>
<!-- Node8 -->
<g id="node8" class="node">
<title>Node8</title>
<g id="a_node8"><a xlink:href="_commander-_a_p_i-_memory-_commands_8cpp.html#ac0009f7287654611dc82da625f2579a9" target="_top" xlink:title="Premade function for not command.">
<polygon fill="white" stroke="#666666" points="145.5,-167 2.5,-167 2.5,-148 145.5,-148 145.5,-167"/>
<text text-anchor="middle" x="74" y="-155" font-family="Helvetica,sans-Serif" font-size="10.00">commander_memDump_func</text>
</a>
</g>
</g>
<!-- Node1&#45;&gt;Node8 -->
<g id="edge7" class="edge">
<title>Node1&#45;&gt;Node8</title>
<path fill="none" stroke="#63b8ff" d="M182.03,-182.64C160.59,-177.61 135.94,-171.82 115.7,-167.06"/>
<polygon fill="#63b8ff" stroke="#63b8ff" points="181.4,-186.09 191.94,-184.97 183.01,-179.28 181.4,-186.09"/>
</g>
<!-- Node9 -->
<g id="node9" class="node">
<title>Node9</title>
<g id="a_node9"><a xlink:href="_commander-_a_p_i-_math-_commands_8cpp.html#aa0fa51a20a9af63d3f7e85012e533a7c" target="_top" xlink:title="Premade function for not command.">
<polygon fill="white" stroke="#666666" points="129,-130 19,-130 19,-111 129,-111 129,-130"/>
<text text-anchor="middle" x="74" y="-118" font-family="Helvetica,sans-Serif" font-size="10.00">commander_not_func</text>
</a>
</g>
</g>
<!-- Node1&#45;&gt;Node9 -->
<g id="edge8" class="edge">
<title>Node1&#45;&gt;Node9</title>
<path fill="none" stroke="#63b8ff" d="M212.33,-178.68C195.84,-166.44 171.51,-149.88 148,-139.5 139.49,-135.74 130.09,-132.61 120.94,-130.04"/>
<polygon fill="#63b8ff" stroke="#63b8ff" points="210.54,-181.72 220.62,-184.97 214.77,-176.14 210.54,-181.72"/>
</g>
<!-- Node10 -->
<g id="node10" class="node">
<title>Node10</title>
<g id="a_node10"><a xlink:href="_commander-_a_p_i-_digital-_i_o-_commands_8cpp.html#a2246eb22ddae467d2e4c311b95b1ca9f" target="_top" xlink:title="Premade function for pinMode command.">
<polygon fill="white" stroke="#666666" points="140.5,-93 7.5,-93 7.5,-74 140.5,-74 140.5,-93"/>
<text text-anchor="middle" x="74" y="-81" font-family="Helvetica,sans-Serif" font-size="10.00">commander_pinMode_func</text>
</a>
</g>
</g>
<!-- Node1&#45;&gt;Node10 -->
<g id="edge9" class="edge">
<title>Node1&#45;&gt;Node10</title>
<path fill="none" stroke="#63b8ff" d="M220.74,-176.39C206.17,-155.43 179.41,-121.38 148,-102.5 141.6,-98.65 134.43,-95.58 127.16,-93.12"/>
<polygon fill="#63b8ff" stroke="#63b8ff" points="217.88,-178.41 226.38,-184.74 223.68,-174.49 217.88,-178.41"/>
</g>
<!-- Node11 -->
<g id="node11" class="node">
<title>Node11</title>
<g id="a_node11"><a xlink:href="_commander-_a_p_i-_math-_commands_8cpp.html#aedeb7c7e023d071ecf07a9d6c64679d4" target="_top" xlink:title="Premade function for random command.">
<polygon fill="white" stroke="#666666" points="138,-56 10,-56 10,-37 138,-37 138,-56"/>
<text text-anchor="middle" x="74" y="-44" font-family="Helvetica,sans-Serif" font-size="10.00">commander_random_func</text>
</a>
</g>
</g>
<!-- Node1&#45;&gt;Node11 -->
<g id="edge10" class="edge">
<title>Node1&#45;&gt;Node11</title>
<path fill="none" stroke="#63b8ff" d="M225.28,-175.41C213.53,-147 187.53,-93.89 148,-65.5 142.57,-61.6 136.41,-58.51 130.03,-56.04"/>
<polygon fill="#63b8ff" stroke="#63b8ff" points="222.14,-176.99 229.08,-184.99 228.64,-174.41 222.14,-176.99"/>
</g>
<!-- Node12 -->
<g id="node12" class="node">
<title>Node12</title>
<g id="a_node12"><a xlink:href="_commander-_a_p_i-_math-_commands_8cpp.html#a1113369ca4b669dc0c6355fcf126cc42" target="_top" xlink:title="Premade function for sin command.">
<polygon fill="white" stroke="#666666" points="128.5,-19 19.5,-19 19.5,0 128.5,0 128.5,-19"/>
<text text-anchor="middle" x="74" y="-7" font-family="Helvetica,sans-Serif" font-size="10.00">commander_sin_func</text>
</a>
</g>
</g>
<!-- Node1&#45;&gt;Node12 -->
<g id="edge11" class="edge">
<title>Node1&#45;&gt;Node12</title>
<path fill="none" stroke="#63b8ff" d="M228.15,-174.98C219.33,-140.1 195.98,-67.09 148,-28.5 142.29,-23.9 135.58,-20.41 128.58,-17.75"/>
<polygon fill="#63b8ff" stroke="#63b8ff" points="224.79,-175.97 230.51,-184.88 231.59,-174.34 224.79,-175.97"/>
</g>
</g>
</svg>
