<?xml version="1.0" encoding="UTF-8" standalone="no"?>
<!DOCTYPE svg PUBLIC "-//W3C//DTD SVG 1.1//EN"
 "http://www.w3.org/Graphics/SVG/1.1/DTD/svg11.dtd">
<!-- Generated by graphviz version 5.0.1 (20220820.1526)
 -->
<!-- Title: commandResponseArduinoSerial::print Pages: 1 -->
<svg width="366pt" height="56pt"
 viewBox="0.00 0.00 366.00 56.00" xmlns="http://www.w3.org/2000/svg" xmlns:xlink="http://www.w3.org/1999/xlink">
<g id="graph0" class="graph" transform="scale(1 1) rotate(0) translate(4 52)">
<title>commandResponseArduinoSerial::print</title>
<!-- Node1 -->
<g id="node1" class="node">
<title>Node1</title>
<g id="a_node1"><a xlink:title=" ">
<polygon fill="#999999" stroke="#666666" points="358,-30 197,-30 197,0 358,0 358,-30"/>
<text text-anchor="start" x="205" y="-18" font-family="Helvetica,sans-Serif" font-size="10.00">commandResponseArduinoSerial</text>
<text text-anchor="middle" x="277.5" y="-7" font-family="Helvetica,sans-Serif" font-size="10.00">::print</text>
</a>
</g>
</g>
<!-- Node1&#45;&gt;Node1 -->
<g id="edge1" class="edge">
<title>Node1&#45;&gt;Node1</title>
<path fill="none" stroke="#63b8ff" d="M311.81,-40.6C307.12,-44.97 295.68,-48 277.5,-48 246.88,-48 235.39,-39.41 243.05,-30.28"/>
<polygon fill="#63b8ff" stroke="#63b8ff" points="315.31,-40.32 311.95,-30.28 308.31,-40.22 315.31,-40.32"/>
</g>
<!-- Node2 -->
<g id="node2" class="node">
<title>Node2</title>
<g id="a_node2"><a xlink:href="classcommand_response_arduino_serial.html#a4318924cbfa2df5778e4e8ab7ecb5216" target="_top" xlink:title=" ">
<polygon fill="white" stroke="#666666" points="161,-30 0,-30 0,0 161,0 161,-30"/>
<text text-anchor="start" x="8" y="-18" font-family="Helvetica,sans-Serif" font-size="10.00">commandResponseArduinoSerial</text>
<text text-anchor="middle" x="80.5" y="-7" font-family="Helvetica,sans-Serif" font-size="10.00">::printf</text>
</a>
</g>
</g>
<!-- Node1&#45;&gt;Node2 -->
<g id="edge2" class="edge">
<title>Node1&#45;&gt;Node2</title>
<path fill="none" stroke="#63b8ff" d="M186.88,-15C178.3,-15 169.64,-15 161.16,-15"/>
<polygon fill="#63b8ff" stroke="#63b8ff" points="186.9,-18.5 196.9,-15 186.9,-11.5 186.9,-18.5"/>
</g>
</g>
</svg>
