<?xml version="1.0" encoding="UTF-8" standalone="no"?>
<!DOCTYPE svg PUBLIC "-//W3C//DTD SVG 1.1//EN"
 "http://www.w3.org/Graphics/SVG/1.1/DTD/svg11.dtd">
<!-- Generated by graphviz version 5.0.1 (20220820.1526)
 -->
<!-- Title: Commander::update Pages: 1 -->
<svg width="741pt" height="76pt"
 viewBox="0.00 0.00 741.00 75.50" xmlns="http://www.w3.org/2000/svg" xmlns:xlink="http://www.w3.org/1999/xlink">
<g id="graph0" class="graph" transform="scale(1 1) rotate(0) translate(4 71.5)">
<title>Commander::update</title>
<!-- Node1 -->
<g id="node1" class="node">
<title>Node1</title>
<g id="a_node1"><a xlink:title=" ">
<polygon fill="#999999" stroke="#666666" points="104,-45.5 0,-45.5 0,-26.5 104,-26.5 104,-45.5"/>
<text text-anchor="middle" x="52" y="-33.5" font-family="Helvetica,sans-Serif" font-size="10.00">Commander::update</text>
</a>
</g>
</g>
<!-- Node2 -->
<g id="node2" class="node">
<title>Node2</title>
<g id="a_node2"><a xlink:href="class_commander.html#a98c1328d154110366210326ada901d4e" target="_top" xlink:title="Default execution function.">
<polygon fill="white" stroke="#666666" points="250,-45.5 140,-45.5 140,-26.5 250,-26.5 250,-45.5"/>
<text text-anchor="middle" x="195" y="-33.5" font-family="Helvetica,sans-Serif" font-size="10.00">Commander::execute</text>
</a>
</g>
</g>
<!-- Node1&#45;&gt;Node2 -->
<g id="edge1" class="edge">
<title>Node1&#45;&gt;Node2</title>
<path fill="none" stroke="#63b8ff" d="M104.3,-36C112.48,-36 121.02,-36 129.45,-36"/>
<polygon fill="#63b8ff" stroke="#63b8ff" points="129.65,-39.5 139.65,-36 129.65,-32.5 129.65,-39.5"/>
</g>
<!-- Node3 -->
<g id="node3" class="node">
<title>Node3</title>
<g id="a_node3"><a xlink:href="class_commander.html#a6db6d6ae40bbd49ca3036115b820813d" target="_top" xlink:title="Command execution.">
<polygon fill="white" stroke="#666666" points="440,-45.5 286,-45.5 286,-26.5 440,-26.5 440,-45.5"/>
<text text-anchor="middle" x="363" y="-33.5" font-family="Helvetica,sans-Serif" font-size="10.00">Commander::executeCommand</text>
</a>
</g>
</g>
<!-- Node2&#45;&gt;Node3 -->
<g id="edge2" class="edge">
<title>Node2&#45;&gt;Node3</title>
<path fill="none" stroke="#63b8ff" d="M250.35,-36C258.51,-36 267.09,-36 275.71,-36"/>
<polygon fill="#63b8ff" stroke="#63b8ff" points="275.83,-39.5 285.83,-36 275.83,-32.5 275.83,-39.5"/>
</g>
<!-- Node3&#45;&gt;Node3 -->
<g id="edge3" class="edge">
<title>Node3&#45;&gt;Node3</title>
<path fill="none" stroke="#63b8ff" d="M337.11,-45.58C324.51,-54.23 333.14,-63.5 363,-63.5 383.06,-63.5 393.54,-59.32 394.44,-53.95"/>
<polygon fill="#63b8ff" stroke="#63b8ff" points="397.34,-51.99 388.89,-45.58 391.5,-55.85 397.34,-51.99"/>
</g>
<!-- Node4 -->
<g id="node4" class="node">
<title>Node4</title>
<g id="a_node4"><a xlink:href="class_commander.html#a9b8d9afbf4e766034a2161109387c7ff" target="_top" xlink:title="Search for a character in a string.">
<polygon fill="white" stroke="#666666" points="588,-65.5 477,-65.5 477,-46.5 588,-46.5 588,-65.5"/>
<text text-anchor="middle" x="532.5" y="-53.5" font-family="Helvetica,sans-Serif" font-size="10.00">Commander::hasChar</text>
</a>
</g>
</g>
<!-- Node3&#45;&gt;Node4 -->
<g id="edge4" class="edge">
<title>Node3&#45;&gt;Node4</title>
<path fill="none" stroke="#63b8ff" d="M440.4,-45.12C449.2,-46.17 458.12,-47.24 466.75,-48.27"/>
<polygon fill="#63b8ff" stroke="#63b8ff" points="466.38,-51.75 476.73,-49.46 467.21,-44.8 466.38,-51.75"/>
</g>
<!-- Node6 -->
<g id="node6" class="node">
<title>Node6</title>
<g id="a_node6"><a xlink:href="class_commander.html#a0fab647689fcd4557145386ff585aec1" target="_top" xlink:title="Print the help text to a specified Stream.">
<polygon fill="white" stroke="#666666" points="589,-27.5 476,-27.5 476,-8.5 589,-8.5 589,-27.5"/>
<text text-anchor="middle" x="532.5" y="-15.5" font-family="Helvetica,sans-Serif" font-size="10.00">Commander::printHelp</text>
</a>
</g>
</g>
<!-- Node3&#45;&gt;Node6 -->
<g id="edge6" class="edge">
<title>Node3&#45;&gt;Node6</title>
<path fill="none" stroke="#63b8ff" d="M440.4,-27.79C448.86,-26.88 457.43,-25.96 465.75,-25.07"/>
<polygon fill="#63b8ff" stroke="#63b8ff" points="466.18,-28.54 475.74,-23.99 465.43,-21.58 466.18,-28.54"/>
</g>
<!-- Node5 -->
<g id="node5" class="node">
<title>Node5</title>
<g id="a_node5"><a xlink:href="class_commander.html#a80f04d459243886a6d92bce2a15eea5e" target="_top" xlink:title="Detect if character is in the string.">
<polygon fill="white" stroke="#666666" points="733,-67.5 625,-67.5 625,-48.5 733,-48.5 733,-67.5"/>
<text text-anchor="middle" x="679" y="-55.5" font-family="Helvetica,sans-Serif" font-size="10.00">Commander::inString</text>
</a>
</g>
</g>
<!-- Node4&#45;&gt;Node5 -->
<g id="edge5" class="edge">
<title>Node4&#45;&gt;Node5</title>
<path fill="none" stroke="#63b8ff" d="M588.13,-56.76C596.75,-56.88 605.72,-57 614.52,-57.12"/>
<polygon fill="#63b8ff" stroke="#63b8ff" points="614.68,-60.62 624.73,-57.26 614.78,-53.62 614.68,-60.62"/>
</g>
<!-- Node7 -->
<g id="node7" class="node">
<title>Node7</title>
<g id="a_node7"><a xlink:href="class_commander.html#a8634a1c3c680d0a598fa8b6b5445ca39" target="_top" xlink:title="Find an API element in the tree by alphabetical place.">
<polygon fill="white" stroke="#666666" points="733,-30 625,-30 625,0 733,0 733,-30"/>
<text text-anchor="start" x="633" y="-18" font-family="Helvetica,sans-Serif" font-size="10.00">Commander::find_api</text>
<text text-anchor="middle" x="679" y="-7" font-family="Helvetica,sans-Serif" font-size="10.00">_index_by_place</text>
</a>
</g>
</g>
<!-- Node6&#45;&gt;Node7 -->
<g id="edge7" class="edge">
<title>Node6&#45;&gt;Node7</title>
<path fill="none" stroke="#63b8ff" d="M589.37,-16.84C597.61,-16.67 606.15,-16.49 614.54,-16.32"/>
<polygon fill="#63b8ff" stroke="#63b8ff" points="614.73,-19.81 624.65,-16.11 614.58,-12.82 614.73,-19.81"/>
</g>
</g>
</svg>
