<?xml version="1.0" encoding="UTF-8" standalone="no"?>
<!DOCTYPE svg PUBLIC "-//W3C//DTD SVG 1.1//EN"
 "http://www.w3.org/Graphics/SVG/1.1/DTD/svg11.dtd">
<!-- Generated by graphviz version 5.0.1 (20220820.1526)
 -->
<!-- Title: Argument::find Pages: 1 -->
<svg width="269pt" height="138pt"
 viewBox="0.00 0.00 269.00 138.00" xmlns="http://www.w3.org/2000/svg" xmlns:xlink="http://www.w3.org/1999/xlink">
<g id="graph0" class="graph" transform="scale(1 1) rotate(0) translate(4 134)">
<title>Argument::find</title>
<!-- Node1 -->
<g id="node1" class="node">
<title>Node1</title>
<g id="a_node1"><a xlink:title=" ">
<polygon fill="#999999" stroke="#666666" points="261,-74 181,-74 181,-55 261,-55 261,-74"/>
<text text-anchor="middle" x="221" y="-62" font-family="Helvetica,sans-Serif" font-size="10.00">Argument::find</text>
</a>
</g>
</g>
<!-- Node2 -->
<g id="node2" class="node">
<title>Node2</title>
<g id="a_node2"><a xlink:href="_commander-_a_p_i-_digital-_i_o-_commands_8cpp.html#a488c98390245a3d0d7172f364ec91ed8" target="_top" xlink:title="Premade function for digitalRead command.">
<polygon fill="white" stroke="#666666" points="144.5,-130 0.5,-130 0.5,-111 144.5,-111 144.5,-130"/>
<text text-anchor="middle" x="72.5" y="-118" font-family="Helvetica,sans-Serif" font-size="10.00">commander_digitalRead_func</text>
</a>
</g>
</g>
<!-- Node1&#45;&gt;Node2 -->
<g id="edge1" class="edge">
<title>Node1&#45;&gt;Node2</title>
<path fill="none" stroke="#63b8ff" d="M194.65,-79.12C180.41,-86.88 162.11,-96.1 145,-102.5 136.37,-105.73 126.93,-108.56 117.84,-110.97"/>
<polygon fill="#63b8ff" stroke="#63b8ff" points="196.76,-81.96 203.8,-74.04 193.36,-75.84 196.76,-81.96"/>
</g>
<!-- Node3 -->
<g id="node3" class="node">
<title>Node3</title>
<g id="a_node3"><a xlink:href="_commander-_a_p_i-_digital-_i_o-_commands_8cpp.html#af309a2eb04319e75d4cc91e93894846e" target="_top" xlink:title="Premade function for digitalWrite command.">
<polygon fill="white" stroke="#666666" points="145,-93 0,-93 0,-74 145,-74 145,-93"/>
<text text-anchor="middle" x="72.5" y="-81" font-family="Helvetica,sans-Serif" font-size="10.00">commander_digitalWrite_func</text>
</a>
</g>
</g>
<!-- Node1&#45;&gt;Node3 -->
<g id="edge2" class="edge">
<title>Node1&#45;&gt;Node3</title>
<path fill="none" stroke="#63b8ff" d="M170.62,-70.9C162.4,-71.97 153.74,-73.09 145.11,-74.21"/>
<polygon fill="#63b8ff" stroke="#63b8ff" points="171.27,-74.35 180.74,-69.59 170.37,-67.41 171.27,-74.35"/>
</g>
<!-- Node4 -->
<g id="node4" class="node">
<title>Node4</title>
<g id="a_node4"><a xlink:href="_commander-_a_p_i-_memory-_commands_8cpp.html#ac0009f7287654611dc82da625f2579a9" target="_top" xlink:title="Premade function for not command.">
<polygon fill="white" stroke="#666666" points="144,-56 1,-56 1,-37 144,-37 144,-56"/>
<text text-anchor="middle" x="72.5" y="-44" font-family="Helvetica,sans-Serif" font-size="10.00">commander_memDump_func</text>
</a>
</g>
</g>
<!-- Node1&#45;&gt;Node4 -->
<g id="edge3" class="edge">
<title>Node1&#45;&gt;Node4</title>
<path fill="none" stroke="#63b8ff" d="M170.66,-58.44C162.16,-57.39 153.19,-56.29 144.26,-55.19"/>
<polygon fill="#63b8ff" stroke="#63b8ff" points="170.39,-61.93 180.74,-59.68 171.24,-54.98 170.39,-61.93"/>
</g>
<!-- Node5 -->
<g id="node5" class="node">
<title>Node5</title>
<g id="a_node5"><a xlink:href="_commander-_a_p_i-_digital-_i_o-_commands_8cpp.html#a2246eb22ddae467d2e4c311b95b1ca9f" target="_top" xlink:title="Premade function for pinMode command.">
<polygon fill="white" stroke="#666666" points="139,-19 6,-19 6,0 139,0 139,-19"/>
<text text-anchor="middle" x="72.5" y="-7" font-family="Helvetica,sans-Serif" font-size="10.00">commander_pinMode_func</text>
</a>
</g>
</g>
<!-- Node1&#45;&gt;Node5 -->
<g id="edge4" class="edge">
<title>Node1&#45;&gt;Node5</title>
<path fill="none" stroke="#63b8ff" d="M193.41,-50.23C179.3,-43.05 161.51,-34.6 145,-28.5 135.36,-24.94 124.76,-21.75 114.75,-19.05"/>
<polygon fill="#63b8ff" stroke="#63b8ff" points="192.04,-53.46 202.53,-54.95 195.26,-47.25 192.04,-53.46"/>
</g>
</g>
</svg>
