<?xml version="1.0" encoding="UTF-8" standalone="no"?>
<!DOCTYPE svg PUBLIC "-//W3C//DTD SVG 1.1//EN"
 "http://www.w3.org/Graphics/SVG/1.1/DTD/svg11.dtd">
<!-- Generated by graphviz version 5.0.1 (20220820.1526)
 -->
<!-- Title: Commander::update Pages: 1 -->
<svg width="919pt" height="83pt"
 viewBox="0.00 0.00 919.00 83.00" xmlns="http://www.w3.org/2000/svg" xmlns:xlink="http://www.w3.org/1999/xlink">
<g id="graph0" class="graph" transform="scale(1 1) rotate(0) translate(4 79)">
<title>Commander::update</title>
<!-- Node1 -->
<g id="node1" class="node">
<title>Node1</title>
<g id="a_node1"><a xlink:title="Create a very very simple command lime.">
<polygon fill="#999999" stroke="#666666" points="104,-56 0,-56 0,-37 104,-37 104,-56"/>
<text text-anchor="middle" x="52" y="-44" font-family="Helvetica,sans-Serif" font-size="10.00">Commander::update</text>
</a>
</g>
</g>
<!-- Node2 -->
<g id="node2" class="node">
<title>Node2</title>
<g id="a_node2"><a xlink:href="class_commander.html#a847b09150ab48c2bd2e4d8dbf9c5f72b" target="_top" xlink:title="Execution function for Stream response.">
<polygon fill="white" stroke="#666666" points="250,-56 140,-56 140,-37 250,-37 250,-56"/>
<text text-anchor="middle" x="195" y="-44" font-family="Helvetica,sans-Serif" font-size="10.00">Commander::execute</text>
</a>
</g>
</g>
<!-- Node1&#45;&gt;Node2 -->
<g id="edge1" class="edge">
<title>Node1&#45;&gt;Node2</title>
<path fill="none" stroke="#63b8ff" d="M104.3,-46.5C112.48,-46.5 121.02,-46.5 129.45,-46.5"/>
<polygon fill="#63b8ff" stroke="#63b8ff" points="129.65,-50 139.65,-46.5 129.65,-43 129.65,-50"/>
</g>
<!-- Node3 -->
<g id="node3" class="node">
<title>Node3</title>
<g id="a_node3"><a xlink:href="class_commander.html#a727e0665319b4d3451ee8d3672b967b6" target="_top" xlink:title="Command execution.">
<polygon fill="white" stroke="#666666" points="440,-56 286,-56 286,-37 440,-37 440,-56"/>
<text text-anchor="middle" x="363" y="-44" font-family="Helvetica,sans-Serif" font-size="10.00">Commander::executeCommand</text>
</a>
</g>
</g>
<!-- Node2&#45;&gt;Node3 -->
<g id="edge2" class="edge">
<title>Node2&#45;&gt;Node3</title>
<path fill="none" stroke="#63b8ff" d="M250.35,-46.5C258.51,-46.5 267.09,-46.5 275.71,-46.5"/>
<polygon fill="#63b8ff" stroke="#63b8ff" points="275.83,-50 285.83,-46.5 275.83,-43 275.83,-50"/>
</g>
<!-- Node3&#45;&gt;Node3 -->
<g id="edge3" class="edge">
<title>Node3&#45;&gt;Node3</title>
<path fill="none" stroke="#63b8ff" d="M337.11,-56.08C324.51,-64.73 333.14,-74 363,-74 383.06,-74 393.54,-69.82 394.44,-64.45"/>
<polygon fill="#63b8ff" stroke="#63b8ff" points="397.34,-62.49 388.89,-56.08 391.5,-66.35 397.34,-62.49"/>
</g>
<!-- Node4 -->
<g id="node4" class="node">
<title>Node4</title>
<g id="a_node4"><a xlink:href="class_commander.html#a9b8d9afbf4e766034a2161109387c7ff" target="_top" xlink:title="Search for a character in a string.">
<polygon fill="white" stroke="#666666" points="767,-75 656,-75 656,-56 767,-56 767,-75"/>
<text text-anchor="middle" x="711.5" y="-63" font-family="Helvetica,sans-Serif" font-size="10.00">Commander::hasChar</text>
</a>
</g>
</g>
<!-- Node3&#45;&gt;Node4 -->
<g id="edge4" class="edge">
<title>Node3&#45;&gt;Node4</title>
<path fill="none" stroke="#63b8ff" d="M409.55,-56.01C429.8,-59.78 453.99,-63.65 476,-65.5 533.26,-70.32 598.66,-69.83 645.82,-68.41"/>
<polygon fill="#63b8ff" stroke="#63b8ff" points="646.02,-71.91 655.9,-68.09 645.79,-64.91 646.02,-71.91"/>
</g>
<!-- Node6 -->
<g id="node6" class="node">
<title>Node6</title>
<g id="a_node6"><a xlink:href="class_commander.html#a8e3aa8dbcd4486f1bcaafe49e0cb0fac" target="_top" xlink:title=" ">
<polygon fill="white" stroke="#666666" points="620,-56 476,-56 476,-37 620,-37 620,-56"/>
<text text-anchor="middle" x="548" y="-44" font-family="Helvetica,sans-Serif" font-size="10.00">Commander::printBrokenPipe</text>
</a>
</g>
</g>
<!-- Node3&#45;&gt;Node6 -->
<g id="edge6" class="edge">
<title>Node3&#45;&gt;Node6</title>
<path fill="none" stroke="#63b8ff" d="M440.02,-46.5C448.56,-46.5 457.28,-46.5 465.89,-46.5"/>
<polygon fill="#63b8ff" stroke="#63b8ff" points="465.91,-50 475.91,-46.5 465.91,-43 465.91,-50"/>
</g>
<!-- Node7 -->
<g id="node7" class="node">
<title>Node7</title>
<g id="a_node7"><a xlink:href="class_commander.html#a0fab647689fcd4557145386ff585aec1" target="_top" xlink:title="Print the help text to a specified Stream.">
<polygon fill="white" stroke="#666666" points="604.5,-19 491.5,-19 491.5,0 604.5,0 604.5,-19"/>
<text text-anchor="middle" x="548" y="-7" font-family="Helvetica,sans-Serif" font-size="10.00">Commander::printHelp</text>
</a>
</g>
</g>
<!-- Node3&#45;&gt;Node7 -->
<g id="edge8" class="edge">
<title>Node3&#45;&gt;Node7</title>
<path fill="none" stroke="#63b8ff" d="M411.13,-36.97C435.15,-32.11 464.57,-26.17 489.88,-21.05"/>
<polygon fill="#63b8ff" stroke="#63b8ff" points="490.61,-24.47 499.71,-19.06 489.22,-17.61 490.61,-24.47"/>
</g>
<!-- Node5 -->
<g id="node5" class="node">
<title>Node5</title>
<g id="a_node5"><a xlink:href="class_commander.html#a80f04d459243886a6d92bce2a15eea5e" target="_top" xlink:title="Detect if character is in the string.">
<polygon fill="white" stroke="#666666" points="911,-75 803,-75 803,-56 911,-56 911,-75"/>
<text text-anchor="middle" x="857" y="-63" font-family="Helvetica,sans-Serif" font-size="10.00">Commander::inString</text>
</a>
</g>
</g>
<!-- Node4&#45;&gt;Node5 -->
<g id="edge5" class="edge">
<title>Node4&#45;&gt;Node5</title>
<path fill="none" stroke="#63b8ff" d="M767.16,-65.5C775.49,-65.5 784.15,-65.5 792.66,-65.5"/>
<polygon fill="#63b8ff" stroke="#63b8ff" points="792.91,-69 802.91,-65.5 792.91,-62 792.91,-69"/>
</g>
<!-- Node6&#45;&gt;Node4 -->
<g id="edge7" class="edge">
<title>Node6&#45;&gt;Node4</title>
<path fill="none" stroke="#63b8ff" d="M620.31,-54.89C628.72,-55.88 637.27,-56.88 645.58,-57.86"/>
<polygon fill="#63b8ff" stroke="#63b8ff" points="645.24,-61.35 655.58,-59.04 646.06,-54.39 645.24,-61.35"/>
</g>
</g>
</svg>
