<?xml version="1.0" encoding="UTF-8" standalone="no"?>
<!DOCTYPE svg PUBLIC "-//W3C//DTD SVG 1.1//EN"
 "http://www.w3.org/Graphics/SVG/1.1/DTD/svg11.dtd">
<!-- Generated by graphviz version 5.0.1 (20220820.1526)
 -->
<!-- Title: Argument::substring Pages: 1 -->
<!--zoomable 434 -->
<svg id="main" version="1.1" xmlns="http://www.w3.org/2000/svg" xmlns:xlink="http://www.w3.org/1999/xlink" xml:space="preserve" onload="init(evt)">
<style type="text/css"><![CDATA[
.edge:hover path { stroke: red; }
.edge:hover polygon { stroke: red; fill: red; }
]]></style>
<script type="text/javascript"><![CDATA[
var edges = document.getElementsByTagName('g');
if (edges && edges.length) {
  for (var i=0;i<edges.length;i++) {
    if (edges[i].id.substr(0,4)=='edge') {
      edges[i].setAttribute('class','edge');
    }
  }
}
]]></script>
        <defs>
                <circle id="rim" cx="0" cy="0" r="7"/>
                <circle id="rim2" cx="0" cy="0" r="3.5"/>
                <g id="zoomPlus">
                        <use xlink:href="#rim" fill="#404040">
                                <set attributeName="fill" to="#808080" begin="zoomplus.mouseover" end="zoomplus.mouseout"/>
                        </use>
                        <path d="M-4,0h8M0,-4v8" fill="none" stroke="white" stroke-width="1.5" pointer-events="none"/>
                </g>
                <g id="zoomMin">
                        <use xlink:href="#rim" fill="#404040">
                                <set attributeName="fill" to="#808080" begin="zoomminus.mouseover" end="zoomminus.mouseout"/>
                        </use>
                        <path d="M-4,0h8" fill="none" stroke="white" stroke-width="1.5" pointer-events="none"/>
                </g>
                <g id="dirArrow">
                        <path fill="none" stroke="white" stroke-width="1.5" d="M0,-3.0v7 M-2.5,-0.5L0,-3.0L2.5,-0.5"/>
                </g>
               <g id="resetDef">
                       <use xlink:href="#rim2" fill="#404040">
                               <set attributeName="fill" to="#808080" begin="reset.mouseover" end="reset.mouseout"/>
                       </use>
               </g>
        </defs>

<script type="text/javascript">
var viewWidth = 787;
var viewHeight = 434;
var sectionId = 'dynsection-18';
</script>
<script xlink:href="svgpan.js"/>
<svg id="graph" class="graph">
<g id="viewport">
<title>Argument::substring</title>
<!-- Node1 -->
<g id="node1" class="node">
<title>Node1</title>
<g id="a_node1"><a xlink:title=" ">
<polygon fill="#999999" stroke="#666666" points="779,-277 675,-277 675,-258 779,-258 779,-277"/>
<text text-anchor="middle" x="727" y="-265" font-family="Helvetica,sans-Serif" font-size="10.00">Argument::substring</text>
</a>
</g>
</g>
<!-- Node2 -->
<g id="node2" class="node">
<title>Node2</title>
<g id="a_node2"><a xlink:href="class_argument.html#a19696736b23d7f4f4c6e4125e67f59a8" target="_top" xlink:title=" ">
<polygon fill="white" stroke="#666666" points="638,-259 512,-259 512,-240 638,-240 638,-259"/>
<text text-anchor="middle" x="575" y="-247" font-family="Helvetica,sans-Serif" font-size="10.00">Argument::findLongName</text>
</a>
</g>
</g>
<!-- Node1&#45;&gt;Node2 -->
<g id="edge1" class="edge">
<title>Node1&#45;&gt;Node2</title>
<path fill="none" stroke="#63b8ff" d="M664.67,-260.14C655.91,-259.09 646.9,-258.01 638.12,-256.95"/>
<polygon fill="#63b8ff" stroke="#63b8ff" points="664.45,-263.64 674.8,-261.36 665.29,-256.69 664.45,-263.64"/>
</g>
<!-- Node20 -->
<g id="node20" class="node">
<title>Node20</title>
<g id="a_node20"><a xlink:href="class_argument.html#a3ec1ea9ca2d489a987e0fa335daaf061" target="_top" xlink:title=" ">
<polygon fill="white" stroke="#666666" points="639,-296 511,-296 511,-277 639,-277 639,-296"/>
<text text-anchor="middle" x="575" y="-284" font-family="Helvetica,sans-Serif" font-size="10.00">Argument::findShortName</text>
</a>
</g>
</g>
<!-- Node1&#45;&gt;Node20 -->
<g id="edge26" class="edge">
<title>Node1&#45;&gt;Node20</title>
<path fill="none" stroke="#63b8ff" d="M664.68,-275.27C656.27,-276.33 647.62,-277.43 639.18,-278.5"/>
<polygon fill="#63b8ff" stroke="#63b8ff" points="665.32,-278.71 674.8,-273.99 664.44,-271.77 665.32,-278.71"/>
</g>
<!-- Node3 -->
<g id="node3" class="node">
<title>Node3</title>
<g id="a_node3"><a xlink:href="class_argument.html#a11a9933e5a65f1cbf0525cd9bd2a29ca" target="_top" xlink:title=" ">
<polygon fill="white" stroke="#666666" points="302,-316 222,-316 222,-297 302,-297 302,-316"/>
<text text-anchor="middle" x="262" y="-304" font-family="Helvetica,sans-Serif" font-size="10.00">Argument::find</text>
</a>
</g>
</g>
<!-- Node2&#45;&gt;Node3 -->
<g id="edge2" class="edge">
<title>Node2&#45;&gt;Node3</title>
<path fill="none" stroke="#63b8ff" d="M511.83,-260.89C449.42,-272.33 355.17,-289.61 302.39,-299.28"/>
<polygon fill="#63b8ff" stroke="#63b8ff" points="512.74,-264.29 521.95,-259.04 511.48,-257.4 512.74,-264.29"/>
</g>
<!-- Node7 -->
<g id="node7" class="node">
<title>Node7</title>
<g id="a_node7"><a xlink:href="class_argument.html#a7fab3d983e4a63b93e6f50df82ed6f84" target="_top" xlink:title=" ">
<polygon fill="white" stroke="#666666" points="475,-240 374,-240 374,-221 475,-221 475,-240"/>
<text text-anchor="middle" x="424.5" y="-228" font-family="Helvetica,sans-Serif" font-size="10.00">Argument::findStart</text>
</a>
</g>
</g>
<!-- Node2&#45;&gt;Node7 -->
<g id="edge6" class="edge">
<title>Node2&#45;&gt;Node7</title>
<path fill="none" stroke="#63b8ff" d="M501.77,-240.26C492.77,-239.11 483.73,-237.95 475.19,-236.86"/>
<polygon fill="#63b8ff" stroke="#63b8ff" points="501.52,-243.75 511.88,-241.55 502.41,-236.81 501.52,-243.75"/>
</g>
<!-- Node4 -->
<g id="node4" class="node">
<title>Node4</title>
<g id="a_node4"><a xlink:href="_commander-_a_p_i-_digital-_i_o-_commands_8cpp.html#a488c98390245a3d0d7172f364ec91ed8" target="_top" xlink:title="Premade function for digitalRead command.">
<polygon fill="white" stroke="#666666" points="147,-389 3,-389 3,-370 147,-370 147,-389"/>
<text text-anchor="middle" x="75" y="-377" font-family="Helvetica,sans-Serif" font-size="10.00">commander_digitalRead_func</text>
</a>
</g>
</g>
<!-- Node3&#45;&gt;Node4 -->
<g id="edge3" class="edge">
<title>Node3&#45;&gt;Node4</title>
<path fill="none" stroke="#63b8ff" d="M235.86,-320.97C213.81,-333.16 180.59,-350.36 150,-361.5 141.18,-364.71 131.56,-367.53 122.26,-369.92"/>
<polygon fill="#63b8ff" stroke="#63b8ff" points="237.57,-324.02 244.59,-316.08 234.15,-317.91 237.57,-324.02"/>
</g>
<!-- Node5 -->
<g id="node5" class="node">
<title>Node5</title>
<g id="a_node5"><a xlink:href="_commander-_a_p_i-_digital-_i_o-_commands_8cpp.html#af309a2eb04319e75d4cc91e93894846e" target="_top" xlink:title="Premade function for digitalWrite command.">
<polygon fill="white" stroke="#666666" points="147.5,-352 2.5,-352 2.5,-333 147.5,-333 147.5,-352"/>
<text text-anchor="middle" x="75" y="-340" font-family="Helvetica,sans-Serif" font-size="10.00">commander_digitalWrite_func</text>
</a>
</g>
</g>
<!-- Node3&#45;&gt;Node5 -->
<g id="edge4" class="edge">
<title>Node3&#45;&gt;Node5</title>
<path fill="none" stroke="#63b8ff" d="M211.82,-316.07C184.99,-321.29 151.89,-327.73 125.08,-332.95"/>
<polygon fill="#63b8ff" stroke="#63b8ff" points="212.62,-319.48 221.77,-314.13 211.28,-312.61 212.62,-319.48"/>
</g>
<!-- Node6 -->
<g id="node6" class="node">
<title>Node6</title>
<g id="a_node6"><a xlink:href="_commander-_a_p_i-_digital-_i_o-_commands_8cpp.html#a2246eb22ddae467d2e4c311b95b1ca9f" target="_top" xlink:title="Premade function for pinMode command.">
<polygon fill="white" stroke="#666666" points="141.5,-315 8.5,-315 8.5,-296 141.5,-296 141.5,-315"/>
<text text-anchor="middle" x="75" y="-303" font-family="Helvetica,sans-Serif" font-size="10.00">commander_pinMode_func</text>
</a>
</g>
</g>
<!-- Node3&#45;&gt;Node6 -->
<g id="edge5" class="edge">
<title>Node3&#45;&gt;Node6</title>
<path fill="none" stroke="#63b8ff" d="M211.59,-306.23C190.16,-306.12 164.75,-305.98 141.75,-305.86"/>
<polygon fill="#63b8ff" stroke="#63b8ff" points="211.75,-309.73 221.77,-306.29 211.79,-302.73 211.75,-309.73"/>
</g>
<!-- Node8 -->
<g id="node8" class="node">
<title>Node8</title>
<g id="a_node8"><a xlink:href="class_argument.html#a2258f3363dbb1d462286a41d4ab3b8ad" target="_top" xlink:title=" ">
<polygon fill="white" stroke="#666666" points="317,-241 207,-241 207,-222 317,-222 317,-241"/>
<text text-anchor="middle" x="262" y="-229" font-family="Helvetica,sans-Serif" font-size="10.00">Argument::parseFloat</text>
</a>
</g>
</g>
<!-- Node7&#45;&gt;Node8 -->
<g id="edge7" class="edge">
<title>Node7&#45;&gt;Node8</title>
<path fill="none" stroke="#63b8ff" d="M363.28,-230.88C348.1,-230.97 331.91,-231.07 317.05,-231.16"/>
<polygon fill="#63b8ff" stroke="#63b8ff" points="363.62,-234.37 373.6,-230.81 363.57,-227.37 363.62,-234.37"/>
</g>
<!-- Node14 -->
<g id="node14" class="node">
<title>Node14</title>
<g id="a_node14"><a xlink:href="class_argument.html#aeabd957dda6add595aa860761ea337f1" target="_top" xlink:title=" ">
<polygon fill="white" stroke="#666666" points="311.5,-204 212.5,-204 212.5,-185 311.5,-185 311.5,-204"/>
<text text-anchor="middle" x="262" y="-192" font-family="Helvetica,sans-Serif" font-size="10.00">Argument::parseInt</text>
</a>
</g>
</g>
<!-- Node7&#45;&gt;Node14 -->
<g id="edge13" class="edge">
<title>Node7&#45;&gt;Node14</title>
<path fill="none" stroke="#63b8ff" d="M371.07,-218.74C349.83,-213.98 325.62,-208.55 305.51,-204.03"/>
<polygon fill="#63b8ff" stroke="#63b8ff" points="370.39,-222.17 380.91,-220.95 371.92,-215.34 370.39,-222.17"/>
</g>
<!-- Node19 -->
<g id="node19" class="node">
<title>Node19</title>
<g id="a_node19"><a xlink:href="class_argument.html#a91aa4b22990c4532a437afb1ed58acf4" target="_top" xlink:title=" ">
<polygon fill="white" stroke="#666666" points="338,-167 186,-167 186,-148 338,-148 338,-167"/>
<text text-anchor="middle" x="262" y="-155" font-family="Helvetica,sans-Serif" font-size="10.00">Argument::parseStringFunction</text>
</a>
</g>
</g>
<!-- Node7&#45;&gt;Node19 -->
<g id="edge25" class="edge">
<title>Node7&#45;&gt;Node19</title>
<path fill="none" stroke="#63b8ff" d="M403.11,-214.57C386.45,-202.27 361.83,-185.68 338,-175.5 330.12,-172.13 321.49,-169.33 312.98,-167.01"/>
<polygon fill="#63b8ff" stroke="#63b8ff" points="401.41,-217.67 411.5,-220.9 405.62,-212.08 401.41,-217.67"/>
</g>
<!-- Node9 -->
<g id="node9" class="node">
<title>Node9</title>
<g id="a_node9"><a xlink:href="_commander-_a_p_i-_math-_commands_8cpp.html#ae7d6fa81c7ec3354378b1f948c0c8749" target="_top" xlink:title="Premade function for abs command.">
<polygon fill="white" stroke="#666666" points="131,-241 19,-241 19,-222 131,-222 131,-241"/>
<text text-anchor="middle" x="75" y="-229" font-family="Helvetica,sans-Serif" font-size="10.00">commander_abs_func</text>
</a>
</g>
</g>
<!-- Node8&#45;&gt;Node9 -->
<g id="edge8" class="edge">
<title>Node8&#45;&gt;Node9</title>
<path fill="none" stroke="#63b8ff" d="M196.98,-231.5C175.51,-231.5 151.76,-231.5 131.04,-231.5"/>
<polygon fill="#63b8ff" stroke="#63b8ff" points="196.99,-235 206.99,-231.5 196.99,-228 196.99,-235"/>
</g>
<!-- Node10 -->
<g id="node10" class="node">
<title>Node10</title>
<g id="a_node10"><a xlink:href="_commander-_a_p_i-_math-_commands_8cpp.html#abfe392815068d05be5e099def983b5ec" target="_top" xlink:title="Premade function for cos command.">
<polygon fill="white" stroke="#666666" points="131,-204 19,-204 19,-185 131,-185 131,-204"/>
<text text-anchor="middle" x="75" y="-192" font-family="Helvetica,sans-Serif" font-size="10.00">commander_cos_func</text>
</a>
</g>
</g>
<!-- Node8&#45;&gt;Node10 -->
<g id="edge9" class="edge">
<title>Node8&#45;&gt;Node10</title>
<path fill="none" stroke="#63b8ff" d="M203.42,-219.98C177.85,-214.87 148.12,-208.92 123.8,-204.06"/>
<polygon fill="#63b8ff" stroke="#63b8ff" points="202.87,-223.44 213.36,-221.97 204.24,-216.58 202.87,-223.44"/>
</g>
<!-- Node11 -->
<g id="node11" class="node">
<title>Node11</title>
<g id="a_node11"><a xlink:href="_commander-_a_p_i-_system-_commands_8cpp.html#af867379096ae63ff42938a15749f2bd4" target="_top" xlink:title="Premade function for not command.">
<polygon fill="white" stroke="#666666" points="136.5,-426 13.5,-426 13.5,-407 136.5,-407 136.5,-426"/>
<text text-anchor="middle" x="75" y="-414" font-family="Helvetica,sans-Serif" font-size="10.00">commander_export_func</text>
</a>
</g>
</g>
<!-- Node8&#45;&gt;Node11 -->
<g id="edge10" class="edge">
<title>Node8&#45;&gt;Node11</title>
<path fill="none" stroke="#63b8ff" d="M233.79,-246.46C217.84,-256.48 198.45,-271.01 186,-288.5 156.17,-330.41 187.76,-363.57 150,-398.5 146.12,-402.09 141.64,-405 136.85,-407.35"/>
<polygon fill="#63b8ff" stroke="#63b8ff" points="235.94,-249.25 242.71,-241.1 232.33,-243.25 235.94,-249.25"/>
</g>
<!-- Node12 -->
<g id="node12" class="node">
<title>Node12</title>
<g id="a_node12"><a xlink:href="_commander-_a_p_i-_system-_commands_8cpp.html#a67c664cbc5869ccf57996adeecbb6cd9" target="_top" xlink:title="Premade function for not command.">
<polygon fill="white" stroke="#666666" points="150,-167 0,-167 0,-148 150,-148 150,-167"/>
<text text-anchor="middle" x="75" y="-155" font-family="Helvetica,sans-Serif" font-size="10.00">commander_exportTarget_func</text>
</a>
</g>
</g>
<!-- Node8&#45;&gt;Node12 -->
<g id="edge11" class="edge">
<title>Node8&#45;&gt;Node12</title>
<path fill="none" stroke="#63b8ff" d="M198.36,-218.49C194.07,-216.74 189.9,-214.75 186,-212.5 166.13,-201.03 169.92,-186.88 150,-175.5 144.03,-172.09 137.43,-169.32 130.71,-167.08"/>
<polygon fill="#63b8ff" stroke="#63b8ff" points="197.32,-221.84 207.91,-221.97 199.72,-215.26 197.32,-221.84"/>
</g>
<!-- Node13 -->
<g id="node13" class="node">
<title>Node13</title>
<g id="a_node13"><a xlink:href="_commander-_a_p_i-_math-_commands_8cpp.html#a1113369ca4b669dc0c6355fcf126cc42" target="_top" xlink:title="Premade function for sin command.">
<polygon fill="white" stroke="#666666" points="129.5,-278 20.5,-278 20.5,-259 129.5,-259 129.5,-278"/>
<text text-anchor="middle" x="75" y="-266" font-family="Helvetica,sans-Serif" font-size="10.00">commander_sin_func</text>
</a>
</g>
</g>
<!-- Node8&#45;&gt;Node13 -->
<g id="edge12" class="edge">
<title>Node8&#45;&gt;Node13</title>
<path fill="none" stroke="#63b8ff" d="M203.42,-243.02C177.85,-248.13 148.12,-254.08 123.8,-258.94"/>
<polygon fill="#63b8ff" stroke="#63b8ff" points="204.24,-246.42 213.36,-241.03 202.87,-239.56 204.24,-246.42"/>
</g>
<!-- Node14&#45;&gt;Node4 -->
<g id="edge18" class="edge">
<title>Node14&#45;&gt;Node4</title>
<path fill="none" stroke="#63b8ff" d="M202.38,-201.64C196.31,-204.31 190.66,-207.84 186,-212.5 137.79,-260.64 198.14,-313.29 150,-361.5 146.64,-364.87 142.76,-367.65 138.57,-369.93"/>
<polygon fill="#63b8ff" stroke="#63b8ff" points="203.96,-204.8 212.2,-198.13 201.6,-198.21 203.96,-204.8"/>
</g>
<!-- Node14&#45;&gt;Node5 -->
<g id="edge19" class="edge">
<title>Node14&#45;&gt;Node5</title>
<path fill="none" stroke="#63b8ff" d="M202.47,-202.09C196.43,-204.69 190.77,-208.08 186,-212.5 147.66,-248.05 188.29,-288.89 150,-324.5 146.42,-327.83 142.33,-330.58 137.94,-332.83"/>
<polygon fill="#63b8ff" stroke="#63b8ff" points="203.94,-205.28 212.19,-198.64 201.6,-198.69 203.94,-205.28"/>
</g>
<!-- Node14&#45;&gt;Node6 -->
<g id="edge22" class="edge">
<title>Node14&#45;&gt;Node6</title>
<path fill="none" stroke="#63b8ff" d="M202.79,-202.85C196.74,-205.32 190.99,-208.47 186,-212.5 157.24,-235.73 178.73,-264.22 150,-287.5 145.79,-290.91 141.03,-293.69 136,-295.96"/>
<polygon fill="#63b8ff" stroke="#63b8ff" points="204.15,-206.09 212.48,-199.53 201.88,-199.47 204.15,-206.09"/>
</g>
<!-- Node14&#45;&gt;Node9 -->
<g id="edge14" class="edge">
<title>Node14&#45;&gt;Node9</title>
<path fill="none" stroke="#63b8ff" d="M203.42,-206.02C177.85,-211.13 148.12,-217.08 123.8,-221.94"/>
<polygon fill="#63b8ff" stroke="#63b8ff" points="204.24,-209.42 213.36,-204.03 202.87,-202.56 204.24,-209.42"/>
</g>
<!-- Node14&#45;&gt;Node10 -->
<g id="edge17" class="edge">
<title>Node14&#45;&gt;Node10</title>
<path fill="none" stroke="#63b8ff" d="M202.19,-194.5C179.43,-194.5 153.53,-194.5 131.14,-194.5"/>
<polygon fill="#63b8ff" stroke="#63b8ff" points="202.39,-198 212.39,-194.5 202.39,-191 202.39,-198"/>
</g>
<!-- Node14&#45;&gt;Node12 -->
<g id="edge20" class="edge">
<title>Node14&#45;&gt;Node12</title>
<path fill="none" stroke="#63b8ff" d="M203.42,-182.98C177.85,-177.87 148.12,-171.92 123.8,-167.06"/>
<polygon fill="#63b8ff" stroke="#63b8ff" points="202.87,-186.44 213.36,-184.97 204.24,-179.58 202.87,-186.44"/>
</g>
<!-- Node14&#45;&gt;Node13 -->
<g id="edge24" class="edge">
<title>Node14&#45;&gt;Node13</title>
<path fill="none" stroke="#63b8ff" d="M202.46,-204.99C196.72,-207.06 191.12,-209.54 186,-212.5 165.86,-224.14 170.13,-238.83 150,-250.5 143.71,-254.15 136.71,-257.06 129.59,-259.38"/>
<polygon fill="#63b8ff" stroke="#63b8ff" points="203.75,-208.26 212.21,-201.88 201.62,-201.59 203.75,-208.26"/>
</g>
<!-- Node15 -->
<g id="node15" class="node">
<title>Node15</title>
<g id="a_node15"><a xlink:href="_commander-_a_p_i-_analog-_i_o-_commands_8cpp.html#a22f364acaf405f853e1ff3787c35b53e" target="_top" xlink:title="Premade function for analogRead command.">
<polygon fill="white" stroke="#666666" points="148.5,-130 1.5,-130 1.5,-111 148.5,-111 148.5,-130"/>
<text text-anchor="middle" x="75" y="-118" font-family="Helvetica,sans-Serif" font-size="10.00">commander_analogRead_func</text>
</a>
</g>
</g>
<!-- Node14&#45;&gt;Node15 -->
<g id="edge15" class="edge">
<title>Node14&#45;&gt;Node15</title>
<path fill="none" stroke="#63b8ff" d="M202.49,-183.1C196.74,-180.98 191.14,-178.47 186,-175.5 166.13,-164.03 169.92,-149.88 150,-138.5 144.03,-135.09 137.43,-132.32 130.71,-130.08"/>
<polygon fill="#63b8ff" stroke="#63b8ff" points="201.66,-186.51 212.26,-186.31 203.85,-179.86 201.66,-186.51"/>
</g>
<!-- Node16 -->
<g id="node16" class="node">
<title>Node16</title>
<g id="a_node16"><a xlink:href="_commander-_a_p_i-_analog-_i_o-_commands_8cpp.html#a0bb64a637cbaa4134e0cc9d1a7453ecf" target="_top" xlink:title="Premade function for analogRead command.">
<polygon fill="white" stroke="#666666" points="149,-93 1,-93 1,-74 149,-74 149,-93"/>
<text text-anchor="middle" x="75" y="-81" font-family="Helvetica,sans-Serif" font-size="10.00">commander_analogWrite_func</text>
</a>
</g>
</g>
<!-- Node14&#45;&gt;Node16 -->
<g id="edge16" class="edge">
<title>Node14&#45;&gt;Node16</title>
<path fill="none" stroke="#63b8ff" d="M202.79,-185.3C196.74,-182.77 190.99,-179.56 186,-175.5 157.63,-152.42 178.48,-124.45 150,-101.5 145.78,-98.1 141.01,-95.32 135.98,-93.07"/>
<polygon fill="#63b8ff" stroke="#63b8ff" points="201.88,-188.69 212.48,-188.74 204.23,-182.09 201.88,-188.69"/>
</g>
<!-- Node17 -->
<g id="node17" class="node">
<title>Node17</title>
<g id="a_node17"><a xlink:href="_commander-_a_p_i-_math-_commands_8cpp.html#aa0fa51a20a9af63d3f7e85012e533a7c" target="_top" xlink:title="Premade function for not command.">
<polygon fill="white" stroke="#666666" points="130,-56 20,-56 20,-37 130,-37 130,-56"/>
<text text-anchor="middle" x="75" y="-44" font-family="Helvetica,sans-Serif" font-size="10.00">commander_not_func</text>
</a>
</g>
</g>
<!-- Node14&#45;&gt;Node17 -->
<g id="edge21" class="edge">
<title>Node14&#45;&gt;Node17</title>
<path fill="none" stroke="#63b8ff" d="M202.45,-186.07C196.41,-183.41 190.76,-179.96 186,-175.5 148.15,-140.05 188.02,-99.77 150,-64.5 144.38,-59.28 137.5,-55.51 130.24,-52.79"/>
<polygon fill="#63b8ff" stroke="#63b8ff" points="201.58,-189.49 212.18,-189.65 204,-182.91 201.58,-189.49"/>
</g>
<!-- Node18 -->
<g id="node18" class="node">
<title>Node18</title>
<g id="a_node18"><a xlink:href="_commander-_a_p_i-_math-_commands_8cpp.html#aedeb7c7e023d071ecf07a9d6c64679d4" target="_top" xlink:title="Premade function for random command.">
<polygon fill="white" stroke="#666666" points="139,-19 11,-19 11,0 139,0 139,-19"/>
<text text-anchor="middle" x="75" y="-7" font-family="Helvetica,sans-Serif" font-size="10.00">commander_random_func</text>
</a>
</g>
</g>
<!-- Node14&#45;&gt;Node18 -->
<g id="edge23" class="edge">
<title>Node14&#45;&gt;Node18</title>
<path fill="none" stroke="#63b8ff" d="M202.36,-186.53C196.29,-183.79 190.65,-180.2 186,-175.5 138.36,-127.4 197.87,-75.37 150,-27.5 146.63,-24.13 142.75,-21.36 138.56,-19.08"/>
<polygon fill="#63b8ff" stroke="#63b8ff" points="201.58,-189.97 212.17,-190.17 204.01,-183.41 201.58,-189.97"/>
</g>
<!-- Node20&#45;&gt;Node3 -->
<g id="edge27" class="edge">
<title>Node20&#45;&gt;Node3</title>
<path fill="none" stroke="#63b8ff" d="M500.55,-291.22C438.41,-295.22 351.78,-300.79 302.13,-303.98"/>
<polygon fill="#63b8ff" stroke="#63b8ff" points="500.93,-294.71 510.69,-290.57 500.49,-287.72 500.93,-294.71"/>
</g>
<!-- Node20&#45;&gt;Node7 -->
<g id="edge28" class="edge">
<title>Node20&#45;&gt;Node7</title>
<path fill="none" stroke="#63b8ff" d="M527.44,-274C521.87,-272.26 516.28,-270.42 511,-268.5 487.79,-260.07 462,-248.26 444.88,-240.05"/>
<polygon fill="#63b8ff" stroke="#63b8ff" points="526.83,-277.46 537.41,-276.98 528.84,-270.76 526.83,-277.46"/>
</g>
</g>
</svg>
        <g id="navigator" transform="translate(0 0)" fill="#404254">
                <rect fill="#f2f5e9" fill-opacity="0.5" stroke="#606060" stroke-width=".5" x="0" y="0" width="60" height="60"/>
                <use id="zoomplus" xlink:href="#zoomPlus" x="17" y="9" onmousedown="handleZoom(evt,'in')"/>
                <use id="zoomminus" xlink:href="#zoomMin" x="42" y="9" onmousedown="handleZoom(evt,'out')"/>
                <use id="reset" xlink:href="#resetDef" x="30" y="36" onmousedown="handleReset()"/>
                <g id="arrowUp" xlink:href="#dirArrow" transform="translate(30 24)" onmousedown="handlePan(0,-1)">
                  <use xlink:href="#rim" fill="#404040">
                        <set attributeName="fill" to="#808080" begin="arrowUp.mouseover" end="arrowUp.mouseout"/>
                  </use>
                  <path fill="none" stroke="white" stroke-width="1.5" d="M0,-3.0v7 M-2.5,-0.5L0,-3.0L2.5,-0.5"/>
                </g>
                <g id="arrowRight" xlink:href="#dirArrow" transform="rotate(90) translate(36 -43)" onmousedown="handlePan(1,0)">
                  <use xlink:href="#rim" fill="#404040">
                        <set attributeName="fill" to="#808080" begin="arrowRight.mouseover" end="arrowRight.mouseout"/>
                  </use>
                  <path fill="none" stroke="white" stroke-width="1.5" d="M0,-3.0v7 M-2.5,-0.5L0,-3.0L2.5,-0.5"/>
                </g>
                <g id="arrowDown" xlink:href="#dirArrow" transform="rotate(180) translate(-30 -48)" onmousedown="handlePan(0,1)">
                  <use xlink:href="#rim" fill="#404040">
                        <set attributeName="fill" to="#808080" begin="arrowDown.mouseover" end="arrowDown.mouseout"/>
                  </use>
                  <path fill="none" stroke="white" stroke-width="1.5" d="M0,-3.0v7 M-2.5,-0.5L0,-3.0L2.5,-0.5"/>
                </g>
                <g id="arrowLeft" xlink:href="#dirArrow" transform="rotate(270) translate(-36 17)" onmousedown="handlePan(-1,0)">
                  <use xlink:href="#rim" fill="#404040">
                        <set attributeName="fill" to="#808080" begin="arrowLeft.mouseover" end="arrowLeft.mouseout"/>
                  </use>
                  <path fill="none" stroke="white" stroke-width="1.5" d="M0,-3.0v7 M-2.5,-0.5L0,-3.0L2.5,-0.5"/>
                </g>
        </g>
        <svg viewBox="0 0 15 15" width="100%" height="30px" preserveAspectRatio="xMaxYMin meet">
         <g id="arrow_out" transform="scale(0.3 0.3)">
          <a xlink:href="class_argument_a8f98fbce9e55886c0b3a84c6f92572e5_icgraph_org.svg" target="_base">
           <rect id="button" ry="5" rx="5" y="6" x="6" height="38" width="38"
                fill="#f2f5e9" fill-opacity="0.5" stroke="#606060" stroke-width="1.0"/>
           <path id="arrow"
             d="M 11.500037,31.436501 C 11.940474,20.09759 22.043105,11.32322 32.158766,21.979434 L 37.068811,17.246167 C 37.068811,17.246167 37.088388,32 37.088388,32 L 22.160133,31.978069 C 22.160133,31.978069 26.997745,27.140456 26.997745,27.140456 C 18.528582,18.264221 13.291696,25.230495 11.500037,31.436501 z"
             style="fill:#404040;"/>
          </a>
         </g>
        </svg>
</svg>
