<?xml version="1.0" encoding="UTF-8" standalone="no"?>
<!DOCTYPE svg PUBLIC "-//W3C//DTD SVG 1.1//EN"
 "http://www.w3.org/Graphics/SVG/1.1/DTD/svg11.dtd">
<!-- Generated by graphviz version 5.0.1 (20220820.1526)
 -->
<!-- Title: Commander::executeCommand Pages: 1 -->
<svg width="464pt" height="161pt"
 viewBox="0.00 0.00 464.00 161.00" xmlns="http://www.w3.org/2000/svg" xmlns:xlink="http://www.w3.org/1999/xlink">
<g id="graph0" class="graph" transform="scale(1 1) rotate(0) translate(4 157)">
<title>Commander::executeCommand</title>
<!-- Node1 -->
<g id="node1" class="node">
<title>Node1</title>
<g id="a_node1"><a xlink:title="Command execution.">
<polygon fill="#999999" stroke="#666666" points="154,-85.5 0,-85.5 0,-66.5 154,-66.5 154,-85.5"/>
<text text-anchor="middle" x="77" y="-73.5" font-family="Helvetica,sans-Serif" font-size="10.00">Commander::executeCommand</text>
</a>
</g>
</g>
<!-- Node1&#45;&gt;Node1 -->
<g id="edge2" class="edge">
<title>Node1&#45;&gt;Node1</title>
<path fill="none" stroke="#63b8ff" d="M50.18,-85.58C37.13,-94.23 46.07,-103.5 77,-103.5 97.78,-103.5 108.63,-99.32 109.56,-93.95"/>
<polygon fill="#63b8ff" stroke="#63b8ff" points="112.36,-91.85 103.82,-85.58 106.59,-95.81 112.36,-91.85"/>
</g>
<!-- Node2 -->
<g id="node2" class="node">
<title>Node2</title>
<g id="a_node2"><a xlink:href="classcommander_pipe_channel.html#ad67f75499feea46a4f1cb71a0b98587b" target="_top" xlink:title="Available bytes in the channel.">
<polygon fill="white" stroke="#666666" points="312,-153 190,-153 190,-123 312,-123 312,-153"/>
<text text-anchor="start" x="198" y="-141" font-family="Helvetica,sans-Serif" font-size="10.00">commanderPipeChannel</text>
<text text-anchor="middle" x="251" y="-130" font-family="Helvetica,sans-Serif" font-size="10.00">::available</text>
</a>
</g>
</g>
<!-- Node1&#45;&gt;Node2 -->
<g id="edge1" class="edge">
<title>Node1&#45;&gt;Node2</title>
<path fill="none" stroke="#63b8ff" d="M104.5,-85.55C129.41,-94.53 167.39,-108.22 198.3,-119.37"/>
<polygon fill="#63b8ff" stroke="#63b8ff" points="197.47,-122.79 208.07,-122.88 199.85,-116.2 197.47,-122.79"/>
</g>
<!-- Node3 -->
<g id="node3" class="node">
<title>Node3</title>
<g id="a_node3"><a xlink:href="class_commander.html#aa1598c9d4039c1d0e8ec57f0f44ef98b" target="_top" xlink:title="Search for a character in a string.">
<polygon fill="white" stroke="#666666" points="306.5,-104.5 195.5,-104.5 195.5,-85.5 306.5,-85.5 306.5,-104.5"/>
<text text-anchor="middle" x="251" y="-92.5" font-family="Helvetica,sans-Serif" font-size="10.00">Commander::hasChar</text>
</a>
</g>
</g>
<!-- Node1&#45;&gt;Node3 -->
<g id="edge3" class="edge">
<title>Node1&#45;&gt;Node3</title>
<path fill="none" stroke="#63b8ff" d="M154.19,-84.42C164.57,-85.56 175.14,-86.73 185.29,-87.85"/>
<polygon fill="#63b8ff" stroke="#63b8ff" points="184.95,-91.34 195.28,-88.96 185.72,-84.38 184.95,-91.34"/>
</g>
<!-- Node5 -->
<g id="node5" class="node">
<title>Node5</title>
<g id="a_node5"><a xlink:href="class_commander.html#a0fab647689fcd4557145386ff585aec1" target="_top" xlink:title="Print the help text to a specified Stream.">
<polygon fill="white" stroke="#666666" points="307.5,-67.5 194.5,-67.5 194.5,-48.5 307.5,-48.5 307.5,-67.5"/>
<text text-anchor="middle" x="251" y="-55.5" font-family="Helvetica,sans-Serif" font-size="10.00">Commander::printHelp</text>
</a>
</g>
</g>
<!-- Node1&#45;&gt;Node5 -->
<g id="edge5" class="edge">
<title>Node1&#45;&gt;Node5</title>
<path fill="none" stroke="#63b8ff" d="M154.19,-68.03C164.2,-66.98 174.38,-65.91 184.19,-64.89"/>
<polygon fill="#63b8ff" stroke="#63b8ff" points="184.68,-68.36 194.26,-63.83 183.95,-61.39 184.68,-68.36"/>
</g>
<!-- Node7 -->
<g id="node7" class="node">
<title>Node7</title>
<g id="a_node7"><a xlink:href="classcommander_pipe_channel.html#ac94b25ee07795603b3197f4c289efe92" target="_top" xlink:title="Read one byte form the channel.">
<polygon fill="white" stroke="#666666" points="312,-30 190,-30 190,0 312,0 312,-30"/>
<text text-anchor="start" x="198" y="-18" font-family="Helvetica,sans-Serif" font-size="10.00">commanderPipeChannel</text>
<text text-anchor="middle" x="251" y="-7" font-family="Helvetica,sans-Serif" font-size="10.00">::read</text>
</a>
</g>
</g>
<!-- Node1&#45;&gt;Node7 -->
<g id="edge7" class="edge">
<title>Node1&#45;&gt;Node7</title>
<path fill="none" stroke="#63b8ff" d="M104.88,-66.47C129.68,-57.67 167.22,-44.36 197.9,-33.48"/>
<polygon fill="#63b8ff" stroke="#63b8ff" points="199.34,-36.68 207.59,-30.04 197,-30.08 199.34,-36.68"/>
</g>
<!-- Node4 -->
<g id="node4" class="node">
<title>Node4</title>
<g id="a_node4"><a xlink:href="class_commander.html#a80f04d459243886a6d92bce2a15eea5e" target="_top" xlink:title=" ">
<polygon fill="white" stroke="#666666" points="456,-107.5 348,-107.5 348,-88.5 456,-88.5 456,-107.5"/>
<text text-anchor="middle" x="402" y="-95.5" font-family="Helvetica,sans-Serif" font-size="10.00">Commander::inString</text>
</a>
</g>
</g>
<!-- Node3&#45;&gt;Node4 -->
<g id="edge4" class="edge">
<title>Node3&#45;&gt;Node4</title>
<path fill="none" stroke="#63b8ff" d="M306.64,-96.1C316.73,-96.3 327.34,-96.52 337.67,-96.72"/>
<polygon fill="#63b8ff" stroke="#63b8ff" points="337.79,-100.23 347.86,-96.93 337.93,-93.23 337.79,-100.23"/>
</g>
<!-- Node6 -->
<g id="node6" class="node">
<title>Node6</title>
<g id="a_node6"><a xlink:href="class_commander.html#a8634a1c3c680d0a598fa8b6b5445ca39" target="_top" xlink:title="Find an API element in the tree by alphabetical place.">
<polygon fill="white" stroke="#666666" points="456,-70 348,-70 348,-40 456,-40 456,-70"/>
<text text-anchor="start" x="356" y="-58" font-family="Helvetica,sans-Serif" font-size="10.00">Commander::find_api</text>
<text text-anchor="middle" x="402" y="-47" font-family="Helvetica,sans-Serif" font-size="10.00">_index_by_place</text>
</a>
</g>
</g>
<!-- Node5&#45;&gt;Node6 -->
<g id="edge6" class="edge">
<title>Node5&#45;&gt;Node6</title>
<path fill="none" stroke="#63b8ff" d="M307.91,-56.87C317.59,-56.68 327.72,-56.48 337.59,-56.28"/>
<polygon fill="#63b8ff" stroke="#63b8ff" points="337.81,-59.77 347.74,-56.07 337.67,-52.77 337.81,-59.77"/>
</g>
</g>
</svg>
