<?xml version="1.0" encoding="UTF-8" standalone="no"?>
<!DOCTYPE svg PUBLIC "-//W3C//DTD SVG 1.1//EN"
 "http://www.w3.org/Graphics/SVG/1.1/DTD/svg11.dtd">
<!-- Generated by graphviz version 5.0.1 (20220820.1526)
 -->
<!-- Title: Commander::init Pages: 1 -->
<svg width="718pt" height="134pt"
 viewBox="0.00 0.00 718.00 134.00" xmlns="http://www.w3.org/2000/svg" xmlns:xlink="http://www.w3.org/1999/xlink">
<g id="graph0" class="graph" transform="scale(1 1) rotate(0) translate(4 130)">
<title>Commander::init</title>
<!-- Node1 -->
<g id="node1" class="node">
<title>Node1</title>
<g id="a_node1"><a xlink:title="Initializer.">
<polygon fill="#999999" stroke="#666666" points="88,-72.5 0,-72.5 0,-53.5 88,-53.5 88,-72.5"/>
<text text-anchor="middle" x="44" y="-60.5" font-family="Helvetica,sans-Serif" font-size="10.00">Commander::init</text>
</a>
</g>
</g>
<!-- Node2 -->
<g id="node2" class="node">
<title>Node2</title>
<g id="a_node2"><a xlink:href="class_commander.html#a427d055d672b7bbfc7f70005d48c372f" target="_top" xlink:title="Compare two API&#45;tree element&#39;s name.">
<polygon fill="white" stroke="#666666" points="257.5,-126 131.5,-126 131.5,-96 257.5,-96 257.5,-126"/>
<text text-anchor="start" x="139.5" y="-114" font-family="Helvetica,sans-Serif" font-size="10.00">Commander::commander</text>
<text text-anchor="middle" x="194.5" y="-103" font-family="Helvetica,sans-Serif" font-size="10.00">_strcmp_progmem</text>
</a>
</g>
</g>
<!-- Node1&#45;&gt;Node2 -->
<g id="edge1" class="edge">
<title>Node1&#45;&gt;Node2</title>
<path fill="none" stroke="#63b8ff" d="M74.69,-72.6C92.6,-78.39 116,-85.95 137.29,-92.83"/>
<polygon fill="#63b8ff" stroke="#63b8ff" points="136.31,-96.19 146.9,-95.94 138.46,-89.53 136.31,-96.19"/>
</g>
<!-- Node3 -->
<g id="node3" class="node">
<title>Node3</title>
<g id="a_node3"><a xlink:href="class_commander.html#a2762a5be3813cd54c9091487829bdf8b" target="_top" xlink:title="Compare an API&#45;tree element&#39;s name with a regular string.">
<polygon fill="white" stroke="#666666" points="265,-78 124,-78 124,-48 265,-48 265,-78"/>
<text text-anchor="start" x="132" y="-66" font-family="Helvetica,sans-Serif" font-size="10.00">Commander::commander</text>
<text text-anchor="middle" x="194.5" y="-55" font-family="Helvetica,sans-Serif" font-size="10.00">_strcmp_tree_ram_progmem</text>
</a>
</g>
</g>
<!-- Node1&#45;&gt;Node3 -->
<g id="edge2" class="edge">
<title>Node1&#45;&gt;Node3</title>
<path fill="none" stroke="#63b8ff" d="M88.35,-63C96.35,-63 104.93,-63 113.62,-63"/>
<polygon fill="#63b8ff" stroke="#63b8ff" points="113.83,-66.5 123.83,-63 113.83,-59.5 113.83,-66.5"/>
</g>
<!-- Node4 -->
<g id="node4" class="node">
<title>Node4</title>
<g id="a_node4"><a xlink:href="class_commander.html#ad435a3490d9ae4b4dda2c88e2fbf0421" target="_top" xlink:title="Optimizes the tree to make it balanced.">
<polygon fill="white" stroke="#666666" points="250.5,-30 138.5,-30 138.5,0 250.5,0 250.5,-30"/>
<text text-anchor="start" x="146.5" y="-18" font-family="Helvetica,sans-Serif" font-size="10.00">Commander::optimize</text>
<text text-anchor="middle" x="194.5" y="-7" font-family="Helvetica,sans-Serif" font-size="10.00">_api_tree</text>
</a>
</g>
</g>
<!-- Node1&#45;&gt;Node4 -->
<g id="edge3" class="edge">
<title>Node1&#45;&gt;Node4</title>
<path fill="none" stroke="#63b8ff" d="M74.69,-53.4C92.6,-47.61 116,-40.05 137.29,-33.17"/>
<polygon fill="#63b8ff" stroke="#63b8ff" points="138.46,-36.47 146.9,-30.06 136.31,-29.81 138.46,-36.47"/>
</g>
<!-- Node5 -->
<g id="node5" class="node">
<title>Node5</title>
<g id="a_node5"><a xlink:href="class_commander.html#a8415264e9cdf820c7ad1872cc36811bd" target="_top" xlink:title="Recursive function optimize a section in the tree.">
<polygon fill="white" stroke="#666666" points="414,-30 301,-30 301,0 414,0 414,-30"/>
<text text-anchor="start" x="309" y="-18" font-family="Helvetica,sans-Serif" font-size="10.00">Commander::recursive</text>
<text text-anchor="middle" x="357.5" y="-7" font-family="Helvetica,sans-Serif" font-size="10.00">_optimizer</text>
</a>
</g>
</g>
<!-- Node4&#45;&gt;Node5 -->
<g id="edge4" class="edge">
<title>Node4&#45;&gt;Node5</title>
<path fill="none" stroke="#63b8ff" d="M250.91,-15C263.81,-15 277.67,-15 290.96,-15"/>
<polygon fill="#63b8ff" stroke="#63b8ff" points="290.99,-18.5 300.99,-15 290.99,-11.5 290.99,-18.5"/>
</g>
<!-- Node5&#45;&gt;Node5 -->
<g id="edge5" class="edge">
<title>Node5&#45;&gt;Node5</title>
<path fill="none" stroke="#63b8ff" d="M331.13,-30.28C325.27,-39.41 334.06,-48 357.5,-48 371.42,-48 380.17,-44.97 383.76,-40.6"/>
<polygon fill="#63b8ff" stroke="#63b8ff" points="387.26,-40.31 383.87,-30.28 380.26,-40.24 387.26,-40.31"/>
</g>
<!-- Node6 -->
<g id="node6" class="node">
<title>Node6</title>
<g id="a_node6"><a xlink:href="class_commander.html#a05f64743655f673fb18871e71ae75c9c" target="_top" xlink:title="Swap two API elements in the tree.">
<polygon fill="white" stroke="#666666" points="566,-30 450,-30 450,0 566,0 566,-30"/>
<text text-anchor="start" x="458" y="-18" font-family="Helvetica,sans-Serif" font-size="10.00">Commander::swap_api</text>
<text text-anchor="middle" x="508" y="-7" font-family="Helvetica,sans-Serif" font-size="10.00">_elements</text>
</a>
</g>
</g>
<!-- Node5&#45;&gt;Node6 -->
<g id="edge6" class="edge">
<title>Node5&#45;&gt;Node6</title>
<path fill="none" stroke="#63b8ff" d="M414.22,-15C422.62,-15 431.36,-15 439.96,-15"/>
<polygon fill="#63b8ff" stroke="#63b8ff" points="439.98,-18.5 449.98,-15 439.98,-11.5 439.98,-18.5"/>
</g>
<!-- Node7 -->
<g id="node7" class="node">
<title>Node7</title>
<g id="a_node7"><a xlink:href="class_commander.html#aec3ddca4426c77b7ac39c0eaea641f68" target="_top" xlink:title="Find an API element in the tree by alphabetical place.">
<polygon fill="white" stroke="#666666" points="710,-30 602,-30 602,0 710,0 710,-30"/>
<text text-anchor="start" x="610" y="-18" font-family="Helvetica,sans-Serif" font-size="10.00">Commander::find_api</text>
<text text-anchor="middle" x="656" y="-7" font-family="Helvetica,sans-Serif" font-size="10.00">_index_by_place</text>
</a>
</g>
</g>
<!-- Node6&#45;&gt;Node7 -->
<g id="edge7" class="edge">
<title>Node6&#45;&gt;Node7</title>
<path fill="none" stroke="#63b8ff" d="M566.28,-15C574.58,-15 583.15,-15 591.56,-15"/>
<polygon fill="#63b8ff" stroke="#63b8ff" points="591.69,-18.5 601.69,-15 591.69,-11.5 591.69,-18.5"/>
</g>
</g>
</svg>
