<?xml version="1.0" encoding="UTF-8" standalone="no"?>
<!DOCTYPE svg PUBLIC "-//W3C//DTD SVG 1.1//EN"
 "http://www.w3.org/Graphics/SVG/1.1/DTD/svg11.dtd">
<!-- Generated by graphviz version 5.0.1 (20220820.1526)
 -->
<!-- Title: Commander::recursive_optimizer Pages: 1 -->
<svg width="417pt" height="56pt"
 viewBox="0.00 0.00 417.00 56.00" xmlns="http://www.w3.org/2000/svg" xmlns:xlink="http://www.w3.org/1999/xlink">
<g id="graph0" class="graph" transform="scale(1 1) rotate(0) translate(4 52)">
<title>Commander::recursive_optimizer</title>
<!-- Node1 -->
<g id="node1" class="node">
<title>Node1</title>
<g id="a_node1"><a xlink:title="Recursive function optimize a section in the tree.">
<polygon fill="#999999" stroke="#666666" points="113,-30 0,-30 0,0 113,0 113,-30"/>
<text text-anchor="start" x="8" y="-18" font-family="Helvetica,sans-Serif" font-size="10.00">Commander::recursive</text>
<text text-anchor="middle" x="56.5" y="-7" font-family="Helvetica,sans-Serif" font-size="10.00">_optimizer</text>
</a>
</g>
</g>
<!-- Node1&#45;&gt;Node1 -->
<g id="edge1" class="edge">
<title>Node1&#45;&gt;Node1</title>
<path fill="none" stroke="#63b8ff" d="M30.13,-30.28C24.27,-39.41 33.06,-48 56.5,-48 70.42,-48 79.17,-44.97 82.76,-40.6"/>
<polygon fill="#63b8ff" stroke="#63b8ff" points="86.26,-40.31 82.87,-30.28 79.26,-40.24 86.26,-40.31"/>
</g>
<!-- Node2 -->
<g id="node2" class="node">
<title>Node2</title>
<g id="a_node2"><a xlink:href="class_commander.html#a05f64743655f673fb18871e71ae75c9c" target="_top" xlink:title="Swap two API elements in the tree.">
<polygon fill="white" stroke="#666666" points="265,-30 149,-30 149,0 265,0 265,-30"/>
<text text-anchor="start" x="157" y="-18" font-family="Helvetica,sans-Serif" font-size="10.00">Commander::swap_api</text>
<text text-anchor="middle" x="207" y="-7" font-family="Helvetica,sans-Serif" font-size="10.00">_elements</text>
</a>
</g>
</g>
<!-- Node1&#45;&gt;Node2 -->
<g id="edge2" class="edge">
<title>Node1&#45;&gt;Node2</title>
<path fill="none" stroke="#63b8ff" d="M113.22,-15C121.62,-15 130.36,-15 138.96,-15"/>
<polygon fill="#63b8ff" stroke="#63b8ff" points="138.98,-18.5 148.98,-15 138.98,-11.5 138.98,-18.5"/>
</g>
<!-- Node3 -->
<g id="node3" class="node">
<title>Node3</title>
<g id="a_node3"><a xlink:href="class_commander.html#aec3ddca4426c77b7ac39c0eaea641f68" target="_top" xlink:title="Find an API element in the tree by alphabetical place.">
<polygon fill="white" stroke="#666666" points="409,-30 301,-30 301,0 409,0 409,-30"/>
<text text-anchor="start" x="309" y="-18" font-family="Helvetica,sans-Serif" font-size="10.00">Commander::find_api</text>
<text text-anchor="middle" x="355" y="-7" font-family="Helvetica,sans-Serif" font-size="10.00">_index_by_place</text>
</a>
</g>
</g>
<!-- Node2&#45;&gt;Node3 -->
<g id="edge3" class="edge">
<title>Node2&#45;&gt;Node3</title>
<path fill="none" stroke="#63b8ff" d="M265.28,-15C273.58,-15 282.15,-15 290.56,-15"/>
<polygon fill="#63b8ff" stroke="#63b8ff" points="290.69,-18.5 300.69,-15 290.69,-11.5 290.69,-18.5"/>
</g>
</g>
</svg>
