<?xml version="1.0" encoding="UTF-8" standalone="no"?>
<!DOCTYPE svg PUBLIC "-//W3C//DTD SVG 1.1//EN"
 "http://www.w3.org/Graphics/SVG/1.1/DTD/svg11.dtd">
<!-- Generated by graphviz version 5.0.1 (20220820.1526)
 -->
<!-- Title: Argument::isFound Pages: 1 -->
<svg width="288pt" height="138pt"
 viewBox="0.00 0.00 288.00 138.00" xmlns="http://www.w3.org/2000/svg" xmlns:xlink="http://www.w3.org/1999/xlink">
<g id="graph0" class="graph" transform="scale(1 1) rotate(0) translate(4 134)">
<title>Argument::isFound</title>
<!-- Node1 -->
<g id="node1" class="node">
<title>Node1</title>
<g id="a_node1"><a xlink:title=" ">
<polygon fill="#999999" stroke="#666666" points="280,-74 181,-74 181,-55 280,-55 280,-74"/>
<text text-anchor="middle" x="230.5" y="-62" font-family="Helvetica,sans-Serif" font-size="10.00">Argument::isFound</text>
</a>
</g>
</g>
<!-- Node2 -->
<g id="node2" class="node">
<title>Node2</title>
<g id="a_node2"><a xlink:href="_commander-_a_p_i-_digital-_i_o-_commands_8cpp.html#a488c98390245a3d0d7172f364ec91ed8" target="_top" xlink:title="Premade function for digitalRead command.">
<polygon fill="white" stroke="#666666" points="144.5,-130 0.5,-130 0.5,-111 144.5,-111 144.5,-130"/>
<text text-anchor="middle" x="72.5" y="-118" font-family="Helvetica,sans-Serif" font-size="10.00">commander_digitalRead_func</text>
</a>
</g>
</g>
<!-- Node1&#45;&gt;Node2 -->
<g id="edge1" class="edge">
<title>Node1&#45;&gt;Node2</title>
<path fill="none" stroke="#63b8ff" d="M201.34,-78.67C185.14,-86.43 164.25,-95.81 145,-102.5 135.93,-105.65 126.04,-108.5 116.59,-110.96"/>
<polygon fill="#63b8ff" stroke="#63b8ff" points="203.3,-81.6 210.76,-74.08 200.24,-75.31 203.3,-81.6"/>
</g>
<!-- Node3 -->
<g id="node3" class="node">
<title>Node3</title>
<g id="a_node3"><a xlink:href="_commander-_a_p_i-_digital-_i_o-_commands_8cpp.html#af309a2eb04319e75d4cc91e93894846e" target="_top" xlink:title="Premade function for digitalWrite command.">
<polygon fill="white" stroke="#666666" points="145,-93 0,-93 0,-74 145,-74 145,-93"/>
<text text-anchor="middle" x="72.5" y="-81" font-family="Helvetica,sans-Serif" font-size="10.00">commander_digitalWrite_func</text>
</a>
</g>
</g>
<!-- Node1&#45;&gt;Node3 -->
<g id="edge2" class="edge">
<title>Node1&#45;&gt;Node3</title>
<path fill="none" stroke="#63b8ff" d="M170.93,-71.63C162.52,-72.66 153.79,-73.72 145.17,-74.77"/>
<polygon fill="#63b8ff" stroke="#63b8ff" points="171.49,-75.09 181,-70.41 170.65,-68.14 171.49,-75.09"/>
</g>
<!-- Node4 -->
<g id="node4" class="node">
<title>Node4</title>
<g id="a_node4"><a xlink:href="_commander-_a_p_i-_memory-_commands_8cpp.html#ac0009f7287654611dc82da625f2579a9" target="_top" xlink:title="Premade function for not command.">
<polygon fill="white" stroke="#666666" points="144,-56 1,-56 1,-37 144,-37 144,-56"/>
<text text-anchor="middle" x="72.5" y="-44" font-family="Helvetica,sans-Serif" font-size="10.00">commander_memDump_func</text>
</a>
</g>
</g>
<!-- Node1&#45;&gt;Node4 -->
<g id="edge3" class="edge">
<title>Node1&#45;&gt;Node4</title>
<path fill="none" stroke="#63b8ff" d="M170.89,-57.74C162.12,-56.73 153.01,-55.67 144.02,-54.64"/>
<polygon fill="#63b8ff" stroke="#63b8ff" points="170.66,-61.23 181,-58.9 171.46,-54.28 170.66,-61.23"/>
</g>
<!-- Node5 -->
<g id="node5" class="node">
<title>Node5</title>
<g id="a_node5"><a xlink:href="_commander-_a_p_i-_digital-_i_o-_commands_8cpp.html#a2246eb22ddae467d2e4c311b95b1ca9f" target="_top" xlink:title="Premade function for pinMode command.">
<polygon fill="white" stroke="#666666" points="139,-19 6,-19 6,0 139,0 139,-19"/>
<text text-anchor="middle" x="72.5" y="-7" font-family="Helvetica,sans-Serif" font-size="10.00">commander_pinMode_func</text>
</a>
</g>
</g>
<!-- Node1&#45;&gt;Node5 -->
<g id="edge4" class="edge">
<title>Node1&#45;&gt;Node5</title>
<path fill="none" stroke="#63b8ff" d="M199.95,-50.68C183.91,-43.49 163.61,-34.9 145,-28.5 134.92,-25.03 123.86,-21.82 113.51,-19.05"/>
<polygon fill="#63b8ff" stroke="#63b8ff" points="198.78,-53.99 209.33,-54.94 201.67,-47.62 198.78,-53.99"/>
</g>
</g>
</svg>
