<?xml version="1.0" encoding="UTF-8" standalone="no"?>
<!DOCTYPE svg PUBLIC "-//W3C//DTD SVG 1.1//EN"
 "http://www.w3.org/Graphics/SVG/1.1/DTD/svg11.dtd">
<!-- Generated by graphviz version 5.0.1 (20220820.1526)
 -->
<!-- Title: Commander::executeCommand Pages: 1 -->
<svg width="455pt" height="76pt"
 viewBox="0.00 0.00 455.00 75.50" xmlns="http://www.w3.org/2000/svg" xmlns:xlink="http://www.w3.org/1999/xlink">
<g id="graph0" class="graph" transform="scale(1 1) rotate(0) translate(4 71.5)">
<title>Commander::executeCommand</title>
<!-- Node1 -->
<g id="node1" class="node">
<title>Node1</title>
<g id="a_node1"><a xlink:title="Command execution.">
<polygon fill="#999999" stroke="#666666" points="154,-45.5 0,-45.5 0,-26.5 154,-26.5 154,-45.5"/>
<text text-anchor="middle" x="77" y="-33.5" font-family="Helvetica,sans-Serif" font-size="10.00">Commander::executeCommand</text>
</a>
</g>
</g>
<!-- Node1&#45;&gt;Node1 -->
<g id="edge1" class="edge">
<title>Node1&#45;&gt;Node1</title>
<path fill="none" stroke="#63b8ff" d="M51.11,-45.58C38.51,-54.23 47.14,-63.5 77,-63.5 97.06,-63.5 107.54,-59.32 108.44,-53.95"/>
<polygon fill="#63b8ff" stroke="#63b8ff" points="111.34,-51.99 102.89,-45.58 105.5,-55.85 111.34,-51.99"/>
</g>
<!-- Node2 -->
<g id="node2" class="node">
<title>Node2</title>
<g id="a_node2"><a xlink:href="class_commander.html#a9b8d9afbf4e766034a2161109387c7ff" target="_top" xlink:title="Search for a character in a string.">
<polygon fill="white" stroke="#666666" points="302,-65.5 191,-65.5 191,-46.5 302,-46.5 302,-65.5"/>
<text text-anchor="middle" x="246.5" y="-53.5" font-family="Helvetica,sans-Serif" font-size="10.00">Commander::hasChar</text>
</a>
</g>
</g>
<!-- Node1&#45;&gt;Node2 -->
<g id="edge2" class="edge">
<title>Node1&#45;&gt;Node2</title>
<path fill="none" stroke="#63b8ff" d="M154.4,-45.12C163.2,-46.17 172.12,-47.24 180.75,-48.27"/>
<polygon fill="#63b8ff" stroke="#63b8ff" points="180.38,-51.75 190.73,-49.46 181.21,-44.8 180.38,-51.75"/>
</g>
<!-- Node4 -->
<g id="node4" class="node">
<title>Node4</title>
<g id="a_node4"><a xlink:href="class_commander.html#a0fab647689fcd4557145386ff585aec1" target="_top" xlink:title="Print the help text to a specified Stream.">
<polygon fill="white" stroke="#666666" points="303,-27.5 190,-27.5 190,-8.5 303,-8.5 303,-27.5"/>
<text text-anchor="middle" x="246.5" y="-15.5" font-family="Helvetica,sans-Serif" font-size="10.00">Commander::printHelp</text>
</a>
</g>
</g>
<!-- Node1&#45;&gt;Node4 -->
<g id="edge4" class="edge">
<title>Node1&#45;&gt;Node4</title>
<path fill="none" stroke="#63b8ff" d="M154.4,-27.79C162.86,-26.88 171.43,-25.96 179.75,-25.07"/>
<polygon fill="#63b8ff" stroke="#63b8ff" points="180.18,-28.54 189.74,-23.99 179.43,-21.58 180.18,-28.54"/>
</g>
<!-- Node3 -->
<g id="node3" class="node">
<title>Node3</title>
<g id="a_node3"><a xlink:href="class_commander.html#a80f04d459243886a6d92bce2a15eea5e" target="_top" xlink:title="Detect if character is in the string.">
<polygon fill="white" stroke="#666666" points="447,-67.5 339,-67.5 339,-48.5 447,-48.5 447,-67.5"/>
<text text-anchor="middle" x="393" y="-55.5" font-family="Helvetica,sans-Serif" font-size="10.00">Commander::inString</text>
</a>
</g>
</g>
<!-- Node2&#45;&gt;Node3 -->
<g id="edge3" class="edge">
<title>Node2&#45;&gt;Node3</title>
<path fill="none" stroke="#63b8ff" d="M302.13,-56.76C310.75,-56.88 319.72,-57 328.52,-57.12"/>
<polygon fill="#63b8ff" stroke="#63b8ff" points="328.68,-60.62 338.73,-57.26 328.78,-53.62 328.68,-60.62"/>
</g>
<!-- Node5 -->
<g id="node5" class="node">
<title>Node5</title>
<g id="a_node5"><a xlink:href="class_commander.html#a8634a1c3c680d0a598fa8b6b5445ca39" target="_top" xlink:title="Find an API element in the tree by alphabetical place.">
<polygon fill="white" stroke="#666666" points="447,-30 339,-30 339,0 447,0 447,-30"/>
<text text-anchor="start" x="347" y="-18" font-family="Helvetica,sans-Serif" font-size="10.00">Commander::find_api</text>
<text text-anchor="middle" x="393" y="-7" font-family="Helvetica,sans-Serif" font-size="10.00">_index_by_place</text>
</a>
</g>
</g>
<!-- Node4&#45;&gt;Node5 -->
<g id="edge5" class="edge">
<title>Node4&#45;&gt;Node5</title>
<path fill="none" stroke="#63b8ff" d="M303.37,-16.84C311.61,-16.67 320.15,-16.49 328.54,-16.32"/>
<polygon fill="#63b8ff" stroke="#63b8ff" points="328.73,-19.81 338.65,-16.11 328.58,-12.82 328.73,-19.81"/>
</g>
</g>
</svg>
