<?xml version="1.0" encoding="UTF-8" standalone="no"?>
<!DOCTYPE svg PUBLIC "-//W3C//DTD SVG 1.1//EN"
 "http://www.w3.org/Graphics/SVG/1.1/DTD/svg11.dtd">
<!-- Generated by graphviz version 5.0.1 (20220820.1526)
 -->
<!-- Title: Commander::getSystemVariable Pages: 1 -->
<svg width="739pt" height="434pt"
 viewBox="0.00 0.00 739.00 434.00" xmlns="http://www.w3.org/2000/svg" xmlns:xlink="http://www.w3.org/1999/xlink">
<g id="graph0" class="graph" transform="scale(1 1) rotate(0) translate(4 430)">
<title>Commander::getSystemVariable</title>
<!-- Node1 -->
<g id="node1" class="node">
<title>Node1</title>
<g id="a_node1"><a xlink:title="Get the instance if a system variable by its name.">
<polygon fill="#999999" stroke="#666666" points="731,-314 573,-314 573,-295 731,-295 731,-314"/>
<text text-anchor="middle" x="652" y="-302" font-family="Helvetica,sans-Serif" font-size="10.00">Commander::getSystemVariable</text>
</a>
</g>
</g>
<!-- Node2 -->
<g id="node2" class="node">
<title>Node2</title>
<g id="a_node2"><a xlink:href="_commander-_a_p_i-_system-_commands_8cpp.html#a5c9542cd570d909676496bb437d824ea" target="_top" xlink:title="Premade function for echo command.">
<polygon fill="white" stroke="#666666" points="320.5,-352 203.5,-352 203.5,-333 320.5,-333 320.5,-352"/>
<text text-anchor="middle" x="262" y="-340" font-family="Helvetica,sans-Serif" font-size="10.00">commander_echo_func</text>
</a>
</g>
</g>
<!-- Node1&#45;&gt;Node2 -->
<g id="edge1" class="edge">
<title>Node1&#45;&gt;Node2</title>
<path fill="none" stroke="#63b8ff" d="M562.6,-308.88C508.11,-312.08 436.87,-317.15 374,-324.5 354.9,-326.73 334.07,-329.91 315.66,-332.98"/>
<polygon fill="#63b8ff" stroke="#63b8ff" points="563.14,-312.35 572.92,-308.29 562.73,-305.37 563.14,-312.35"/>
</g>
<!-- Node3 -->
<g id="node3" class="node">
<title>Node3</title>
<g id="a_node3"><a xlink:href="class_argument.html#a7fab3d983e4a63b93e6f50df82ed6f84" target="_top" xlink:title=" ">
<polygon fill="white" stroke="#666666" points="506,-259 405,-259 405,-240 506,-240 506,-259"/>
<text text-anchor="middle" x="455.5" y="-247" font-family="Helvetica,sans-Serif" font-size="10.00">Argument::findStart</text>
</a>
</g>
</g>
<!-- Node1&#45;&gt;Node3 -->
<g id="edge2" class="edge">
<title>Node1&#45;&gt;Node3</title>
<path fill="none" stroke="#63b8ff" d="M607.07,-292.08C571.69,-282.07 522.69,-268.22 490.32,-259.06"/>
<polygon fill="#63b8ff" stroke="#63b8ff" points="606.55,-295.57 617.12,-294.92 608.45,-288.83 606.55,-295.57"/>
</g>
<!-- Node19 -->
<g id="node19" class="node">
<title>Node19</title>
<g id="a_node19"><a xlink:href="class_commander.html#af9ef97a7482a31282c53fd98062a940c" target="_top" xlink:title="Print the value of a system variable.">
<polygon fill="white" stroke="#666666" points="537,-352 374,-352 374,-333 537,-333 537,-352"/>
<text text-anchor="middle" x="455.5" y="-340" font-family="Helvetica,sans-Serif" font-size="10.00">Commander::printSystemVariable</text>
</a>
</g>
</g>
<!-- Node1&#45;&gt;Node19 -->
<g id="edge22" class="edge">
<title>Node1&#45;&gt;Node19</title>
<path fill="none" stroke="#63b8ff" d="M592.19,-315.99C564.44,-321.41 531.71,-327.81 505.35,-332.96"/>
<polygon fill="#63b8ff" stroke="#63b8ff" points="593.03,-319.39 602.17,-314.04 591.68,-312.52 593.03,-319.39"/>
</g>
<!-- Node4 -->
<g id="node4" class="node">
<title>Node4</title>
<g id="a_node4"><a xlink:href="class_argument.html#a2258f3363dbb1d462286a41d4ab3b8ad" target="_top" xlink:title=" ">
<polygon fill="white" stroke="#666666" points="317,-315 207,-315 207,-296 317,-296 317,-315"/>
<text text-anchor="middle" x="262" y="-303" font-family="Helvetica,sans-Serif" font-size="10.00">Argument::parseFloat</text>
</a>
</g>
</g>
<!-- Node3&#45;&gt;Node4 -->
<g id="edge3" class="edge">
<title>Node3&#45;&gt;Node4</title>
<path fill="none" stroke="#63b8ff" d="M411.6,-262.04C376.45,-272.32 327.46,-286.65 295.49,-296"/>
<polygon fill="#63b8ff" stroke="#63b8ff" points="412.96,-265.29 421.58,-259.13 411,-258.57 412.96,-265.29"/>
</g>
<!-- Node10 -->
<g id="node10" class="node">
<title>Node10</title>
<g id="a_node10"><a xlink:href="class_argument.html#aeabd957dda6add595aa860761ea337f1" target="_top" xlink:title=" ">
<polygon fill="white" stroke="#666666" points="311.5,-241 212.5,-241 212.5,-222 311.5,-222 311.5,-241"/>
<text text-anchor="middle" x="262" y="-229" font-family="Helvetica,sans-Serif" font-size="10.00">Argument::parseInt</text>
</a>
</g>
</g>
<!-- Node3&#45;&gt;Node10 -->
<g id="edge9" class="edge">
<title>Node3&#45;&gt;Node10</title>
<path fill="none" stroke="#63b8ff" d="M394.67,-243.88C367.94,-241.36 336.84,-238.44 311.57,-236.07"/>
<polygon fill="#63b8ff" stroke="#63b8ff" points="394.4,-247.37 404.69,-244.82 395.06,-240.4 394.4,-247.37"/>
</g>
<!-- Node18 -->
<g id="node18" class="node">
<title>Node18</title>
<g id="a_node18"><a xlink:href="class_argument.html#a91aa4b22990c4532a437afb1ed58acf4" target="_top" xlink:title=" ">
<polygon fill="white" stroke="#666666" points="338,-204 186,-204 186,-185 338,-185 338,-204"/>
<text text-anchor="middle" x="262" y="-192" font-family="Helvetica,sans-Serif" font-size="10.00">Argument::parseStringFunction</text>
</a>
</g>
</g>
<!-- Node3&#45;&gt;Node18 -->
<g id="edge21" class="edge">
<title>Node3&#45;&gt;Node18</title>
<path fill="none" stroke="#63b8ff" d="M415.38,-236.86C392.84,-229.71 363.92,-220.78 338,-213.5 326.49,-210.27 313.92,-206.98 302.42,-204.08"/>
<polygon fill="#63b8ff" stroke="#63b8ff" points="414.35,-240.2 424.94,-239.9 416.47,-233.53 414.35,-240.2"/>
</g>
<!-- Node5 -->
<g id="node5" class="node">
<title>Node5</title>
<g id="a_node5"><a xlink:href="_commander-_a_p_i-_math-_commands_8cpp.html#ae7d6fa81c7ec3354378b1f948c0c8749" target="_top" xlink:title="Premade function for abs command.">
<polygon fill="white" stroke="#666666" points="131,-315 19,-315 19,-296 131,-296 131,-315"/>
<text text-anchor="middle" x="75" y="-303" font-family="Helvetica,sans-Serif" font-size="10.00">commander_abs_func</text>
</a>
</g>
</g>
<!-- Node4&#45;&gt;Node5 -->
<g id="edge4" class="edge">
<title>Node4&#45;&gt;Node5</title>
<path fill="none" stroke="#63b8ff" d="M196.98,-305.5C175.51,-305.5 151.76,-305.5 131.04,-305.5"/>
<polygon fill="#63b8ff" stroke="#63b8ff" points="196.99,-309 206.99,-305.5 196.99,-302 196.99,-309"/>
</g>
<!-- Node6 -->
<g id="node6" class="node">
<title>Node6</title>
<g id="a_node6"><a xlink:href="_commander-_a_p_i-_math-_commands_8cpp.html#abfe392815068d05be5e099def983b5ec" target="_top" xlink:title="Premade function for cos command.">
<polygon fill="white" stroke="#666666" points="131,-278 19,-278 19,-259 131,-259 131,-278"/>
<text text-anchor="middle" x="75" y="-266" font-family="Helvetica,sans-Serif" font-size="10.00">commander_cos_func</text>
</a>
</g>
</g>
<!-- Node4&#45;&gt;Node6 -->
<g id="edge5" class="edge">
<title>Node4&#45;&gt;Node6</title>
<path fill="none" stroke="#63b8ff" d="M203.42,-293.98C177.85,-288.87 148.12,-282.92 123.8,-278.06"/>
<polygon fill="#63b8ff" stroke="#63b8ff" points="202.87,-297.44 213.36,-295.97 204.24,-290.58 202.87,-297.44"/>
</g>
<!-- Node7 -->
<g id="node7" class="node">
<title>Node7</title>
<g id="a_node7"><a xlink:href="_commander-_a_p_i-_system-_commands_8cpp.html#af867379096ae63ff42938a15749f2bd4" target="_top" xlink:title="Premade function for not command.">
<polygon fill="white" stroke="#666666" points="136.5,-426 13.5,-426 13.5,-407 136.5,-407 136.5,-426"/>
<text text-anchor="middle" x="75" y="-414" font-family="Helvetica,sans-Serif" font-size="10.00">commander_export_func</text>
</a>
</g>
</g>
<!-- Node4&#45;&gt;Node7 -->
<g id="edge6" class="edge">
<title>Node4&#45;&gt;Node7</title>
<path fill="none" stroke="#63b8ff" d="M197.44,-317.17C193.36,-319.23 189.49,-321.66 186,-324.5 157.63,-347.58 178.48,-375.55 150,-398.5 145.78,-401.9 141.01,-404.68 135.98,-406.93"/>
<polygon fill="#63b8ff" stroke="#63b8ff" points="198.85,-320.37 206.65,-313.19 196.08,-313.94 198.85,-320.37"/>
</g>
<!-- Node8 -->
<g id="node8" class="node">
<title>Node8</title>
<g id="a_node8"><a xlink:href="_commander-_a_p_i-_system-_commands_8cpp.html#a67c664cbc5869ccf57996adeecbb6cd9" target="_top" xlink:title="Premade function for not command.">
<polygon fill="white" stroke="#666666" points="150,-389 0,-389 0,-370 150,-370 150,-389"/>
<text text-anchor="middle" x="75" y="-377" font-family="Helvetica,sans-Serif" font-size="10.00">commander_exportTarget_func</text>
</a>
</g>
</g>
<!-- Node4&#45;&gt;Node8 -->
<g id="edge7" class="edge">
<title>Node4&#45;&gt;Node8</title>
<path fill="none" stroke="#63b8ff" d="M198.36,-318.51C194.07,-320.26 189.9,-322.25 186,-324.5 166.13,-335.97 169.92,-350.12 150,-361.5 144.03,-364.91 137.43,-367.68 130.71,-369.92"/>
<polygon fill="#63b8ff" stroke="#63b8ff" points="199.72,-321.74 207.91,-315.03 197.32,-315.16 199.72,-321.74"/>
</g>
<!-- Node9 -->
<g id="node9" class="node">
<title>Node9</title>
<g id="a_node9"><a xlink:href="_commander-_a_p_i-_math-_commands_8cpp.html#a1113369ca4b669dc0c6355fcf126cc42" target="_top" xlink:title="Premade function for sin command.">
<polygon fill="white" stroke="#666666" points="129.5,-352 20.5,-352 20.5,-333 129.5,-333 129.5,-352"/>
<text text-anchor="middle" x="75" y="-340" font-family="Helvetica,sans-Serif" font-size="10.00">commander_sin_func</text>
</a>
</g>
</g>
<!-- Node4&#45;&gt;Node9 -->
<g id="edge8" class="edge">
<title>Node4&#45;&gt;Node9</title>
<path fill="none" stroke="#63b8ff" d="M203.42,-317.02C177.85,-322.13 148.12,-328.08 123.8,-332.94"/>
<polygon fill="#63b8ff" stroke="#63b8ff" points="204.24,-320.42 213.36,-315.03 202.87,-313.56 204.24,-320.42"/>
</g>
<!-- Node10&#45;&gt;Node5 -->
<g id="edge10" class="edge">
<title>Node10&#45;&gt;Node5</title>
<path fill="none" stroke="#63b8ff" d="M236.28,-246.04C214.26,-258.49 180.84,-276.14 150,-287.5 141.19,-290.74 131.58,-293.57 122.28,-295.97"/>
<polygon fill="#63b8ff" stroke="#63b8ff" points="238.04,-249.07 244.98,-241.06 234.56,-242.99 238.04,-249.07"/>
</g>
<!-- Node10&#45;&gt;Node6 -->
<g id="edge13" class="edge">
<title>Node10&#45;&gt;Node6</title>
<path fill="none" stroke="#63b8ff" d="M203.42,-243.02C177.85,-248.13 148.12,-254.08 123.8,-258.94"/>
<polygon fill="#63b8ff" stroke="#63b8ff" points="204.24,-246.42 213.36,-241.03 202.87,-239.56 204.24,-246.42"/>
</g>
<!-- Node10&#45;&gt;Node8 -->
<g id="edge16" class="edge">
<title>Node10&#45;&gt;Node8</title>
<path fill="none" stroke="#63b8ff" d="M234.91,-246.54C219.21,-256.58 199.68,-270.96 186,-287.5 162.69,-315.68 178.48,-338.55 150,-361.5 145.78,-364.9 141.01,-367.68 135.98,-369.93"/>
<polygon fill="#63b8ff" stroke="#63b8ff" points="236.97,-249.38 243.64,-241.14 233.29,-243.42 236.97,-249.38"/>
</g>
<!-- Node10&#45;&gt;Node9 -->
<g id="edge20" class="edge">
<title>Node10&#45;&gt;Node9</title>
<path fill="none" stroke="#63b8ff" d="M238.33,-247.01C223.06,-257.79 202.75,-272.81 186,-287.5 168.75,-302.63 169.92,-313.12 150,-324.5 143.69,-328.11 136.67,-330.99 129.54,-333.3"/>
<polygon fill="#63b8ff" stroke="#63b8ff" points="240.47,-249.78 246.66,-241.19 236.46,-244.04 240.47,-249.78"/>
</g>
<!-- Node11 -->
<g id="node11" class="node">
<title>Node11</title>
<g id="a_node11"><a xlink:href="_commander-_a_p_i-_analog-_i_o-_commands_8cpp.html#a22f364acaf405f853e1ff3787c35b53e" target="_top" xlink:title="Premade function for analogRead command.">
<polygon fill="white" stroke="#666666" points="148.5,-130 1.5,-130 1.5,-111 148.5,-111 148.5,-130"/>
<text text-anchor="middle" x="75" y="-118" font-family="Helvetica,sans-Serif" font-size="10.00">commander_analogRead_func</text>
</a>
</g>
</g>
<!-- Node10&#45;&gt;Node11 -->
<g id="edge11" class="edge">
<title>Node10&#45;&gt;Node11</title>
<path fill="none" stroke="#63b8ff" d="M202.79,-223.15C196.74,-220.68 190.99,-217.53 186,-213.5 157.24,-190.27 178.73,-161.78 150,-138.5 145.79,-135.09 141.03,-132.31 136,-130.04"/>
<polygon fill="#63b8ff" stroke="#63b8ff" points="201.88,-226.53 212.48,-226.47 204.15,-219.91 201.88,-226.53"/>
</g>
<!-- Node12 -->
<g id="node12" class="node">
<title>Node12</title>
<g id="a_node12"><a xlink:href="_commander-_a_p_i-_analog-_i_o-_commands_8cpp.html#a0bb64a637cbaa4134e0cc9d1a7453ecf" target="_top" xlink:title="Premade function for analogRead command.">
<polygon fill="white" stroke="#666666" points="149,-93 1,-93 1,-74 149,-74 149,-93"/>
<text text-anchor="middle" x="75" y="-81" font-family="Helvetica,sans-Serif" font-size="10.00">commander_analogWrite_func</text>
</a>
</g>
</g>
<!-- Node10&#45;&gt;Node12 -->
<g id="edge12" class="edge">
<title>Node10&#45;&gt;Node12</title>
<path fill="none" stroke="#63b8ff" d="M202.47,-223.91C196.43,-221.31 190.77,-217.92 186,-213.5 147.66,-177.95 188.29,-137.11 150,-101.5 146.42,-98.17 142.33,-95.42 137.94,-93.17"/>
<polygon fill="#63b8ff" stroke="#63b8ff" points="201.6,-227.31 212.19,-227.36 203.94,-220.72 201.6,-227.31"/>
</g>
<!-- Node13 -->
<g id="node13" class="node">
<title>Node13</title>
<g id="a_node13"><a xlink:href="_commander-_a_p_i-_digital-_i_o-_commands_8cpp.html#a488c98390245a3d0d7172f364ec91ed8" target="_top" xlink:title="Premade function for digitalRead command.">
<polygon fill="white" stroke="#666666" points="147,-56 3,-56 3,-37 147,-37 147,-56"/>
<text text-anchor="middle" x="75" y="-44" font-family="Helvetica,sans-Serif" font-size="10.00">commander_digitalRead_func</text>
</a>
</g>
</g>
<!-- Node10&#45;&gt;Node13 -->
<g id="edge14" class="edge">
<title>Node10&#45;&gt;Node13</title>
<path fill="none" stroke="#63b8ff" d="M202.38,-224.36C196.31,-221.69 190.66,-218.16 186,-213.5 137.79,-165.36 198.14,-112.71 150,-64.5 146.64,-61.13 142.76,-58.35 138.57,-56.07"/>
<polygon fill="#63b8ff" stroke="#63b8ff" points="201.6,-227.79 212.2,-227.87 203.96,-221.2 201.6,-227.79"/>
</g>
<!-- Node14 -->
<g id="node14" class="node">
<title>Node14</title>
<g id="a_node14"><a xlink:href="_commander-_a_p_i-_digital-_i_o-_commands_8cpp.html#af309a2eb04319e75d4cc91e93894846e" target="_top" xlink:title="Premade function for digitalWrite command.">
<polygon fill="white" stroke="#666666" points="147.5,-19 2.5,-19 2.5,0 147.5,0 147.5,-19"/>
<text text-anchor="middle" x="75" y="-7" font-family="Helvetica,sans-Serif" font-size="10.00">commander_digitalWrite_func</text>
</a>
</g>
</g>
<!-- Node10&#45;&gt;Node14 -->
<g id="edge15" class="edge">
<title>Node10&#45;&gt;Node14</title>
<path fill="none" stroke="#63b8ff" d="M202.85,-224.86C196.55,-222.13 190.73,-218.44 186,-213.5 127.8,-152.66 208.11,-88.43 150,-27.5 146.81,-24.15 143.1,-21.38 139.09,-19.1"/>
<polygon fill="#63b8ff" stroke="#63b8ff" points="201.74,-228.18 212.34,-228.22 204.08,-221.59 201.74,-228.18"/>
</g>
<!-- Node15 -->
<g id="node15" class="node">
<title>Node15</title>
<g id="a_node15"><a xlink:href="_commander-_a_p_i-_math-_commands_8cpp.html#aa0fa51a20a9af63d3f7e85012e533a7c" target="_top" xlink:title="Premade function for not command.">
<polygon fill="white" stroke="#666666" points="130,-241 20,-241 20,-222 130,-222 130,-241"/>
<text text-anchor="middle" x="75" y="-229" font-family="Helvetica,sans-Serif" font-size="10.00">commander_not_func</text>
</a>
</g>
</g>
<!-- Node10&#45;&gt;Node15 -->
<g id="edge17" class="edge">
<title>Node10&#45;&gt;Node15</title>
<path fill="none" stroke="#63b8ff" d="M202.36,-231.5C179.23,-231.5 152.82,-231.5 130.15,-231.5"/>
<polygon fill="#63b8ff" stroke="#63b8ff" points="202.39,-235 212.39,-231.5 202.39,-228 202.39,-235"/>
</g>
<!-- Node16 -->
<g id="node16" class="node">
<title>Node16</title>
<g id="a_node16"><a xlink:href="_commander-_a_p_i-_digital-_i_o-_commands_8cpp.html#a2246eb22ddae467d2e4c311b95b1ca9f" target="_top" xlink:title="Premade function for pinMode command.">
<polygon fill="white" stroke="#666666" points="141.5,-204 8.5,-204 8.5,-185 141.5,-185 141.5,-204"/>
<text text-anchor="middle" x="75" y="-192" font-family="Helvetica,sans-Serif" font-size="10.00">commander_pinMode_func</text>
</a>
</g>
</g>
<!-- Node10&#45;&gt;Node16 -->
<g id="edge18" class="edge">
<title>Node10&#45;&gt;Node16</title>
<path fill="none" stroke="#63b8ff" d="M203.42,-219.98C177.85,-214.87 148.12,-208.92 123.8,-204.06"/>
<polygon fill="#63b8ff" stroke="#63b8ff" points="202.87,-223.44 213.36,-221.97 204.24,-216.58 202.87,-223.44"/>
</g>
<!-- Node17 -->
<g id="node17" class="node">
<title>Node17</title>
<g id="a_node17"><a xlink:href="_commander-_a_p_i-_math-_commands_8cpp.html#aedeb7c7e023d071ecf07a9d6c64679d4" target="_top" xlink:title="Premade function for random command.">
<polygon fill="white" stroke="#666666" points="139,-167 11,-167 11,-148 139,-148 139,-167"/>
<text text-anchor="middle" x="75" y="-155" font-family="Helvetica,sans-Serif" font-size="10.00">commander_random_func</text>
</a>
</g>
</g>
<!-- Node10&#45;&gt;Node17 -->
<g id="edge19" class="edge">
<title>Node10&#45;&gt;Node17</title>
<path fill="none" stroke="#63b8ff" d="M202.5,-220.94C196.75,-218.88 191.14,-216.43 186,-213.5 166.06,-202.15 169.85,-188 150,-176.5 143.34,-172.64 135.91,-169.56 128.38,-167.09"/>
<polygon fill="#63b8ff" stroke="#63b8ff" points="201.67,-224.35 212.26,-224.03 203.79,-217.67 201.67,-224.35"/>
</g>
<!-- Node19&#45;&gt;Node2 -->
<g id="edge23" class="edge">
<title>Node19&#45;&gt;Node2</title>
<path fill="none" stroke="#63b8ff" d="M363.72,-342.5C349.04,-342.5 334.2,-342.5 320.6,-342.5"/>
<polygon fill="#63b8ff" stroke="#63b8ff" points="363.84,-346 373.84,-342.5 363.84,-339 363.84,-346"/>
</g>
</g>
</svg>
