<?xml version="1.0" encoding="UTF-8" standalone="no"?>
<!DOCTYPE svg PUBLIC "-//W3C//DTD SVG 1.1//EN"
 "http://www.w3.org/Graphics/SVG/1.1/DTD/svg11.dtd">
<!-- Generated by graphviz version 5.0.1 (20220820.1526)
 -->
<!-- Title: Commander::hasChar Pages: 1 -->
<!--zoomable 140 -->
<svg id="main" version="1.1" xmlns="http://www.w3.org/2000/svg" xmlns:xlink="http://www.w3.org/1999/xlink" xml:space="preserve" onload="init(evt)">
<style type="text/css"><![CDATA[
.edge:hover path { stroke: red; }
.edge:hover polygon { stroke: red; fill: red; }
]]></style>
<script type="text/javascript"><![CDATA[
var edges = document.getElementsByTagName('g');
if (edges && edges.length) {
  for (var i=0;i<edges.length;i++) {
    if (edges[i].id.substr(0,4)=='edge') {
      edges[i].setAttribute('class','edge');
    }
  }
}
]]></script>
        <defs>
                <circle id="rim" cx="0" cy="0" r="7"/>
                <circle id="rim2" cx="0" cy="0" r="3.5"/>
                <g id="zoomPlus">
                        <use xlink:href="#rim" fill="#404040">
                                <set attributeName="fill" to="#808080" begin="zoomplus.mouseover" end="zoomplus.mouseout"/>
                        </use>
                        <path d="M-4,0h8M0,-4v8" fill="none" stroke="white" stroke-width="1.5" pointer-events="none"/>
                </g>
                <g id="zoomMin">
                        <use xlink:href="#rim" fill="#404040">
                                <set attributeName="fill" to="#808080" begin="zoomminus.mouseover" end="zoomminus.mouseout"/>
                        </use>
                        <path d="M-4,0h8" fill="none" stroke="white" stroke-width="1.5" pointer-events="none"/>
                </g>
                <g id="dirArrow">
                        <path fill="none" stroke="white" stroke-width="1.5" d="M0,-3.0v7 M-2.5,-0.5L0,-3.0L2.5,-0.5"/>
                </g>
               <g id="resetDef">
                       <use xlink:href="#rim2" fill="#404040">
                               <set attributeName="fill" to="#808080" begin="reset.mouseover" end="reset.mouseout"/>
                       </use>
               </g>
        </defs>

<script type="text/javascript">
var viewWidth = 775;
var viewHeight = 140;
var sectionId = 'dynsection-11';
</script>
<script xlink:href="svgpan.js"/>
<svg id="graph" class="graph">
<g id="viewport">
<title>Commander::hasChar</title>
<!-- Node1 -->
<g id="node1" class="node">
<title>Node1</title>
<g id="a_node1"><a xlink:title="Search for a character in a string.">
<polygon fill="#999999" stroke="#666666" points="767,-74 656,-74 656,-55 767,-55 767,-74"/>
<text text-anchor="middle" x="711.5" y="-62" font-family="Helvetica,sans-Serif" font-size="10.00">Commander::hasChar</text>
</a>
</g>
</g>
<!-- Node2 -->
<g id="node2" class="node">
<title>Node2</title>
<g id="a_node2"><a xlink:href="class_commander.html#a727e0665319b4d3451ee8d3672b967b6" target="_top" xlink:title="Command execution.">
<polygon fill="white" stroke="#666666" points="440,-84 286,-84 286,-65 440,-65 440,-84"/>
<text text-anchor="middle" x="363" y="-72" font-family="Helvetica,sans-Serif" font-size="10.00">Commander::executeCommand</text>
</a>
</g>
</g>
<!-- Node1&#45;&gt;Node2 -->
<g id="edge1" class="edge">
<title>Node1&#45;&gt;Node2</title>
<path fill="none" stroke="#63b8ff" d="M691.35,-80.8C674,-94.41 647.09,-112.8 620,-120.5 558.44,-138.01 538.79,-132.89 476,-120.5 440.74,-113.54 402.61,-95.35 381.18,-84.04"/>
<polygon fill="#63b8ff" stroke="#63b8ff" points="693.93,-83.21 699.5,-74.2 689.52,-77.77 693.93,-83.21"/>
</g>
<!-- Node5 -->
<g id="node5" class="node">
<title>Node5</title>
<g id="a_node5"><a xlink:href="class_commander.html#aac68f68e3998310826cabd5eb86df4b1" target="_top" xlink:title=" ">
<polygon fill="white" stroke="#666666" points="613,-93 483,-93 483,-74 613,-74 613,-93"/>
<text text-anchor="middle" x="548" y="-81" font-family="Helvetica,sans-Serif" font-size="10.00">Commander::generateHint</text>
</a>
</g>
</g>
<!-- Node1&#45;&gt;Node5 -->
<g id="edge5" class="edge">
<title>Node1&#45;&gt;Node5</title>
<path fill="none" stroke="#63b8ff" d="M645.68,-72.13C634.94,-73.39 623.82,-74.7 613.1,-75.96"/>
<polygon fill="#63b8ff" stroke="#63b8ff" points="646.3,-75.58 655.82,-70.93 645.48,-68.63 646.3,-75.58"/>
</g>
<!-- Node6 -->
<g id="node6" class="node">
<title>Node6</title>
<g id="a_node6"><a xlink:href="class_commander.html#a9e0bfd97d3b0a5527d71d0e6b18ccc22" target="_top" xlink:title="Search for a character in a string.">
<polygon fill="white" stroke="#666666" points="603.5,-56 492.5,-56 492.5,-37 603.5,-37 603.5,-56"/>
<text text-anchor="middle" x="548" y="-44" font-family="Helvetica,sans-Serif" font-size="10.00">Commander::hasChar</text>
</a>
</g>
</g>
<!-- Node1&#45;&gt;Node6 -->
<g id="edge7" class="edge">
<title>Node1&#45;&gt;Node6</title>
<path fill="none" stroke="#63b8ff" d="M645.79,-57.29C631.81,-55.73 617.17,-54.1 603.62,-52.59"/>
<polygon fill="#63b8ff" stroke="#63b8ff" points="645.5,-60.78 655.82,-58.41 646.27,-53.82 645.5,-60.78"/>
</g>
<!-- Node7 -->
<g id="node7" class="node">
<title>Node7</title>
<g id="a_node7"><a xlink:href="class_commander.html#a8e3aa8dbcd4486f1bcaafe49e0cb0fac" target="_top" xlink:title=" ">
<polygon fill="white" stroke="#666666" points="620,-19 476,-19 476,0 620,0 620,-19"/>
<text text-anchor="middle" x="548" y="-7" font-family="Helvetica,sans-Serif" font-size="10.00">Commander::printBrokenPipe</text>
</a>
</g>
</g>
<!-- Node1&#45;&gt;Node7 -->
<g id="edge8" class="edge">
<title>Node1&#45;&gt;Node7</title>
<path fill="none" stroke="#63b8ff" d="M678.89,-50.87C661.66,-43.71 639.86,-35.08 620,-28.5 609.7,-25.09 598.42,-21.85 587.93,-19.04"/>
<polygon fill="#63b8ff" stroke="#63b8ff" points="677.88,-54.24 688.45,-54.89 680.59,-47.79 677.88,-54.24"/>
</g>
<!-- Node2&#45;&gt;Node2 -->
<g id="edge4" class="edge">
<title>Node2&#45;&gt;Node2</title>
<path fill="none" stroke="#63b8ff" d="M394.44,-92.45C393.54,-97.82 383.06,-102 363,-102 333.14,-102 324.51,-92.73 337.11,-84.08"/>
<polygon fill="#63b8ff" stroke="#63b8ff" points="397.34,-90.49 388.89,-84.08 391.5,-94.35 397.34,-90.49"/>
</g>
<!-- Node3 -->
<g id="node3" class="node">
<title>Node3</title>
<g id="a_node3"><a xlink:href="class_commander.html#a847b09150ab48c2bd2e4d8dbf9c5f72b" target="_top" xlink:title="Execution function for Stream response.">
<polygon fill="white" stroke="#666666" points="250,-84 140,-84 140,-65 250,-65 250,-84"/>
<text text-anchor="middle" x="195" y="-72" font-family="Helvetica,sans-Serif" font-size="10.00">Commander::execute</text>
</a>
</g>
</g>
<!-- Node2&#45;&gt;Node3 -->
<g id="edge2" class="edge">
<title>Node2&#45;&gt;Node3</title>
<path fill="none" stroke="#63b8ff" d="M275.71,-74.5C267.12,-74.5 258.57,-74.5 250.43,-74.5"/>
<polygon fill="#63b8ff" stroke="#63b8ff" points="275.8,-78 285.8,-74.5 275.8,-71 275.8,-78"/>
</g>
<!-- Node4 -->
<g id="node4" class="node">
<title>Node4</title>
<g id="a_node4"><a xlink:href="class_commander.html#a566db8c9ab5fc802e30e9204873c894b" target="_top" xlink:title="Create a very very simple command lime.">
<polygon fill="white" stroke="#666666" points="104,-84 0,-84 0,-65 104,-65 104,-84"/>
<text text-anchor="middle" x="52" y="-72" font-family="Helvetica,sans-Serif" font-size="10.00">Commander::update</text>
</a>
</g>
</g>
<!-- Node3&#45;&gt;Node4 -->
<g id="edge3" class="edge">
<title>Node3&#45;&gt;Node4</title>
<path fill="none" stroke="#63b8ff" d="M129.66,-74.5C121.2,-74.5 112.62,-74.5 104.42,-74.5"/>
<polygon fill="#63b8ff" stroke="#63b8ff" points="129.89,-78 139.89,-74.5 129.89,-71 129.89,-78"/>
</g>
<!-- Node5&#45;&gt;Node5 -->
<g id="edge6" class="edge">
<title>Node5&#45;&gt;Node5</title>
<path fill="none" stroke="#63b8ff" d="M578.24,-101.82C576.98,-107.01 566.9,-111 548,-111 519.21,-111 510.88,-101.73 523.03,-93.08"/>
<polygon fill="#63b8ff" stroke="#63b8ff" points="581.13,-99.84 572.97,-93.08 575.14,-103.45 581.13,-99.84"/>
</g>
<!-- Node7&#45;&gt;Node2 -->
<g id="edge9" class="edge">
<title>Node7&#45;&gt;Node2</title>
<path fill="none" stroke="#63b8ff" d="M498.02,-21.72C490.6,-23.83 483.06,-26.12 476,-28.5 443.74,-39.39 407.46,-54.92 385.16,-64.85"/>
<polygon fill="#63b8ff" stroke="#63b8ff" points="498.96,-25.1 507.67,-19.06 497.1,-18.35 498.96,-25.1"/>
</g>
</g>
</svg>
        <g id="navigator" transform="translate(0 0)" fill="#404254">
                <rect fill="#f2f5e9" fill-opacity="0.5" stroke="#606060" stroke-width=".5" x="0" y="0" width="60" height="60"/>
                <use id="zoomplus" xlink:href="#zoomPlus" x="17" y="9" onmousedown="handleZoom(evt,'in')"/>
                <use id="zoomminus" xlink:href="#zoomMin" x="42" y="9" onmousedown="handleZoom(evt,'out')"/>
                <use id="reset" xlink:href="#resetDef" x="30" y="36" onmousedown="handleReset()"/>
                <g id="arrowUp" xlink:href="#dirArrow" transform="translate(30 24)" onmousedown="handlePan(0,-1)">
                  <use xlink:href="#rim" fill="#404040">
                        <set attributeName="fill" to="#808080" begin="arrowUp.mouseover" end="arrowUp.mouseout"/>
                  </use>
                  <path fill="none" stroke="white" stroke-width="1.5" d="M0,-3.0v7 M-2.5,-0.5L0,-3.0L2.5,-0.5"/>
                </g>
                <g id="arrowRight" xlink:href="#dirArrow" transform="rotate(90) translate(36 -43)" onmousedown="handlePan(1,0)">
                  <use xlink:href="#rim" fill="#404040">
                        <set attributeName="fill" to="#808080" begin="arrowRight.mouseover" end="arrowRight.mouseout"/>
                  </use>
                  <path fill="none" stroke="white" stroke-width="1.5" d="M0,-3.0v7 M-2.5,-0.5L0,-3.0L2.5,-0.5"/>
                </g>
                <g id="arrowDown" xlink:href="#dirArrow" transform="rotate(180) translate(-30 -48)" onmousedown="handlePan(0,1)">
                  <use xlink:href="#rim" fill="#404040">
                        <set attributeName="fill" to="#808080" begin="arrowDown.mouseover" end="arrowDown.mouseout"/>
                  </use>
                  <path fill="none" stroke="white" stroke-width="1.5" d="M0,-3.0v7 M-2.5,-0.5L0,-3.0L2.5,-0.5"/>
                </g>
                <g id="arrowLeft" xlink:href="#dirArrow" transform="rotate(270) translate(-36 17)" onmousedown="handlePan(-1,0)">
                  <use xlink:href="#rim" fill="#404040">
                        <set attributeName="fill" to="#808080" begin="arrowLeft.mouseover" end="arrowLeft.mouseout"/>
                  </use>
                  <path fill="none" stroke="white" stroke-width="1.5" d="M0,-3.0v7 M-2.5,-0.5L0,-3.0L2.5,-0.5"/>
                </g>
        </g>
        <svg viewBox="0 0 15 15" width="100%" height="30px" preserveAspectRatio="xMaxYMin meet">
         <g id="arrow_out" transform="scale(0.3 0.3)">
          <a xlink:href="class_commander_a9b8d9afbf4e766034a2161109387c7ff_icgraph_org.svg" target="_base">
           <rect id="button" ry="5" rx="5" y="6" x="6" height="38" width="38"
                fill="#f2f5e9" fill-opacity="0.5" stroke="#606060" stroke-width="1.0"/>
           <path id="arrow"
             d="M 11.500037,31.436501 C 11.940474,20.09759 22.043105,11.32322 32.158766,21.979434 L 37.068811,17.246167 C 37.068811,17.246167 37.088388,32 37.088388,32 L 22.160133,31.978069 C 22.160133,31.978069 26.997745,27.140456 26.997745,27.140456 C 18.528582,18.264221 13.291696,25.230495 11.500037,31.436501 z"
             style="fill:#404040;"/>
          </a>
         </g>
        </svg>
</svg>
