<?xml version="1.0" encoding="UTF-8" standalone="no"?>
<!DOCTYPE svg PUBLIC "-//W3C//DTD SVG 1.1//EN"
 "http://www.w3.org/Graphics/SVG/1.1/DTD/svg11.dtd">
<!-- Generated by graphviz version 5.0.1 (20220820.1526)
 -->
<!-- Title: Commander::update Pages: 1 -->
<svg width="741pt" height="64pt"
 viewBox="0.00 0.00 741.00 64.00" xmlns="http://www.w3.org/2000/svg" xmlns:xlink="http://www.w3.org/1999/xlink">
<g id="graph0" class="graph" transform="scale(1 1) rotate(0) translate(4 60)">
<title>Commander::update</title>
<!-- Node1 -->
<g id="node1" class="node">
<title>Node1</title>
<g id="a_node1"><a xlink:title="Create a very very simple command lime.">
<polygon fill="#999999" stroke="#666666" points="104,-37 0,-37 0,-18 104,-18 104,-37"/>
<text text-anchor="middle" x="52" y="-25" font-family="Helvetica,sans-Serif" font-size="10.00">Commander::update</text>
</a>
</g>
</g>
<!-- Node2 -->
<g id="node2" class="node">
<title>Node2</title>
<g id="a_node2"><a xlink:href="class_commander.html#a98c1328d154110366210326ada901d4e" target="_top" xlink:title="Default execution function.">
<polygon fill="white" stroke="#666666" points="250,-37 140,-37 140,-18 250,-18 250,-37"/>
<text text-anchor="middle" x="195" y="-25" font-family="Helvetica,sans-Serif" font-size="10.00">Commander::execute</text>
</a>
</g>
</g>
<!-- Node1&#45;&gt;Node2 -->
<g id="edge1" class="edge">
<title>Node1&#45;&gt;Node2</title>
<path fill="none" stroke="#63b8ff" d="M104.3,-27.5C112.48,-27.5 121.02,-27.5 129.45,-27.5"/>
<polygon fill="#63b8ff" stroke="#63b8ff" points="129.65,-31 139.65,-27.5 129.65,-24 129.65,-31"/>
</g>
<!-- Node3 -->
<g id="node3" class="node">
<title>Node3</title>
<g id="a_node3"><a xlink:href="class_commander.html#a6db6d6ae40bbd49ca3036115b820813d" target="_top" xlink:title="Command execution.">
<polygon fill="white" stroke="#666666" points="440,-37 286,-37 286,-18 440,-18 440,-37"/>
<text text-anchor="middle" x="363" y="-25" font-family="Helvetica,sans-Serif" font-size="10.00">Commander::executeCommand</text>
</a>
</g>
</g>
<!-- Node2&#45;&gt;Node3 -->
<g id="edge2" class="edge">
<title>Node2&#45;&gt;Node3</title>
<path fill="none" stroke="#63b8ff" d="M250.35,-27.5C258.51,-27.5 267.09,-27.5 275.71,-27.5"/>
<polygon fill="#63b8ff" stroke="#63b8ff" points="275.83,-31 285.83,-27.5 275.83,-24 275.83,-31"/>
</g>
<!-- Node3&#45;&gt;Node3 -->
<g id="edge3" class="edge">
<title>Node3&#45;&gt;Node3</title>
<path fill="none" stroke="#63b8ff" d="M337.11,-37.08C324.51,-45.73 333.14,-55 363,-55 383.06,-55 393.54,-50.82 394.44,-45.45"/>
<polygon fill="#63b8ff" stroke="#63b8ff" points="397.34,-43.49 388.89,-37.08 391.5,-47.35 397.34,-43.49"/>
</g>
<!-- Node4 -->
<g id="node4" class="node">
<title>Node4</title>
<g id="a_node4"><a xlink:href="class_commander.html#a9b8d9afbf4e766034a2161109387c7ff" target="_top" xlink:title="Search for a character in a string.">
<polygon fill="white" stroke="#666666" points="588,-56 477,-56 477,-37 588,-37 588,-56"/>
<text text-anchor="middle" x="532.5" y="-44" font-family="Helvetica,sans-Serif" font-size="10.00">Commander::hasChar</text>
</a>
</g>
</g>
<!-- Node3&#45;&gt;Node4 -->
<g id="edge4" class="edge">
<title>Node3&#45;&gt;Node4</title>
<path fill="none" stroke="#63b8ff" d="M440.4,-36.17C449.2,-37.16 458.12,-38.18 466.75,-39.16"/>
<polygon fill="#63b8ff" stroke="#63b8ff" points="466.4,-42.64 476.73,-40.29 467.19,-35.68 466.4,-42.64"/>
</g>
<!-- Node6 -->
<g id="node6" class="node">
<title>Node6</title>
<g id="a_node6"><a xlink:href="class_commander.html#a0fab647689fcd4557145386ff585aec1" target="_top" xlink:title="Print the help text to a specified Stream.">
<polygon fill="white" stroke="#666666" points="589,-19 476,-19 476,0 589,0 589,-19"/>
<text text-anchor="middle" x="532.5" y="-7" font-family="Helvetica,sans-Serif" font-size="10.00">Commander::printHelp</text>
</a>
</g>
</g>
<!-- Node3&#45;&gt;Node6 -->
<g id="edge6" class="edge">
<title>Node3&#45;&gt;Node6</title>
<path fill="none" stroke="#63b8ff" d="M440.4,-19.29C448.86,-18.38 457.43,-17.46 465.75,-16.57"/>
<polygon fill="#63b8ff" stroke="#63b8ff" points="466.18,-20.04 475.74,-15.49 465.43,-13.08 466.18,-20.04"/>
</g>
<!-- Node5 -->
<g id="node5" class="node">
<title>Node5</title>
<g id="a_node5"><a xlink:href="class_commander.html#a80f04d459243886a6d92bce2a15eea5e" target="_top" xlink:title="Detect if character is in the string.">
<polygon fill="white" stroke="#666666" points="733,-56 625,-56 625,-37 733,-37 733,-56"/>
<text text-anchor="middle" x="679" y="-44" font-family="Helvetica,sans-Serif" font-size="10.00">Commander::inString</text>
</a>
</g>
</g>
<!-- Node4&#45;&gt;Node5 -->
<g id="edge5" class="edge">
<title>Node4&#45;&gt;Node5</title>
<path fill="none" stroke="#63b8ff" d="M588.13,-46.5C596.75,-46.5 605.72,-46.5 614.52,-46.5"/>
<polygon fill="#63b8ff" stroke="#63b8ff" points="614.73,-50 624.73,-46.5 614.73,-43 614.73,-50"/>
</g>
</g>
</svg>
