<?xml version="1.0" encoding="UTF-8" standalone="no"?>
<!DOCTYPE svg PUBLIC "-//W3C//DTD SVG 1.1//EN"
 "http://www.w3.org/Graphics/SVG/1.1/DTD/svg11.dtd">
<!-- Generated by graphviz version 5.0.1 (20220820.1526)
 -->
<!-- Title: Argument::inString Pages: 1 -->
<svg width="595pt" height="101pt"
 viewBox="0.00 0.00 595.00 101.00" xmlns="http://www.w3.org/2000/svg" xmlns:xlink="http://www.w3.org/1999/xlink">
<g id="graph0" class="graph" transform="scale(1 1) rotate(0) translate(4 97)">
<title>Argument::inString</title>
<!-- Node1 -->
<g id="node1" class="node">
<title>Node1</title>
<g id="a_node1"><a xlink:title=" ">
<polygon fill="#999999" stroke="#666666" points="587,-56 489,-56 489,-37 587,-37 587,-56"/>
<text text-anchor="middle" x="538" y="-44" font-family="Helvetica,sans-Serif" font-size="10.00">Argument::inString</text>
</a>
</g>
</g>
<!-- Node2 -->
<g id="node2" class="node">
<title>Node2</title>
<g id="a_node2"><a xlink:href="class_argument.html#a41a3be1503f99c0ab973d0c7b45fe2bd" target="_top" xlink:title="Find the start position of a place dependent argument.">
<polygon fill="white" stroke="#666666" points="447,-93 331,-93 331,-74 447,-74 447,-93"/>
<text text-anchor="middle" x="389" y="-81" font-family="Helvetica,sans-Serif" font-size="10.00">Argument::findByPlace</text>
</a>
</g>
</g>
<!-- Node1&#45;&gt;Node2 -->
<g id="edge1" class="edge">
<title>Node1&#45;&gt;Node2</title>
<path fill="none" stroke="#63b8ff" d="M489.35,-58.49C469.47,-63.5 446.7,-69.23 427.98,-73.94"/>
<polygon fill="#63b8ff" stroke="#63b8ff" points="490.3,-61.86 499.14,-56.03 488.59,-55.08 490.3,-61.86"/>
</g>
<!-- Node7 -->
<g id="node7" class="node">
<title>Node7</title>
<g id="a_node7"><a xlink:href="class_argument.html#a19696736b23d7f4f4c6e4125e67f59a8" target="_top" xlink:title="Find the start position of a long named argument.">
<polygon fill="white" stroke="#666666" points="452,-19 326,-19 326,0 452,0 452,-19"/>
<text text-anchor="middle" x="389" y="-7" font-family="Helvetica,sans-Serif" font-size="10.00">Argument::findLongName</text>
</a>
</g>
</g>
<!-- Node1&#45;&gt;Node7 -->
<g id="edge6" class="edge">
<title>Node1&#45;&gt;Node7</title>
<path fill="none" stroke="#63b8ff" d="M489.35,-34.51C469.47,-29.5 446.7,-23.77 427.98,-19.06"/>
<polygon fill="#63b8ff" stroke="#63b8ff" points="488.59,-37.92 499.14,-36.97 490.3,-31.14 488.59,-37.92"/>
</g>
<!-- Node9 -->
<g id="node9" class="node">
<title>Node9</title>
<g id="a_node9"><a xlink:href="class_argument.html#a3ec1ea9ca2d489a987e0fa335daaf061" target="_top" xlink:title="Find the start position of a short named argument.">
<polygon fill="white" stroke="#666666" points="453,-56 325,-56 325,-37 453,-37 453,-56"/>
<text text-anchor="middle" x="389" y="-44" font-family="Helvetica,sans-Serif" font-size="10.00">Argument::findShortName</text>
</a>
</g>
</g>
<!-- Node1&#45;&gt;Node9 -->
<g id="edge9" class="edge">
<title>Node1&#45;&gt;Node9</title>
<path fill="none" stroke="#63b8ff" d="M478.79,-46.5C470.39,-46.5 461.71,-46.5 453.22,-46.5"/>
<polygon fill="#63b8ff" stroke="#63b8ff" points="478.87,-50 488.87,-46.5 478.87,-43 478.87,-50"/>
</g>
<!-- Node3 -->
<g id="node3" class="node">
<title>Node3</title>
<g id="a_node3"><a xlink:href="class_argument.html#a7fab3d983e4a63b93e6f50df82ed6f84" target="_top" xlink:title=" ">
<polygon fill="white" stroke="#666666" points="289,-56 188,-56 188,-37 289,-37 289,-56"/>
<text text-anchor="middle" x="238.5" y="-44" font-family="Helvetica,sans-Serif" font-size="10.00">Argument::findStart</text>
</a>
</g>
</g>
<!-- Node2&#45;&gt;Node3 -->
<g id="edge2" class="edge">
<title>Node2&#45;&gt;Node3</title>
<path fill="none" stroke="#63b8ff" d="M339.86,-71.51C319.78,-66.5 296.78,-60.77 277.87,-56.06"/>
<polygon fill="#63b8ff" stroke="#63b8ff" points="339.21,-74.95 349.76,-73.97 340.9,-68.16 339.21,-74.95"/>
</g>
<!-- Node4 -->
<g id="node4" class="node">
<title>Node4</title>
<g id="a_node4"><a xlink:href="class_argument.html#a2258f3363dbb1d462286a41d4ab3b8ad" target="_top" xlink:title=" ">
<polygon fill="white" stroke="#666666" points="131,-93 21,-93 21,-74 131,-74 131,-93"/>
<text text-anchor="middle" x="76" y="-81" font-family="Helvetica,sans-Serif" font-size="10.00">Argument::parseFloat</text>
</a>
</g>
</g>
<!-- Node3&#45;&gt;Node4 -->
<g id="edge3" class="edge">
<title>Node3&#45;&gt;Node4</title>
<path fill="none" stroke="#63b8ff" d="M186.36,-58.29C164.45,-63.34 139.19,-69.16 118.47,-73.94"/>
<polygon fill="#63b8ff" stroke="#63b8ff" points="187.21,-61.69 196.17,-56.03 185.64,-54.86 187.21,-61.69"/>
</g>
<!-- Node5 -->
<g id="node5" class="node">
<title>Node5</title>
<g id="a_node5"><a xlink:href="class_argument.html#aeabd957dda6add595aa860761ea337f1" target="_top" xlink:title=" ">
<polygon fill="white" stroke="#666666" points="125.5,-56 26.5,-56 26.5,-37 125.5,-37 125.5,-56"/>
<text text-anchor="middle" x="76" y="-44" font-family="Helvetica,sans-Serif" font-size="10.00">Argument::parseInt</text>
</a>
</g>
</g>
<!-- Node3&#45;&gt;Node5 -->
<g id="edge4" class="edge">
<title>Node3&#45;&gt;Node5</title>
<path fill="none" stroke="#63b8ff" d="M177.22,-46.5C160.24,-46.5 141.99,-46.5 125.77,-46.5"/>
<polygon fill="#63b8ff" stroke="#63b8ff" points="177.6,-50 187.6,-46.5 177.6,-43 177.6,-50"/>
</g>
<!-- Node6 -->
<g id="node6" class="node">
<title>Node6</title>
<g id="a_node6"><a xlink:href="class_argument.html#a91aa4b22990c4532a437afb1ed58acf4" target="_top" xlink:title=" ">
<polygon fill="white" stroke="#666666" points="152,-19 0,-19 0,0 152,0 152,-19"/>
<text text-anchor="middle" x="76" y="-7" font-family="Helvetica,sans-Serif" font-size="10.00">Argument::parseStringFunction</text>
</a>
</g>
</g>
<!-- Node3&#45;&gt;Node6 -->
<g id="edge5" class="edge">
<title>Node3&#45;&gt;Node6</title>
<path fill="none" stroke="#63b8ff" d="M186.36,-34.71C164.45,-29.66 139.19,-23.84 118.47,-19.06"/>
<polygon fill="#63b8ff" stroke="#63b8ff" points="185.64,-38.14 196.17,-36.97 187.21,-31.31 185.64,-38.14"/>
</g>
<!-- Node7&#45;&gt;Node3 -->
<g id="edge8" class="edge">
<title>Node7&#45;&gt;Node3</title>
<path fill="none" stroke="#63b8ff" d="M339.86,-21.49C319.78,-26.5 296.78,-32.23 277.87,-36.94"/>
<polygon fill="#63b8ff" stroke="#63b8ff" points="340.9,-24.84 349.76,-19.03 339.21,-18.05 340.9,-24.84"/>
</g>
<!-- Node8 -->
<g id="node8" class="node">
<title>Node8</title>
<g id="a_node8"><a xlink:href="class_argument.html#a11a9933e5a65f1cbf0525cd9bd2a29ca" target="_top" xlink:title=" ">
<polygon fill="white" stroke="#666666" points="278.5,-19 198.5,-19 198.5,0 278.5,0 278.5,-19"/>
<text text-anchor="middle" x="238.5" y="-7" font-family="Helvetica,sans-Serif" font-size="10.00">Argument::find</text>
</a>
</g>
</g>
<!-- Node7&#45;&gt;Node8 -->
<g id="edge7" class="edge">
<title>Node7&#45;&gt;Node8</title>
<path fill="none" stroke="#63b8ff" d="M315.75,-9.5C303.06,-9.5 290.29,-9.5 278.93,-9.5"/>
<polygon fill="#63b8ff" stroke="#63b8ff" points="315.88,-13 325.88,-9.5 315.88,-6 315.88,-13"/>
</g>
<!-- Node9&#45;&gt;Node3 -->
<g id="edge11" class="edge">
<title>Node9&#45;&gt;Node3</title>
<path fill="none" stroke="#63b8ff" d="M314.55,-46.5C305.97,-46.5 297.38,-46.5 289.23,-46.5"/>
<polygon fill="#63b8ff" stroke="#63b8ff" points="314.59,-50 324.59,-46.5 314.59,-43 314.59,-50"/>
</g>
<!-- Node9&#45;&gt;Node8 -->
<g id="edge10" class="edge">
<title>Node9&#45;&gt;Node8</title>
<path fill="none" stroke="#63b8ff" d="M339.86,-34.51C319.78,-29.5 296.78,-23.77 277.87,-19.06"/>
<polygon fill="#63b8ff" stroke="#63b8ff" points="339.21,-37.95 349.76,-36.97 340.9,-31.16 339.21,-37.95"/>
</g>
</g>
</svg>
