<?xml version="1.0" encoding="UTF-8" standalone="no"?>
<!DOCTYPE svg PUBLIC "-//W3C//DTD SVG 1.1//EN"
 "http://www.w3.org/Graphics/SVG/1.1/DTD/svg11.dtd">
<!-- Generated by graphviz version 5.0.1 (20220820.1526)
 -->
<!-- Title: Commander Pages: 1 -->
<svg width="406pt" height="163pt"
 viewBox="0.00 0.00 405.50 163.00" xmlns="http://www.w3.org/2000/svg" xmlns:xlink="http://www.w3.org/1999/xlink">
<g id="graph0" class="graph" transform="scale(1 1) rotate(0) translate(4 159)">
<title>Commander</title>
<!-- Node1 -->
<g id="node1" class="node">
<title>Node1</title>
<g id="a_node1"><a xlink:title="Commander class.">
<polygon fill="#999999" stroke="#666666" points="240,-19 171,-19 171,0 240,0 240,-19"/>
<text text-anchor="middle" x="205.5" y="-7" font-family="Helvetica,sans-Serif" font-size="10.00">Commander</text>
</a>
</g>
</g>
<!-- Node2 -->
<g id="node2" class="node">
<title>Node2</title>
<g id="a_node2"><a xlink:href="struct_commander_1_1_a_p_i__t.html" target="_top" xlink:title="Structure for command data.">
<polygon fill="white" stroke="#666666" points="99,-97.5 0,-97.5 0,-78.5 99,-78.5 99,-97.5"/>
<text text-anchor="middle" x="49.5" y="-85.5" font-family="Helvetica,sans-Serif" font-size="10.00">Commander::API_t</text>
</a>
</g>
</g>
<!-- Node2&#45;&gt;Node1 -->
<g id="edge1" class="edge">
<title>Node2&#45;&gt;Node1</title>
<path fill="none" stroke="#9a32cd" stroke-dasharray="5,2" d="M76.28,-73.87C108.15,-58.24 160.47,-32.58 187.73,-19.21"/>
<polygon fill="#9a32cd" stroke="#9a32cd" points="74.53,-70.83 67.09,-78.37 77.61,-77.11 74.53,-70.83"/>
<text text-anchor="middle" x="172" y="-45.5" font-family="Helvetica,sans-Serif" font-size="10.00"> API_tree</text>
</g>
<!-- Node2&#45;&gt;Node2 -->
<g id="edge2" class="edge">
<title>Node2&#45;&gt;Node2</title>
<path fill="none" stroke="#9a32cd" stroke-dasharray="5,2" d="M109.4,-91.98C114.1,-91.1 117,-89.78 117,-88 117,-85.16 109.57,-83.47 99.25,-82.93"/>
<polygon fill="#9a32cd" stroke="#9a32cd" points="108.82,-88.52 99.25,-93.07 109.56,-95.48 108.82,-88.52"/>
<text text-anchor="middle" x="126.5" y="-91" font-family="Helvetica,sans-Serif" font-size="10.00"> left</text>
<text text-anchor="middle" x="126.5" y="-80" font-family="Helvetica,sans-Serif" font-size="10.00">right</text>
</g>
<!-- Node3 -->
<g id="node3" class="node">
<title>Node3</title>
<g id="a_node3"><a xlink:href="classcommand_response.html" target="_top" xlink:title="Default response class.">
<polygon fill="white" stroke="#666666" points="257,-97.5 154,-97.5 154,-78.5 257,-78.5 257,-97.5"/>
<text text-anchor="middle" x="205.5" y="-85.5" font-family="Helvetica,sans-Serif" font-size="10.00">commandResponse</text>
</a>
</g>
</g>
<!-- Node3&#45;&gt;Node1 -->
<g id="edge3" class="edge">
<title>Node3&#45;&gt;Node1</title>
<path fill="none" stroke="#9a32cd" stroke-dasharray="5,2" d="M205.5,-68.1C205.5,-52.47 205.5,-30.99 205.5,-19.17"/>
<polygon fill="#9a32cd" stroke="#9a32cd" points="202,-68.22 205.5,-78.22 209,-68.22 202,-68.22"/>
<text text-anchor="middle" x="257" y="-51" font-family="Helvetica,sans-Serif" font-size="10.00"> defaultDebugResponse</text>
<text text-anchor="middle" x="257" y="-40" font-family="Helvetica,sans-Serif" font-size="10.00">defaultResponse</text>
</g>
<!-- Node4 -->
<g id="node4" class="node">
<title>Node4</title>
<g id="a_node4"><a xlink:title=" ">
<polygon fill="white" stroke="#666666" points="294.5,-155 246.5,-155 246.5,-136 294.5,-136 294.5,-155"/>
<text text-anchor="middle" x="270.5" y="-143" font-family="Helvetica,sans-Serif" font-size="10.00">Stream</text>
</a>
</g>
</g>
<!-- Node4&#45;&gt;Node3 -->
<g id="edge4" class="edge">
<title>Node4&#45;&gt;Node3</title>
<path fill="none" stroke="#63b8ff" d="M252.43,-129.07C240.62,-118.99 225.62,-106.18 215.8,-97.79"/>
<polygon fill="#63b8ff" stroke="#63b8ff" points="250.47,-132 260.34,-135.83 255.01,-126.67 250.47,-132"/>
</g>
<!-- Node5 -->
<g id="node5" class="node">
<title>Node5</title>
<g id="a_node5"><a xlink:href="classcommander_pipe_channel.html" target="_top" xlink:title=" ">
<polygon fill="white" stroke="#666666" points="397.5,-97.5 275.5,-97.5 275.5,-78.5 397.5,-78.5 397.5,-97.5"/>
<text text-anchor="middle" x="336.5" y="-85.5" font-family="Helvetica,sans-Serif" font-size="10.00">commanderPipeChannel</text>
</a>
</g>
</g>
<!-- Node4&#45;&gt;Node5 -->
<g id="edge6" class="edge">
<title>Node4&#45;&gt;Node5</title>
<path fill="none" stroke="#63b8ff" d="M288.5,-129.36C300.55,-119.23 315.97,-106.26 326.04,-97.79"/>
<polygon fill="#63b8ff" stroke="#63b8ff" points="286.21,-126.71 280.81,-135.83 290.72,-132.07 286.21,-126.71"/>
</g>
<!-- Node5&#45;&gt;Node1 -->
<g id="edge5" class="edge">
<title>Node5&#45;&gt;Node1</title>
<path fill="none" stroke="#9a32cd" stroke-dasharray="5,2" d="M331.49,-68.45C327.68,-57.76 321.38,-44.92 311.5,-37 291.38,-20.86 262.72,-14.39 240.27,-11.87"/>
<polygon fill="#9a32cd" stroke="#9a32cd" points="328.19,-69.64 334.5,-78.15 334.88,-67.56 328.19,-69.64"/>
<text text-anchor="middle" x="356" y="-45.5" font-family="Helvetica,sans-Serif" font-size="10.00"> pipeChannel</text>
</g>
</g>
</svg>
