<?xml version="1.0" encoding="UTF-8" standalone="no"?>
<!DOCTYPE svg PUBLIC "-//W3C//DTD SVG 1.1//EN"
 "http://www.w3.org/Graphics/SVG/1.1/DTD/svg11.dtd">
<!-- Generated by graphviz version 5.0.1 (20220820.1526)
 -->
<!-- Title: Argument::parseFloat Pages: 1 -->
<svg width="304pt" height="175pt"
 viewBox="0.00 0.00 304.00 175.00" xmlns="http://www.w3.org/2000/svg" xmlns:xlink="http://www.w3.org/1999/xlink">
<g id="graph0" class="graph" transform="scale(1 1) rotate(0) translate(4 171)">
<title>Argument::parseFloat</title>
<!-- Node1 -->
<g id="node1" class="node">
<title>Node1</title>
<g id="a_node1"><a xlink:title=" ">
<polygon fill="#999999" stroke="#666666" points="296,-93 186,-93 186,-74 296,-74 296,-93"/>
<text text-anchor="middle" x="241" y="-81" font-family="Helvetica,sans-Serif" font-size="10.00">Argument::parseFloat</text>
</a>
</g>
</g>
<!-- Node2 -->
<g id="node2" class="node">
<title>Node2</title>
<g id="a_node2"><a xlink:href="_commander-_a_p_i-_math-_commands_8cpp.html#a3a7adc51271281ccbe539d6d4b9ebd72" target="_top" xlink:title="Premade function for abs command.">
<polygon fill="white" stroke="#666666" points="131,-167 19,-167 19,-148 131,-148 131,-167"/>
<text text-anchor="middle" x="75" y="-155" font-family="Helvetica,sans-Serif" font-size="10.00">commander_abs_func</text>
</a>
</g>
</g>
<!-- Node1&#45;&gt;Node2 -->
<g id="edge1" class="edge">
<title>Node1&#45;&gt;Node2</title>
<path fill="none" stroke="#63b8ff" d="M219.23,-99.1C201.63,-111.65 175.29,-128.88 150,-139.5 142.08,-142.83 133.41,-145.63 124.88,-147.95"/>
<polygon fill="#63b8ff" stroke="#63b8ff" points="221.56,-101.74 227.59,-93.03 217.44,-96.08 221.56,-101.74"/>
</g>
<!-- Node3 -->
<g id="node3" class="node">
<title>Node3</title>
<g id="a_node3"><a xlink:href="_commander-_a_p_i-_math-_commands_8cpp.html#a50d0b8fd181669321c028dc781232883" target="_top" xlink:title="Premade function for cos command.">
<polygon fill="white" stroke="#666666" points="131,-130 19,-130 19,-111 131,-111 131,-130"/>
<text text-anchor="middle" x="75" y="-118" font-family="Helvetica,sans-Serif" font-size="10.00">commander_cos_func</text>
</a>
</g>
</g>
<!-- Node1&#45;&gt;Node3 -->
<g id="edge2" class="edge">
<title>Node1&#45;&gt;Node3</title>
<path fill="none" stroke="#63b8ff" d="M187.75,-95.29C165.36,-100.34 139.55,-106.16 118.38,-110.94"/>
<polygon fill="#63b8ff" stroke="#63b8ff" points="188.78,-98.64 197.77,-93.03 187.24,-91.82 188.78,-98.64"/>
</g>
<!-- Node4 -->
<g id="node4" class="node">
<title>Node4</title>
<g id="a_node4"><a xlink:href="_commander-_a_p_i-_system-_commands_8cpp.html#a97b609ad07bfd174ed3fb4bfe78b6c76" target="_top" xlink:title="Premade function for not command.">
<polygon fill="white" stroke="#666666" points="136.5,-93 13.5,-93 13.5,-74 136.5,-74 136.5,-93"/>
<text text-anchor="middle" x="75" y="-81" font-family="Helvetica,sans-Serif" font-size="10.00">commander_export_func</text>
</a>
</g>
</g>
<!-- Node1&#45;&gt;Node4 -->
<g id="edge3" class="edge">
<title>Node1&#45;&gt;Node4</title>
<path fill="none" stroke="#63b8ff" d="M175.69,-83.5C162.82,-83.5 149.35,-83.5 136.61,-83.5"/>
<polygon fill="#63b8ff" stroke="#63b8ff" points="175.85,-87 185.85,-83.5 175.85,-80 175.85,-87"/>
</g>
<!-- Node5 -->
<g id="node5" class="node">
<title>Node5</title>
<g id="a_node5"><a xlink:href="_commander-_a_p_i-_system-_commands_8cpp.html#a57e458203eac6259ab72afb0bd7218b4" target="_top" xlink:title="Premade function for not command.">
<polygon fill="white" stroke="#666666" points="150,-56 0,-56 0,-37 150,-37 150,-56"/>
<text text-anchor="middle" x="75" y="-44" font-family="Helvetica,sans-Serif" font-size="10.00">commander_exportTarget_func</text>
</a>
</g>
</g>
<!-- Node1&#45;&gt;Node5 -->
<g id="edge4" class="edge">
<title>Node1&#45;&gt;Node5</title>
<path fill="none" stroke="#63b8ff" d="M187.75,-71.71C165.36,-66.66 139.55,-60.84 118.38,-56.06"/>
<polygon fill="#63b8ff" stroke="#63b8ff" points="187.24,-75.18 197.77,-73.97 188.78,-68.36 187.24,-75.18"/>
</g>
<!-- Node6 -->
<g id="node6" class="node">
<title>Node6</title>
<g id="a_node6"><a xlink:href="_commander-_a_p_i-_math-_commands_8cpp.html#a2d1835760957b536f6d3aadf02109eaf" target="_top" xlink:title="Premade function for sin command.">
<polygon fill="white" stroke="#666666" points="129.5,-19 20.5,-19 20.5,0 129.5,0 129.5,-19"/>
<text text-anchor="middle" x="75" y="-7" font-family="Helvetica,sans-Serif" font-size="10.00">commander_sin_func</text>
</a>
</g>
</g>
<!-- Node1&#45;&gt;Node6 -->
<g id="edge5" class="edge">
<title>Node1&#45;&gt;Node6</title>
<path fill="none" stroke="#63b8ff" d="M218.55,-67.86C200.9,-55.63 174.85,-39 150,-28.5 141.2,-24.78 131.5,-21.65 122.1,-19.07"/>
<polygon fill="#63b8ff" stroke="#63b8ff" points="216.77,-70.89 226.95,-73.79 220.8,-65.17 216.77,-70.89"/>
</g>
</g>
</svg>
