<?xml version="1.0" encoding="UTF-8" standalone="no"?>
<!DOCTYPE svg PUBLIC "-//W3C//DTD SVG 1.1//EN"
 "http://www.w3.org/Graphics/SVG/1.1/DTD/svg11.dtd">
<!-- Generated by graphviz version 5.0.1 (20220820.1526)
 -->
<!-- Title: CommandCaller::write Pages: 1 -->
<svg width="268pt" height="45pt"
 viewBox="0.00 0.00 268.00 45.00" xmlns="http://www.w3.org/2000/svg" xmlns:xlink="http://www.w3.org/1999/xlink">
<g id="graph0" class="graph" transform="scale(1 1) rotate(0) translate(4 41)">
<title>CommandCaller::write</title>
<!-- Node1 -->
<g id="node1" class="node">
<title>Node1</title>
<g id="a_node1"><a xlink:title=" ">
<polygon fill="#999999" stroke="#666666" points="112,-19 0,-19 0,0 112,0 112,-19"/>
<text text-anchor="middle" x="56" y="-7" font-family="Helvetica,sans-Serif" font-size="10.00">CommandCaller::write</text>
</a>
</g>
</g>
<!-- Node2 -->
<g id="node2" class="node">
<title>Node2</title>
<g id="a_node2"><a xlink:href="class_command_caller.html#a89ee0d5993dedd786955afd38b602602" target="_top" xlink:title="Write one byte to the channel.">
<polygon fill="white" stroke="#666666" points="260,-19 148,-19 148,0 260,0 260,-19"/>
<text text-anchor="middle" x="204" y="-7" font-family="Helvetica,sans-Serif" font-size="10.00">CommandCaller::write</text>
</a>
</g>
</g>
<!-- Node1&#45;&gt;Node2 -->
<g id="edge1" class="edge">
<title>Node1&#45;&gt;Node2</title>
<path fill="none" stroke="#63b8ff" d="M112.2,-9.5C120.46,-9.5 129.05,-9.5 137.51,-9.5"/>
<polygon fill="#63b8ff" stroke="#63b8ff" points="137.73,-13 147.73,-9.5 137.73,-6 137.73,-13"/>
</g>
<!-- Node2&#45;&gt;Node2 -->
<g id="edge2" class="edge">
<title>Node2&#45;&gt;Node2</title>
<path fill="none" stroke="#63b8ff" d="M181.19,-19.08C170.09,-27.73 177.7,-37 204,-37 220.85,-37 230.03,-33.2 231.53,-28.19"/>
<polygon fill="#63b8ff" stroke="#63b8ff" points="234.52,-26.35 226.81,-19.08 228.3,-29.57 234.52,-26.35"/>
</g>
</g>
</svg>
