<?xml version="1.0" encoding="UTF-8" standalone="no"?>
<!DOCTYPE svg PUBLIC "-//W3C//DTD SVG 1.1//EN"
 "http://www.w3.org/Graphics/SVG/1.1/DTD/svg11.dtd">
<!-- Generated by graphviz version 5.0.1 (20220820.1526)
 -->
<!-- Title: Commander::printArgumentError Pages: 1 -->
<svg width="330pt" height="508pt"
 viewBox="0.00 0.00 330.00 508.00" xmlns="http://www.w3.org/2000/svg" xmlns:xlink="http://www.w3.org/1999/xlink">
<g id="graph0" class="graph" transform="scale(1 1) rotate(0) translate(4 504)">
<title>Commander::printArgumentError</title>
<!-- Node1 -->
<g id="node1" class="node">
<title>Node1</title>
<g id="a_node1"><a xlink:title="Print &#39;Argument error!&#39; to a specified Serial channel.">
<polygon fill="#999999" stroke="#666666" points="322,-264.5 186,-264.5 186,-234.5 322,-234.5 322,-264.5"/>
<text text-anchor="start" x="194" y="-252.5" font-family="Helvetica,sans-Serif" font-size="10.00">Commander::printArgument</text>
<text text-anchor="middle" x="254" y="-241.5" font-family="Helvetica,sans-Serif" font-size="10.00">Error</text>
</a>
</g>
</g>
<!-- Node2 -->
<g id="node2" class="node">
<title>Node2</title>
<g id="a_node2"><a xlink:href="_commander-_a_p_i-_math-_commands_8cpp.html#ae7d6fa81c7ec3354378b1f948c0c8749" target="_top" xlink:title="Premade function for abs command.">
<polygon fill="white" stroke="#666666" points="131,-500 19,-500 19,-481 131,-481 131,-500"/>
<text text-anchor="middle" x="75" y="-488" font-family="Helvetica,sans-Serif" font-size="10.00">commander_abs_func</text>
</a>
</g>
</g>
<!-- Node1&#45;&gt;Node2 -->
<g id="edge1" class="edge">
<title>Node1&#45;&gt;Node2</title>
<path fill="none" stroke="#63b8ff" d="M248.77,-274.56C239.57,-321.01 213.25,-420.47 150,-472.5 144.49,-477.04 138.01,-480.46 131.21,-483.04"/>
<polygon fill="#63b8ff" stroke="#63b8ff" points="252.21,-275.19 250.62,-264.72 245.33,-273.9 252.21,-275.19"/>
</g>
<!-- Node3 -->
<g id="node3" class="node">
<title>Node3</title>
<g id="a_node3"><a xlink:href="_commander-_a_p_i-_analog-_i_o-_commands_8cpp.html#a22f364acaf405f853e1ff3787c35b53e" target="_top" xlink:title="Premade function for analogRead command.">
<polygon fill="white" stroke="#666666" points="148.5,-463 1.5,-463 1.5,-444 148.5,-444 148.5,-463"/>
<text text-anchor="middle" x="75" y="-451" font-family="Helvetica,sans-Serif" font-size="10.00">commander_analogRead_func</text>
</a>
</g>
</g>
<!-- Node1&#45;&gt;Node3 -->
<g id="edge2" class="edge">
<title>Node1&#45;&gt;Node3</title>
<path fill="none" stroke="#63b8ff" d="M246.33,-274.35C234.19,-314.63 204.55,-393.87 150,-435.5 145.59,-438.87 140.63,-441.62 135.42,-443.86"/>
<polygon fill="#63b8ff" stroke="#63b8ff" points="249.75,-275.11 249.17,-264.53 243.03,-273.17 249.75,-275.11"/>
</g>
<!-- Node4 -->
<g id="node4" class="node">
<title>Node4</title>
<g id="a_node4"><a xlink:href="_commander-_a_p_i-_analog-_i_o-_commands_8cpp.html#a0bb64a637cbaa4134e0cc9d1a7453ecf" target="_top" xlink:title="Premade function for analogRead command.">
<polygon fill="white" stroke="#666666" points="149,-426 1,-426 1,-407 149,-407 149,-426"/>
<text text-anchor="middle" x="75" y="-414" font-family="Helvetica,sans-Serif" font-size="10.00">commander_analogWrite_func</text>
</a>
</g>
</g>
<!-- Node1&#45;&gt;Node4 -->
<g id="edge3" class="edge">
<title>Node1&#45;&gt;Node4</title>
<path fill="none" stroke="#63b8ff" d="M242.66,-274.46C227.45,-308 195.79,-367.02 150,-398.5 144.99,-401.95 139.39,-404.73 133.57,-406.99"/>
<polygon fill="#63b8ff" stroke="#63b8ff" points="246.03,-275.49 246.85,-264.93 239.62,-272.68 246.03,-275.49"/>
</g>
<!-- Node5 -->
<g id="node5" class="node">
<title>Node5</title>
<g id="a_node5"><a xlink:href="_commander-_a_p_i-_commands_8cpp.html#a345e11c841af12f6c9e5bc493466bbd7" target="_top" xlink:title="Premade function for wifiScan command.">
<polygon fill="white" stroke="#666666" points="146.5,-389 3.5,-389 3.5,-370 146.5,-370 146.5,-389"/>
<text text-anchor="middle" x="75" y="-377" font-family="Helvetica,sans-Serif" font-size="10.00">commander_configTime_func</text>
</a>
</g>
</g>
<!-- Node1&#45;&gt;Node5 -->
<g id="edge4" class="edge">
<title>Node1&#45;&gt;Node5</title>
<path fill="none" stroke="#63b8ff" d="M237.6,-273.27C219.67,-298.99 187.65,-339.29 150,-361.5 144.19,-364.93 137.76,-367.7 131.19,-369.95"/>
<polygon fill="#63b8ff" stroke="#63b8ff" points="240.61,-275.07 243.34,-264.84 234.82,-271.13 240.61,-275.07"/>
</g>
<!-- Node6 -->
<g id="node6" class="node">
<title>Node6</title>
<g id="a_node6"><a xlink:href="_commander-_a_p_i-_math-_commands_8cpp.html#abfe392815068d05be5e099def983b5ec" target="_top" xlink:title="Premade function for cos command.">
<polygon fill="white" stroke="#666666" points="131,-352 19,-352 19,-333 131,-333 131,-352"/>
<text text-anchor="middle" x="75" y="-340" font-family="Helvetica,sans-Serif" font-size="10.00">commander_cos_func</text>
</a>
</g>
</g>
<!-- Node1&#45;&gt;Node6 -->
<g id="edge5" class="edge">
<title>Node1&#45;&gt;Node6</title>
<path fill="none" stroke="#63b8ff" d="M228.84,-271.35C209,-288.2 179.46,-310.85 150,-324.5 142.68,-327.89 134.65,-330.69 126.66,-332.98"/>
<polygon fill="#63b8ff" stroke="#63b8ff" points="231.19,-273.95 236.46,-264.76 226.61,-268.65 231.19,-273.95"/>
</g>
<!-- Node7 -->
<g id="node7" class="node">
<title>Node7</title>
<g id="a_node7"><a xlink:href="_commander-_a_p_i-_digital-_i_o-_commands_8cpp.html#a488c98390245a3d0d7172f364ec91ed8" target="_top" xlink:title="Premade function for digitalRead command.">
<polygon fill="white" stroke="#666666" points="147,-315 3,-315 3,-296 147,-296 147,-315"/>
<text text-anchor="middle" x="75" y="-303" font-family="Helvetica,sans-Serif" font-size="10.00">commander_digitalRead_func</text>
</a>
</g>
</g>
<!-- Node1&#45;&gt;Node7 -->
<g id="edge6" class="edge">
<title>Node1&#45;&gt;Node7</title>
<path fill="none" stroke="#63b8ff" d="M205.83,-268.2C188.43,-274.75 168.46,-281.87 150,-287.5 140.01,-290.55 129.14,-293.43 118.88,-295.95"/>
<polygon fill="#63b8ff" stroke="#63b8ff" points="207.1,-271.46 215.2,-264.63 204.61,-264.92 207.1,-271.46"/>
</g>
<!-- Node8 -->
<g id="node8" class="node">
<title>Node8</title>
<g id="a_node8"><a xlink:href="_commander-_a_p_i-_digital-_i_o-_commands_8cpp.html#af309a2eb04319e75d4cc91e93894846e" target="_top" xlink:title="Premade function for digitalWrite command.">
<polygon fill="white" stroke="#666666" points="147.5,-278 2.5,-278 2.5,-259 147.5,-259 147.5,-278"/>
<text text-anchor="middle" x="75" y="-266" font-family="Helvetica,sans-Serif" font-size="10.00">commander_digitalWrite_func</text>
</a>
</g>
</g>
<!-- Node1&#45;&gt;Node8 -->
<g id="edge7" class="edge">
<title>Node1&#45;&gt;Node8</title>
<path fill="none" stroke="#63b8ff" d="M175.75,-257.79C166.38,-258.8 156.83,-259.82 147.55,-260.82"/>
<polygon fill="#63b8ff" stroke="#63b8ff" points="176.26,-261.26 185.83,-256.71 175.52,-254.3 176.26,-261.26"/>
</g>
<!-- Node9 -->
<g id="node9" class="node">
<title>Node9</title>
<g id="a_node9"><a xlink:href="_commander-_a_p_i-_system-_commands_8cpp.html#af867379096ae63ff42938a15749f2bd4" target="_top" xlink:title="Premade function for not command.">
<polygon fill="white" stroke="#666666" points="136.5,-241 13.5,-241 13.5,-222 136.5,-222 136.5,-241"/>
<text text-anchor="middle" x="75" y="-229" font-family="Helvetica,sans-Serif" font-size="10.00">commander_export_func</text>
</a>
</g>
</g>
<!-- Node1&#45;&gt;Node9 -->
<g id="edge8" class="edge">
<title>Node1&#45;&gt;Node9</title>
<path fill="none" stroke="#63b8ff" d="M175.51,-241.62C162.52,-240.3 149.21,-238.95 136.73,-237.68"/>
<polygon fill="#63b8ff" stroke="#63b8ff" points="175.53,-245.14 185.83,-242.67 176.24,-238.18 175.53,-245.14"/>
</g>
<!-- Node10 -->
<g id="node10" class="node">
<title>Node10</title>
<g id="a_node10"><a xlink:href="_commander-_a_p_i-_system-_commands_8cpp.html#a67c664cbc5869ccf57996adeecbb6cd9" target="_top" xlink:title="Premade function for not command.">
<polygon fill="white" stroke="#666666" points="150,-204 0,-204 0,-185 150,-185 150,-204"/>
<text text-anchor="middle" x="75" y="-192" font-family="Helvetica,sans-Serif" font-size="10.00">commander_exportTarget_func</text>
</a>
</g>
</g>
<!-- Node1&#45;&gt;Node10 -->
<g id="edge9" class="edge">
<title>Node1&#45;&gt;Node10</title>
<path fill="none" stroke="#63b8ff" d="M202.62,-230.93C185.97,-225.05 167.28,-218.73 150,-213.5 138.95,-210.16 126.87,-206.89 115.73,-204.04"/>
<polygon fill="#63b8ff" stroke="#63b8ff" points="201.57,-234.27 212.16,-234.33 203.92,-227.68 201.57,-234.27"/>
</g>
<!-- Node11 -->
<g id="node11" class="node">
<title>Node11</title>
<g id="a_node11"><a xlink:href="_commander-_a_p_i-_memory-_commands_8cpp.html#ac0009f7287654611dc82da625f2579a9" target="_top" xlink:title="Premade function for not command.">
<polygon fill="white" stroke="#666666" points="146.5,-167 3.5,-167 3.5,-148 146.5,-148 146.5,-167"/>
<text text-anchor="middle" x="75" y="-155" font-family="Helvetica,sans-Serif" font-size="10.00">commander_memDump_func</text>
</a>
</g>
</g>
<!-- Node1&#45;&gt;Node11 -->
<g id="edge10" class="edge">
<title>Node1&#45;&gt;Node11</title>
<path fill="none" stroke="#63b8ff" d="M228.07,-227.85C208.15,-211.58 178.88,-189.89 150,-176.5 141.82,-172.71 132.76,-169.59 123.87,-167.05"/>
<polygon fill="#63b8ff" stroke="#63b8ff" points="226.07,-230.74 236,-234.45 230.55,-225.36 226.07,-230.74"/>
</g>
<!-- Node12 -->
<g id="node12" class="node">
<title>Node12</title>
<g id="a_node12"><a xlink:href="_commander-_a_p_i-_math-_commands_8cpp.html#aa0fa51a20a9af63d3f7e85012e533a7c" target="_top" xlink:title="Premade function for not command.">
<polygon fill="white" stroke="#666666" points="130,-130 20,-130 20,-111 130,-111 130,-130"/>
<text text-anchor="middle" x="75" y="-118" font-family="Helvetica,sans-Serif" font-size="10.00">commander_not_func</text>
</a>
</g>
</g>
<!-- Node1&#45;&gt;Node12 -->
<g id="edge11" class="edge">
<title>Node1&#45;&gt;Node12</title>
<path fill="none" stroke="#63b8ff" d="M237.15,-225.84C219.04,-200.64 187.05,-161.45 150,-139.5 143.5,-135.65 136.22,-132.57 128.84,-130.11"/>
<polygon fill="#63b8ff" stroke="#63b8ff" points="234.36,-227.94 242.97,-234.11 240.08,-223.92 234.36,-227.94"/>
</g>
<!-- Node13 -->
<g id="node13" class="node">
<title>Node13</title>
<g id="a_node13"><a xlink:href="_commander-_a_p_i-_digital-_i_o-_commands_8cpp.html#a2246eb22ddae467d2e4c311b95b1ca9f" target="_top" xlink:title="Premade function for pinMode command.">
<polygon fill="white" stroke="#666666" points="141.5,-93 8.5,-93 8.5,-74 141.5,-74 141.5,-93"/>
<text text-anchor="middle" x="75" y="-81" font-family="Helvetica,sans-Serif" font-size="10.00">commander_pinMode_func</text>
</a>
</g>
</g>
<!-- Node1&#45;&gt;Node13 -->
<g id="edge12" class="edge">
<title>Node1&#45;&gt;Node13</title>
<path fill="none" stroke="#63b8ff" d="M242.51,-224.95C227.13,-191.96 195.28,-133.84 150,-102.5 144.44,-98.65 138.16,-95.58 131.66,-93.13"/>
<polygon fill="#63b8ff" stroke="#63b8ff" points="239.44,-226.66 246.75,-234.33 245.82,-223.78 239.44,-226.66"/>
</g>
<!-- Node14 -->
<g id="node14" class="node">
<title>Node14</title>
<g id="a_node14"><a xlink:href="_commander-_a_p_i-_math-_commands_8cpp.html#aedeb7c7e023d071ecf07a9d6c64679d4" target="_top" xlink:title="Premade function for random command.">
<polygon fill="white" stroke="#666666" points="139,-56 11,-56 11,-37 139,-37 139,-56"/>
<text text-anchor="middle" x="75" y="-44" font-family="Helvetica,sans-Serif" font-size="10.00">commander_random_func</text>
</a>
</g>
</g>
<!-- Node1&#45;&gt;Node14 -->
<g id="edge13" class="edge">
<title>Node1&#45;&gt;Node14</title>
<path fill="none" stroke="#63b8ff" d="M246.1,-224.7C233.7,-184.86 203.8,-106.9 150,-65.5 144.95,-61.62 139.2,-58.52 133.18,-56.06"/>
<polygon fill="#63b8ff" stroke="#63b8ff" points="242.79,-225.84 249.01,-234.41 249.49,-223.83 242.79,-225.84"/>
</g>
<!-- Node15 -->
<g id="node15" class="node">
<title>Node15</title>
<g id="a_node15"><a xlink:href="_commander-_a_p_i-_math-_commands_8cpp.html#a1113369ca4b669dc0c6355fcf126cc42" target="_top" xlink:title="Premade function for sin command.">
<polygon fill="white" stroke="#666666" points="129.5,-19 20.5,-19 20.5,0 129.5,0 129.5,-19"/>
<text text-anchor="middle" x="75" y="-7" font-family="Helvetica,sans-Serif" font-size="10.00">commander_sin_func</text>
</a>
</g>
</g>
<!-- Node1&#45;&gt;Node15 -->
<g id="edge14" class="edge">
<title>Node1&#45;&gt;Node15</title>
<path fill="none" stroke="#63b8ff" d="M248.58,-224.44C239.1,-178.4 212.41,-80.32 150,-28.5 144.08,-23.59 137.05,-19.92 129.7,-17.2"/>
<polygon fill="#63b8ff" stroke="#63b8ff" points="245.18,-225.32 250.53,-234.46 252.05,-223.98 245.18,-225.32"/>
</g>
</g>
</svg>
