<?xml version="1.0" encoding="UTF-8" standalone="no"?>
<!DOCTYPE svg PUBLIC "-//W3C//DTD SVG 1.1//EN"
 "http://www.w3.org/Graphics/SVG/1.1/DTD/svg11.dtd">
<!-- Generated by graphviz version 5.0.1 (20220820.1526)
 -->
<!-- Title: Argument::findStart Pages: 1 -->
<svg width="443pt" height="138pt"
 viewBox="0.00 0.00 443.00 138.00" xmlns="http://www.w3.org/2000/svg" xmlns:xlink="http://www.w3.org/1999/xlink">
<g id="graph0" class="graph" transform="scale(1 1) rotate(0) translate(4 134)">
<title>Argument::findStart</title>
<!-- Node1 -->
<g id="node1" class="node">
<title>Node1</title>
<g id="a_node1"><a xlink:title=" ">
<polygon fill="#999999" stroke="#666666" points="101,-74 0,-74 0,-55 101,-55 101,-74"/>
<text text-anchor="middle" x="50.5" y="-62" font-family="Helvetica,sans-Serif" font-size="10.00">Argument::findStart</text>
</a>
</g>
</g>
<!-- Node2 -->
<g id="node2" class="node">
<title>Node2</title>
<g id="a_node2"><a xlink:href="class_argument.html#a19696736b23d7f4f4c6e4125e67f59a8" target="_top" xlink:title=" ">
<polygon fill="white" stroke="#666666" points="279,-130 153,-130 153,-111 279,-111 279,-130"/>
<text text-anchor="middle" x="216" y="-118" font-family="Helvetica,sans-Serif" font-size="10.00">Argument::findLongName</text>
</a>
</g>
</g>
<!-- Node1&#45;&gt;Node2 -->
<g id="edge1" class="edge">
<title>Node1&#45;&gt;Node2</title>
<path fill="none" stroke="#63b8ff" d="M70.1,-74.01C87.15,-82.43 113.27,-94.57 137,-102.5 143.46,-104.66 150.32,-106.65 157.17,-108.46"/>
<polygon fill="#63b8ff" stroke="#63b8ff" points="156.61,-111.93 167.16,-110.99 158.32,-105.15 156.61,-111.93"/>
</g>
<!-- Node5 -->
<g id="node5" class="node">
<title>Node5</title>
<g id="a_node5"><a xlink:href="class_argument.html#a267c2e9b46491f60b264c39e08ad5686" target="_top" xlink:title=" ">
<polygon fill="white" stroke="#666666" points="268,-56 164,-56 164,-37 268,-37 268,-56"/>
<text text-anchor="middle" x="216" y="-44" font-family="Helvetica,sans-Serif" font-size="10.00">Argument::findPlace</text>
</a>
</g>
</g>
<!-- Node1&#45;&gt;Node5 -->
<g id="edge4" class="edge">
<title>Node1&#45;&gt;Node5</title>
<path fill="none" stroke="#63b8ff" d="M101.44,-59C118.01,-57.18 136.64,-55.13 153.94,-53.22"/>
<polygon fill="#63b8ff" stroke="#63b8ff" points="154.39,-56.69 163.95,-52.12 153.63,-49.74 154.39,-56.69"/>
</g>
<!-- Node6 -->
<g id="node6" class="node">
<title>Node6</title>
<g id="a_node6"><a xlink:href="class_argument.html#a3ec1ea9ca2d489a987e0fa335daaf061" target="_top" xlink:title=" ">
<polygon fill="white" stroke="#666666" points="280,-93 152,-93 152,-74 280,-74 280,-93"/>
<text text-anchor="middle" x="216" y="-81" font-family="Helvetica,sans-Serif" font-size="10.00">Argument::findShortName</text>
</a>
</g>
</g>
<!-- Node1&#45;&gt;Node6 -->
<g id="edge5" class="edge">
<title>Node1&#45;&gt;Node6</title>
<path fill="none" stroke="#63b8ff" d="M101.44,-70.3C114.09,-71.77 127.94,-73.38 141.49,-74.96"/>
<polygon fill="#63b8ff" stroke="#63b8ff" points="141.42,-78.47 151.76,-76.15 142.23,-71.52 141.42,-78.47"/>
</g>
<!-- Node7 -->
<g id="node7" class="node">
<title>Node7</title>
<g id="a_node7"><a xlink:href="class_commander.html#aed49189003860bfa85ab3bf8d320c5f6" target="_top" xlink:title="Get the instance if a system variable by its name.">
<polygon fill="white" stroke="#666666" points="295,-19 137,-19 137,0 295,0 295,-19"/>
<text text-anchor="middle" x="216" y="-7" font-family="Helvetica,sans-Serif" font-size="10.00">Commander::getSystemVariable</text>
</a>
</g>
</g>
<!-- Node1&#45;&gt;Node7 -->
<g id="edge8" class="edge">
<title>Node1&#45;&gt;Node7</title>
<path fill="none" stroke="#63b8ff" d="M70.8,-54.94C87.88,-46.78 113.65,-35.18 137,-27.5 143.48,-25.37 150.33,-23.4 157.19,-21.6"/>
<polygon fill="#63b8ff" stroke="#63b8ff" points="158.34,-24.92 167.19,-19.09 156.63,-18.13 158.34,-24.92"/>
</g>
<!-- Node3 -->
<g id="node3" class="node">
<title>Node3</title>
<g id="a_node3"><a xlink:href="class_argument.html#af21c1965c64a5f3984cbf42bcf1eec5f" target="_top" xlink:title=" ">
<polygon fill="white" stroke="#666666" points="432,-130 334,-130 334,-111 432,-111 432,-130"/>
<text text-anchor="middle" x="383" y="-118" font-family="Helvetica,sans-Serif" font-size="10.00">Argument::inString</text>
</a>
</g>
</g>
<!-- Node2&#45;&gt;Node3 -->
<g id="edge2" class="edge">
<title>Node2&#45;&gt;Node3</title>
<path fill="none" stroke="#63b8ff" d="M279.38,-120.5C293.92,-120.5 309.35,-120.5 323.7,-120.5"/>
<polygon fill="#63b8ff" stroke="#63b8ff" points="323.94,-124 333.94,-120.5 323.94,-117 323.94,-124"/>
</g>
<!-- Node4 -->
<g id="node4" class="node">
<title>Node4</title>
<g id="a_node4"><a xlink:href="class_argument.html#a8f98fbce9e55886c0b3a84c6f92572e5" target="_top" xlink:title=" ">
<polygon fill="white" stroke="#666666" points="435,-93 331,-93 331,-74 435,-74 435,-93"/>
<text text-anchor="middle" x="383" y="-81" font-family="Helvetica,sans-Serif" font-size="10.00">Argument::substring</text>
</a>
</g>
</g>
<!-- Node2&#45;&gt;Node4 -->
<g id="edge3" class="edge">
<title>Node2&#45;&gt;Node4</title>
<path fill="none" stroke="#63b8ff" d="M259.49,-110.97C280.87,-106.18 306.97,-100.32 329.58,-95.25"/>
<polygon fill="#63b8ff" stroke="#63b8ff" points="330.37,-98.66 339.37,-93.06 328.84,-91.83 330.37,-98.66"/>
</g>
<!-- Node6&#45;&gt;Node3 -->
<g id="edge6" class="edge">
<title>Node6&#45;&gt;Node3</title>
<path fill="none" stroke="#63b8ff" d="M259.49,-93.03C280.87,-97.82 306.97,-103.68 329.58,-108.75"/>
<polygon fill="#63b8ff" stroke="#63b8ff" points="328.84,-112.17 339.37,-110.94 330.37,-105.34 328.84,-112.17"/>
</g>
<!-- Node6&#45;&gt;Node4 -->
<g id="edge7" class="edge">
<title>Node6&#45;&gt;Node4</title>
<path fill="none" stroke="#63b8ff" d="M280.32,-83.5C293.52,-83.5 307.4,-83.5 320.53,-83.5"/>
<polygon fill="#63b8ff" stroke="#63b8ff" points="320.87,-87 330.87,-83.5 320.87,-80 320.87,-87"/>
</g>
</g>
</svg>
