<?xml version="1.0" encoding="UTF-8" standalone="no"?>
<!DOCTYPE svg PUBLIC "-//W3C//DTD SVG 1.1//EN"
 "http://www.w3.org/Graphics/SVG/1.1/DTD/svg11.dtd">
<!-- Generated by graphviz version 5.0.1 (20220820.1526)
 -->
<!-- Title: Argument::find Pages: 1 -->
<svg width="392pt" height="64pt"
 viewBox="0.00 0.00 392.00 64.00" xmlns="http://www.w3.org/2000/svg" xmlns:xlink="http://www.w3.org/1999/xlink">
<g id="graph0" class="graph" transform="scale(1 1) rotate(0) translate(4 60)">
<title>Argument::find</title>
<!-- Node1 -->
<g id="node1" class="node">
<title>Node1</title>
<g id="a_node1"><a xlink:title=" ">
<polygon fill="#999999" stroke="#666666" points="80,-37 0,-37 0,-18 80,-18 80,-37"/>
<text text-anchor="middle" x="40" y="-25" font-family="Helvetica,sans-Serif" font-size="10.00">Argument::find</text>
</a>
</g>
</g>
<!-- Node2 -->
<g id="node2" class="node">
<title>Node2</title>
<g id="a_node2"><a xlink:href="class_argument.html#a19696736b23d7f4f4c6e4125e67f59a8" target="_top" xlink:title=" ">
<polygon fill="white" stroke="#666666" points="243,-56 117,-56 117,-37 243,-37 243,-56"/>
<text text-anchor="middle" x="180" y="-44" font-family="Helvetica,sans-Serif" font-size="10.00">Argument::findLongName</text>
</a>
</g>
</g>
<!-- Node1&#45;&gt;Node2 -->
<g id="edge1" class="edge">
<title>Node1&#45;&gt;Node2</title>
<path fill="none" stroke="#63b8ff" d="M80.18,-32.89C88.54,-34.05 97.64,-35.3 106.81,-36.56"/>
<polygon fill="#63b8ff" stroke="#63b8ff" points="106.37,-40.03 116.75,-37.93 107.32,-33.1 106.37,-40.03"/>
</g>
<!-- Node5 -->
<g id="node5" class="node">
<title>Node5</title>
<g id="a_node5"><a xlink:href="class_argument.html#a3ec1ea9ca2d489a987e0fa335daaf061" target="_top" xlink:title=" ">
<polygon fill="white" stroke="#666666" points="244,-19 116,-19 116,0 244,0 244,-19"/>
<text text-anchor="middle" x="180" y="-7" font-family="Helvetica,sans-Serif" font-size="10.00">Argument::findShortName</text>
</a>
</g>
</g>
<!-- Node1&#45;&gt;Node5 -->
<g id="edge4" class="edge">
<title>Node1&#45;&gt;Node5</title>
<path fill="none" stroke="#63b8ff" d="M80.18,-22.39C88.28,-21.33 97.07,-20.19 105.94,-19.03"/>
<polygon fill="#63b8ff" stroke="#63b8ff" points="106.51,-22.49 115.97,-17.72 105.6,-15.54 106.51,-22.49"/>
</g>
<!-- Node3 -->
<g id="node3" class="node">
<title>Node3</title>
<g id="a_node3"><a xlink:href="class_argument.html#af21c1965c64a5f3984cbf42bcf1eec5f" target="_top" xlink:title=" ">
<polygon fill="white" stroke="#666666" points="381,-56 283,-56 283,-37 381,-37 381,-56"/>
<text text-anchor="middle" x="332" y="-44" font-family="Helvetica,sans-Serif" font-size="10.00">Argument::inString</text>
</a>
</g>
</g>
<!-- Node2&#45;&gt;Node3 -->
<g id="edge2" class="edge">
<title>Node2&#45;&gt;Node3</title>
<path fill="none" stroke="#63b8ff" d="M243.31,-46.5C253,-46.5 262.99,-46.5 272.59,-46.5"/>
<polygon fill="#63b8ff" stroke="#63b8ff" points="272.83,-50 282.83,-46.5 272.83,-43 272.83,-50"/>
</g>
<!-- Node4 -->
<g id="node4" class="node">
<title>Node4</title>
<g id="a_node4"><a xlink:href="class_argument.html#a8f98fbce9e55886c0b3a84c6f92572e5" target="_top" xlink:title=" ">
<polygon fill="white" stroke="#666666" points="384,-19 280,-19 280,0 384,0 384,-19"/>
<text text-anchor="middle" x="332" y="-7" font-family="Helvetica,sans-Serif" font-size="10.00">Argument::substring</text>
</a>
</g>
</g>
<!-- Node2&#45;&gt;Node4 -->
<g id="edge3" class="edge">
<title>Node2&#45;&gt;Node4</title>
<path fill="none" stroke="#63b8ff" d="M219.63,-36.97C238.8,-32.24 262.16,-26.48 282.52,-21.46"/>
<polygon fill="#63b8ff" stroke="#63b8ff" points="283.37,-24.85 292.24,-19.06 281.69,-18.06 283.37,-24.85"/>
</g>
<!-- Node5&#45;&gt;Node3 -->
<g id="edge5" class="edge">
<title>Node5&#45;&gt;Node3</title>
<path fill="none" stroke="#63b8ff" d="M219.63,-19.03C238.8,-23.76 262.16,-29.52 282.52,-34.54"/>
<polygon fill="#63b8ff" stroke="#63b8ff" points="281.69,-37.94 292.24,-36.94 283.37,-31.15 281.69,-37.94"/>
</g>
<!-- Node5&#45;&gt;Node4 -->
<g id="edge6" class="edge">
<title>Node5&#45;&gt;Node4</title>
<path fill="none" stroke="#63b8ff" d="M244.18,-9.5C252.6,-9.5 261.23,-9.5 269.62,-9.5"/>
<polygon fill="#63b8ff" stroke="#63b8ff" points="269.72,-13 279.72,-9.5 269.72,-6 269.72,-13"/>
</g>
</g>
</svg>
