<?xml version="1.0" encoding="UTF-8" standalone="no"?>
<!DOCTYPE svg PUBLIC "-//W3C//DTD SVG 1.1//EN"
 "http://www.w3.org/Graphics/SVG/1.1/DTD/svg11.dtd">
<!-- Generated by graphviz version 5.0.1 (20220820.1526)
 -->
<!-- Title: Commander::find_api_index_by_place Pages: 1 -->
<svg width="746pt" height="112pt"
 viewBox="0.00 0.00 746.00 111.50" xmlns="http://www.w3.org/2000/svg" xmlns:xlink="http://www.w3.org/1999/xlink">
<g id="graph0" class="graph" transform="scale(1 1) rotate(0) translate(4 107.5)">
<title>Commander::find_api_index_by_place</title>
<!-- Node1 -->
<g id="node1" class="node">
<title>Node1</title>
<g id="a_node1"><a xlink:title="Find an API element in the tree by alphabetical place.">
<polygon fill="#999999" stroke="#666666" points="738,-60 630,-60 630,-30 738,-30 738,-60"/>
<text text-anchor="start" x="638" y="-48" font-family="Helvetica,sans-Serif" font-size="10.00">Commander::find_api</text>
<text text-anchor="middle" x="684" y="-37" font-family="Helvetica,sans-Serif" font-size="10.00">_index_by_place</text>
</a>
</g>
</g>
<!-- Node2 -->
<g id="node2" class="node">
<title>Node2</title>
<g id="a_node2"><a xlink:href="class_commander.html#a0fab647689fcd4557145386ff585aec1" target="_top" xlink:title="Print the help text to a specified Stream.">
<polygon fill="white" stroke="#666666" points="592.5,-80.5 479.5,-80.5 479.5,-61.5 592.5,-61.5 592.5,-80.5"/>
<text text-anchor="middle" x="536" y="-68.5" font-family="Helvetica,sans-Serif" font-size="10.00">Commander::printHelp</text>
</a>
</g>
</g>
<!-- Node1&#45;&gt;Node2 -->
<g id="edge1" class="edge">
<title>Node1&#45;&gt;Node2</title>
<path fill="none" stroke="#63b8ff" d="M619.9,-56.24C610.21,-57.96 600.28,-59.73 590.82,-61.42"/>
<polygon fill="#63b8ff" stroke="#63b8ff" points="620.65,-59.66 629.88,-54.46 619.42,-52.77 620.65,-59.66"/>
</g>
<!-- Node6 -->
<g id="node6" class="node">
<title>Node6</title>
<g id="a_node6"><a xlink:href="class_commander.html#a05f64743655f673fb18871e71ae75c9c" target="_top" xlink:title="Swap two API elements in the tree.">
<polygon fill="white" stroke="#666666" points="594,-39 478,-39 478,-9 594,-9 594,-39"/>
<text text-anchor="start" x="486" y="-27" font-family="Helvetica,sans-Serif" font-size="10.00">Commander::swap_api</text>
<text text-anchor="middle" x="536" y="-16" font-family="Helvetica,sans-Serif" font-size="10.00">_elements</text>
</a>
</g>
</g>
<!-- Node1&#45;&gt;Node6 -->
<g id="edge6" class="edge">
<title>Node1&#45;&gt;Node6</title>
<path fill="none" stroke="#63b8ff" d="M619.97,-35.93C611.43,-34.71 602.7,-33.45 594.27,-32.24"/>
<polygon fill="#63b8ff" stroke="#63b8ff" points="619.48,-39.4 629.88,-37.36 620.48,-32.47 619.48,-39.4"/>
</g>
<!-- Node3 -->
<g id="node3" class="node">
<title>Node3</title>
<g id="a_node3"><a xlink:href="class_commander.html#a6db6d6ae40bbd49ca3036115b820813d" target="_top" xlink:title="Command execution.">
<polygon fill="white" stroke="#666666" points="442,-85.5 288,-85.5 288,-66.5 442,-66.5 442,-85.5"/>
<text text-anchor="middle" x="365" y="-73.5" font-family="Helvetica,sans-Serif" font-size="10.00">Commander::executeCommand</text>
</a>
</g>
</g>
<!-- Node2&#45;&gt;Node3 -->
<g id="edge2" class="edge">
<title>Node2&#45;&gt;Node3</title>
<path fill="none" stroke="#63b8ff" d="M469.04,-72.95C460.26,-73.21 451.19,-73.48 442.26,-73.74"/>
<polygon fill="#63b8ff" stroke="#63b8ff" points="469.3,-76.45 479.19,-72.65 469.1,-69.45 469.3,-76.45"/>
</g>
<!-- Node3&#45;&gt;Node3 -->
<g id="edge5" class="edge">
<title>Node3&#45;&gt;Node3</title>
<path fill="none" stroke="#63b8ff" d="M396.44,-93.95C395.54,-99.32 385.06,-103.5 365,-103.5 335.14,-103.5 326.51,-94.23 339.11,-85.58"/>
<polygon fill="#63b8ff" stroke="#63b8ff" points="399.34,-91.99 390.89,-85.58 393.5,-95.85 399.34,-91.99"/>
</g>
<!-- Node4 -->
<g id="node4" class="node">
<title>Node4</title>
<g id="a_node4"><a xlink:href="class_commander.html#a98c1328d154110366210326ada901d4e" target="_top" xlink:title="Default execution function.">
<polygon fill="white" stroke="#666666" points="251,-85.5 141,-85.5 141,-66.5 251,-66.5 251,-85.5"/>
<text text-anchor="middle" x="196" y="-73.5" font-family="Helvetica,sans-Serif" font-size="10.00">Commander::execute</text>
</a>
</g>
</g>
<!-- Node3&#45;&gt;Node4 -->
<g id="edge3" class="edge">
<title>Node3&#45;&gt;Node4</title>
<path fill="none" stroke="#63b8ff" d="M277.64,-76C268.62,-76 259.63,-76 251.12,-76"/>
<polygon fill="#63b8ff" stroke="#63b8ff" points="277.83,-79.5 287.83,-76 277.83,-72.5 277.83,-79.5"/>
</g>
<!-- Node5 -->
<g id="node5" class="node">
<title>Node5</title>
<g id="a_node5"><a xlink:href="class_commander.html#a566db8c9ab5fc802e30e9204873c894b" target="_top" xlink:title="Create a very very simple command lime.">
<polygon fill="white" stroke="#666666" points="104,-85.5 0,-85.5 0,-66.5 104,-66.5 104,-85.5"/>
<text text-anchor="middle" x="52" y="-73.5" font-family="Helvetica,sans-Serif" font-size="10.00">Commander::update</text>
</a>
</g>
</g>
<!-- Node4&#45;&gt;Node5 -->
<g id="edge4" class="edge">
<title>Node4&#45;&gt;Node5</title>
<path fill="none" stroke="#63b8ff" d="M130.89,-76C121.92,-76 112.81,-76 104.13,-76"/>
<polygon fill="#63b8ff" stroke="#63b8ff" points="130.91,-79.5 140.91,-76 130.91,-72.5 130.91,-79.5"/>
</g>
<!-- Node7 -->
<g id="node7" class="node">
<title>Node7</title>
<g id="a_node7"><a xlink:href="class_commander.html#a8415264e9cdf820c7ad1872cc36811bd" target="_top" xlink:title="Recursive function optimize a section in the tree.">
<polygon fill="white" stroke="#666666" points="421.5,-30 308.5,-30 308.5,0 421.5,0 421.5,-30"/>
<text text-anchor="start" x="316.5" y="-18" font-family="Helvetica,sans-Serif" font-size="10.00">Commander::recursive</text>
<text text-anchor="middle" x="365" y="-7" font-family="Helvetica,sans-Serif" font-size="10.00">_optimizer</text>
</a>
</g>
</g>
<!-- Node6&#45;&gt;Node7 -->
<g id="edge7" class="edge">
<title>Node6&#45;&gt;Node7</title>
<path fill="none" stroke="#63b8ff" d="M467.43,-20.4C452.27,-19.59 436.34,-18.75 421.72,-17.97"/>
<polygon fill="#63b8ff" stroke="#63b8ff" points="467.61,-23.92 477.78,-20.95 467.98,-16.93 467.61,-23.92"/>
</g>
<!-- Node7&#45;&gt;Node7 -->
<g id="edge10" class="edge">
<title>Node7&#45;&gt;Node7</title>
<path fill="none" stroke="#63b8ff" d="M394.41,-40.6C390.39,-44.97 380.59,-48 365,-48 338.75,-48 328.91,-39.41 335.47,-30.28"/>
<polygon fill="#63b8ff" stroke="#63b8ff" points="397.91,-40.32 394.53,-30.28 390.91,-40.23 397.91,-40.32"/>
</g>
<!-- Node8 -->
<g id="node8" class="node">
<title>Node8</title>
<g id="a_node8"><a xlink:href="class_commander.html#ad435a3490d9ae4b4dda2c88e2fbf0421" target="_top" xlink:title="Optimizes the tree to make it balanced.">
<polygon fill="white" stroke="#666666" points="252,-30 140,-30 140,0 252,0 252,-30"/>
<text text-anchor="start" x="148" y="-18" font-family="Helvetica,sans-Serif" font-size="10.00">Commander::optimize</text>
<text text-anchor="middle" x="196" y="-7" font-family="Helvetica,sans-Serif" font-size="10.00">_api_tree</text>
</a>
</g>
</g>
<!-- Node7&#45;&gt;Node8 -->
<g id="edge8" class="edge">
<title>Node7&#45;&gt;Node8</title>
<path fill="none" stroke="#63b8ff" d="M298.01,-15C282.8,-15 266.77,-15 252.08,-15"/>
<polygon fill="#63b8ff" stroke="#63b8ff" points="298.39,-18.5 308.39,-15 298.39,-11.5 298.39,-18.5"/>
</g>
<!-- Node9 -->
<g id="node9" class="node">
<title>Node9</title>
<g id="a_node9"><a xlink:href="class_commander.html#a5d9d12c3d15cf350593f4c2b11ec05d8" target="_top" xlink:title="Initializer.">
<polygon fill="white" stroke="#666666" points="96,-24.5 8,-24.5 8,-5.5 96,-5.5 96,-24.5"/>
<text text-anchor="middle" x="52" y="-12.5" font-family="Helvetica,sans-Serif" font-size="10.00">Commander::init</text>
</a>
</g>
</g>
<!-- Node8&#45;&gt;Node9 -->
<g id="edge9" class="edge">
<title>Node8&#45;&gt;Node9</title>
<path fill="none" stroke="#63b8ff" d="M129.39,-15C118.08,-15 106.59,-15 96.07,-15"/>
<polygon fill="#63b8ff" stroke="#63b8ff" points="129.69,-18.5 139.69,-15 129.69,-11.5 129.69,-18.5"/>
</g>
</g>
</svg>
