<?xml version="1.0" encoding="UTF-8" standalone="no"?>
<!DOCTYPE svg PUBLIC "-//W3C//DTD SVG 1.1//EN"
 "http://www.w3.org/Graphics/SVG/1.1/DTD/svg11.dtd">
<!-- Generated by graphviz version 5.0.1 (20220820.1526)
 -->
<!-- Title: Argument::parseFloat Pages: 1 -->
<svg width="589pt" height="138pt"
 viewBox="0.00 0.00 589.00 138.00" xmlns="http://www.w3.org/2000/svg" xmlns:xlink="http://www.w3.org/1999/xlink">
<g id="graph0" class="graph" transform="scale(1 1) rotate(0) translate(4 134)">
<title>Argument::parseFloat</title>
<!-- Node1 -->
<g id="node1" class="node">
<title>Node1</title>
<g id="a_node1"><a xlink:title=" ">
<polygon fill="#999999" stroke="#666666" points="110,-74 0,-74 0,-55 110,-55 110,-74"/>
<text text-anchor="middle" x="55" y="-62" font-family="Helvetica,sans-Serif" font-size="10.00">Argument::parseFloat</text>
</a>
</g>
</g>
<!-- Node2 -->
<g id="node2" class="node">
<title>Node2</title>
<g id="a_node2"><a xlink:href="class_argument.html#a7fab3d983e4a63b93e6f50df82ed6f84" target="_top" xlink:title=" ">
<polygon fill="white" stroke="#666666" points="247,-74 146,-74 146,-55 247,-55 247,-74"/>
<text text-anchor="middle" x="196.5" y="-62" font-family="Helvetica,sans-Serif" font-size="10.00">Argument::findStart</text>
</a>
</g>
</g>
<!-- Node1&#45;&gt;Node2 -->
<g id="edge1" class="edge">
<title>Node1&#45;&gt;Node2</title>
<path fill="none" stroke="#63b8ff" d="M110.33,-64.5C118.6,-64.5 127.17,-64.5 135.55,-64.5"/>
<polygon fill="#63b8ff" stroke="#63b8ff" points="135.64,-68 145.64,-64.5 135.64,-61 135.64,-68"/>
</g>
<!-- Node3 -->
<g id="node3" class="node">
<title>Node3</title>
<g id="a_node3"><a xlink:href="class_argument.html#a19696736b23d7f4f4c6e4125e67f59a8" target="_top" xlink:title=" ">
<polygon fill="white" stroke="#666666" points="425,-130 299,-130 299,-111 425,-111 425,-130"/>
<text text-anchor="middle" x="362" y="-118" font-family="Helvetica,sans-Serif" font-size="10.00">Argument::findLongName</text>
</a>
</g>
</g>
<!-- Node2&#45;&gt;Node3 -->
<g id="edge2" class="edge">
<title>Node2&#45;&gt;Node3</title>
<path fill="none" stroke="#63b8ff" d="M216.1,-74.01C233.15,-82.43 259.27,-94.57 283,-102.5 289.46,-104.66 296.32,-106.65 303.17,-108.46"/>
<polygon fill="#63b8ff" stroke="#63b8ff" points="302.61,-111.93 313.16,-110.99 304.32,-105.15 302.61,-111.93"/>
</g>
<!-- Node6 -->
<g id="node6" class="node">
<title>Node6</title>
<g id="a_node6"><a xlink:href="class_argument.html#a267c2e9b46491f60b264c39e08ad5686" target="_top" xlink:title=" ">
<polygon fill="white" stroke="#666666" points="414,-56 310,-56 310,-37 414,-37 414,-56"/>
<text text-anchor="middle" x="362" y="-44" font-family="Helvetica,sans-Serif" font-size="10.00">Argument::findPlace</text>
</a>
</g>
</g>
<!-- Node2&#45;&gt;Node6 -->
<g id="edge5" class="edge">
<title>Node2&#45;&gt;Node6</title>
<path fill="none" stroke="#63b8ff" d="M247.44,-59C264.01,-57.18 282.64,-55.13 299.94,-53.22"/>
<polygon fill="#63b8ff" stroke="#63b8ff" points="300.39,-56.69 309.95,-52.12 299.63,-49.74 300.39,-56.69"/>
</g>
<!-- Node7 -->
<g id="node7" class="node">
<title>Node7</title>
<g id="a_node7"><a xlink:href="class_argument.html#a3ec1ea9ca2d489a987e0fa335daaf061" target="_top" xlink:title=" ">
<polygon fill="white" stroke="#666666" points="426,-93 298,-93 298,-74 426,-74 426,-93"/>
<text text-anchor="middle" x="362" y="-81" font-family="Helvetica,sans-Serif" font-size="10.00">Argument::findShortName</text>
</a>
</g>
</g>
<!-- Node2&#45;&gt;Node7 -->
<g id="edge6" class="edge">
<title>Node2&#45;&gt;Node7</title>
<path fill="none" stroke="#63b8ff" d="M247.44,-70.3C260.09,-71.77 273.94,-73.38 287.49,-74.96"/>
<polygon fill="#63b8ff" stroke="#63b8ff" points="287.42,-78.47 297.76,-76.15 288.23,-71.52 287.42,-78.47"/>
</g>
<!-- Node8 -->
<g id="node8" class="node">
<title>Node8</title>
<g id="a_node8"><a xlink:href="class_commander.html#aed49189003860bfa85ab3bf8d320c5f6" target="_top" xlink:title="Get the instance if a system variable by its name.">
<polygon fill="white" stroke="#666666" points="441,-19 283,-19 283,0 441,0 441,-19"/>
<text text-anchor="middle" x="362" y="-7" font-family="Helvetica,sans-Serif" font-size="10.00">Commander::getSystemVariable</text>
</a>
</g>
</g>
<!-- Node2&#45;&gt;Node8 -->
<g id="edge9" class="edge">
<title>Node2&#45;&gt;Node8</title>
<path fill="none" stroke="#63b8ff" d="M216.8,-54.94C233.88,-46.78 259.65,-35.18 283,-27.5 289.48,-25.37 296.33,-23.4 303.19,-21.6"/>
<polygon fill="#63b8ff" stroke="#63b8ff" points="304.34,-24.92 313.19,-19.09 302.63,-18.13 304.34,-24.92"/>
</g>
<!-- Node4 -->
<g id="node4" class="node">
<title>Node4</title>
<g id="a_node4"><a xlink:href="class_argument.html#af21c1965c64a5f3984cbf42bcf1eec5f" target="_top" xlink:title=" ">
<polygon fill="white" stroke="#666666" points="578,-130 480,-130 480,-111 578,-111 578,-130"/>
<text text-anchor="middle" x="529" y="-118" font-family="Helvetica,sans-Serif" font-size="10.00">Argument::inString</text>
</a>
</g>
</g>
<!-- Node3&#45;&gt;Node4 -->
<g id="edge3" class="edge">
<title>Node3&#45;&gt;Node4</title>
<path fill="none" stroke="#63b8ff" d="M425.38,-120.5C439.92,-120.5 455.35,-120.5 469.7,-120.5"/>
<polygon fill="#63b8ff" stroke="#63b8ff" points="469.94,-124 479.94,-120.5 469.94,-117 469.94,-124"/>
</g>
<!-- Node5 -->
<g id="node5" class="node">
<title>Node5</title>
<g id="a_node5"><a xlink:href="class_argument.html#a8f98fbce9e55886c0b3a84c6f92572e5" target="_top" xlink:title=" ">
<polygon fill="white" stroke="#666666" points="581,-93 477,-93 477,-74 581,-74 581,-93"/>
<text text-anchor="middle" x="529" y="-81" font-family="Helvetica,sans-Serif" font-size="10.00">Argument::substring</text>
</a>
</g>
</g>
<!-- Node3&#45;&gt;Node5 -->
<g id="edge4" class="edge">
<title>Node3&#45;&gt;Node5</title>
<path fill="none" stroke="#63b8ff" d="M405.49,-110.97C426.87,-106.18 452.97,-100.32 475.58,-95.25"/>
<polygon fill="#63b8ff" stroke="#63b8ff" points="476.37,-98.66 485.37,-93.06 474.84,-91.83 476.37,-98.66"/>
</g>
<!-- Node7&#45;&gt;Node4 -->
<g id="edge7" class="edge">
<title>Node7&#45;&gt;Node4</title>
<path fill="none" stroke="#63b8ff" d="M405.49,-93.03C426.87,-97.82 452.97,-103.68 475.58,-108.75"/>
<polygon fill="#63b8ff" stroke="#63b8ff" points="474.84,-112.17 485.37,-110.94 476.37,-105.34 474.84,-112.17"/>
</g>
<!-- Node7&#45;&gt;Node5 -->
<g id="edge8" class="edge">
<title>Node7&#45;&gt;Node5</title>
<path fill="none" stroke="#63b8ff" d="M426.32,-83.5C439.52,-83.5 453.4,-83.5 466.53,-83.5"/>
<polygon fill="#63b8ff" stroke="#63b8ff" points="466.87,-87 476.87,-83.5 466.87,-80 466.87,-87"/>
</g>
</g>
</svg>
