<?xml version="1.0" encoding="UTF-8" standalone="no"?>
<!DOCTYPE svg PUBLIC "-//W3C//DTD SVG 1.1//EN"
 "http://www.w3.org/Graphics/SVG/1.1/DTD/svg11.dtd">
<!-- Generated by graphviz version 5.0.1 (20220820.1526)
 -->
<!-- Title: Argument::findStart Pages: 1 -->
<svg width="443pt" height="138pt"
 viewBox="0.00 0.00 443.00 138.00" xmlns="http://www.w3.org/2000/svg" xmlns:xlink="http://www.w3.org/1999/xlink">
<g id="graph0" class="graph" transform="scale(1 1) rotate(0) translate(4 134)">
<title>Argument::findStart</title>
<!-- Node1 -->
<g id="node1" class="node">
<title>Node1</title>
<g id="a_node1"><a xlink:title=" ">
<polygon fill="#999999" stroke="#666666" points="101,-74 0,-74 0,-55 101,-55 101,-74"/>
<text text-anchor="middle" x="50.5" y="-62" font-family="Helvetica,sans-Serif" font-size="10.00">Argument::findStart</text>
</a>
</g>
</g>
<!-- Node2 -->
<g id="node2" class="node">
<title>Node2</title>
<g id="a_node2"><a xlink:href="class_argument.html#a41a3be1503f99c0ab973d0c7b45fe2bd" target="_top" xlink:title="Find the start position of a place dependent argument.">
<polygon fill="white" stroke="#666666" points="274,-130 158,-130 158,-111 274,-111 274,-130"/>
<text text-anchor="middle" x="216" y="-118" font-family="Helvetica,sans-Serif" font-size="10.00">Argument::findByPlace</text>
</a>
</g>
</g>
<!-- Node1&#45;&gt;Node2 -->
<g id="edge1" class="edge">
<title>Node1&#45;&gt;Node2</title>
<path fill="none" stroke="#63b8ff" d="M70.1,-74.01C87.15,-82.43 113.27,-94.57 137,-102.5 143.46,-104.66 150.32,-106.65 157.17,-108.46"/>
<polygon fill="#63b8ff" stroke="#63b8ff" points="156.61,-111.93 167.16,-110.99 158.32,-105.15 156.61,-111.93"/>
</g>
<!-- Node4 -->
<g id="node4" class="node">
<title>Node4</title>
<g id="a_node4"><a xlink:href="class_argument.html#a19696736b23d7f4f4c6e4125e67f59a8" target="_top" xlink:title="Find the start position of a long named argument.">
<polygon fill="white" stroke="#666666" points="279,-93 153,-93 153,-74 279,-74 279,-93"/>
<text text-anchor="middle" x="216" y="-81" font-family="Helvetica,sans-Serif" font-size="10.00">Argument::findLongName</text>
</a>
</g>
</g>
<!-- Node1&#45;&gt;Node4 -->
<g id="edge3" class="edge">
<title>Node1&#45;&gt;Node4</title>
<path fill="none" stroke="#63b8ff" d="M101.44,-70.3C114.52,-71.82 128.88,-73.49 142.86,-75.12"/>
<polygon fill="#63b8ff" stroke="#63b8ff" points="142.61,-78.61 152.94,-76.29 143.41,-71.66 142.61,-78.61"/>
</g>
<!-- Node6 -->
<g id="node6" class="node">
<title>Node6</title>
<g id="a_node6"><a xlink:href="class_argument.html#a3ec1ea9ca2d489a987e0fa335daaf061" target="_top" xlink:title="Find the start position of a short named argument.">
<polygon fill="white" stroke="#666666" points="280,-56 152,-56 152,-37 280,-37 280,-56"/>
<text text-anchor="middle" x="216" y="-44" font-family="Helvetica,sans-Serif" font-size="10.00">Argument::findShortName</text>
</a>
</g>
</g>
<!-- Node1&#45;&gt;Node6 -->
<g id="edge6" class="edge">
<title>Node1&#45;&gt;Node6</title>
<path fill="none" stroke="#63b8ff" d="M101.44,-59C114.09,-57.61 127.94,-56.08 141.49,-54.59"/>
<polygon fill="#63b8ff" stroke="#63b8ff" points="142.2,-58.04 151.76,-53.46 141.44,-51.08 142.2,-58.04"/>
</g>
<!-- Node7 -->
<g id="node7" class="node">
<title>Node7</title>
<g id="a_node7"><a xlink:href="class_commander.html#a8c61dd05384f4a5d02932c602f8d8e00" target="_top" xlink:title="Get the instance if a system variable by its name.">
<polygon fill="white" stroke="#666666" points="295,-19 137,-19 137,0 295,0 295,-19"/>
<text text-anchor="middle" x="216" y="-7" font-family="Helvetica,sans-Serif" font-size="10.00">Commander::getSystemVariable</text>
</a>
</g>
</g>
<!-- Node1&#45;&gt;Node7 -->
<g id="edge9" class="edge">
<title>Node1&#45;&gt;Node7</title>
<path fill="none" stroke="#63b8ff" d="M70.8,-54.94C87.88,-46.78 113.65,-35.18 137,-27.5 143.48,-25.37 150.33,-23.4 157.19,-21.6"/>
<polygon fill="#63b8ff" stroke="#63b8ff" points="158.34,-24.92 167.19,-19.09 156.63,-18.13 158.34,-24.92"/>
</g>
<!-- Node3 -->
<g id="node3" class="node">
<title>Node3</title>
<g id="a_node3"><a xlink:href="class_argument.html#af21c1965c64a5f3984cbf42bcf1eec5f" target="_top" xlink:title=" ">
<polygon fill="white" stroke="#666666" points="432,-93 334,-93 334,-74 432,-74 432,-93"/>
<text text-anchor="middle" x="383" y="-81" font-family="Helvetica,sans-Serif" font-size="10.00">Argument::inString</text>
</a>
</g>
</g>
<!-- Node2&#45;&gt;Node3 -->
<g id="edge2" class="edge">
<title>Node2&#45;&gt;Node3</title>
<path fill="none" stroke="#63b8ff" d="M259.49,-110.97C280.87,-106.18 306.97,-100.32 329.58,-95.25"/>
<polygon fill="#63b8ff" stroke="#63b8ff" points="330.37,-98.66 339.37,-93.06 328.84,-91.83 330.37,-98.66"/>
</g>
<!-- Node4&#45;&gt;Node3 -->
<g id="edge4" class="edge">
<title>Node4&#45;&gt;Node3</title>
<path fill="none" stroke="#63b8ff" d="M279.38,-83.5C293.92,-83.5 309.35,-83.5 323.7,-83.5"/>
<polygon fill="#63b8ff" stroke="#63b8ff" points="323.94,-87 333.94,-83.5 323.94,-80 323.94,-87"/>
</g>
<!-- Node5 -->
<g id="node5" class="node">
<title>Node5</title>
<g id="a_node5"><a xlink:href="class_argument.html#a8f98fbce9e55886c0b3a84c6f92572e5" target="_top" xlink:title=" ">
<polygon fill="white" stroke="#666666" points="435,-56 331,-56 331,-37 435,-37 435,-56"/>
<text text-anchor="middle" x="383" y="-44" font-family="Helvetica,sans-Serif" font-size="10.00">Argument::substring</text>
</a>
</g>
</g>
<!-- Node4&#45;&gt;Node5 -->
<g id="edge5" class="edge">
<title>Node4&#45;&gt;Node5</title>
<path fill="none" stroke="#63b8ff" d="M259.49,-73.97C280.87,-69.18 306.97,-63.32 329.58,-58.25"/>
<polygon fill="#63b8ff" stroke="#63b8ff" points="330.37,-61.66 339.37,-56.06 328.84,-54.83 330.37,-61.66"/>
</g>
<!-- Node6&#45;&gt;Node3 -->
<g id="edge7" class="edge">
<title>Node6&#45;&gt;Node3</title>
<path fill="none" stroke="#63b8ff" d="M259.49,-56.03C280.87,-60.82 306.97,-66.68 329.58,-71.75"/>
<polygon fill="#63b8ff" stroke="#63b8ff" points="328.84,-75.17 339.37,-73.94 330.37,-68.34 328.84,-75.17"/>
</g>
<!-- Node6&#45;&gt;Node5 -->
<g id="edge8" class="edge">
<title>Node6&#45;&gt;Node5</title>
<path fill="none" stroke="#63b8ff" d="M280.32,-46.5C293.52,-46.5 307.4,-46.5 320.53,-46.5"/>
<polygon fill="#63b8ff" stroke="#63b8ff" points="320.87,-50 330.87,-46.5 320.87,-43 320.87,-50"/>
</g>
</g>
</svg>
