<?xml version="1.0" encoding="UTF-8" standalone="no"?>
<!DOCTYPE svg PUBLIC "-//W3C//DTD SVG 1.1//EN"
 "http://www.w3.org/Graphics/SVG/1.1/DTD/svg11.dtd">
<!-- Generated by graphviz version 5.0.1 (20220820.1526)
 -->
<!-- Title: Argument::inString Pages: 1 -->
<!--zoomable 471 -->
<svg id="main" version="1.1" xmlns="http://www.w3.org/2000/svg" xmlns:xlink="http://www.w3.org/1999/xlink" xml:space="preserve" onload="init(evt)">
<style type="text/css"><![CDATA[
.edge:hover path { stroke: red; }
.edge:hover polygon { stroke: red; fill: red; }
]]></style>
<script type="text/javascript"><![CDATA[
var edges = document.getElementsByTagName('g');
if (edges && edges.length) {
  for (var i=0;i<edges.length;i++) {
    if (edges[i].id.substr(0,4)=='edge') {
      edges[i].setAttribute('class','edge');
    }
  }
}
]]></script>
        <defs>
                <circle id="rim" cx="0" cy="0" r="7"/>
                <circle id="rim2" cx="0" cy="0" r="3.5"/>
                <g id="zoomPlus">
                        <use xlink:href="#rim" fill="#404040">
                                <set attributeName="fill" to="#808080" begin="zoomplus.mouseover" end="zoomplus.mouseout"/>
                        </use>
                        <path d="M-4,0h8M0,-4v8" fill="none" stroke="white" stroke-width="1.5" pointer-events="none"/>
                </g>
                <g id="zoomMin">
                        <use xlink:href="#rim" fill="#404040">
                                <set attributeName="fill" to="#808080" begin="zoomminus.mouseover" end="zoomminus.mouseout"/>
                        </use>
                        <path d="M-4,0h8" fill="none" stroke="white" stroke-width="1.5" pointer-events="none"/>
                </g>
                <g id="dirArrow">
                        <path fill="none" stroke="white" stroke-width="1.5" d="M0,-3.0v7 M-2.5,-0.5L0,-3.0L2.5,-0.5"/>
                </g>
               <g id="resetDef">
                       <use xlink:href="#rim2" fill="#404040">
                               <set attributeName="fill" to="#808080" begin="reset.mouseover" end="reset.mouseout"/>
                       </use>
               </g>
        </defs>

<script type="text/javascript">
var viewWidth = 781;
var viewHeight = 471;
var sectionId = 'dynsection-12';
</script>
<script xlink:href="svgpan.js"/>
<svg id="graph" class="graph">
<g id="viewport">
<title>Argument::inString</title>
<!-- Node1 -->
<g id="node1" class="node">
<title>Node1</title>
<g id="a_node1"><a xlink:title=" ">
<polygon fill="#999999" stroke="#666666" points="773,-132 675,-132 675,-113 773,-113 773,-132"/>
<text text-anchor="middle" x="724" y="-120" font-family="Helvetica,sans-Serif" font-size="10.00">Argument::inString</text>
</a>
</g>
</g>
<!-- Node2 -->
<g id="node2" class="node">
<title>Node2</title>
<g id="a_node2"><a xlink:href="class_argument.html#a41a3be1503f99c0ab973d0c7b45fe2bd" target="_top" xlink:title="Find the start position of a place dependent argument.">
<polygon fill="white" stroke="#666666" points="633,-169 517,-169 517,-150 633,-150 633,-169"/>
<text text-anchor="middle" x="575" y="-157" font-family="Helvetica,sans-Serif" font-size="10.00">Argument::findByPlace</text>
</a>
</g>
</g>
<!-- Node1&#45;&gt;Node2 -->
<g id="edge1" class="edge">
<title>Node1&#45;&gt;Node2</title>
<path fill="none" stroke="#63b8ff" d="M675.35,-134.49C655.47,-139.5 632.7,-145.23 613.98,-149.94"/>
<polygon fill="#63b8ff" stroke="#63b8ff" points="676.3,-137.86 685.14,-132.03 674.59,-131.08 676.3,-137.86"/>
</g>
<!-- Node20 -->
<g id="node20" class="node">
<title>Node20</title>
<g id="a_node20"><a xlink:href="class_argument.html#a19696736b23d7f4f4c6e4125e67f59a8" target="_top" xlink:title="Find the start position of a long named argument.">
<polygon fill="white" stroke="#666666" points="638,-95 512,-95 512,-76 638,-76 638,-95"/>
<text text-anchor="middle" x="575" y="-83" font-family="Helvetica,sans-Serif" font-size="10.00">Argument::findLongName</text>
</a>
</g>
</g>
<!-- Node1&#45;&gt;Node20 -->
<g id="edge22" class="edge">
<title>Node1&#45;&gt;Node20</title>
<path fill="none" stroke="#63b8ff" d="M675.35,-110.51C655.47,-105.5 632.7,-99.77 613.98,-95.06"/>
<polygon fill="#63b8ff" stroke="#63b8ff" points="674.59,-113.92 685.14,-112.97 676.3,-107.14 674.59,-113.92"/>
</g>
<!-- Node22 -->
<g id="node22" class="node">
<title>Node22</title>
<g id="a_node22"><a xlink:href="class_argument.html#a3ec1ea9ca2d489a987e0fa335daaf061" target="_top" xlink:title="Find the start position of a short named argument.">
<polygon fill="white" stroke="#666666" points="639,-132 511,-132 511,-113 639,-113 639,-132"/>
<text text-anchor="middle" x="575" y="-120" font-family="Helvetica,sans-Serif" font-size="10.00">Argument::findShortName</text>
</a>
</g>
</g>
<!-- Node1&#45;&gt;Node22 -->
<g id="edge29" class="edge">
<title>Node1&#45;&gt;Node22</title>
<path fill="none" stroke="#63b8ff" d="M664.79,-122.5C656.39,-122.5 647.71,-122.5 639.22,-122.5"/>
<polygon fill="#63b8ff" stroke="#63b8ff" points="664.87,-126 674.87,-122.5 664.87,-119 664.87,-126"/>
</g>
<!-- Node3 -->
<g id="node3" class="node">
<title>Node3</title>
<g id="a_node3"><a xlink:href="class_argument.html#a7fab3d983e4a63b93e6f50df82ed6f84" target="_top" xlink:title=" ">
<polygon fill="white" stroke="#666666" points="475,-169 374,-169 374,-150 475,-150 475,-169"/>
<text text-anchor="middle" x="424.5" y="-157" font-family="Helvetica,sans-Serif" font-size="10.00">Argument::findStart</text>
</a>
</g>
</g>
<!-- Node2&#45;&gt;Node3 -->
<g id="edge2" class="edge">
<title>Node2&#45;&gt;Node3</title>
<path fill="none" stroke="#63b8ff" d="M506.51,-159.5C495.91,-159.5 485.13,-159.5 475.03,-159.5"/>
<polygon fill="#63b8ff" stroke="#63b8ff" points="506.59,-163 516.59,-159.5 506.59,-156 506.59,-163"/>
</g>
<!-- Node4 -->
<g id="node4" class="node">
<title>Node4</title>
<g id="a_node4"><a xlink:href="class_argument.html#a2258f3363dbb1d462286a41d4ab3b8ad" target="_top" xlink:title=" ">
<polygon fill="white" stroke="#666666" points="317,-370 207,-370 207,-351 317,-351 317,-370"/>
<text text-anchor="middle" x="262" y="-358" font-family="Helvetica,sans-Serif" font-size="10.00">Argument::parseFloat</text>
</a>
</g>
</g>
<!-- Node3&#45;&gt;Node4 -->
<g id="edge3" class="edge">
<title>Node3&#45;&gt;Node4</title>
<path fill="none" stroke="#63b8ff" d="M409.33,-177.24C376.46,-218.41 295.87,-319.34 270.66,-350.9"/>
<polygon fill="#63b8ff" stroke="#63b8ff" points="412.25,-179.19 415.76,-169.19 406.78,-174.83 412.25,-179.19"/>
</g>
<!-- Node10 -->
<g id="node10" class="node">
<title>Node10</title>
<g id="a_node10"><a xlink:href="class_argument.html#aeabd957dda6add595aa860761ea337f1" target="_top" xlink:title=" ">
<polygon fill="white" stroke="#666666" points="311.5,-204 212.5,-204 212.5,-185 311.5,-185 311.5,-204"/>
<text text-anchor="middle" x="262" y="-192" font-family="Helvetica,sans-Serif" font-size="10.00">Argument::parseInt</text>
</a>
</g>
</g>
<!-- Node3&#45;&gt;Node10 -->
<g id="edge9" class="edge">
<title>Node3&#45;&gt;Node10</title>
<path fill="none" stroke="#63b8ff" d="M369.82,-171.2C349.34,-175.67 326.26,-180.71 306.8,-184.95"/>
<polygon fill="#63b8ff" stroke="#63b8ff" points="370.62,-174.61 379.64,-169.06 369.13,-167.77 370.62,-174.61"/>
</g>
<!-- Node19 -->
<g id="node19" class="node">
<title>Node19</title>
<g id="a_node19"><a xlink:href="class_argument.html#a91aa4b22990c4532a437afb1ed58acf4" target="_top" xlink:title=" ">
<polygon fill="white" stroke="#666666" points="338,-167 186,-167 186,-148 338,-148 338,-167"/>
<text text-anchor="middle" x="262" y="-155" font-family="Helvetica,sans-Serif" font-size="10.00">Argument::parseStringFunction</text>
</a>
</g>
</g>
<!-- Node3&#45;&gt;Node19 -->
<g id="edge21" class="edge">
<title>Node3&#45;&gt;Node19</title>
<path fill="none" stroke="#63b8ff" d="M363.38,-158.75C355.17,-158.65 346.65,-158.54 338.21,-158.44"/>
<polygon fill="#63b8ff" stroke="#63b8ff" points="363.55,-162.25 373.6,-158.88 363.64,-155.25 363.55,-162.25"/>
</g>
<!-- Node5 -->
<g id="node5" class="node">
<title>Node5</title>
<g id="a_node5"><a xlink:href="_commander-_a_p_i-_math-_commands_8cpp.html#ae7d6fa81c7ec3354378b1f948c0c8749" target="_top" xlink:title="Premade function for abs command.">
<polygon fill="white" stroke="#666666" points="131,-389 19,-389 19,-370 131,-370 131,-389"/>
<text text-anchor="middle" x="75" y="-377" font-family="Helvetica,sans-Serif" font-size="10.00">commander_abs_func</text>
</a>
</g>
</g>
<!-- Node4&#45;&gt;Node5 -->
<g id="edge4" class="edge">
<title>Node4&#45;&gt;Node5</title>
<path fill="none" stroke="#63b8ff" d="M196.98,-367.07C175.51,-369.28 151.76,-371.72 131.04,-373.85"/>
<polygon fill="#63b8ff" stroke="#63b8ff" points="197.4,-370.55 206.99,-366.05 196.69,-363.59 197.4,-370.55"/>
</g>
<!-- Node6 -->
<g id="node6" class="node">
<title>Node6</title>
<g id="a_node6"><a xlink:href="_commander-_a_p_i-_math-_commands_8cpp.html#abfe392815068d05be5e099def983b5ec" target="_top" xlink:title="Premade function for cos command.">
<polygon fill="white" stroke="#666666" points="131,-352 19,-352 19,-333 131,-333 131,-352"/>
<text text-anchor="middle" x="75" y="-340" font-family="Helvetica,sans-Serif" font-size="10.00">commander_cos_func</text>
</a>
</g>
</g>
<!-- Node4&#45;&gt;Node6 -->
<g id="edge5" class="edge">
<title>Node4&#45;&gt;Node6</title>
<path fill="none" stroke="#63b8ff" d="M196.98,-354.27C175.51,-352.18 151.76,-349.87 131.04,-347.85"/>
<polygon fill="#63b8ff" stroke="#63b8ff" points="196.7,-357.76 206.99,-355.25 197.38,-350.79 196.7,-357.76"/>
</g>
<!-- Node7 -->
<g id="node7" class="node">
<title>Node7</title>
<g id="a_node7"><a xlink:href="_commander-_a_p_i-_system-_commands_8cpp.html#af867379096ae63ff42938a15749f2bd4" target="_top" xlink:title="Premade function for not command.">
<polygon fill="white" stroke="#666666" points="136.5,-426 13.5,-426 13.5,-407 136.5,-407 136.5,-426"/>
<text text-anchor="middle" x="75" y="-414" font-family="Helvetica,sans-Serif" font-size="10.00">commander_export_func</text>
</a>
</g>
</g>
<!-- Node4&#45;&gt;Node7 -->
<g id="edge6" class="edge">
<title>Node4&#45;&gt;Node7</title>
<path fill="none" stroke="#63b8ff" d="M225.74,-373.49C204.05,-381.25 175.6,-391.02 150,-398.5 139.72,-401.5 128.54,-404.41 118.05,-406.98"/>
<polygon fill="#63b8ff" stroke="#63b8ff" points="226.98,-376.77 235.2,-370.08 224.6,-370.18 226.98,-376.77"/>
</g>
<!-- Node8 -->
<g id="node8" class="node">
<title>Node8</title>
<g id="a_node8"><a xlink:href="_commander-_a_p_i-_system-_commands_8cpp.html#a67c664cbc5869ccf57996adeecbb6cd9" target="_top" xlink:title="Premade function for not command.">
<polygon fill="white" stroke="#666666" points="150,-463 0,-463 0,-444 150,-444 150,-463"/>
<text text-anchor="middle" x="75" y="-451" font-family="Helvetica,sans-Serif" font-size="10.00">commander_exportTarget_func</text>
</a>
</g>
</g>
<!-- Node4&#45;&gt;Node8 -->
<g id="edge7" class="edge">
<title>Node4&#45;&gt;Node8</title>
<path fill="none" stroke="#63b8ff" d="M241.95,-376.51C220.78,-393.52 184.96,-420.04 150,-435.5 142.38,-438.87 134.03,-441.67 125.77,-443.98"/>
<polygon fill="#63b8ff" stroke="#63b8ff" points="244.29,-379.11 249.82,-370.07 239.87,-373.69 244.29,-379.11"/>
</g>
<!-- Node9 -->
<g id="node9" class="node">
<title>Node9</title>
<g id="a_node9"><a xlink:href="_commander-_a_p_i-_math-_commands_8cpp.html#a1113369ca4b669dc0c6355fcf126cc42" target="_top" xlink:title="Premade function for sin command.">
<polygon fill="white" stroke="#666666" points="129.5,-315 20.5,-315 20.5,-296 129.5,-296 129.5,-315"/>
<text text-anchor="middle" x="75" y="-303" font-family="Helvetica,sans-Serif" font-size="10.00">commander_sin_func</text>
</a>
</g>
</g>
<!-- Node4&#45;&gt;Node9 -->
<g id="edge8" class="edge">
<title>Node4&#45;&gt;Node9</title>
<path fill="none" stroke="#63b8ff" d="M223.62,-347.74C202.18,-340.57 174.69,-331.67 150,-324.5 138.66,-321.21 126.26,-317.91 114.91,-315.01"/>
<polygon fill="#63b8ff" stroke="#63b8ff" points="222.73,-351.13 233.32,-350.99 224.96,-344.49 222.73,-351.13"/>
</g>
<!-- Node10&#45;&gt;Node5 -->
<g id="edge10" class="edge">
<title>Node10&#45;&gt;Node5</title>
<path fill="none" stroke="#63b8ff" d="M253.75,-213.83C239.52,-248.99 204.51,-323.29 150,-361.5 144.37,-365.45 137.97,-368.53 131.36,-370.94"/>
<polygon fill="#63b8ff" stroke="#63b8ff" points="257.11,-214.85 257.49,-204.26 250.59,-212.29 257.11,-214.85"/>
</g>
<!-- Node10&#45;&gt;Node6 -->
<g id="edge13" class="edge">
<title>Node10&#45;&gt;Node6</title>
<path fill="none" stroke="#63b8ff" d="M250.46,-213.07C233.26,-241.62 196.36,-295.99 150,-324.5 144.26,-328.03 137.86,-330.87 131.31,-333.15"/>
<polygon fill="#63b8ff" stroke="#63b8ff" points="253.67,-214.52 255.71,-204.13 247.63,-210.98 253.67,-214.52"/>
</g>
<!-- Node10&#45;&gt;Node9 -->
<g id="edge20" class="edge">
<title>Node10&#45;&gt;Node9</title>
<path fill="none" stroke="#63b8ff" d="M245.51,-211.61C225.5,-232.66 188.63,-267.98 150,-287.5 143.27,-290.9 135.87,-293.68 128.43,-295.94"/>
<polygon fill="#63b8ff" stroke="#63b8ff" points="248.29,-213.76 252.55,-204.06 243.17,-208.99 248.29,-213.76"/>
</g>
<!-- Node11 -->
<g id="node11" class="node">
<title>Node11</title>
<g id="a_node11"><a xlink:href="_commander-_a_p_i-_analog-_i_o-_commands_8cpp.html#a22f364acaf405f853e1ff3787c35b53e" target="_top" xlink:title="Premade function for analogRead command.">
<polygon fill="white" stroke="#666666" points="148.5,-167 1.5,-167 1.5,-148 148.5,-148 148.5,-167"/>
<text text-anchor="middle" x="75" y="-155" font-family="Helvetica,sans-Serif" font-size="10.00">commander_analogRead_func</text>
</a>
</g>
</g>
<!-- Node10&#45;&gt;Node11 -->
<g id="edge11" class="edge">
<title>Node10&#45;&gt;Node11</title>
<path fill="none" stroke="#63b8ff" d="M203.42,-182.98C177.85,-177.87 148.12,-171.92 123.8,-167.06"/>
<polygon fill="#63b8ff" stroke="#63b8ff" points="202.87,-186.44 213.36,-184.97 204.24,-179.58 202.87,-186.44"/>
</g>
<!-- Node12 -->
<g id="node12" class="node">
<title>Node12</title>
<g id="a_node12"><a xlink:href="_commander-_a_p_i-_analog-_i_o-_commands_8cpp.html#a0bb64a637cbaa4134e0cc9d1a7453ecf" target="_top" xlink:title="Premade function for analogRead command.">
<polygon fill="white" stroke="#666666" points="149,-278 1,-278 1,-259 149,-259 149,-278"/>
<text text-anchor="middle" x="75" y="-266" font-family="Helvetica,sans-Serif" font-size="10.00">commander_analogWrite_func</text>
</a>
</g>
</g>
<!-- Node10&#45;&gt;Node12 -->
<g id="edge12" class="edge">
<title>Node10&#45;&gt;Node12</title>
<path fill="none" stroke="#63b8ff" d="M236.28,-209.04C214.26,-221.49 180.84,-239.14 150,-250.5 141.19,-253.74 131.58,-256.57 122.28,-258.97"/>
<polygon fill="#63b8ff" stroke="#63b8ff" points="238.04,-212.07 244.98,-204.06 234.56,-205.99 238.04,-212.07"/>
</g>
<!-- Node13 -->
<g id="node13" class="node">
<title>Node13</title>
<g id="a_node13"><a xlink:href="_commander-_a_p_i-_digital-_i_o-_commands_8cpp.html#a488c98390245a3d0d7172f364ec91ed8" target="_top" xlink:title="Premade function for digitalRead command.">
<polygon fill="white" stroke="#666666" points="147,-93 3,-93 3,-74 147,-74 147,-93"/>
<text text-anchor="middle" x="75" y="-81" font-family="Helvetica,sans-Serif" font-size="10.00">commander_digitalRead_func</text>
</a>
</g>
</g>
<!-- Node10&#45;&gt;Node13 -->
<g id="edge14" class="edge">
<title>Node10&#45;&gt;Node13</title>
<path fill="none" stroke="#63b8ff" d="M202.79,-186.15C196.74,-183.68 190.99,-180.53 186,-176.5 157.24,-153.27 178.73,-124.78 150,-101.5 145.79,-98.09 141.03,-95.31 136,-93.04"/>
<polygon fill="#63b8ff" stroke="#63b8ff" points="201.88,-189.53 212.48,-189.47 204.15,-182.91 201.88,-189.53"/>
</g>
<!-- Node14 -->
<g id="node14" class="node">
<title>Node14</title>
<g id="a_node14"><a xlink:href="_commander-_a_p_i-_digital-_i_o-_commands_8cpp.html#af309a2eb04319e75d4cc91e93894846e" target="_top" xlink:title="Premade function for digitalWrite command.">
<polygon fill="white" stroke="#666666" points="147.5,-56 2.5,-56 2.5,-37 147.5,-37 147.5,-56"/>
<text text-anchor="middle" x="75" y="-44" font-family="Helvetica,sans-Serif" font-size="10.00">commander_digitalWrite_func</text>
</a>
</g>
</g>
<!-- Node10&#45;&gt;Node14 -->
<g id="edge15" class="edge">
<title>Node10&#45;&gt;Node14</title>
<path fill="none" stroke="#63b8ff" d="M202.47,-186.91C196.43,-184.31 190.77,-180.92 186,-176.5 147.66,-140.95 188.29,-100.11 150,-64.5 146.42,-61.17 142.33,-58.42 137.94,-56.17"/>
<polygon fill="#63b8ff" stroke="#63b8ff" points="201.6,-190.31 212.19,-190.36 203.94,-183.72 201.6,-190.31"/>
</g>
<!-- Node15 -->
<g id="node15" class="node">
<title>Node15</title>
<g id="a_node15"><a xlink:href="_commander-_a_p_i-_memory-_commands_8cpp.html#ac0009f7287654611dc82da625f2579a9" target="_top" xlink:title="Premade function for not command.">
<polygon fill="white" stroke="#666666" points="146.5,-19 3.5,-19 3.5,0 146.5,0 146.5,-19"/>
<text text-anchor="middle" x="75" y="-7" font-family="Helvetica,sans-Serif" font-size="10.00">commander_memDump_func</text>
</a>
</g>
</g>
<!-- Node10&#45;&gt;Node15 -->
<g id="edge16" class="edge">
<title>Node10&#45;&gt;Node15</title>
<path fill="none" stroke="#63b8ff" d="M202.38,-187.36C196.31,-184.69 190.66,-181.16 186,-176.5 137.79,-128.36 198.14,-75.71 150,-27.5 146.64,-24.13 142.76,-21.35 138.57,-19.07"/>
<polygon fill="#63b8ff" stroke="#63b8ff" points="201.6,-190.79 212.2,-190.87 203.96,-184.2 201.6,-190.79"/>
</g>
<!-- Node16 -->
<g id="node16" class="node">
<title>Node16</title>
<g id="a_node16"><a xlink:href="_commander-_a_p_i-_math-_commands_8cpp.html#aa0fa51a20a9af63d3f7e85012e533a7c" target="_top" xlink:title="Premade function for not command.">
<polygon fill="white" stroke="#666666" points="130,-241 20,-241 20,-222 130,-222 130,-241"/>
<text text-anchor="middle" x="75" y="-229" font-family="Helvetica,sans-Serif" font-size="10.00">commander_not_func</text>
</a>
</g>
</g>
<!-- Node10&#45;&gt;Node16 -->
<g id="edge17" class="edge">
<title>Node10&#45;&gt;Node16</title>
<path fill="none" stroke="#63b8ff" d="M203.42,-206.02C177.85,-211.13 148.12,-217.08 123.8,-221.94"/>
<polygon fill="#63b8ff" stroke="#63b8ff" points="204.24,-209.42 213.36,-204.03 202.87,-202.56 204.24,-209.42"/>
</g>
<!-- Node17 -->
<g id="node17" class="node">
<title>Node17</title>
<g id="a_node17"><a xlink:href="_commander-_a_p_i-_digital-_i_o-_commands_8cpp.html#a2246eb22ddae467d2e4c311b95b1ca9f" target="_top" xlink:title="Premade function for pinMode command.">
<polygon fill="white" stroke="#666666" points="141.5,-130 8.5,-130 8.5,-111 141.5,-111 141.5,-130"/>
<text text-anchor="middle" x="75" y="-118" font-family="Helvetica,sans-Serif" font-size="10.00">commander_pinMode_func</text>
</a>
</g>
</g>
<!-- Node10&#45;&gt;Node17 -->
<g id="edge18" class="edge">
<title>Node10&#45;&gt;Node17</title>
<path fill="none" stroke="#63b8ff" d="M202.5,-183.94C196.75,-181.88 191.14,-179.43 186,-176.5 166.06,-165.15 169.85,-151 150,-139.5 143.34,-135.64 135.91,-132.56 128.38,-130.09"/>
<polygon fill="#63b8ff" stroke="#63b8ff" points="201.67,-187.35 212.26,-187.03 203.79,-180.67 201.67,-187.35"/>
</g>
<!-- Node18 -->
<g id="node18" class="node">
<title>Node18</title>
<g id="a_node18"><a xlink:href="_commander-_a_p_i-_math-_commands_8cpp.html#aedeb7c7e023d071ecf07a9d6c64679d4" target="_top" xlink:title="Premade function for random command.">
<polygon fill="white" stroke="#666666" points="139,-204 11,-204 11,-185 139,-185 139,-204"/>
<text text-anchor="middle" x="75" y="-192" font-family="Helvetica,sans-Serif" font-size="10.00">commander_random_func</text>
</a>
</g>
</g>
<!-- Node10&#45;&gt;Node18 -->
<g id="edge19" class="edge">
<title>Node10&#45;&gt;Node18</title>
<path fill="none" stroke="#63b8ff" d="M202.16,-194.5C182.12,-194.5 159.63,-194.5 139.26,-194.5"/>
<polygon fill="#63b8ff" stroke="#63b8ff" points="202.39,-198 212.39,-194.5 202.39,-191 202.39,-198"/>
</g>
<!-- Node20&#45;&gt;Node3 -->
<g id="edge28" class="edge">
<title>Node20&#45;&gt;Node3</title>
<path fill="none" stroke="#63b8ff" d="M523.93,-98.29C519.5,-99.88 515.13,-101.61 511,-103.5 482.92,-116.35 453.51,-137.6 437.56,-149.9"/>
<polygon fill="#63b8ff" stroke="#63b8ff" points="525.3,-101.52 533.69,-95.05 523.09,-94.88 525.3,-101.52"/>
</g>
<!-- Node21 -->
<g id="node21" class="node">
<title>Node21</title>
<g id="a_node21"><a xlink:href="class_argument.html#a11a9933e5a65f1cbf0525cd9bd2a29ca" target="_top" xlink:title=" ">
<polygon fill="white" stroke="#666666" points="302,-93 222,-93 222,-74 302,-74 302,-93"/>
<text text-anchor="middle" x="262" y="-81" font-family="Helvetica,sans-Serif" font-size="10.00">Argument::find</text>
</a>
</g>
</g>
<!-- Node20&#45;&gt;Node21 -->
<g id="edge23" class="edge">
<title>Node20&#45;&gt;Node21</title>
<path fill="none" stroke="#63b8ff" d="M501.69,-85.03C439.6,-84.64 352.43,-84.08 302.43,-83.75"/>
<polygon fill="#63b8ff" stroke="#63b8ff" points="501.79,-88.54 511.81,-85.1 501.83,-81.54 501.79,-88.54"/>
</g>
<!-- Node21&#45;&gt;Node13 -->
<g id="edge24" class="edge">
<title>Node21&#45;&gt;Node13</title>
<path fill="none" stroke="#63b8ff" d="M211.5,-83.5C191.79,-83.5 168.74,-83.5 147.29,-83.5"/>
<polygon fill="#63b8ff" stroke="#63b8ff" points="211.77,-87 221.77,-83.5 211.77,-80 211.77,-87"/>
</g>
<!-- Node21&#45;&gt;Node14 -->
<g id="edge25" class="edge">
<title>Node21&#45;&gt;Node14</title>
<path fill="none" stroke="#63b8ff" d="M211.66,-73.63C184.41,-68.18 150.71,-61.44 123.72,-56.04"/>
<polygon fill="#63b8ff" stroke="#63b8ff" points="211.27,-77.12 221.77,-75.65 212.65,-70.26 211.27,-77.12"/>
</g>
<!-- Node21&#45;&gt;Node15 -->
<g id="edge26" class="edge">
<title>Node21&#45;&gt;Node15</title>
<path fill="none" stroke="#63b8ff" d="M236.28,-68.96C214.26,-56.51 180.84,-38.86 150,-27.5 141.19,-24.26 131.58,-21.43 122.28,-19.03"/>
<polygon fill="#63b8ff" stroke="#63b8ff" points="234.56,-72.01 244.98,-73.94 238.04,-65.93 234.56,-72.01"/>
</g>
<!-- Node21&#45;&gt;Node17 -->
<g id="edge27" class="edge">
<title>Node21&#45;&gt;Node17</title>
<path fill="none" stroke="#63b8ff" d="M211.66,-93.37C184.41,-98.82 150.71,-105.56 123.72,-110.96"/>
<polygon fill="#63b8ff" stroke="#63b8ff" points="212.65,-96.74 221.77,-91.35 211.27,-89.88 212.65,-96.74"/>
</g>
<!-- Node22&#45;&gt;Node3 -->
<g id="edge31" class="edge">
<title>Node22&#45;&gt;Node3</title>
<path fill="none" stroke="#63b8ff" d="M525.86,-134.49C505.78,-139.5 482.78,-145.23 463.87,-149.94"/>
<polygon fill="#63b8ff" stroke="#63b8ff" points="526.9,-137.84 535.76,-132.03 525.21,-131.05 526.9,-137.84"/>
</g>
<!-- Node22&#45;&gt;Node21 -->
<g id="edge30" class="edge">
<title>Node22&#45;&gt;Node21</title>
<path fill="none" stroke="#63b8ff" d="M500.47,-114.55C462.65,-110.34 415.82,-104.92 374,-99.5 350.06,-96.4 323.27,-92.55 302,-89.4"/>
<polygon fill="#63b8ff" stroke="#63b8ff" points="500.56,-118.09 510.89,-115.71 501.34,-111.13 500.56,-118.09"/>
</g>
</g>
</svg>
        <g id="navigator" transform="translate(0 0)" fill="#404254">
                <rect fill="#f2f5e9" fill-opacity="0.5" stroke="#606060" stroke-width=".5" x="0" y="0" width="60" height="60"/>
                <use id="zoomplus" xlink:href="#zoomPlus" x="17" y="9" onmousedown="handleZoom(evt,'in')"/>
                <use id="zoomminus" xlink:href="#zoomMin" x="42" y="9" onmousedown="handleZoom(evt,'out')"/>
                <use id="reset" xlink:href="#resetDef" x="30" y="36" onmousedown="handleReset()"/>
                <g id="arrowUp" xlink:href="#dirArrow" transform="translate(30 24)" onmousedown="handlePan(0,-1)">
                  <use xlink:href="#rim" fill="#404040">
                        <set attributeName="fill" to="#808080" begin="arrowUp.mouseover" end="arrowUp.mouseout"/>
                  </use>
                  <path fill="none" stroke="white" stroke-width="1.5" d="M0,-3.0v7 M-2.5,-0.5L0,-3.0L2.5,-0.5"/>
                </g>
                <g id="arrowRight" xlink:href="#dirArrow" transform="rotate(90) translate(36 -43)" onmousedown="handlePan(1,0)">
                  <use xlink:href="#rim" fill="#404040">
                        <set attributeName="fill" to="#808080" begin="arrowRight.mouseover" end="arrowRight.mouseout"/>
                  </use>
                  <path fill="none" stroke="white" stroke-width="1.5" d="M0,-3.0v7 M-2.5,-0.5L0,-3.0L2.5,-0.5"/>
                </g>
                <g id="arrowDown" xlink:href="#dirArrow" transform="rotate(180) translate(-30 -48)" onmousedown="handlePan(0,1)">
                  <use xlink:href="#rim" fill="#404040">
                        <set attributeName="fill" to="#808080" begin="arrowDown.mouseover" end="arrowDown.mouseout"/>
                  </use>
                  <path fill="none" stroke="white" stroke-width="1.5" d="M0,-3.0v7 M-2.5,-0.5L0,-3.0L2.5,-0.5"/>
                </g>
                <g id="arrowLeft" xlink:href="#dirArrow" transform="rotate(270) translate(-36 17)" onmousedown="handlePan(-1,0)">
                  <use xlink:href="#rim" fill="#404040">
                        <set attributeName="fill" to="#808080" begin="arrowLeft.mouseover" end="arrowLeft.mouseout"/>
                  </use>
                  <path fill="none" stroke="white" stroke-width="1.5" d="M0,-3.0v7 M-2.5,-0.5L0,-3.0L2.5,-0.5"/>
                </g>
        </g>
        <svg viewBox="0 0 15 15" width="100%" height="30px" preserveAspectRatio="xMaxYMin meet">
         <g id="arrow_out" transform="scale(0.3 0.3)">
          <a xlink:href="class_argument_af21c1965c64a5f3984cbf42bcf1eec5f_icgraph_org.svg" target="_base">
           <rect id="button" ry="5" rx="5" y="6" x="6" height="38" width="38"
                fill="#f2f5e9" fill-opacity="0.5" stroke="#606060" stroke-width="1.0"/>
           <path id="arrow"
             d="M 11.500037,31.436501 C 11.940474,20.09759 22.043105,11.32322 32.158766,21.979434 L 37.068811,17.246167 C 37.068811,17.246167 37.088388,32 37.088388,32 L 22.160133,31.978069 C 22.160133,31.978069 26.997745,27.140456 26.997745,27.140456 C 18.528582,18.264221 13.291696,25.230495 11.500037,31.436501 z"
             style="fill:#404040;"/>
          </a>
         </g>
        </svg>
</svg>
