<?xml version="1.0" encoding="UTF-8" standalone="no"?>
<!DOCTYPE svg PUBLIC "-//W3C//DTD SVG 1.1//EN"
 "http://www.w3.org/Graphics/SVG/1.1/DTD/svg11.dtd">
<!-- Generated by graphviz version 5.0.1 (20220820.1526)
 -->
<!-- Title: Commander::inString Pages: 1 -->
<svg width="739pt" height="82pt"
 viewBox="0.00 0.00 739.00 82.00" xmlns="http://www.w3.org/2000/svg" xmlns:xlink="http://www.w3.org/1999/xlink">
<g id="graph0" class="graph" transform="scale(1 1) rotate(0) translate(4 78)">
<title>Commander::inString</title>
<!-- Node1 -->
<g id="node1" class="node">
<title>Node1</title>
<g id="a_node1"><a xlink:title="Detect if character is in the string.">
<polygon fill="#999999" stroke="#666666" points="731,-37 623,-37 623,-18 731,-18 731,-37"/>
<text text-anchor="middle" x="677" y="-25" font-family="Helvetica,sans-Serif" font-size="10.00">Commander::inString</text>
</a>
</g>
</g>
<!-- Node2 -->
<g id="node2" class="node">
<title>Node2</title>
<g id="a_node2"><a xlink:href="class_commander.html#a9b8d9afbf4e766034a2161109387c7ff" target="_top" xlink:title="Search for a character in a string.">
<polygon fill="white" stroke="#666666" points="587,-37 476,-37 476,-18 587,-18 587,-37"/>
<text text-anchor="middle" x="531.5" y="-25" font-family="Helvetica,sans-Serif" font-size="10.00">Commander::hasChar</text>
</a>
</g>
</g>
<!-- Node1&#45;&gt;Node2 -->
<g id="edge1" class="edge">
<title>Node1&#45;&gt;Node2</title>
<path fill="none" stroke="#63b8ff" d="M612.72,-27.5C604.22,-27.5 595.56,-27.5 587.23,-27.5"/>
<polygon fill="#63b8ff" stroke="#63b8ff" points="612.97,-31 622.97,-27.5 612.97,-24 612.97,-31"/>
</g>
<!-- Node3 -->
<g id="node3" class="node">
<title>Node3</title>
<g id="a_node3"><a xlink:href="class_commander.html#a6db6d6ae40bbd49ca3036115b820813d" target="_top" xlink:title="Command execution.">
<polygon fill="white" stroke="#666666" points="440,-56 286,-56 286,-37 440,-37 440,-56"/>
<text text-anchor="middle" x="363" y="-44" font-family="Helvetica,sans-Serif" font-size="10.00">Commander::executeCommand</text>
</a>
</g>
</g>
<!-- Node2&#45;&gt;Node3 -->
<g id="edge2" class="edge">
<title>Node2&#45;&gt;Node3</title>
<path fill="none" stroke="#63b8ff" d="M465.85,-34.88C457.41,-35.84 448.7,-36.83 440.1,-37.82"/>
<polygon fill="#63b8ff" stroke="#63b8ff" points="466.44,-38.33 475.98,-33.72 465.65,-31.38 466.44,-38.33"/>
</g>
<!-- Node6 -->
<g id="node6" class="node">
<title>Node6</title>
<g id="a_node6"><a xlink:href="class_commander.html#a9e0bfd97d3b0a5527d71d0e6b18ccc22" target="_top" xlink:title="Search for a character in a string.">
<polygon fill="white" stroke="#666666" points="418.5,-19 307.5,-19 307.5,0 418.5,0 418.5,-19"/>
<text text-anchor="middle" x="363" y="-7" font-family="Helvetica,sans-Serif" font-size="10.00">Commander::hasChar</text>
</a>
</g>
</g>
<!-- Node2&#45;&gt;Node6 -->
<g id="edge6" class="edge">
<title>Node2&#45;&gt;Node6</title>
<path fill="none" stroke="#63b8ff" d="M465.88,-20.51C450.27,-18.83 433.74,-17.04 418.64,-15.41"/>
<polygon fill="#63b8ff" stroke="#63b8ff" points="465.66,-24.01 475.98,-21.61 466.42,-17.05 465.66,-24.01"/>
</g>
<!-- Node3&#45;&gt;Node3 -->
<g id="edge5" class="edge">
<title>Node3&#45;&gt;Node3</title>
<path fill="none" stroke="#63b8ff" d="M394.44,-64.45C393.54,-69.82 383.06,-74 363,-74 333.14,-74 324.51,-64.73 337.11,-56.08"/>
<polygon fill="#63b8ff" stroke="#63b8ff" points="397.34,-62.49 388.89,-56.08 391.5,-66.35 397.34,-62.49"/>
</g>
<!-- Node4 -->
<g id="node4" class="node">
<title>Node4</title>
<g id="a_node4"><a xlink:href="class_commander.html#a98c1328d154110366210326ada901d4e" target="_top" xlink:title="Default execution function.">
<polygon fill="white" stroke="#666666" points="250,-56 140,-56 140,-37 250,-37 250,-56"/>
<text text-anchor="middle" x="195" y="-44" font-family="Helvetica,sans-Serif" font-size="10.00">Commander::execute</text>
</a>
</g>
</g>
<!-- Node3&#45;&gt;Node4 -->
<g id="edge3" class="edge">
<title>Node3&#45;&gt;Node4</title>
<path fill="none" stroke="#63b8ff" d="M275.71,-46.5C267.12,-46.5 258.57,-46.5 250.43,-46.5"/>
<polygon fill="#63b8ff" stroke="#63b8ff" points="275.8,-50 285.8,-46.5 275.8,-43 275.8,-50"/>
</g>
<!-- Node5 -->
<g id="node5" class="node">
<title>Node5</title>
<g id="a_node5"><a xlink:href="class_commander.html#a566db8c9ab5fc802e30e9204873c894b" target="_top" xlink:title="Create a very very simple command lime.">
<polygon fill="white" stroke="#666666" points="104,-56 0,-56 0,-37 104,-37 104,-56"/>
<text text-anchor="middle" x="52" y="-44" font-family="Helvetica,sans-Serif" font-size="10.00">Commander::update</text>
</a>
</g>
</g>
<!-- Node4&#45;&gt;Node5 -->
<g id="edge4" class="edge">
<title>Node4&#45;&gt;Node5</title>
<path fill="none" stroke="#63b8ff" d="M129.66,-46.5C121.2,-46.5 112.62,-46.5 104.42,-46.5"/>
<polygon fill="#63b8ff" stroke="#63b8ff" points="129.89,-50 139.89,-46.5 129.89,-43 129.89,-50"/>
</g>
</g>
</svg>
