<?xml version="1.0" encoding="UTF-8" standalone="no"?>
<!DOCTYPE svg PUBLIC "-//W3C//DTD SVG 1.1//EN"
 "http://www.w3.org/Graphics/SVG/1.1/DTD/svg11.dtd">
<!-- Generated by graphviz version 5.0.1 (20220820.1526)
 -->
<!-- Title: Commander::executeCommand Pages: 1 -->
<svg width="633pt" height="83pt"
 viewBox="0.00 0.00 633.00 83.00" xmlns="http://www.w3.org/2000/svg" xmlns:xlink="http://www.w3.org/1999/xlink">
<g id="graph0" class="graph" transform="scale(1 1) rotate(0) translate(4 79)">
<title>Commander::executeCommand</title>
<!-- Node1 -->
<g id="node1" class="node">
<title>Node1</title>
<g id="a_node1"><a xlink:title="Command execution.">
<polygon fill="#999999" stroke="#666666" points="154,-56 0,-56 0,-37 154,-37 154,-56"/>
<text text-anchor="middle" x="77" y="-44" font-family="Helvetica,sans-Serif" font-size="10.00">Commander::executeCommand</text>
</a>
</g>
</g>
<!-- Node1&#45;&gt;Node1 -->
<g id="edge1" class="edge">
<title>Node1&#45;&gt;Node1</title>
<path fill="none" stroke="#63b8ff" d="M48.64,-56.08C34.84,-64.73 44.3,-74 77,-74 99.48,-74 110.98,-69.62 111.48,-64.07"/>
<polygon fill="#63b8ff" stroke="#63b8ff" points="114.22,-61.89 105.36,-56.08 108.66,-66.15 114.22,-61.89"/>
</g>
<!-- Node2 -->
<g id="node2" class="node">
<title>Node2</title>
<g id="a_node2"><a xlink:href="class_commander.html#a9b8d9afbf4e766034a2161109387c7ff" target="_top" xlink:title="Search for a character in a string.">
<polygon fill="white" stroke="#666666" points="481,-75 370,-75 370,-56 481,-56 481,-75"/>
<text text-anchor="middle" x="425.5" y="-63" font-family="Helvetica,sans-Serif" font-size="10.00">Commander::hasChar</text>
</a>
</g>
</g>
<!-- Node1&#45;&gt;Node2 -->
<g id="edge2" class="edge">
<title>Node1&#45;&gt;Node2</title>
<path fill="none" stroke="#63b8ff" d="M123.55,-56.01C143.8,-59.78 167.99,-63.65 190,-65.5 247.26,-70.32 312.66,-69.83 359.82,-68.41"/>
<polygon fill="#63b8ff" stroke="#63b8ff" points="360.02,-71.91 369.9,-68.09 359.79,-64.91 360.02,-71.91"/>
</g>
<!-- Node4 -->
<g id="node4" class="node">
<title>Node4</title>
<g id="a_node4"><a xlink:href="class_commander.html#a8e3aa8dbcd4486f1bcaafe49e0cb0fac" target="_top" xlink:title=" ">
<polygon fill="white" stroke="#666666" points="334,-56 190,-56 190,-37 334,-37 334,-56"/>
<text text-anchor="middle" x="262" y="-44" font-family="Helvetica,sans-Serif" font-size="10.00">Commander::printBrokenPipe</text>
</a>
</g>
</g>
<!-- Node1&#45;&gt;Node4 -->
<g id="edge4" class="edge">
<title>Node1&#45;&gt;Node4</title>
<path fill="none" stroke="#63b8ff" d="M154.02,-46.5C162.56,-46.5 171.28,-46.5 179.89,-46.5"/>
<polygon fill="#63b8ff" stroke="#63b8ff" points="179.91,-50 189.91,-46.5 179.91,-43 179.91,-50"/>
</g>
<!-- Node5 -->
<g id="node5" class="node">
<title>Node5</title>
<g id="a_node5"><a xlink:href="class_commander.html#a0fab647689fcd4557145386ff585aec1" target="_top" xlink:title="Print the help text to a specified Stream.">
<polygon fill="white" stroke="#666666" points="318.5,-19 205.5,-19 205.5,0 318.5,0 318.5,-19"/>
<text text-anchor="middle" x="262" y="-7" font-family="Helvetica,sans-Serif" font-size="10.00">Commander::printHelp</text>
</a>
</g>
</g>
<!-- Node1&#45;&gt;Node5 -->
<g id="edge6" class="edge">
<title>Node1&#45;&gt;Node5</title>
<path fill="none" stroke="#63b8ff" d="M125.13,-36.97C149.15,-32.11 178.57,-26.17 203.88,-21.05"/>
<polygon fill="#63b8ff" stroke="#63b8ff" points="204.61,-24.47 213.71,-19.06 203.22,-17.61 204.61,-24.47"/>
</g>
<!-- Node3 -->
<g id="node3" class="node">
<title>Node3</title>
<g id="a_node3"><a xlink:href="class_commander.html#a80f04d459243886a6d92bce2a15eea5e" target="_top" xlink:title="Detect if character is in the string.">
<polygon fill="white" stroke="#666666" points="625,-75 517,-75 517,-56 625,-56 625,-75"/>
<text text-anchor="middle" x="571" y="-63" font-family="Helvetica,sans-Serif" font-size="10.00">Commander::inString</text>
</a>
</g>
</g>
<!-- Node2&#45;&gt;Node3 -->
<g id="edge3" class="edge">
<title>Node2&#45;&gt;Node3</title>
<path fill="none" stroke="#63b8ff" d="M481.16,-65.5C489.49,-65.5 498.15,-65.5 506.66,-65.5"/>
<polygon fill="#63b8ff" stroke="#63b8ff" points="506.91,-69 516.91,-65.5 506.91,-62 506.91,-69"/>
</g>
<!-- Node4&#45;&gt;Node2 -->
<g id="edge5" class="edge">
<title>Node4&#45;&gt;Node2</title>
<path fill="none" stroke="#63b8ff" d="M334.31,-54.89C342.72,-55.88 351.27,-56.88 359.58,-57.86"/>
<polygon fill="#63b8ff" stroke="#63b8ff" points="359.24,-61.35 369.58,-59.04 360.06,-54.39 359.24,-61.35"/>
</g>
</g>
</svg>
