<?xml version="1.0" encoding="UTF-8" standalone="no"?>
<!DOCTYPE svg PUBLIC "-//W3C//DTD SVG 1.1//EN"
 "http://www.w3.org/Graphics/SVG/1.1/DTD/svg11.dtd">
<!-- Generated by graphviz version 5.0.1 (20220820.1526)
 -->
<!-- Title: AutoComplete::searchRecursive Pages: 1 -->
<svg width="338pt" height="45pt"
 viewBox="0.00 0.00 338.00 45.00" xmlns="http://www.w3.org/2000/svg" xmlns:xlink="http://www.w3.org/1999/xlink">
<g id="graph0" class="graph" transform="scale(1 1) rotate(0) translate(4 41)">
<title>AutoComplete::searchRecursive</title>
<!-- Node1 -->
<g id="node1" class="node">
<title>Node1</title>
<g id="a_node1"><a xlink:title=" ">
<polygon fill="#999999" stroke="#666666" points="330,-19 175,-19 175,0 330,0 330,-19"/>
<text text-anchor="middle" x="252.5" y="-7" font-family="Helvetica,sans-Serif" font-size="10.00">AutoComplete::searchRecursive</text>
</a>
</g>
</g>
<!-- Node1&#45;&gt;Node1 -->
<g id="edge2" class="edge">
<title>Node1&#45;&gt;Node1</title>
<path fill="none" stroke="#63b8ff" d="M286.61,-27.07C286.11,-32.62 274.74,-37 252.5,-37 220.15,-37 210.8,-27.73 224.45,-19.08"/>
<polygon fill="#63b8ff" stroke="#63b8ff" points="289.38,-24.94 280.55,-19.08 283.8,-29.17 289.38,-24.94"/>
</g>
<!-- Node2 -->
<g id="node2" class="node">
<title>Node2</title>
<g id="a_node2"><a xlink:href="class_auto_complete.html#a7d1903952477afbb4777c03cd607f5a9" target="_top" xlink:title=" ">
<polygon fill="white" stroke="#666666" points="139,-19 0,-19 0,0 139,0 139,-19"/>
<text text-anchor="middle" x="69.5" y="-7" font-family="Helvetica,sans-Serif" font-size="10.00">AutoComplete::generateHint</text>
</a>
</g>
</g>
<!-- Node1&#45;&gt;Node2 -->
<g id="edge1" class="edge">
<title>Node1&#45;&gt;Node2</title>
<path fill="none" stroke="#63b8ff" d="M164.68,-9.5C156.08,-9.5 147.44,-9.5 139.06,-9.5"/>
<polygon fill="#63b8ff" stroke="#63b8ff" points="164.74,-13 174.74,-9.5 164.74,-6 164.74,-13"/>
</g>
</g>
</svg>
