<?xml version="1.0" encoding="UTF-8" standalone="no"?>
<!DOCTYPE svg PUBLIC "-//W3C//DTD SVG 1.1//EN"
 "http://www.w3.org/Graphics/SVG/1.1/DTD/svg11.dtd">
<!-- Generated by graphviz version 5.0.1 (20220820.1526)
 -->
<!-- Title: Argument::isFound Pages: 1 -->
<svg width="288pt" height="101pt"
 viewBox="0.00 0.00 288.00 101.00" xmlns="http://www.w3.org/2000/svg" xmlns:xlink="http://www.w3.org/1999/xlink">
<g id="graph0" class="graph" transform="scale(1 1) rotate(0) translate(4 97)">
<title>Argument::isFound</title>
<!-- Node1 -->
<g id="node1" class="node">
<title>Node1</title>
<g id="a_node1"><a xlink:title=" ">
<polygon fill="#999999" stroke="#666666" points="280,-56 181,-56 181,-37 280,-37 280,-56"/>
<text text-anchor="middle" x="230.5" y="-44" font-family="Helvetica,sans-Serif" font-size="10.00">Argument::isFound</text>
</a>
</g>
</g>
<!-- Node2 -->
<g id="node2" class="node">
<title>Node2</title>
<g id="a_node2"><a xlink:href="_commander-_a_p_i-_digital-_i_o-_commands_8cpp.html#a9ab5698b019086fe8d2c3d06a3f917fb" target="_top" xlink:title="Premade function for digitalRead command.">
<polygon fill="white" stroke="#666666" points="144.5,-93 0.5,-93 0.5,-74 144.5,-74 144.5,-93"/>
<text text-anchor="middle" x="72.5" y="-81" font-family="Helvetica,sans-Serif" font-size="10.00">commander_digitalRead_func</text>
</a>
</g>
</g>
<!-- Node1&#45;&gt;Node2 -->
<g id="edge1" class="edge">
<title>Node1&#45;&gt;Node2</title>
<path fill="none" stroke="#63b8ff" d="M179.51,-58.36C158.28,-63.39 133.86,-69.18 113.81,-73.94"/>
<polygon fill="#63b8ff" stroke="#63b8ff" points="180.4,-61.74 189.33,-56.03 178.79,-54.93 180.4,-61.74"/>
</g>
<!-- Node3 -->
<g id="node3" class="node">
<title>Node3</title>
<g id="a_node3"><a xlink:href="_commander-_a_p_i-_digital-_i_o-_commands_8cpp.html#a6eccd6af580b31fb8ef7e6e038a0a322" target="_top" xlink:title="Premade function for digitalWrite command.">
<polygon fill="white" stroke="#666666" points="145,-56 0,-56 0,-37 145,-37 145,-56"/>
<text text-anchor="middle" x="72.5" y="-44" font-family="Helvetica,sans-Serif" font-size="10.00">commander_digitalWrite_func</text>
</a>
</g>
</g>
<!-- Node1&#45;&gt;Node3 -->
<g id="edge2" class="edge">
<title>Node1&#45;&gt;Node3</title>
<path fill="none" stroke="#63b8ff" d="M170.93,-46.5C162.52,-46.5 153.79,-46.5 145.17,-46.5"/>
<polygon fill="#63b8ff" stroke="#63b8ff" points="171,-50 181,-46.5 171,-43 171,-50"/>
</g>
<!-- Node4 -->
<g id="node4" class="node">
<title>Node4</title>
<g id="a_node4"><a xlink:href="_commander-_a_p_i-_digital-_i_o-_commands_8cpp.html#af1ce6ff8336c159da938303fbc2a2770" target="_top" xlink:title="Premade function for pinMode command.">
<polygon fill="white" stroke="#666666" points="139,-19 6,-19 6,0 139,0 139,-19"/>
<text text-anchor="middle" x="72.5" y="-7" font-family="Helvetica,sans-Serif" font-size="10.00">commander_pinMode_func</text>
</a>
</g>
</g>
<!-- Node1&#45;&gt;Node4 -->
<g id="edge3" class="edge">
<title>Node1&#45;&gt;Node4</title>
<path fill="none" stroke="#63b8ff" d="M179.51,-34.64C158.28,-29.61 133.86,-23.82 113.81,-19.06"/>
<polygon fill="#63b8ff" stroke="#63b8ff" points="178.79,-38.07 189.33,-36.97 180.4,-31.26 178.79,-38.07"/>
</g>
</g>
</svg>
