<?xml version="1.0" encoding="UTF-8" standalone="no"?>
<!DOCTYPE svg PUBLIC "-//W3C//DTD SVG 1.1//EN"
 "http://www.w3.org/Graphics/SVG/1.1/DTD/svg11.dtd">
<!-- Generated by graphviz version 5.0.1 (20220820.1526)
 -->
<!-- Title: Commander::execute Pages: 1 -->
<svg width="601pt" height="76pt"
 viewBox="0.00 0.00 601.00 75.50" xmlns="http://www.w3.org/2000/svg" xmlns:xlink="http://www.w3.org/1999/xlink">
<g id="graph0" class="graph" transform="scale(1 1) rotate(0) translate(4 71.5)">
<title>Commander::execute</title>
<!-- Node1 -->
<g id="node1" class="node">
<title>Node1</title>
<g id="a_node1"><a xlink:title="Execution function for Stream response.">
<polygon fill="#999999" stroke="#666666" points="110,-45.5 0,-45.5 0,-26.5 110,-26.5 110,-45.5"/>
<text text-anchor="middle" x="55" y="-33.5" font-family="Helvetica,sans-Serif" font-size="10.00">Commander::execute</text>
</a>
</g>
</g>
<!-- Node2 -->
<g id="node2" class="node">
<title>Node2</title>
<g id="a_node2"><a xlink:href="class_commander.html#a6db6d6ae40bbd49ca3036115b820813d" target="_top" xlink:title="Command execution.">
<polygon fill="white" stroke="#666666" points="300,-45.5 146,-45.5 146,-26.5 300,-26.5 300,-45.5"/>
<text text-anchor="middle" x="223" y="-33.5" font-family="Helvetica,sans-Serif" font-size="10.00">Commander::executeCommand</text>
</a>
</g>
</g>
<!-- Node1&#45;&gt;Node2 -->
<g id="edge1" class="edge">
<title>Node1&#45;&gt;Node2</title>
<path fill="none" stroke="#63b8ff" d="M110.35,-36C118.51,-36 127.09,-36 135.71,-36"/>
<polygon fill="#63b8ff" stroke="#63b8ff" points="135.83,-39.5 145.83,-36 135.83,-32.5 135.83,-39.5"/>
</g>
<!-- Node2&#45;&gt;Node2 -->
<g id="edge2" class="edge">
<title>Node2&#45;&gt;Node2</title>
<path fill="none" stroke="#63b8ff" d="M197.11,-45.58C184.51,-54.23 193.14,-63.5 223,-63.5 243.06,-63.5 253.54,-59.32 254.44,-53.95"/>
<polygon fill="#63b8ff" stroke="#63b8ff" points="257.34,-51.99 248.89,-45.58 251.5,-55.85 257.34,-51.99"/>
</g>
<!-- Node3 -->
<g id="node3" class="node">
<title>Node3</title>
<g id="a_node3"><a xlink:href="class_commander.html#a9b8d9afbf4e766034a2161109387c7ff" target="_top" xlink:title="Search for a character in a string.">
<polygon fill="white" stroke="#666666" points="448,-65.5 337,-65.5 337,-46.5 448,-46.5 448,-65.5"/>
<text text-anchor="middle" x="392.5" y="-53.5" font-family="Helvetica,sans-Serif" font-size="10.00">Commander::hasChar</text>
</a>
</g>
</g>
<!-- Node2&#45;&gt;Node3 -->
<g id="edge3" class="edge">
<title>Node2&#45;&gt;Node3</title>
<path fill="none" stroke="#63b8ff" d="M300.4,-45.12C309.2,-46.17 318.12,-47.24 326.75,-48.27"/>
<polygon fill="#63b8ff" stroke="#63b8ff" points="326.38,-51.75 336.73,-49.46 327.21,-44.8 326.38,-51.75"/>
</g>
<!-- Node5 -->
<g id="node5" class="node">
<title>Node5</title>
<g id="a_node5"><a xlink:href="class_commander.html#a0fab647689fcd4557145386ff585aec1" target="_top" xlink:title="Print the help text to a specified Stream.">
<polygon fill="white" stroke="#666666" points="449,-27.5 336,-27.5 336,-8.5 449,-8.5 449,-27.5"/>
<text text-anchor="middle" x="392.5" y="-15.5" font-family="Helvetica,sans-Serif" font-size="10.00">Commander::printHelp</text>
</a>
</g>
</g>
<!-- Node2&#45;&gt;Node5 -->
<g id="edge5" class="edge">
<title>Node2&#45;&gt;Node5</title>
<path fill="none" stroke="#63b8ff" d="M300.4,-27.79C308.86,-26.88 317.43,-25.96 325.75,-25.07"/>
<polygon fill="#63b8ff" stroke="#63b8ff" points="326.18,-28.54 335.74,-23.99 325.43,-21.58 326.18,-28.54"/>
</g>
<!-- Node4 -->
<g id="node4" class="node">
<title>Node4</title>
<g id="a_node4"><a xlink:href="class_commander.html#a80f04d459243886a6d92bce2a15eea5e" target="_top" xlink:title="Detect if character is in the string.">
<polygon fill="white" stroke="#666666" points="593,-67.5 485,-67.5 485,-48.5 593,-48.5 593,-67.5"/>
<text text-anchor="middle" x="539" y="-55.5" font-family="Helvetica,sans-Serif" font-size="10.00">Commander::inString</text>
</a>
</g>
</g>
<!-- Node3&#45;&gt;Node4 -->
<g id="edge4" class="edge">
<title>Node3&#45;&gt;Node4</title>
<path fill="none" stroke="#63b8ff" d="M448.13,-56.76C456.75,-56.88 465.72,-57 474.52,-57.12"/>
<polygon fill="#63b8ff" stroke="#63b8ff" points="474.68,-60.62 484.73,-57.26 474.78,-53.62 474.68,-60.62"/>
</g>
<!-- Node6 -->
<g id="node6" class="node">
<title>Node6</title>
<g id="a_node6"><a xlink:href="class_commander.html#a8634a1c3c680d0a598fa8b6b5445ca39" target="_top" xlink:title="Find an API element in the tree by alphabetical place.">
<polygon fill="white" stroke="#666666" points="593,-30 485,-30 485,0 593,0 593,-30"/>
<text text-anchor="start" x="493" y="-18" font-family="Helvetica,sans-Serif" font-size="10.00">Commander::find_api</text>
<text text-anchor="middle" x="539" y="-7" font-family="Helvetica,sans-Serif" font-size="10.00">_index_by_place</text>
</a>
</g>
</g>
<!-- Node5&#45;&gt;Node6 -->
<g id="edge6" class="edge">
<title>Node5&#45;&gt;Node6</title>
<path fill="none" stroke="#63b8ff" d="M449.37,-16.84C457.61,-16.67 466.15,-16.49 474.54,-16.32"/>
<polygon fill="#63b8ff" stroke="#63b8ff" points="474.73,-19.81 484.65,-16.11 474.58,-12.82 474.73,-19.81"/>
</g>
</g>
</svg>
