<?xml version="1.0" encoding="UTF-8" standalone="no"?>
<!DOCTYPE svg PUBLIC "-//W3C//DTD SVG 1.1//EN"
 "http://www.w3.org/Graphics/SVG/1.1/DTD/svg11.dtd">
<!-- Generated by graphviz version 5.0.1 (20220820.1526)
 -->
<!-- Title: Argument::findShortName Pages: 1 -->
<svg width="647pt" height="434pt"
 viewBox="0.00 0.00 647.00 434.00" xmlns="http://www.w3.org/2000/svg" xmlns:xlink="http://www.w3.org/1999/xlink">
<g id="graph0" class="graph" transform="scale(1 1) rotate(0) translate(4 430)">
<title>Argument::findShortName</title>
<!-- Node1 -->
<g id="node1" class="node">
<title>Node1</title>
<g id="a_node1"><a xlink:title=" ">
<polygon fill="#999999" stroke="#666666" points="639,-241 511,-241 511,-222 639,-222 639,-241"/>
<text text-anchor="middle" x="575" y="-229" font-family="Helvetica,sans-Serif" font-size="10.00">Argument::findShortName</text>
</a>
</g>
</g>
<!-- Node2 -->
<g id="node2" class="node">
<title>Node2</title>
<g id="a_node2"><a xlink:href="class_argument.html#a11a9933e5a65f1cbf0525cd9bd2a29ca" target="_top" xlink:title=" ">
<polygon fill="white" stroke="#666666" points="302,-370 222,-370 222,-351 302,-351 302,-370"/>
<text text-anchor="middle" x="262" y="-358" font-family="Helvetica,sans-Serif" font-size="10.00">Argument::find</text>
</a>
</g>
</g>
<!-- Node1&#45;&gt;Node2 -->
<g id="edge1" class="edge">
<title>Node1&#45;&gt;Node2</title>
<path fill="none" stroke="#63b8ff" d="M541.42,-245.01C478.38,-271.16 341.08,-328.11 286.27,-350.85"/>
<polygon fill="#63b8ff" stroke="#63b8ff" points="542.98,-248.15 550.88,-241.09 540.3,-241.69 542.98,-248.15"/>
</g>
<!-- Node6 -->
<g id="node6" class="node">
<title>Node6</title>
<g id="a_node6"><a xlink:href="class_argument.html#a7fab3d983e4a63b93e6f50df82ed6f84" target="_top" xlink:title=" ">
<polygon fill="white" stroke="#666666" points="475,-222 374,-222 374,-203 475,-203 475,-222"/>
<text text-anchor="middle" x="424.5" y="-210" font-family="Helvetica,sans-Serif" font-size="10.00">Argument::findStart</text>
</a>
</g>
</g>
<!-- Node1&#45;&gt;Node6 -->
<g id="edge5" class="edge">
<title>Node1&#45;&gt;Node6</title>
<path fill="none" stroke="#63b8ff" d="M500.55,-222.1C491.97,-221 483.38,-219.91 475.23,-218.86"/>
<polygon fill="#63b8ff" stroke="#63b8ff" points="500.23,-225.59 510.59,-223.39 501.12,-218.65 500.23,-225.59"/>
</g>
<!-- Node3 -->
<g id="node3" class="node">
<title>Node3</title>
<g id="a_node3"><a xlink:href="_commander-_a_p_i-_digital-_i_o-_commands_8cpp.html#a9ab5698b019086fe8d2c3d06a3f917fb" target="_top" xlink:title="Premade function for digitalRead command.">
<polygon fill="white" stroke="#666666" points="147,-426 3,-426 3,-407 147,-407 147,-426"/>
<text text-anchor="middle" x="75" y="-414" font-family="Helvetica,sans-Serif" font-size="10.00">commander_digitalRead_func</text>
</a>
</g>
</g>
<!-- Node2&#45;&gt;Node3 -->
<g id="edge2" class="edge">
<title>Node2&#45;&gt;Node3</title>
<path fill="none" stroke="#63b8ff" d="M225.74,-373.49C204.05,-381.25 175.6,-391.02 150,-398.5 139.72,-401.5 128.54,-404.41 118.05,-406.98"/>
<polygon fill="#63b8ff" stroke="#63b8ff" points="226.98,-376.77 235.2,-370.08 224.6,-370.18 226.98,-376.77"/>
</g>
<!-- Node4 -->
<g id="node4" class="node">
<title>Node4</title>
<g id="a_node4"><a xlink:href="_commander-_a_p_i-_digital-_i_o-_commands_8cpp.html#a6eccd6af580b31fb8ef7e6e038a0a322" target="_top" xlink:title="Premade function for digitalWrite command.">
<polygon fill="white" stroke="#666666" points="147.5,-389 2.5,-389 2.5,-370 147.5,-370 147.5,-389"/>
<text text-anchor="middle" x="75" y="-377" font-family="Helvetica,sans-Serif" font-size="10.00">commander_digitalWrite_func</text>
</a>
</g>
</g>
<!-- Node2&#45;&gt;Node4 -->
<g id="edge3" class="edge">
<title>Node2&#45;&gt;Node4</title>
<path fill="none" stroke="#63b8ff" d="M211.82,-365.55C192.16,-367.57 169.12,-369.94 147.67,-372.14"/>
<polygon fill="#63b8ff" stroke="#63b8ff" points="212.18,-369.03 221.77,-364.53 211.46,-362.07 212.18,-369.03"/>
</g>
<!-- Node5 -->
<g id="node5" class="node">
<title>Node5</title>
<g id="a_node5"><a xlink:href="_commander-_a_p_i-_digital-_i_o-_commands_8cpp.html#af1ce6ff8336c159da938303fbc2a2770" target="_top" xlink:title="Premade function for pinMode command.">
<polygon fill="white" stroke="#666666" points="141.5,-352 8.5,-352 8.5,-333 141.5,-333 141.5,-352"/>
<text text-anchor="middle" x="75" y="-340" font-family="Helvetica,sans-Serif" font-size="10.00">commander_pinMode_func</text>
</a>
</g>
</g>
<!-- Node2&#45;&gt;Node5 -->
<g id="edge4" class="edge">
<title>Node2&#45;&gt;Node5</title>
<path fill="none" stroke="#63b8ff" d="M211.59,-355.69C190.16,-353.61 164.75,-351.14 141.75,-348.9"/>
<polygon fill="#63b8ff" stroke="#63b8ff" points="211.47,-359.2 221.77,-356.68 212.15,-352.23 211.47,-359.2"/>
</g>
<!-- Node7 -->
<g id="node7" class="node">
<title>Node7</title>
<g id="a_node7"><a xlink:href="class_argument.html#a2258f3363dbb1d462286a41d4ab3b8ad" target="_top" xlink:title=" ">
<polygon fill="white" stroke="#666666" points="317,-112 207,-112 207,-93 317,-93 317,-112"/>
<text text-anchor="middle" x="262" y="-100" font-family="Helvetica,sans-Serif" font-size="10.00">Argument::parseFloat</text>
</a>
</g>
</g>
<!-- Node6&#45;&gt;Node7 -->
<g id="edge6" class="edge">
<title>Node6&#45;&gt;Node7</title>
<path fill="none" stroke="#63b8ff" d="M401.28,-197.27C367.7,-174.25 304.98,-131.27 277.04,-112.13"/>
<polygon fill="#63b8ff" stroke="#63b8ff" points="399.31,-200.16 409.54,-202.93 403.27,-194.39 399.31,-200.16"/>
</g>
<!-- Node13 -->
<g id="node13" class="node">
<title>Node13</title>
<g id="a_node13"><a xlink:href="class_argument.html#aeabd957dda6add595aa860761ea337f1" target="_top" xlink:title=" ">
<polygon fill="white" stroke="#666666" points="311.5,-241 212.5,-241 212.5,-222 311.5,-222 311.5,-241"/>
<text text-anchor="middle" x="262" y="-229" font-family="Helvetica,sans-Serif" font-size="10.00">Argument::parseInt</text>
</a>
</g>
</g>
<!-- Node6&#45;&gt;Node13 -->
<g id="edge12" class="edge">
<title>Node6&#45;&gt;Node13</title>
<path fill="none" stroke="#63b8ff" d="M363.22,-219.64C346.24,-221.65 327.99,-223.81 311.77,-225.73"/>
<polygon fill="#63b8ff" stroke="#63b8ff" points="364.08,-223.06 373.6,-218.41 363.25,-216.11 364.08,-223.06"/>
</g>
<!-- Node18 -->
<g id="node18" class="node">
<title>Node18</title>
<g id="a_node18"><a xlink:href="class_argument.html#a91aa4b22990c4532a437afb1ed58acf4" target="_top" xlink:title=" ">
<polygon fill="white" stroke="#666666" points="338,-204 186,-204 186,-185 338,-185 338,-204"/>
<text text-anchor="middle" x="262" y="-192" font-family="Helvetica,sans-Serif" font-size="10.00">Argument::parseStringFunction</text>
</a>
</g>
</g>
<!-- Node6&#45;&gt;Node18 -->
<g id="edge24" class="edge">
<title>Node6&#45;&gt;Node18</title>
<path fill="none" stroke="#63b8ff" d="M363.65,-205.79C355.35,-204.86 346.74,-203.89 338.21,-202.93"/>
<polygon fill="#63b8ff" stroke="#63b8ff" points="363.27,-209.27 373.6,-206.9 364.05,-202.31 363.27,-209.27"/>
</g>
<!-- Node8 -->
<g id="node8" class="node">
<title>Node8</title>
<g id="a_node8"><a xlink:href="_commander-_a_p_i-_math-_commands_8cpp.html#a3a7adc51271281ccbe539d6d4b9ebd72" target="_top" xlink:title="Premade function for abs command.">
<polygon fill="white" stroke="#666666" points="131,-167 19,-167 19,-148 131,-148 131,-167"/>
<text text-anchor="middle" x="75" y="-155" font-family="Helvetica,sans-Serif" font-size="10.00">commander_abs_func</text>
</a>
</g>
</g>
<!-- Node7&#45;&gt;Node8 -->
<g id="edge7" class="edge">
<title>Node7&#45;&gt;Node8</title>
<path fill="none" stroke="#63b8ff" d="M223.62,-115.26C202.18,-122.43 174.69,-131.33 150,-138.5 138.66,-141.79 126.26,-145.09 114.91,-147.99"/>
<polygon fill="#63b8ff" stroke="#63b8ff" points="224.96,-118.51 233.32,-112.01 222.73,-111.87 224.96,-118.51"/>
</g>
<!-- Node9 -->
<g id="node9" class="node">
<title>Node9</title>
<g id="a_node9"><a xlink:href="_commander-_a_p_i-_math-_commands_8cpp.html#a50d0b8fd181669321c028dc781232883" target="_top" xlink:title="Premade function for cos command.">
<polygon fill="white" stroke="#666666" points="131,-130 19,-130 19,-111 131,-111 131,-130"/>
<text text-anchor="middle" x="75" y="-118" font-family="Helvetica,sans-Serif" font-size="10.00">commander_cos_func</text>
</a>
</g>
</g>
<!-- Node7&#45;&gt;Node9 -->
<g id="edge8" class="edge">
<title>Node7&#45;&gt;Node9</title>
<path fill="none" stroke="#63b8ff" d="M196.98,-108.73C175.51,-110.82 151.76,-113.13 131.04,-115.15"/>
<polygon fill="#63b8ff" stroke="#63b8ff" points="197.38,-112.21 206.99,-107.75 196.7,-105.24 197.38,-112.21"/>
</g>
<!-- Node10 -->
<g id="node10" class="node">
<title>Node10</title>
<g id="a_node10"><a xlink:href="_commander-_a_p_i-_system-_commands_8cpp.html#a97b609ad07bfd174ed3fb4bfe78b6c76" target="_top" xlink:title="Premade function for not command.">
<polygon fill="white" stroke="#666666" points="136.5,-19 13.5,-19 13.5,0 136.5,0 136.5,-19"/>
<text text-anchor="middle" x="75" y="-7" font-family="Helvetica,sans-Serif" font-size="10.00">commander_export_func</text>
</a>
</g>
</g>
<!-- Node7&#45;&gt;Node10 -->
<g id="edge9" class="edge">
<title>Node7&#45;&gt;Node10</title>
<path fill="none" stroke="#63b8ff" d="M241.95,-86.49C220.78,-69.48 184.96,-42.96 150,-27.5 142.38,-24.13 134.03,-21.33 125.77,-19.02"/>
<polygon fill="#63b8ff" stroke="#63b8ff" points="239.87,-89.31 249.82,-92.93 244.29,-83.89 239.87,-89.31"/>
</g>
<!-- Node11 -->
<g id="node11" class="node">
<title>Node11</title>
<g id="a_node11"><a xlink:href="_commander-_a_p_i-_system-_commands_8cpp.html#a57e458203eac6259ab72afb0bd7218b4" target="_top" xlink:title="Premade function for not command.">
<polygon fill="white" stroke="#666666" points="150,-93 0,-93 0,-74 150,-74 150,-93"/>
<text text-anchor="middle" x="75" y="-81" font-family="Helvetica,sans-Serif" font-size="10.00">commander_exportTarget_func</text>
</a>
</g>
</g>
<!-- Node7&#45;&gt;Node11 -->
<g id="edge10" class="edge">
<title>Node7&#45;&gt;Node11</title>
<path fill="none" stroke="#63b8ff" d="M196.75,-95.9C181.67,-94.35 165.48,-92.69 150.02,-91.1"/>
<polygon fill="#63b8ff" stroke="#63b8ff" points="196.69,-99.41 206.99,-96.95 197.4,-92.45 196.69,-99.41"/>
</g>
<!-- Node12 -->
<g id="node12" class="node">
<title>Node12</title>
<g id="a_node12"><a xlink:href="_commander-_a_p_i-_math-_commands_8cpp.html#a2d1835760957b536f6d3aadf02109eaf" target="_top" xlink:title="Premade function for sin command.">
<polygon fill="white" stroke="#666666" points="129.5,-56 20.5,-56 20.5,-37 129.5,-37 129.5,-56"/>
<text text-anchor="middle" x="75" y="-44" font-family="Helvetica,sans-Serif" font-size="10.00">commander_sin_func</text>
</a>
</g>
</g>
<!-- Node7&#45;&gt;Node12 -->
<g id="edge11" class="edge">
<title>Node7&#45;&gt;Node12</title>
<path fill="none" stroke="#63b8ff" d="M225.74,-89.51C204.05,-81.75 175.6,-71.98 150,-64.5 139.72,-61.5 128.54,-58.59 118.05,-56.02"/>
<polygon fill="#63b8ff" stroke="#63b8ff" points="224.6,-92.82 235.2,-92.92 226.98,-86.23 224.6,-92.82"/>
</g>
<!-- Node13&#45;&gt;Node3 -->
<g id="edge17" class="edge">
<title>Node13&#45;&gt;Node3</title>
<path fill="none" stroke="#63b8ff" d="M248.6,-249.58C233.62,-271.48 207.73,-309.54 186,-342.5 169.72,-367.2 174.1,-381.33 150,-398.5 145.26,-401.88 139.97,-404.62 134.45,-406.86"/>
<polygon fill="#63b8ff" stroke="#63b8ff" points="251.54,-251.48 254.3,-241.25 245.76,-247.52 251.54,-251.48"/>
</g>
<!-- Node13&#45;&gt;Node4 -->
<g id="edge18" class="edge">
<title>Node13&#45;&gt;Node4</title>
<path fill="none" stroke="#63b8ff" d="M250.46,-250.07C233.26,-278.62 196.36,-332.99 150,-361.5 144.48,-364.89 138.36,-367.65 132.08,-369.88"/>
<polygon fill="#63b8ff" stroke="#63b8ff" points="253.67,-251.52 255.71,-241.13 247.63,-247.98 253.67,-251.52"/>
</g>
<!-- Node13&#45;&gt;Node5 -->
<g id="edge21" class="edge">
<title>Node13&#45;&gt;Node5</title>
<path fill="none" stroke="#63b8ff" d="M245.51,-248.61C225.5,-269.66 188.63,-304.98 150,-324.5 143.27,-327.9 135.87,-330.68 128.43,-332.94"/>
<polygon fill="#63b8ff" stroke="#63b8ff" points="248.29,-250.76 252.55,-241.06 243.17,-245.99 248.29,-250.76"/>
</g>
<!-- Node13&#45;&gt;Node8 -->
<g id="edge13" class="edge">
<title>Node13&#45;&gt;Node8</title>
<path fill="none" stroke="#63b8ff" d="M202.49,-220.1C196.74,-217.98 191.14,-215.47 186,-212.5 166.13,-201.03 169.92,-186.88 150,-175.5 144.03,-172.09 137.43,-169.32 130.71,-167.08"/>
<polygon fill="#63b8ff" stroke="#63b8ff" points="201.66,-223.51 212.26,-223.31 203.85,-216.86 201.66,-223.51"/>
</g>
<!-- Node13&#45;&gt;Node9 -->
<g id="edge16" class="edge">
<title>Node13&#45;&gt;Node9</title>
<path fill="none" stroke="#63b8ff" d="M202.79,-222.3C196.74,-219.77 190.99,-216.56 186,-212.5 157.63,-189.42 178.48,-161.45 150,-138.5 144.44,-134.02 137.93,-130.63 131.13,-128.07"/>
<polygon fill="#63b8ff" stroke="#63b8ff" points="201.88,-225.69 212.48,-225.74 204.23,-219.09 201.88,-225.69"/>
</g>
<!-- Node13&#45;&gt;Node11 -->
<g id="edge19" class="edge">
<title>Node13&#45;&gt;Node11</title>
<path fill="none" stroke="#63b8ff" d="M202.45,-223.07C196.41,-220.41 190.76,-216.96 186,-212.5 148.15,-177.05 188.02,-136.77 150,-101.5 146.41,-98.17 142.32,-95.43 137.94,-93.18"/>
<polygon fill="#63b8ff" stroke="#63b8ff" points="201.58,-226.49 212.18,-226.65 204,-219.91 201.58,-226.49"/>
</g>
<!-- Node13&#45;&gt;Node12 -->
<g id="edge23" class="edge">
<title>Node13&#45;&gt;Node12</title>
<path fill="none" stroke="#63b8ff" d="M202.36,-223.53C196.29,-220.79 190.65,-217.2 186,-212.5 138.36,-164.4 197.87,-112.37 150,-64.5 144.39,-58.89 137.35,-54.92 129.85,-52.13"/>
<polygon fill="#63b8ff" stroke="#63b8ff" points="201.58,-226.97 212.17,-227.17 204.01,-220.41 201.58,-226.97"/>
</g>
<!-- Node14 -->
<g id="node14" class="node">
<title>Node14</title>
<g id="a_node14"><a xlink:href="_commander-_a_p_i-_analog-_i_o-_commands_8cpp.html#a040fe7020c8c586e4e3be14f8eac7437" target="_top" xlink:title="Premade function for analogRead command.">
<polygon fill="white" stroke="#666666" points="148.5,-315 1.5,-315 1.5,-296 148.5,-296 148.5,-315"/>
<text text-anchor="middle" x="75" y="-303" font-family="Helvetica,sans-Serif" font-size="10.00">commander_analogRead_func</text>
</a>
</g>
</g>
<!-- Node13&#45;&gt;Node14 -->
<g id="edge14" class="edge">
<title>Node13&#45;&gt;Node14</title>
<path fill="none" stroke="#63b8ff" d="M236.28,-246.04C214.26,-258.49 180.84,-276.14 150,-287.5 141.19,-290.74 131.58,-293.57 122.28,-295.97"/>
<polygon fill="#63b8ff" stroke="#63b8ff" points="238.04,-249.07 244.98,-241.06 234.56,-242.99 238.04,-249.07"/>
</g>
<!-- Node15 -->
<g id="node15" class="node">
<title>Node15</title>
<g id="a_node15"><a xlink:href="_commander-_a_p_i-_analog-_i_o-_commands_8cpp.html#ab58776efa3ee65d1871b04583bf46674" target="_top" xlink:title="Premade function for analogRead command.">
<polygon fill="white" stroke="#666666" points="149,-278 1,-278 1,-259 149,-259 149,-278"/>
<text text-anchor="middle" x="75" y="-266" font-family="Helvetica,sans-Serif" font-size="10.00">commander_analogWrite_func</text>
</a>
</g>
</g>
<!-- Node13&#45;&gt;Node15 -->
<g id="edge15" class="edge">
<title>Node13&#45;&gt;Node15</title>
<path fill="none" stroke="#63b8ff" d="M203.42,-243.02C177.85,-248.13 148.12,-254.08 123.8,-258.94"/>
<polygon fill="#63b8ff" stroke="#63b8ff" points="204.24,-246.42 213.36,-241.03 202.87,-239.56 204.24,-246.42"/>
</g>
<!-- Node16 -->
<g id="node16" class="node">
<title>Node16</title>
<g id="a_node16"><a xlink:href="_commander-_a_p_i-_math-_commands_8cpp.html#a58c9da2e6253adcf21c0ae6333587637" target="_top" xlink:title="Premade function for not command.">
<polygon fill="white" stroke="#666666" points="130,-241 20,-241 20,-222 130,-222 130,-241"/>
<text text-anchor="middle" x="75" y="-229" font-family="Helvetica,sans-Serif" font-size="10.00">commander_not_func</text>
</a>
</g>
</g>
<!-- Node13&#45;&gt;Node16 -->
<g id="edge20" class="edge">
<title>Node13&#45;&gt;Node16</title>
<path fill="none" stroke="#63b8ff" d="M202.36,-231.5C179.23,-231.5 152.82,-231.5 130.15,-231.5"/>
<polygon fill="#63b8ff" stroke="#63b8ff" points="202.39,-235 212.39,-231.5 202.39,-228 202.39,-235"/>
</g>
<!-- Node17 -->
<g id="node17" class="node">
<title>Node17</title>
<g id="a_node17"><a xlink:href="_commander-_a_p_i-_math-_commands_8cpp.html#a458aacbc1ec8f7887519596521934f42" target="_top" xlink:title="Premade function for random command.">
<polygon fill="white" stroke="#666666" points="139,-204 11,-204 11,-185 139,-185 139,-204"/>
<text text-anchor="middle" x="75" y="-192" font-family="Helvetica,sans-Serif" font-size="10.00">commander_random_func</text>
</a>
</g>
</g>
<!-- Node13&#45;&gt;Node17 -->
<g id="edge22" class="edge">
<title>Node13&#45;&gt;Node17</title>
<path fill="none" stroke="#63b8ff" d="M203.42,-219.98C177.85,-214.87 148.12,-208.92 123.8,-204.06"/>
<polygon fill="#63b8ff" stroke="#63b8ff" points="202.87,-223.44 213.36,-221.97 204.24,-216.58 202.87,-223.44"/>
</g>
</g>
</svg>
