<?xml version="1.0" encoding="UTF-8" standalone="no"?>
<!DOCTYPE svg PUBLIC "-//W3C//DTD SVG 1.1//EN"
 "http://www.w3.org/Graphics/SVG/1.1/DTD/svg11.dtd">
<!-- Generated by graphviz version 5.0.1 (20220820.1526)
 -->
<!-- Title: Commander::printHelp Pages: 1 -->
<svg width="288pt" height="45pt"
 viewBox="0.00 0.00 288.00 45.00" xmlns="http://www.w3.org/2000/svg" xmlns:xlink="http://www.w3.org/1999/xlink">
<g id="graph0" class="graph" transform="scale(1 1) rotate(0) translate(4 41)">
<title>Commander::printHelp</title>
<!-- Node1 -->
<g id="node1" class="node">
<title>Node1</title>
<g id="a_node1"><a xlink:title="Prints out the help string to the specified Stream.">
<polygon fill="#999999" stroke="#666666" points="113,-19 0,-19 0,0 113,0 113,-19"/>
<text text-anchor="middle" x="56.5" y="-7" font-family="Helvetica,sans-Serif" font-size="10.00">Commander::printHelp</text>
</a>
</g>
</g>
<!-- Node2 -->
<g id="node2" class="node">
<title>Node2</title>
<g id="a_node2"><a xlink:href="class_commander.html#a578efc09c061fd0c784fabc2844d2c40" target="_top" xlink:title="Help function.">
<polygon fill="white" stroke="#666666" points="280,-19 149,-19 149,0 280,0 280,-19"/>
<text text-anchor="middle" x="214.5" y="-7" font-family="Helvetica,sans-Serif" font-size="10.00">Commander::helpFunction</text>
</a>
</g>
</g>
<!-- Node1&#45;&gt;Node2 -->
<g id="edge1" class="edge">
<title>Node1&#45;&gt;Node2</title>
<path fill="none" stroke="#63b8ff" d="M113.38,-9.5C121.67,-9.5 130.33,-9.5 138.93,-9.5"/>
<polygon fill="#63b8ff" stroke="#63b8ff" points="138.98,-13 148.98,-9.5 138.98,-6 138.98,-13"/>
</g>
<!-- Node2&#45;&gt;Node2 -->
<g id="edge2" class="edge">
<title>Node2&#45;&gt;Node2</title>
<path fill="none" stroke="#63b8ff" d="M190.15,-19.08C178.3,-27.73 186.42,-37 214.5,-37 232.93,-37 242.76,-33.01 243.99,-27.82"/>
<polygon fill="#63b8ff" stroke="#63b8ff" points="246.94,-25.93 238.85,-19.08 240.91,-29.48 246.94,-25.93"/>
</g>
</g>
</svg>
