<?xml version="1.0" encoding="UTF-8" standalone="no"?>
<!DOCTYPE svg PUBLIC "-//W3C//DTD SVG 1.1//EN"
 "http://www.w3.org/Graphics/SVG/1.1/DTD/svg11.dtd">
<!-- Generated by graphviz version 5.0.1 (20220820.1526)
 -->
<!-- Title: Argument::findShortName Pages: 1 -->
<svg width="647pt" height="471pt"
 viewBox="0.00 0.00 647.00 471.00" xmlns="http://www.w3.org/2000/svg" xmlns:xlink="http://www.w3.org/1999/xlink">
<g id="graph0" class="graph" transform="scale(1 1) rotate(0) translate(4 467)">
<title>Argument::findShortName</title>
<!-- Node1 -->
<g id="node1" class="node">
<title>Node1</title>
<g id="a_node1"><a xlink:title="Find the start position of a short named argument.">
<polygon fill="#999999" stroke="#666666" points="639,-204 511,-204 511,-185 639,-185 639,-204"/>
<text text-anchor="middle" x="575" y="-192" font-family="Helvetica,sans-Serif" font-size="10.00">Argument::findShortName</text>
</a>
</g>
</g>
<!-- Node2 -->
<g id="node2" class="node">
<title>Node2</title>
<g id="a_node2"><a xlink:href="class_argument.html#a11a9933e5a65f1cbf0525cd9bd2a29ca" target="_top" xlink:title=" ">
<polygon fill="white" stroke="#666666" points="302,-389 222,-389 222,-370 302,-370 302,-389"/>
<text text-anchor="middle" x="262" y="-377" font-family="Helvetica,sans-Serif" font-size="10.00">Argument::find</text>
</a>
</g>
</g>
<!-- Node1&#45;&gt;Node2 -->
<g id="edge1" class="edge">
<title>Node1&#45;&gt;Node2</title>
<path fill="none" stroke="#63b8ff" d="M549.03,-209.35C487.52,-245.94 330.02,-339.64 279.12,-369.91"/>
<polygon fill="#63b8ff" stroke="#63b8ff" points="550.91,-212.31 557.72,-204.19 547.33,-206.29 550.91,-212.31"/>
</g>
<!-- Node7 -->
<g id="node7" class="node">
<title>Node7</title>
<g id="a_node7"><a xlink:href="class_argument.html#a7fab3d983e4a63b93e6f50df82ed6f84" target="_top" xlink:title=" ">
<polygon fill="white" stroke="#666666" points="475,-185 374,-185 374,-166 475,-166 475,-185"/>
<text text-anchor="middle" x="424.5" y="-173" font-family="Helvetica,sans-Serif" font-size="10.00">Argument::findStart</text>
</a>
</g>
</g>
<!-- Node1&#45;&gt;Node7 -->
<g id="edge6" class="edge">
<title>Node1&#45;&gt;Node7</title>
<path fill="none" stroke="#63b8ff" d="M500.55,-185.1C491.97,-184 483.38,-182.91 475.23,-181.86"/>
<polygon fill="#63b8ff" stroke="#63b8ff" points="500.23,-188.59 510.59,-186.39 501.12,-181.65 500.23,-188.59"/>
</g>
<!-- Node3 -->
<g id="node3" class="node">
<title>Node3</title>
<g id="a_node3"><a xlink:href="_commander-_a_p_i-_digital-_i_o-_commands_8cpp.html#a488c98390245a3d0d7172f364ec91ed8" target="_top" xlink:title="Premade function for digitalRead command.">
<polygon fill="white" stroke="#666666" points="147,-352 3,-352 3,-333 147,-333 147,-352"/>
<text text-anchor="middle" x="75" y="-340" font-family="Helvetica,sans-Serif" font-size="10.00">commander_digitalRead_func</text>
</a>
</g>
</g>
<!-- Node2&#45;&gt;Node3 -->
<g id="edge2" class="edge">
<title>Node2&#45;&gt;Node3</title>
<path fill="none" stroke="#63b8ff" d="M211.66,-369.63C184.41,-364.18 150.71,-357.44 123.72,-352.04"/>
<polygon fill="#63b8ff" stroke="#63b8ff" points="211.27,-373.12 221.77,-371.65 212.65,-366.26 211.27,-373.12"/>
</g>
<!-- Node4 -->
<g id="node4" class="node">
<title>Node4</title>
<g id="a_node4"><a xlink:href="_commander-_a_p_i-_digital-_i_o-_commands_8cpp.html#af309a2eb04319e75d4cc91e93894846e" target="_top" xlink:title="Premade function for digitalWrite command.">
<polygon fill="white" stroke="#666666" points="147.5,-463 2.5,-463 2.5,-444 147.5,-444 147.5,-463"/>
<text text-anchor="middle" x="75" y="-451" font-family="Helvetica,sans-Serif" font-size="10.00">commander_digitalWrite_func</text>
</a>
</g>
</g>
<!-- Node2&#45;&gt;Node4 -->
<g id="edge3" class="edge">
<title>Node2&#45;&gt;Node4</title>
<path fill="none" stroke="#63b8ff" d="M236.28,-394.04C214.26,-406.49 180.84,-424.14 150,-435.5 141.19,-438.74 131.58,-441.57 122.28,-443.97"/>
<polygon fill="#63b8ff" stroke="#63b8ff" points="238.04,-397.07 244.98,-389.06 234.56,-390.99 238.04,-397.07"/>
</g>
<!-- Node5 -->
<g id="node5" class="node">
<title>Node5</title>
<g id="a_node5"><a xlink:href="_commander-_a_p_i-_memory-_commands_8cpp.html#ac0009f7287654611dc82da625f2579a9" target="_top" xlink:title="Premade function for not command.">
<polygon fill="white" stroke="#666666" points="146.5,-426 3.5,-426 3.5,-407 146.5,-407 146.5,-426"/>
<text text-anchor="middle" x="75" y="-414" font-family="Helvetica,sans-Serif" font-size="10.00">commander_memDump_func</text>
</a>
</g>
</g>
<!-- Node2&#45;&gt;Node5 -->
<g id="edge4" class="edge">
<title>Node2&#45;&gt;Node5</title>
<path fill="none" stroke="#63b8ff" d="M211.66,-389.37C184.41,-394.82 150.71,-401.56 123.72,-406.96"/>
<polygon fill="#63b8ff" stroke="#63b8ff" points="212.65,-392.74 221.77,-387.35 211.27,-385.88 212.65,-392.74"/>
</g>
<!-- Node6 -->
<g id="node6" class="node">
<title>Node6</title>
<g id="a_node6"><a xlink:href="_commander-_a_p_i-_digital-_i_o-_commands_8cpp.html#a2246eb22ddae467d2e4c311b95b1ca9f" target="_top" xlink:title="Premade function for pinMode command.">
<polygon fill="white" stroke="#666666" points="141.5,-389 8.5,-389 8.5,-370 141.5,-370 141.5,-389"/>
<text text-anchor="middle" x="75" y="-377" font-family="Helvetica,sans-Serif" font-size="10.00">commander_pinMode_func</text>
</a>
</g>
</g>
<!-- Node2&#45;&gt;Node6 -->
<g id="edge5" class="edge">
<title>Node2&#45;&gt;Node6</title>
<path fill="none" stroke="#63b8ff" d="M211.59,-379.5C190.16,-379.5 164.75,-379.5 141.75,-379.5"/>
<polygon fill="#63b8ff" stroke="#63b8ff" points="211.77,-383 221.77,-379.5 211.77,-376 211.77,-383"/>
</g>
<!-- Node8 -->
<g id="node8" class="node">
<title>Node8</title>
<g id="a_node8"><a xlink:href="class_argument.html#a2258f3363dbb1d462286a41d4ab3b8ad" target="_top" xlink:title=" ">
<polygon fill="white" stroke="#666666" points="317,-130 207,-130 207,-111 317,-111 317,-130"/>
<text text-anchor="middle" x="262" y="-118" font-family="Helvetica,sans-Serif" font-size="10.00">Argument::parseFloat</text>
</a>
</g>
</g>
<!-- Node7&#45;&gt;Node8 -->
<g id="edge7" class="edge">
<title>Node7&#45;&gt;Node8</title>
<path fill="none" stroke="#63b8ff" d="M385.74,-162.56C356.67,-152.6 317.16,-139.06 290.91,-130.06"/>
<polygon fill="#63b8ff" stroke="#63b8ff" points="384.95,-165.99 395.54,-165.92 387.22,-159.37 384.95,-165.99"/>
</g>
<!-- Node14 -->
<g id="node14" class="node">
<title>Node14</title>
<g id="a_node14"><a xlink:href="class_argument.html#aeabd957dda6add595aa860761ea337f1" target="_top" xlink:title=" ">
<polygon fill="white" stroke="#666666" points="311.5,-259 212.5,-259 212.5,-240 311.5,-240 311.5,-259"/>
<text text-anchor="middle" x="262" y="-247" font-family="Helvetica,sans-Serif" font-size="10.00">Argument::parseInt</text>
</a>
</g>
</g>
<!-- Node7&#45;&gt;Node14 -->
<g id="edge13" class="edge">
<title>Node7&#45;&gt;Node14</title>
<path fill="none" stroke="#63b8ff" d="M393.54,-189.31C361.57,-204.05 311.77,-227.01 283.83,-239.9"/>
<polygon fill="#63b8ff" stroke="#63b8ff" points="395.23,-192.39 402.85,-185.02 392.3,-186.03 395.23,-192.39"/>
</g>
<!-- Node19 -->
<g id="node19" class="node">
<title>Node19</title>
<g id="a_node19"><a xlink:href="class_argument.html#a91aa4b22990c4532a437afb1ed58acf4" target="_top" xlink:title=" ">
<polygon fill="white" stroke="#666666" points="338,-93 186,-93 186,-74 338,-74 338,-93"/>
<text text-anchor="middle" x="262" y="-81" font-family="Helvetica,sans-Serif" font-size="10.00">Argument::parseStringFunction</text>
</a>
</g>
</g>
<!-- Node7&#45;&gt;Node19 -->
<g id="edge25" class="edge">
<title>Node7&#45;&gt;Node19</title>
<path fill="none" stroke="#63b8ff" d="M408.44,-158.36C392.59,-141.39 366.06,-115.91 338,-101.5 331.33,-98.07 323.99,-95.29 316.59,-93.02"/>
<polygon fill="#63b8ff" stroke="#63b8ff" points="406.01,-160.89 415.33,-165.93 411.18,-156.18 406.01,-160.89"/>
</g>
<!-- Node9 -->
<g id="node9" class="node">
<title>Node9</title>
<g id="a_node9"><a xlink:href="_commander-_a_p_i-_math-_commands_8cpp.html#ae7d6fa81c7ec3354378b1f948c0c8749" target="_top" xlink:title="Premade function for abs command.">
<polygon fill="white" stroke="#666666" points="131,-167 19,-167 19,-148 131,-148 131,-167"/>
<text text-anchor="middle" x="75" y="-155" font-family="Helvetica,sans-Serif" font-size="10.00">commander_abs_func</text>
</a>
</g>
</g>
<!-- Node8&#45;&gt;Node9 -->
<g id="edge8" class="edge">
<title>Node8&#45;&gt;Node9</title>
<path fill="none" stroke="#63b8ff" d="M203.42,-132.02C177.85,-137.13 148.12,-143.08 123.8,-147.94"/>
<polygon fill="#63b8ff" stroke="#63b8ff" points="204.24,-135.42 213.36,-130.03 202.87,-128.56 204.24,-135.42"/>
</g>
<!-- Node10 -->
<g id="node10" class="node">
<title>Node10</title>
<g id="a_node10"><a xlink:href="_commander-_a_p_i-_math-_commands_8cpp.html#abfe392815068d05be5e099def983b5ec" target="_top" xlink:title="Premade function for cos command.">
<polygon fill="white" stroke="#666666" points="131,-130 19,-130 19,-111 131,-111 131,-130"/>
<text text-anchor="middle" x="75" y="-118" font-family="Helvetica,sans-Serif" font-size="10.00">commander_cos_func</text>
</a>
</g>
</g>
<!-- Node8&#45;&gt;Node10 -->
<g id="edge9" class="edge">
<title>Node8&#45;&gt;Node10</title>
<path fill="none" stroke="#63b8ff" d="M196.98,-120.5C175.51,-120.5 151.76,-120.5 131.04,-120.5"/>
<polygon fill="#63b8ff" stroke="#63b8ff" points="196.99,-124 206.99,-120.5 196.99,-117 196.99,-124"/>
</g>
<!-- Node11 -->
<g id="node11" class="node">
<title>Node11</title>
<g id="a_node11"><a xlink:href="_commander-_a_p_i-_system-_commands_8cpp.html#af867379096ae63ff42938a15749f2bd4" target="_top" xlink:title="Premade function for not command.">
<polygon fill="white" stroke="#666666" points="136.5,-56 13.5,-56 13.5,-37 136.5,-37 136.5,-56"/>
<text text-anchor="middle" x="75" y="-44" font-family="Helvetica,sans-Serif" font-size="10.00">commander_export_func</text>
</a>
</g>
</g>
<!-- Node8&#45;&gt;Node11 -->
<g id="edge10" class="edge">
<title>Node8&#45;&gt;Node11</title>
<path fill="none" stroke="#63b8ff" d="M198.36,-107.49C194.07,-105.74 189.9,-103.75 186,-101.5 166.13,-90.03 169.92,-75.88 150,-64.5 144.03,-61.09 137.43,-58.32 130.71,-56.08"/>
<polygon fill="#63b8ff" stroke="#63b8ff" points="197.32,-110.84 207.91,-110.97 199.72,-104.26 197.32,-110.84"/>
</g>
<!-- Node12 -->
<g id="node12" class="node">
<title>Node12</title>
<g id="a_node12"><a xlink:href="_commander-_a_p_i-_system-_commands_8cpp.html#a67c664cbc5869ccf57996adeecbb6cd9" target="_top" xlink:title="Premade function for not command.">
<polygon fill="white" stroke="#666666" points="150,-19 0,-19 0,0 150,0 150,-19"/>
<text text-anchor="middle" x="75" y="-7" font-family="Helvetica,sans-Serif" font-size="10.00">commander_exportTarget_func</text>
</a>
</g>
</g>
<!-- Node8&#45;&gt;Node12 -->
<g id="edge11" class="edge">
<title>Node8&#45;&gt;Node12</title>
<path fill="none" stroke="#63b8ff" d="M197.44,-108.83C193.36,-106.77 189.49,-104.34 186,-101.5 157.63,-78.42 178.48,-50.45 150,-27.5 145.78,-24.1 141.01,-21.32 135.98,-19.07"/>
<polygon fill="#63b8ff" stroke="#63b8ff" points="196.08,-112.06 206.65,-112.81 198.85,-105.63 196.08,-112.06"/>
</g>
<!-- Node13 -->
<g id="node13" class="node">
<title>Node13</title>
<g id="a_node13"><a xlink:href="_commander-_a_p_i-_math-_commands_8cpp.html#a1113369ca4b669dc0c6355fcf126cc42" target="_top" xlink:title="Premade function for sin command.">
<polygon fill="white" stroke="#666666" points="129.5,-93 20.5,-93 20.5,-74 129.5,-74 129.5,-93"/>
<text text-anchor="middle" x="75" y="-81" font-family="Helvetica,sans-Serif" font-size="10.00">commander_sin_func</text>
</a>
</g>
</g>
<!-- Node8&#45;&gt;Node13 -->
<g id="edge12" class="edge">
<title>Node8&#45;&gt;Node13</title>
<path fill="none" stroke="#63b8ff" d="M203.42,-108.98C177.85,-103.87 148.12,-97.92 123.8,-93.06"/>
<polygon fill="#63b8ff" stroke="#63b8ff" points="202.87,-112.44 213.36,-110.97 204.24,-105.58 202.87,-112.44"/>
</g>
<!-- Node14&#45;&gt;Node3 -->
<g id="edge18" class="edge">
<title>Node14&#45;&gt;Node3</title>
<path fill="none" stroke="#63b8ff" d="M241.95,-265.51C220.78,-282.52 184.96,-309.04 150,-324.5 142.38,-327.87 134.03,-330.67 125.77,-332.98"/>
<polygon fill="#63b8ff" stroke="#63b8ff" points="244.29,-268.11 249.82,-259.07 239.87,-262.69 244.29,-268.11"/>
</g>
<!-- Node14&#45;&gt;Node4 -->
<g id="edge19" class="edge">
<title>Node14&#45;&gt;Node4</title>
<path fill="none" stroke="#63b8ff" d="M247.93,-267.34C232.31,-289.05 205.79,-327.05 186,-361.5 167.78,-393.21 178.48,-412.55 150,-435.5 145.78,-438.9 141.01,-441.68 135.98,-443.93"/>
<polygon fill="#63b8ff" stroke="#63b8ff" points="250.88,-269.25 253.91,-259.1 245.21,-265.14 250.88,-269.25"/>
</g>
<!-- Node14&#45;&gt;Node5 -->
<g id="edge20" class="edge">
<title>Node14&#45;&gt;Node5</title>
<path fill="none" stroke="#63b8ff" d="M249.75,-267.6C227.18,-303.36 176.3,-381.1 150,-398.5 144.82,-401.93 139.04,-404.71 133.07,-406.95"/>
<polygon fill="#63b8ff" stroke="#63b8ff" points="252.73,-269.43 255.08,-259.09 246.8,-265.71 252.73,-269.43"/>
</g>
<!-- Node14&#45;&gt;Node6 -->
<g id="edge22" class="edge">
<title>Node14&#45;&gt;Node6</title>
<path fill="none" stroke="#63b8ff" d="M248.5,-267.25C229.94,-292.23 192.67,-337.39 150,-361.5 143.9,-364.95 137.15,-367.74 130.29,-370"/>
<polygon fill="#63b8ff" stroke="#63b8ff" points="251.42,-269.19 254.47,-259.04 245.76,-265.07 251.42,-269.19"/>
</g>
<!-- Node14&#45;&gt;Node9 -->
<g id="edge14" class="edge">
<title>Node14&#45;&gt;Node9</title>
<path fill="none" stroke="#63b8ff" d="M241.15,-233.5C219.8,-217.02 184.3,-191.67 150,-176.5 141.51,-172.74 132.13,-169.62 122.98,-167.07"/>
<polygon fill="#63b8ff" stroke="#63b8ff" points="239.1,-236.34 249.13,-239.75 243.42,-230.83 239.1,-236.34"/>
</g>
<!-- Node14&#45;&gt;Node10 -->
<g id="edge17" class="edge">
<title>Node14&#45;&gt;Node10</title>
<path fill="none" stroke="#63b8ff" d="M248.1,-231.78C229.31,-207.26 192.03,-163.35 150,-139.5 143.19,-135.64 135.59,-132.55 127.93,-130.08"/>
<polygon fill="#63b8ff" stroke="#63b8ff" points="245.36,-233.96 254.16,-239.86 250.96,-229.76 245.36,-233.96"/>
</g>
<!-- Node14&#45;&gt;Node13 -->
<g id="edge24" class="edge">
<title>Node14&#45;&gt;Node13</title>
<path fill="none" stroke="#63b8ff" d="M248.25,-231.09C221.99,-193.39 163.22,-110.22 150,-101.5 143.82,-97.42 136.8,-94.27 129.61,-91.83"/>
<polygon fill="#63b8ff" stroke="#63b8ff" points="245.59,-233.41 254.18,-239.62 251.34,-229.41 245.59,-233.41"/>
</g>
<!-- Node15 -->
<g id="node15" class="node">
<title>Node15</title>
<g id="a_node15"><a xlink:href="_commander-_a_p_i-_analog-_i_o-_commands_8cpp.html#a22f364acaf405f853e1ff3787c35b53e" target="_top" xlink:title="Premade function for analogRead command.">
<polygon fill="white" stroke="#666666" points="148.5,-241 1.5,-241 1.5,-222 148.5,-222 148.5,-241"/>
<text text-anchor="middle" x="75" y="-229" font-family="Helvetica,sans-Serif" font-size="10.00">commander_analogRead_func</text>
</a>
</g>
</g>
<!-- Node14&#45;&gt;Node15 -->
<g id="edge15" class="edge">
<title>Node14&#45;&gt;Node15</title>
<path fill="none" stroke="#63b8ff" d="M202.07,-243.77C185.09,-242.11 166.37,-240.29 148.66,-238.57"/>
<polygon fill="#63b8ff" stroke="#63b8ff" points="202.1,-247.29 212.39,-244.77 202.78,-240.32 202.1,-247.29"/>
</g>
<!-- Node16 -->
<g id="node16" class="node">
<title>Node16</title>
<g id="a_node16"><a xlink:href="_commander-_a_p_i-_analog-_i_o-_commands_8cpp.html#a0bb64a637cbaa4134e0cc9d1a7453ecf" target="_top" xlink:title="Premade function for analogRead command.">
<polygon fill="white" stroke="#666666" points="149,-204 1,-204 1,-185 149,-185 149,-204"/>
<text text-anchor="middle" x="75" y="-192" font-family="Helvetica,sans-Serif" font-size="10.00">commander_analogWrite_func</text>
</a>
</g>
</g>
<!-- Node14&#45;&gt;Node16 -->
<g id="edge16" class="edge">
<title>Node14&#45;&gt;Node16</title>
<path fill="none" stroke="#63b8ff" d="M223.62,-236.74C202.18,-229.57 174.69,-220.67 150,-213.5 138.66,-210.21 126.26,-206.91 114.91,-204.01"/>
<polygon fill="#63b8ff" stroke="#63b8ff" points="222.73,-240.13 233.32,-239.99 224.96,-233.49 222.73,-240.13"/>
</g>
<!-- Node17 -->
<g id="node17" class="node">
<title>Node17</title>
<g id="a_node17"><a xlink:href="_commander-_a_p_i-_math-_commands_8cpp.html#aa0fa51a20a9af63d3f7e85012e533a7c" target="_top" xlink:title="Premade function for not command.">
<polygon fill="white" stroke="#666666" points="130,-315 20,-315 20,-296 130,-296 130,-315"/>
<text text-anchor="middle" x="75" y="-303" font-family="Helvetica,sans-Serif" font-size="10.00">commander_not_func</text>
</a>
</g>
</g>
<!-- Node14&#45;&gt;Node17 -->
<g id="edge21" class="edge">
<title>Node14&#45;&gt;Node17</title>
<path fill="none" stroke="#63b8ff" d="M225.74,-262.49C204.05,-270.25 175.6,-280.02 150,-287.5 139.72,-290.5 128.54,-293.41 118.05,-295.98"/>
<polygon fill="#63b8ff" stroke="#63b8ff" points="226.98,-265.77 235.2,-259.08 224.6,-259.18 226.98,-265.77"/>
</g>
<!-- Node18 -->
<g id="node18" class="node">
<title>Node18</title>
<g id="a_node18"><a xlink:href="_commander-_a_p_i-_math-_commands_8cpp.html#aedeb7c7e023d071ecf07a9d6c64679d4" target="_top" xlink:title="Premade function for random command.">
<polygon fill="white" stroke="#666666" points="139,-278 11,-278 11,-259 139,-259 139,-278"/>
<text text-anchor="middle" x="75" y="-266" font-family="Helvetica,sans-Serif" font-size="10.00">commander_random_func</text>
</a>
</g>
</g>
<!-- Node14&#45;&gt;Node18 -->
<g id="edge23" class="edge">
<title>Node14&#45;&gt;Node18</title>
<path fill="none" stroke="#63b8ff" d="M202.43,-255.51C182.32,-257.58 159.73,-259.9 139.26,-262"/>
<polygon fill="#63b8ff" stroke="#63b8ff" points="202.8,-259 212.39,-254.49 202.09,-252.03 202.8,-259"/>
</g>
</g>
</svg>
