<?xml version="1.0" encoding="UTF-8" standalone="no"?>
<!DOCTYPE svg PUBLIC "-//W3C//DTD SVG 1.1//EN"
 "http://www.w3.org/Graphics/SVG/1.1/DTD/svg11.dtd">
<!-- Generated by graphviz version 5.0.1 (20220820.1526)
 -->
<!-- Title: Argument::parseInt Pages: 1 -->
<svg width="293pt" height="397pt"
 viewBox="0.00 0.00 293.00 397.00" xmlns="http://www.w3.org/2000/svg" xmlns:xlink="http://www.w3.org/1999/xlink">
<g id="graph0" class="graph" transform="scale(1 1) rotate(0) translate(4 393)">
<title>Argument::parseInt</title>
<!-- Node1 -->
<g id="node1" class="node">
<title>Node1</title>
<g id="a_node1"><a xlink:title=" ">
<polygon fill="#999999" stroke="#666666" points="285,-204 186,-204 186,-185 285,-185 285,-204"/>
<text text-anchor="middle" x="235.5" y="-192" font-family="Helvetica,sans-Serif" font-size="10.00">Argument::parseInt</text>
</a>
</g>
</g>
<!-- Node2 -->
<g id="node2" class="node">
<title>Node2</title>
<g id="a_node2"><a xlink:href="_commander-_a_p_i-_math-_commands_8cpp.html#ae7d6fa81c7ec3354378b1f948c0c8749" target="_top" xlink:title="Premade function for abs command.">
<polygon fill="white" stroke="#666666" points="131,-389 19,-389 19,-370 131,-370 131,-389"/>
<text text-anchor="middle" x="75" y="-377" font-family="Helvetica,sans-Serif" font-size="10.00">commander_abs_func</text>
</a>
</g>
</g>
<!-- Node1&#45;&gt;Node2 -->
<g id="edge1" class="edge">
<title>Node1&#45;&gt;Node2</title>
<path fill="none" stroke="#63b8ff" d="M230.25,-214.21C221.58,-249.42 198.47,-323.06 150,-361.5 144.41,-365.94 137.88,-369.3 131.06,-371.85"/>
<polygon fill="#63b8ff" stroke="#63b8ff" points="233.71,-214.75 232.56,-204.22 226.89,-213.17 233.71,-214.75"/>
</g>
<!-- Node3 -->
<g id="node3" class="node">
<title>Node3</title>
<g id="a_node3"><a xlink:href="_commander-_a_p_i-_analog-_i_o-_commands_8cpp.html#a22f364acaf405f853e1ff3787c35b53e" target="_top" xlink:title="Premade function for analogRead command.">
<polygon fill="white" stroke="#666666" points="148.5,-352 1.5,-352 1.5,-333 148.5,-333 148.5,-352"/>
<text text-anchor="middle" x="75" y="-340" font-family="Helvetica,sans-Serif" font-size="10.00">commander_analogRead_func</text>
</a>
</g>
</g>
<!-- Node1&#45;&gt;Node3 -->
<g id="edge2" class="edge">
<title>Node1&#45;&gt;Node3</title>
<path fill="none" stroke="#63b8ff" d="M227.38,-213.81C215.75,-242.55 189.92,-296.21 150,-324.5 145.15,-327.94 139.71,-330.73 134.05,-332.98"/>
<polygon fill="#63b8ff" stroke="#63b8ff" points="230.78,-214.71 231.14,-204.12 224.26,-212.18 230.78,-214.71"/>
</g>
<!-- Node4 -->
<g id="node4" class="node">
<title>Node4</title>
<g id="a_node4"><a xlink:href="_commander-_a_p_i-_analog-_i_o-_commands_8cpp.html#a0bb64a637cbaa4134e0cc9d1a7453ecf" target="_top" xlink:title="Premade function for analogRead command.">
<polygon fill="white" stroke="#666666" points="149,-315 1,-315 1,-296 149,-296 149,-315"/>
<text text-anchor="middle" x="75" y="-303" font-family="Helvetica,sans-Serif" font-size="10.00">commander_analogWrite_func</text>
</a>
</g>
</g>
<!-- Node1&#45;&gt;Node4 -->
<g id="edge3" class="edge">
<title>Node1&#45;&gt;Node4</title>
<path fill="none" stroke="#63b8ff" d="M223.06,-212.57C208.64,-233.82 181.86,-268.58 150,-287.5 144.2,-290.94 137.78,-293.73 131.21,-295.98"/>
<polygon fill="#63b8ff" stroke="#63b8ff" points="226.05,-214.4 228.62,-204.12 220.2,-210.55 226.05,-214.4"/>
</g>
<!-- Node5 -->
<g id="node5" class="node">
<title>Node5</title>
<g id="a_node5"><a xlink:href="_commander-_a_p_i-_math-_commands_8cpp.html#abfe392815068d05be5e099def983b5ec" target="_top" xlink:title="Premade function for cos command.">
<polygon fill="white" stroke="#666666" points="131,-278 19,-278 19,-259 131,-259 131,-278"/>
<text text-anchor="middle" x="75" y="-266" font-family="Helvetica,sans-Serif" font-size="10.00">commander_cos_func</text>
</a>
</g>
</g>
<!-- Node1&#45;&gt;Node5 -->
<g id="edge4" class="edge">
<title>Node1&#45;&gt;Node5</title>
<path fill="none" stroke="#63b8ff" d="M214.7,-210.51C198.27,-223.06 173.81,-240.1 150,-250.5 142.37,-253.84 134.01,-256.62 125.75,-258.92"/>
<polygon fill="#63b8ff" stroke="#63b8ff" points="217.22,-212.98 222.95,-204.07 212.92,-207.46 217.22,-212.98"/>
</g>
<!-- Node6 -->
<g id="node6" class="node">
<title>Node6</title>
<g id="a_node6"><a xlink:href="_commander-_a_p_i-_digital-_i_o-_commands_8cpp.html#a488c98390245a3d0d7172f364ec91ed8" target="_top" xlink:title="Premade function for digitalRead command.">
<polygon fill="white" stroke="#666666" points="147,-241 3,-241 3,-222 147,-222 147,-241"/>
<text text-anchor="middle" x="75" y="-229" font-family="Helvetica,sans-Serif" font-size="10.00">commander_digitalRead_func</text>
</a>
</g>
</g>
<!-- Node1&#45;&gt;Node6 -->
<g id="edge5" class="edge">
<title>Node1&#45;&gt;Node6</title>
<path fill="none" stroke="#63b8ff" d="M183.71,-206.36C162.14,-211.39 137.32,-217.18 116.95,-221.94"/>
<polygon fill="#63b8ff" stroke="#63b8ff" points="184.74,-209.71 193.68,-204.03 183.15,-202.89 184.74,-209.71"/>
</g>
<!-- Node7 -->
<g id="node7" class="node">
<title>Node7</title>
<g id="a_node7"><a xlink:href="_commander-_a_p_i-_digital-_i_o-_commands_8cpp.html#af309a2eb04319e75d4cc91e93894846e" target="_top" xlink:title="Premade function for digitalWrite command.">
<polygon fill="white" stroke="#666666" points="147.5,-204 2.5,-204 2.5,-185 147.5,-185 147.5,-204"/>
<text text-anchor="middle" x="75" y="-192" font-family="Helvetica,sans-Serif" font-size="10.00">commander_digitalWrite_func</text>
</a>
</g>
</g>
<!-- Node1&#45;&gt;Node7 -->
<g id="edge6" class="edge">
<title>Node1&#45;&gt;Node7</title>
<path fill="none" stroke="#63b8ff" d="M175.58,-194.5C166.5,-194.5 157.03,-194.5 147.7,-194.5"/>
<polygon fill="#63b8ff" stroke="#63b8ff" points="175.65,-198 185.65,-194.5 175.65,-191 175.65,-198"/>
</g>
<!-- Node8 -->
<g id="node8" class="node">
<title>Node8</title>
<g id="a_node8"><a xlink:href="_commander-_a_p_i-_system-_commands_8cpp.html#a67c664cbc5869ccf57996adeecbb6cd9" target="_top" xlink:title="Premade function for not command.">
<polygon fill="white" stroke="#666666" points="150,-167 0,-167 0,-148 150,-148 150,-167"/>
<text text-anchor="middle" x="75" y="-155" font-family="Helvetica,sans-Serif" font-size="10.00">commander_exportTarget_func</text>
</a>
</g>
</g>
<!-- Node1&#45;&gt;Node8 -->
<g id="edge7" class="edge">
<title>Node1&#45;&gt;Node8</title>
<path fill="none" stroke="#63b8ff" d="M183.71,-182.64C162.14,-177.61 137.32,-171.82 116.95,-167.06"/>
<polygon fill="#63b8ff" stroke="#63b8ff" points="183.15,-186.11 193.68,-184.97 184.74,-179.29 183.15,-186.11"/>
</g>
<!-- Node9 -->
<g id="node9" class="node">
<title>Node9</title>
<g id="a_node9"><a xlink:href="_commander-_a_p_i-_math-_commands_8cpp.html#aa0fa51a20a9af63d3f7e85012e533a7c" target="_top" xlink:title="Premade function for not command.">
<polygon fill="white" stroke="#666666" points="130,-130 20,-130 20,-111 130,-111 130,-130"/>
<text text-anchor="middle" x="75" y="-118" font-family="Helvetica,sans-Serif" font-size="10.00">commander_not_func</text>
</a>
</g>
</g>
<!-- Node1&#45;&gt;Node9 -->
<g id="edge8" class="edge">
<title>Node1&#45;&gt;Node9</title>
<path fill="none" stroke="#63b8ff" d="M214.34,-178.66C197.86,-166.41 173.53,-149.84 150,-139.5 141.5,-135.76 132.12,-132.65 122.97,-130.1"/>
<polygon fill="#63b8ff" stroke="#63b8ff" points="212.55,-181.7 222.63,-184.96 216.78,-176.12 212.55,-181.7"/>
</g>
<!-- Node10 -->
<g id="node10" class="node">
<title>Node10</title>
<g id="a_node10"><a xlink:href="_commander-_a_p_i-_digital-_i_o-_commands_8cpp.html#a2246eb22ddae467d2e4c311b95b1ca9f" target="_top" xlink:title="Premade function for pinMode command.">
<polygon fill="white" stroke="#666666" points="141.5,-93 8.5,-93 8.5,-74 141.5,-74 141.5,-93"/>
<text text-anchor="middle" x="75" y="-81" font-family="Helvetica,sans-Serif" font-size="10.00">commander_pinMode_func</text>
</a>
</g>
</g>
<!-- Node1&#45;&gt;Node10 -->
<g id="edge9" class="edge">
<title>Node1&#45;&gt;Node10</title>
<path fill="none" stroke="#63b8ff" d="M222.75,-176.37C208.19,-155.39 181.44,-121.33 150,-102.5 143.51,-98.62 136.25,-95.52 128.87,-93.05"/>
<polygon fill="#63b8ff" stroke="#63b8ff" points="219.89,-178.39 228.38,-184.73 225.7,-174.48 219.89,-178.39"/>
</g>
<!-- Node11 -->
<g id="node11" class="node">
<title>Node11</title>
<g id="a_node11"><a xlink:href="_commander-_a_p_i-_math-_commands_8cpp.html#aedeb7c7e023d071ecf07a9d6c64679d4" target="_top" xlink:title="Premade function for random command.">
<polygon fill="white" stroke="#666666" points="139,-56 11,-56 11,-37 139,-37 139,-56"/>
<text text-anchor="middle" x="75" y="-44" font-family="Helvetica,sans-Serif" font-size="10.00">commander_random_func</text>
</a>
</g>
</g>
<!-- Node1&#45;&gt;Node11 -->
<g id="edge10" class="edge">
<title>Node1&#45;&gt;Node11</title>
<path fill="none" stroke="#63b8ff" d="M227.29,-175.4C215.55,-146.96 189.58,-93.82 150,-65.5 144.61,-61.64 138.5,-58.56 132.16,-56.11"/>
<polygon fill="#63b8ff" stroke="#63b8ff" points="224.15,-176.98 231.09,-184.98 230.66,-174.4 224.15,-176.98"/>
</g>
<!-- Node12 -->
<g id="node12" class="node">
<title>Node12</title>
<g id="a_node12"><a xlink:href="_commander-_a_p_i-_math-_commands_8cpp.html#a1113369ca4b669dc0c6355fcf126cc42" target="_top" xlink:title="Premade function for sin command.">
<polygon fill="white" stroke="#666666" points="129.5,-19 20.5,-19 20.5,0 129.5,0 129.5,-19"/>
<text text-anchor="middle" x="75" y="-7" font-family="Helvetica,sans-Serif" font-size="10.00">commander_sin_func</text>
</a>
</g>
</g>
<!-- Node1&#45;&gt;Node12 -->
<g id="edge11" class="edge">
<title>Node1&#45;&gt;Node12</title>
<path fill="none" stroke="#63b8ff" d="M230.16,-174.97C221.36,-140.06 198.04,-67.01 150,-28.5 144,-23.69 136.92,-20.08 129.55,-17.38"/>
<polygon fill="#63b8ff" stroke="#63b8ff" points="226.8,-175.95 232.52,-184.87 233.61,-174.33 226.8,-175.95"/>
</g>
</g>
</svg>
