<?xml version="1.0" encoding="UTF-8" standalone="no"?>
<!DOCTYPE svg PUBLIC "-//W3C//DTD SVG 1.1//EN"
 "http://www.w3.org/Graphics/SVG/1.1/DTD/svg11.dtd">
<!-- Generated by graphviz version 5.0.1 (20220820.1526)
 -->
<!-- Title: Commander::optimize_api_tree Pages: 1 -->
<svg width="565pt" height="56pt"
 viewBox="0.00 0.00 565.00 56.00" xmlns="http://www.w3.org/2000/svg" xmlns:xlink="http://www.w3.org/1999/xlink">
<g id="graph0" class="graph" transform="scale(1 1) rotate(0) translate(4 52)">
<title>Commander::optimize_api_tree</title>
<!-- Node1 -->
<g id="node1" class="node">
<title>Node1</title>
<g id="a_node1"><a xlink:title="Optimizes the tree to make it balanced.">
<polygon fill="#999999" stroke="#666666" points="112,-30 0,-30 0,0 112,0 112,-30"/>
<text text-anchor="start" x="8" y="-18" font-family="Helvetica,sans-Serif" font-size="10.00">Commander::optimize</text>
<text text-anchor="middle" x="56" y="-7" font-family="Helvetica,sans-Serif" font-size="10.00">_api_tree</text>
</a>
</g>
</g>
<!-- Node2 -->
<g id="node2" class="node">
<title>Node2</title>
<g id="a_node2"><a xlink:href="class_commander.html#a8415264e9cdf820c7ad1872cc36811bd" target="_top" xlink:title="Recursive function optimize a section in the tree.">
<polygon fill="white" stroke="#666666" points="261,-30 148,-30 148,0 261,0 261,-30"/>
<text text-anchor="start" x="156" y="-18" font-family="Helvetica,sans-Serif" font-size="10.00">Commander::recursive</text>
<text text-anchor="middle" x="204.5" y="-7" font-family="Helvetica,sans-Serif" font-size="10.00">_optimizer</text>
</a>
</g>
</g>
<!-- Node1&#45;&gt;Node2 -->
<g id="edge1" class="edge">
<title>Node1&#45;&gt;Node2</title>
<path fill="none" stroke="#63b8ff" d="M112.39,-15C120.57,-15 129.06,-15 137.43,-15"/>
<polygon fill="#63b8ff" stroke="#63b8ff" points="137.55,-18.5 147.55,-15 137.55,-11.5 137.55,-18.5"/>
</g>
<!-- Node2&#45;&gt;Node2 -->
<g id="edge2" class="edge">
<title>Node2&#45;&gt;Node2</title>
<path fill="none" stroke="#63b8ff" d="M178.48,-30.28C172.7,-39.41 181.38,-48 204.5,-48 218.23,-48 226.87,-44.97 230.41,-40.6"/>
<polygon fill="#63b8ff" stroke="#63b8ff" points="233.91,-40.31 230.52,-30.28 226.91,-40.24 233.91,-40.31"/>
</g>
<!-- Node3 -->
<g id="node3" class="node">
<title>Node3</title>
<g id="a_node3"><a xlink:href="class_commander.html#a05f64743655f673fb18871e71ae75c9c" target="_top" xlink:title="Swap two API elements in the tree.">
<polygon fill="white" stroke="#666666" points="413,-30 297,-30 297,0 413,0 413,-30"/>
<text text-anchor="start" x="305" y="-18" font-family="Helvetica,sans-Serif" font-size="10.00">Commander::swap_api</text>
<text text-anchor="middle" x="355" y="-7" font-family="Helvetica,sans-Serif" font-size="10.00">_elements</text>
</a>
</g>
</g>
<!-- Node2&#45;&gt;Node3 -->
<g id="edge3" class="edge">
<title>Node2&#45;&gt;Node3</title>
<path fill="none" stroke="#63b8ff" d="M261.22,-15C269.62,-15 278.36,-15 286.96,-15"/>
<polygon fill="#63b8ff" stroke="#63b8ff" points="286.98,-18.5 296.98,-15 286.98,-11.5 286.98,-18.5"/>
</g>
<!-- Node4 -->
<g id="node4" class="node">
<title>Node4</title>
<g id="a_node4"><a xlink:href="class_commander.html#a8634a1c3c680d0a598fa8b6b5445ca39" target="_top" xlink:title="Find an API element in the tree by alphabetical place.">
<polygon fill="white" stroke="#666666" points="557,-30 449,-30 449,0 557,0 557,-30"/>
<text text-anchor="start" x="457" y="-18" font-family="Helvetica,sans-Serif" font-size="10.00">Commander::find_api</text>
<text text-anchor="middle" x="503" y="-7" font-family="Helvetica,sans-Serif" font-size="10.00">_index_by_place</text>
</a>
</g>
</g>
<!-- Node3&#45;&gt;Node4 -->
<g id="edge4" class="edge">
<title>Node3&#45;&gt;Node4</title>
<path fill="none" stroke="#63b8ff" d="M413.28,-15C421.58,-15 430.15,-15 438.56,-15"/>
<polygon fill="#63b8ff" stroke="#63b8ff" points="438.69,-18.5 448.69,-15 438.69,-11.5 438.69,-18.5"/>
</g>
</g>
</svg>
