<?xml version="1.0" encoding="UTF-8" standalone="no"?>
<!DOCTYPE svg PUBLIC "-//W3C//DTD SVG 1.1//EN"
 "http://www.w3.org/Graphics/SVG/1.1/DTD/svg11.dtd">
<!-- Generated by graphviz version 5.0.1 (20220820.1526)
 -->
<!-- Title: Argument Pages: 1 -->
<svg width="432pt" height="445pt"
 viewBox="0.00 0.00 432.00 445.00" xmlns="http://www.w3.org/2000/svg" xmlns:xlink="http://www.w3.org/1999/xlink">
<g id="graph0" class="graph" transform="scale(1 1) rotate(0) translate(4 441)">
<title>Argument</title>
<!-- Node1 -->
<g id="node1" class="node">
<title>Node1</title>
<g id="a_node1"><a xlink:title="Argument class.">
<polygon fill="#999999" stroke="#666666" points="296,-316 177,-316 177,0 296,0 296,-316"/>
<text text-anchor="middle" x="236.5" y="-304" font-family="Helvetica,sans-Serif" font-size="10.00">{Argument</text>
<text text-anchor="start" x="185" y="-293" font-family="Helvetica,sans-Serif" font-size="10.00">|&#45; source</text>
<text text-anchor="start" x="185" y="-282" font-family="Helvetica,sans-Serif" font-size="10.00">&#45; sourceSize</text>
<text text-anchor="start" x="185" y="-271" font-family="Helvetica,sans-Serif" font-size="10.00">&#45; place</text>
<text text-anchor="start" x="185" y="-260" font-family="Helvetica,sans-Serif" font-size="10.00">&#45; shortName</text>
<text text-anchor="start" x="185" y="-249" font-family="Helvetica,sans-Serif" font-size="10.00">&#45; longName</text>
<text text-anchor="start" x="185" y="-238" font-family="Helvetica,sans-Serif" font-size="10.00">&#45; failedString</text>
<text text-anchor="start" x="185" y="-227" font-family="Helvetica,sans-Serif" font-size="10.00">|+ Argument()</text>
<text text-anchor="start" x="185" y="-216" font-family="Helvetica,sans-Serif" font-size="10.00">+ Argument()</text>
<text text-anchor="start" x="185" y="-205" font-family="Helvetica,sans-Serif" font-size="10.00">+ Argument()</text>
<text text-anchor="start" x="185" y="-194" font-family="Helvetica,sans-Serif" font-size="10.00">+ operator int()</text>
<text text-anchor="start" x="185" y="-183" font-family="Helvetica,sans-Serif" font-size="10.00">+ operator float()</text>
<text text-anchor="start" x="185" y="-172" font-family="Helvetica,sans-Serif" font-size="10.00">+ operator char *()</text>
<text text-anchor="start" x="185" y="-161" font-family="Helvetica,sans-Serif" font-size="10.00">+ operator bool()</text>
<text text-anchor="start" x="185" y="-150" font-family="Helvetica,sans-Serif" font-size="10.00">+ parseInt()</text>
<text text-anchor="start" x="185" y="-139" font-family="Helvetica,sans-Serif" font-size="10.00">+ parseFloat()</text>
<text text-anchor="start" x="185" y="-128" font-family="Helvetica,sans-Serif" font-size="10.00">+ parseStringFunction()</text>
<text text-anchor="start" x="185" y="-117" font-family="Helvetica,sans-Serif" font-size="10.00">+ find()</text>
<text text-anchor="start" x="185" y="-106" font-family="Helvetica,sans-Serif" font-size="10.00">+ isFound()</text>
<text text-anchor="start" x="185" y="-95" font-family="Helvetica,sans-Serif" font-size="10.00">+ getSystemVariable()</text>
<text text-anchor="start" x="185" y="-84" font-family="Helvetica,sans-Serif" font-size="10.00">&#45; __attribute__()</text>
<text text-anchor="start" x="185" y="-73" font-family="Helvetica,sans-Serif" font-size="10.00">&#45; findShortName()</text>
<text text-anchor="start" x="185" y="-62" font-family="Helvetica,sans-Serif" font-size="10.00">&#45; findLongName()</text>
<text text-anchor="start" x="185" y="-51" font-family="Helvetica,sans-Serif" font-size="10.00">&#45; findByPlace()</text>
<text text-anchor="start" x="185" y="-40" font-family="Helvetica,sans-Serif" font-size="10.00">&#45; findStart()</text>
<text text-anchor="start" x="185" y="-29" font-family="Helvetica,sans-Serif" font-size="10.00">&#45; inString()</text>
<text text-anchor="start" x="185" y="-18" font-family="Helvetica,sans-Serif" font-size="10.00">&#45; substring()</text>
<text text-anchor="middle" x="236.5" y="-7" font-family="Helvetica,sans-Serif" font-size="10.00">}</text>
</a>
</g>
</g>
<!-- Node2 -->
<g id="node2" class="node">
<title>Node2</title>
<g id="a_node2"><a xlink:href="struct_commander_database_1_1data_record__t.html" target="_top" xlink:title="Data record element.">
<polygon fill="white" stroke="#666666" points="119,-437 0,-437 0,-363 119,-363 119,-437"/>
<text text-anchor="start" x="8" y="-425" font-family="Helvetica,sans-Serif" font-size="10.00">{CommanderDatabase&lt;</text>
<text text-anchor="middle" x="59.5" y="-414" font-family="Helvetica,sans-Serif" font-size="10.00"> T &gt;::dataRecord_t</text>
<text text-anchor="start" x="8" y="-403" font-family="Helvetica,sans-Serif" font-size="10.00">|+ place</text>
<text text-anchor="start" x="8" y="-392" font-family="Helvetica,sans-Serif" font-size="10.00">+ name</text>
<text text-anchor="start" x="8" y="-381" font-family="Helvetica,sans-Serif" font-size="10.00">+ data</text>
<text text-anchor="middle" x="59.5" y="-370" font-family="Helvetica,sans-Serif" font-size="10.00">|}</text>
</a>
</g>
</g>
<!-- Node2&#45;&gt;Node1 -->
<g id="edge1" class="edge">
<title>Node2&#45;&gt;Node1</title>
<path fill="none" stroke="#404040" d="M86.19,-362.81C108.27,-332.87 140.6,-289.03 169.63,-249.68"/>
<polygon fill="none" stroke="#404040" points="169.8,-249.44 170.15,-242.23 176.93,-239.78 176.58,-246.98 169.8,-249.44"/>
<text text-anchor="middle" x="144.5" y="-337" font-family="Helvetica,sans-Serif" font-size="10.00"> &#45;systemVariable</text>
</g>
<!-- Node2&#45;&gt;Node2 -->
<g id="edge2" class="edge">
<title>Node2&#45;&gt;Node2</title>
<path fill="none" stroke="#404040" d="M119.29,-410.55C129.73,-409.14 137,-405.62 137,-400 137,-396.92 134.83,-394.48 131.15,-392.66"/>
<polygon fill="none" stroke="#404040" points="130.87,-392.59 124.04,-394.88 119.29,-389.45 126.13,-387.16 130.87,-392.59"/>
<text text-anchor="middle" x="149.5" y="-403" font-family="Helvetica,sans-Serif" font-size="10.00"> +left</text>
<text text-anchor="middle" x="149.5" y="-392" font-family="Helvetica,sans-Serif" font-size="10.00">+right</text>
</g>
<!-- Node3 -->
<g id="node3" class="node">
<title>Node3</title>
<g id="a_node3"><a xlink:href="struct_argument_1_1bool_fields.html" target="_top" xlink:title=" ">
<polygon fill="white" stroke="#666666" points="292.5,-426 180.5,-426 180.5,-374 292.5,-374 292.5,-426"/>
<text text-anchor="middle" x="236.5" y="-414" font-family="Helvetica,sans-Serif" font-size="10.00">{Argument::boolFields</text>
<text text-anchor="start" x="188.5" y="-403" font-family="Helvetica,sans-Serif" font-size="10.00">|+ parsed</text>
<text text-anchor="start" x="188.5" y="-392" font-family="Helvetica,sans-Serif" font-size="10.00">+ found</text>
<text text-anchor="middle" x="236.5" y="-381" font-family="Helvetica,sans-Serif" font-size="10.00">|}</text>
</a>
</g>
</g>
<!-- Node3&#45;&gt;Node1 -->
<g id="edge3" class="edge">
<title>Node3&#45;&gt;Node1</title>
<path fill="none" stroke="#404040" d="M236.5,-373.77C236.5,-361.54 236.5,-345.7 236.5,-328.16"/>
<polygon fill="none" stroke="#404040" points="236.5,-328.1 232.5,-322.1 236.5,-316.1 240.5,-322.1 236.5,-328.1"/>
<text text-anchor="middle" x="255.5" y="-337" font-family="Helvetica,sans-Serif" font-size="10.00"> &#45;bFields</text>
</g>
<!-- Node4 -->
<g id="node4" class="node">
<title>Node4</title>
<g id="a_node4"><a xlink:href="union_argument_1_1return_data.html" target="_top" xlink:title=" ">
<polygon fill="white" stroke="#666666" points="424,-431.5 311,-431.5 311,-368.5 424,-368.5 424,-431.5"/>
<text text-anchor="middle" x="367.5" y="-419.5" font-family="Helvetica,sans-Serif" font-size="10.00">{Argument::returnData</text>
<text text-anchor="start" x="319" y="-408.5" font-family="Helvetica,sans-Serif" font-size="10.00">|+ i</text>
<text text-anchor="start" x="319" y="-397.5" font-family="Helvetica,sans-Serif" font-size="10.00">+ f</text>
<text text-anchor="start" x="319" y="-386.5" font-family="Helvetica,sans-Serif" font-size="10.00">+ c</text>
<text text-anchor="middle" x="367.5" y="-375.5" font-family="Helvetica,sans-Serif" font-size="10.00">|}</text>
</a>
</g>
</g>
<!-- Node4&#45;&gt;Node1 -->
<g id="edge4" class="edge">
<title>Node4&#45;&gt;Node1</title>
<path fill="none" stroke="#404040" d="M350.64,-368.12C338.05,-345.04 319.95,-311.89 301.87,-278.77"/>
<polygon fill="none" stroke="#404040" points="301.76,-278.56 295.37,-275.21 296.01,-268.02 302.39,-271.37 301.76,-278.56"/>
<text text-anchor="middle" x="344.5" y="-337" font-family="Helvetica,sans-Serif" font-size="10.00"> &#45;ret</text>
</g>
</g>
</svg>
