<?xml version="1.0" encoding="UTF-8" standalone="no"?>
<!DOCTYPE svg PUBLIC "-//W3C//DTD SVG 1.1//EN"
 "http://www.w3.org/Graphics/SVG/1.1/DTD/svg11.dtd">
<!-- Generated by graphviz version 5.0.1 (20220820.1526)
 -->
<!-- Title: commandResponseArduino32U4Serial::select Pages: 1 -->
<svg width="355pt" height="64pt"
 viewBox="0.00 0.00 355.00 64.00" xmlns="http://www.w3.org/2000/svg" xmlns:xlink="http://www.w3.org/1999/xlink">
<g id="graph0" class="graph" transform="scale(1 1) rotate(0) translate(4 60)">
<title>commandResponseArduino32U4Serial::select</title>
<!-- Node1 -->
<g id="node1" class="node">
<title>Node1</title>
<g id="a_node1"><a xlink:title=" ">
<polygon fill="#999999" stroke="#666666" points="347,-42.5 201,-42.5 201,-12.5 347,-12.5 347,-42.5"/>
<text text-anchor="start" x="209" y="-30.5" font-family="Helvetica,sans-Serif" font-size="10.00">commandResponseArduino32</text>
<text text-anchor="middle" x="274" y="-19.5" font-family="Helvetica,sans-Serif" font-size="10.00">U4Serial::select</text>
</a>
</g>
</g>
<!-- Node2 -->
<g id="node2" class="node">
<title>Node2</title>
<g id="a_node2"><a xlink:href="class_commander.html#a6e6a11fc834ba36355363231a930287d" target="_top" xlink:title="Debug channel for Arduino Serial.">
<polygon fill="white" stroke="#666666" points="165,-56 0,-56 0,-37 165,-37 165,-56"/>
<text text-anchor="middle" x="82.5" y="-44" font-family="Helvetica,sans-Serif" font-size="10.00">Commander::attachDebugChannel</text>
</a>
</g>
</g>
<!-- Node1&#45;&gt;Node2 -->
<g id="edge1" class="edge">
<title>Node1&#45;&gt;Node2</title>
<path fill="none" stroke="#63b8ff" d="M190.65,-35.76C182.24,-36.6 173.7,-37.46 165.3,-38.3"/>
<polygon fill="#63b8ff" stroke="#63b8ff" points="191.22,-39.22 200.82,-34.74 190.52,-32.25 191.22,-39.22"/>
</g>
<!-- Node3 -->
<g id="node3" class="node">
<title>Node3</title>
<g id="a_node3"><a xlink:href="class_commander.html#a54cf671149f35864fceb1ef1646f8db6" target="_top" xlink:title="Execution function for Arduino Serial response.">
<polygon fill="white" stroke="#666666" points="137.5,-19 27.5,-19 27.5,0 137.5,0 137.5,-19"/>
<text text-anchor="middle" x="82.5" y="-7" font-family="Helvetica,sans-Serif" font-size="10.00">Commander::execute</text>
</a>
</g>
</g>
<!-- Node1&#45;&gt;Node3 -->
<g id="edge2" class="edge">
<title>Node1&#45;&gt;Node3</title>
<path fill="none" stroke="#63b8ff" d="M190.61,-19.67C172.63,-17.97 154.04,-16.2 137.5,-14.63"/>
<polygon fill="#63b8ff" stroke="#63b8ff" points="190.53,-23.18 200.82,-20.64 191.19,-16.21 190.53,-23.18"/>
</g>
</g>
</svg>
