<?xml version="1.0" encoding="UTF-8" standalone="no"?>
<!DOCTYPE svg PUBLIC "-//W3C//DTD SVG 1.1//EN"
 "http://www.w3.org/Graphics/SVG/1.1/DTD/svg11.dtd">
<!-- Generated by graphviz version 5.0.1 (20220820.1526)
 -->
<!-- Title: commandResponseArduinoSerial::select Pages: 1 -->
<svg width="370pt" height="64pt"
 viewBox="0.00 0.00 370.00 64.00" xmlns="http://www.w3.org/2000/svg" xmlns:xlink="http://www.w3.org/1999/xlink">
<g id="graph0" class="graph" transform="scale(1 1) rotate(0) translate(4 60)">
<title>commandResponseArduinoSerial::select</title>
<!-- Node1 -->
<g id="node1" class="node">
<title>Node1</title>
<g id="a_node1"><a xlink:title=" ">
<polygon fill="#999999" stroke="#666666" points="362,-42.5 201,-42.5 201,-12.5 362,-12.5 362,-42.5"/>
<text text-anchor="start" x="209" y="-30.5" font-family="Helvetica,sans-Serif" font-size="10.00">commandResponseArduinoSerial</text>
<text text-anchor="middle" x="281.5" y="-19.5" font-family="Helvetica,sans-Serif" font-size="10.00">::select</text>
</a>
</g>
</g>
<!-- Node2 -->
<g id="node2" class="node">
<title>Node2</title>
<g id="a_node2"><a xlink:href="class_commander.html#a830be10dd0cd054587e288993bbee0b0" target="_top" xlink:title="Debug channel for Arduino Serial.">
<polygon fill="white" stroke="#666666" points="165,-56 0,-56 0,-37 165,-37 165,-56"/>
<text text-anchor="middle" x="82.5" y="-44" font-family="Helvetica,sans-Serif" font-size="10.00">Commander::attachDebugChannel</text>
</a>
</g>
</g>
<!-- Node1&#45;&gt;Node2 -->
<g id="edge1" class="edge">
<title>Node1&#45;&gt;Node2</title>
<path fill="none" stroke="#63b8ff" d="M190.96,-36.14C182.4,-36.96 173.76,-37.79 165.28,-38.61"/>
<polygon fill="#63b8ff" stroke="#63b8ff" points="191.32,-39.62 200.94,-35.17 190.65,-32.65 191.32,-39.62"/>
</g>
<!-- Node3 -->
<g id="node3" class="node">
<title>Node3</title>
<g id="a_node3"><a xlink:href="class_commander.html#ad1fb718dc56e8ef95f068fac3694eed9" target="_top" xlink:title="Execution function for Arduino Serial response.">
<polygon fill="white" stroke="#666666" points="137.5,-19 27.5,-19 27.5,0 137.5,0 137.5,-19"/>
<text text-anchor="middle" x="82.5" y="-7" font-family="Helvetica,sans-Serif" font-size="10.00">Commander::execute</text>
</a>
</g>
</g>
<!-- Node1&#45;&gt;Node3 -->
<g id="edge2" class="edge">
<title>Node1&#45;&gt;Node3</title>
<path fill="none" stroke="#63b8ff" d="M190.91,-19.31C172.74,-17.65 154.16,-15.96 137.68,-14.45"/>
<polygon fill="#63b8ff" stroke="#63b8ff" points="190.66,-22.81 200.94,-20.23 191.3,-15.84 190.66,-22.81"/>
</g>
</g>
</svg>
