<?xml version="1.0" encoding="UTF-8" standalone="no"?>
<!DOCTYPE svg PUBLIC "-//W3C//DTD SVG 1.1//EN"
 "http://www.w3.org/Graphics/SVG/1.1/DTD/svg11.dtd">
<!-- Generated by graphviz version 5.0.1 (20220820.1526)
 -->
<!-- Title: Commander::execute Pages: 1 -->
<svg width="779pt" height="83pt"
 viewBox="0.00 0.00 779.00 83.00" xmlns="http://www.w3.org/2000/svg" xmlns:xlink="http://www.w3.org/1999/xlink">
<g id="graph0" class="graph" transform="scale(1 1) rotate(0) translate(4 79)">
<title>Commander::execute</title>
<!-- Node1 -->
<g id="node1" class="node">
<title>Node1</title>
<g id="a_node1"><a xlink:title="Execution function for Stream response.">
<polygon fill="#999999" stroke="#666666" points="110,-56 0,-56 0,-37 110,-37 110,-56"/>
<text text-anchor="middle" x="55" y="-44" font-family="Helvetica,sans-Serif" font-size="10.00">Commander::execute</text>
</a>
</g>
</g>
<!-- Node2 -->
<g id="node2" class="node">
<title>Node2</title>
<g id="a_node2"><a xlink:href="class_commander.html#a727e0665319b4d3451ee8d3672b967b6" target="_top" xlink:title="Command execution.">
<polygon fill="white" stroke="#666666" points="300,-56 146,-56 146,-37 300,-37 300,-56"/>
<text text-anchor="middle" x="223" y="-44" font-family="Helvetica,sans-Serif" font-size="10.00">Commander::executeCommand</text>
</a>
</g>
</g>
<!-- Node1&#45;&gt;Node2 -->
<g id="edge1" class="edge">
<title>Node1&#45;&gt;Node2</title>
<path fill="none" stroke="#63b8ff" d="M110.35,-46.5C118.51,-46.5 127.09,-46.5 135.71,-46.5"/>
<polygon fill="#63b8ff" stroke="#63b8ff" points="135.83,-50 145.83,-46.5 135.83,-43 135.83,-50"/>
</g>
<!-- Node2&#45;&gt;Node2 -->
<g id="edge2" class="edge">
<title>Node2&#45;&gt;Node2</title>
<path fill="none" stroke="#63b8ff" d="M197.11,-56.08C184.51,-64.73 193.14,-74 223,-74 243.06,-74 253.54,-69.82 254.44,-64.45"/>
<polygon fill="#63b8ff" stroke="#63b8ff" points="257.34,-62.49 248.89,-56.08 251.5,-66.35 257.34,-62.49"/>
</g>
<!-- Node3 -->
<g id="node3" class="node">
<title>Node3</title>
<g id="a_node3"><a xlink:href="class_commander.html#a9b8d9afbf4e766034a2161109387c7ff" target="_top" xlink:title="Search for a character in a string.">
<polygon fill="white" stroke="#666666" points="627,-75 516,-75 516,-56 627,-56 627,-75"/>
<text text-anchor="middle" x="571.5" y="-63" font-family="Helvetica,sans-Serif" font-size="10.00">Commander::hasChar</text>
</a>
</g>
</g>
<!-- Node2&#45;&gt;Node3 -->
<g id="edge3" class="edge">
<title>Node2&#45;&gt;Node3</title>
<path fill="none" stroke="#63b8ff" d="M269.55,-56.01C289.8,-59.78 313.99,-63.65 336,-65.5 393.26,-70.32 458.66,-69.83 505.82,-68.41"/>
<polygon fill="#63b8ff" stroke="#63b8ff" points="506.02,-71.91 515.9,-68.09 505.79,-64.91 506.02,-71.91"/>
</g>
<!-- Node5 -->
<g id="node5" class="node">
<title>Node5</title>
<g id="a_node5"><a xlink:href="class_commander.html#a8e3aa8dbcd4486f1bcaafe49e0cb0fac" target="_top" xlink:title=" ">
<polygon fill="white" stroke="#666666" points="480,-56 336,-56 336,-37 480,-37 480,-56"/>
<text text-anchor="middle" x="408" y="-44" font-family="Helvetica,sans-Serif" font-size="10.00">Commander::printBrokenPipe</text>
</a>
</g>
</g>
<!-- Node2&#45;&gt;Node5 -->
<g id="edge5" class="edge">
<title>Node2&#45;&gt;Node5</title>
<path fill="none" stroke="#63b8ff" d="M300.02,-46.5C308.56,-46.5 317.28,-46.5 325.89,-46.5"/>
<polygon fill="#63b8ff" stroke="#63b8ff" points="325.91,-50 335.91,-46.5 325.91,-43 325.91,-50"/>
</g>
<!-- Node6 -->
<g id="node6" class="node">
<title>Node6</title>
<g id="a_node6"><a xlink:href="class_commander.html#a0fab647689fcd4557145386ff585aec1" target="_top" xlink:title="Print the help text to a specified Stream.">
<polygon fill="white" stroke="#666666" points="464.5,-19 351.5,-19 351.5,0 464.5,0 464.5,-19"/>
<text text-anchor="middle" x="408" y="-7" font-family="Helvetica,sans-Serif" font-size="10.00">Commander::printHelp</text>
</a>
</g>
</g>
<!-- Node2&#45;&gt;Node6 -->
<g id="edge7" class="edge">
<title>Node2&#45;&gt;Node6</title>
<path fill="none" stroke="#63b8ff" d="M271.13,-36.97C295.15,-32.11 324.57,-26.17 349.88,-21.05"/>
<polygon fill="#63b8ff" stroke="#63b8ff" points="350.61,-24.47 359.71,-19.06 349.22,-17.61 350.61,-24.47"/>
</g>
<!-- Node4 -->
<g id="node4" class="node">
<title>Node4</title>
<g id="a_node4"><a xlink:href="class_commander.html#a80f04d459243886a6d92bce2a15eea5e" target="_top" xlink:title="Detect if character is in the string.">
<polygon fill="white" stroke="#666666" points="771,-75 663,-75 663,-56 771,-56 771,-75"/>
<text text-anchor="middle" x="717" y="-63" font-family="Helvetica,sans-Serif" font-size="10.00">Commander::inString</text>
</a>
</g>
</g>
<!-- Node3&#45;&gt;Node4 -->
<g id="edge4" class="edge">
<title>Node3&#45;&gt;Node4</title>
<path fill="none" stroke="#63b8ff" d="M627.16,-65.5C635.49,-65.5 644.15,-65.5 652.66,-65.5"/>
<polygon fill="#63b8ff" stroke="#63b8ff" points="652.91,-69 662.91,-65.5 652.91,-62 652.91,-69"/>
</g>
<!-- Node5&#45;&gt;Node3 -->
<g id="edge6" class="edge">
<title>Node5&#45;&gt;Node3</title>
<path fill="none" stroke="#63b8ff" d="M480.31,-54.89C488.72,-55.88 497.27,-56.88 505.58,-57.86"/>
<polygon fill="#63b8ff" stroke="#63b8ff" points="505.24,-61.35 515.58,-59.04 506.06,-54.39 505.24,-61.35"/>
</g>
</g>
</svg>
