<?xml version="1.0" encoding="UTF-8" standalone="no"?>
<!DOCTYPE svg PUBLIC "-//W3C//DTD SVG 1.1//EN"
 "http://www.w3.org/Graphics/SVG/1.1/DTD/svg11.dtd">
<!-- Generated by graphviz version 5.0.1 (20220820.1526)
 -->
<!-- Title: Commander::helpFunction Pages: 1 -->
<svg width="475pt" height="82pt"
 viewBox="0.00 0.00 475.00 82.00" xmlns="http://www.w3.org/2000/svg" xmlns:xlink="http://www.w3.org/1999/xlink">
<g id="graph0" class="graph" transform="scale(1 1) rotate(0) translate(4 78)">
<title>Commander::helpFunction</title>
<!-- Node1 -->
<g id="node1" class="node">
<title>Node1</title>
<g id="a_node1"><a xlink:title="Help function.">
<polygon fill="#999999" stroke="#666666" points="467,-37 336,-37 336,-18 467,-18 467,-37"/>
<text text-anchor="middle" x="401.5" y="-25" font-family="Helvetica,sans-Serif" font-size="10.00">Commander::helpFunction</text>
</a>
</g>
</g>
<!-- Node1&#45;&gt;Node1 -->
<g id="edge4" class="edge">
<title>Node1&#45;&gt;Node1</title>
<path fill="none" stroke="#63b8ff" d="M434.81,-45.45C433.86,-50.82 422.76,-55 401.5,-55 369.86,-55 360.72,-45.73 374.07,-37.08"/>
<polygon fill="#63b8ff" stroke="#63b8ff" points="437.55,-43.26 428.93,-37.08 431.82,-47.28 437.55,-43.26"/>
</g>
<!-- Node2 -->
<g id="node2" class="node">
<title>Node2</title>
<g id="a_node2"><a xlink:href="class_commander.html#a31be5be6e4b41cec2f2f836969fe7932" target="_top" xlink:title="Command execution.">
<polygon fill="white" stroke="#666666" points="300,-56 146,-56 146,-37 300,-37 300,-56"/>
<text text-anchor="middle" x="223" y="-44" font-family="Helvetica,sans-Serif" font-size="10.00">Commander::executeCommand</text>
</a>
</g>
</g>
<!-- Node1&#45;&gt;Node2 -->
<g id="edge1" class="edge">
<title>Node1&#45;&gt;Node2</title>
<path fill="none" stroke="#63b8ff" d="M325.59,-35.56C317.15,-36.47 308.54,-37.4 300.08,-38.31"/>
<polygon fill="#63b8ff" stroke="#63b8ff" points="326.21,-39.02 335.78,-34.47 325.46,-32.06 326.21,-39.02"/>
</g>
<!-- Node4 -->
<g id="node4" class="node">
<title>Node4</title>
<g id="a_node4"><a xlink:href="class_commander.html#a57aea5c75438a6e0096f8014705a9d0e" target="_top" xlink:title="Prints out the help string to the specified Stream.">
<polygon fill="white" stroke="#666666" points="279.5,-19 166.5,-19 166.5,0 279.5,0 279.5,-19"/>
<text text-anchor="middle" x="223" y="-7" font-family="Helvetica,sans-Serif" font-size="10.00">Commander::printHelp</text>
</a>
</g>
</g>
<!-- Node1&#45;&gt;Node4 -->
<g id="edge5" class="edge">
<title>Node1&#45;&gt;Node4</title>
<path fill="none" stroke="#63b8ff" d="M325.74,-19.88C310.31,-18.3 294.31,-16.67 279.7,-15.18"/>
<polygon fill="#63b8ff" stroke="#63b8ff" points="325.48,-23.37 335.78,-20.9 326.19,-16.4 325.48,-23.37"/>
</g>
<!-- Node2&#45;&gt;Node2 -->
<g id="edge3" class="edge">
<title>Node2&#45;&gt;Node2</title>
<path fill="none" stroke="#63b8ff" d="M254.44,-64.45C253.54,-69.82 243.06,-74 223,-74 193.14,-74 184.51,-64.73 197.11,-56.08"/>
<polygon fill="#63b8ff" stroke="#63b8ff" points="257.34,-62.49 248.89,-56.08 251.5,-66.35 257.34,-62.49"/>
</g>
<!-- Node3 -->
<g id="node3" class="node">
<title>Node3</title>
<g id="a_node3"><a xlink:href="class_commander.html#aafe1ff979eae34461aaee3aaf8ee474c" target="_top" xlink:title="Default execution function.">
<polygon fill="white" stroke="#666666" points="110,-56 0,-56 0,-37 110,-37 110,-56"/>
<text text-anchor="middle" x="55" y="-44" font-family="Helvetica,sans-Serif" font-size="10.00">Commander::execute</text>
</a>
</g>
</g>
<!-- Node2&#45;&gt;Node3 -->
<g id="edge2" class="edge">
<title>Node2&#45;&gt;Node3</title>
<path fill="none" stroke="#63b8ff" d="M135.71,-46.5C127.12,-46.5 118.57,-46.5 110.43,-46.5"/>
<polygon fill="#63b8ff" stroke="#63b8ff" points="135.8,-50 145.8,-46.5 135.8,-43 135.8,-50"/>
</g>
</g>
</svg>
