<?xml version="1.0" encoding="UTF-8" standalone="no"?>
<!DOCTYPE svg PUBLIC "-//W3C//DTD SVG 1.1//EN"
 "http://www.w3.org/Graphics/SVG/1.1/DTD/svg11.dtd">
<!-- Generated by graphviz version 5.0.1 (20220820.1526)
 -->
<!-- Title: Graphical Class Hierarchy Pages: 1 -->
<svg width="214pt" height="64pt"
 viewBox="0.00 0.00 214.00 64.00" xmlns="http://www.w3.org/2000/svg" xmlns:xlink="http://www.w3.org/1999/xlink">
<g id="graph0" class="graph" transform="scale(1 1) rotate(0) translate(4 60)">
<title>Graphical Class Hierarchy</title>
<!-- Node0 -->
<g id="node1" class="node">
<title>Node0</title>
<g id="a_node1"><a xlink:title=" ">
<polygon fill="#e0e0e0" stroke="#999999" points="48,-37 0,-37 0,-18 48,-18 48,-37"/>
<text text-anchor="middle" x="24" y="-25" font-family="Helvetica,sans-Serif" font-size="10.00">Stream</text>
</a>
</g>
</g>
<!-- Node1 -->
<g id="node2" class="node">
<title>Node1</title>
<g id="a_node2"><a xlink:href="classcommand_response.html" target="_top" xlink:title="Default response class.">
<polygon fill="white" stroke="#666666" points="196.5,-56 93.5,-56 93.5,-37 196.5,-37 196.5,-56"/>
<text text-anchor="middle" x="145" y="-44" font-family="Helvetica,sans-Serif" font-size="10.00">commandResponse</text>
</a>
</g>
</g>
<!-- Node0&#45;&gt;Node1 -->
<g id="edge1" class="edge">
<title>Node0&#45;&gt;Node1</title>
<path fill="none" stroke="#63b8ff" d="M58.14,-32.79C69.02,-34.53 81.38,-36.5 93.25,-38.4"/>
<polygon fill="#63b8ff" stroke="#63b8ff" points="58.65,-29.33 48.23,-31.21 57.55,-36.24 58.65,-29.33"/>
</g>
<!-- Node2 -->
<g id="node3" class="node">
<title>Node2</title>
<g id="a_node3"><a xlink:href="classcommander_pipe_channel.html" target="_top" xlink:title=" ">
<polygon fill="white" stroke="#666666" points="206,-19 84,-19 84,0 206,0 206,-19"/>
<text text-anchor="middle" x="145" y="-7" font-family="Helvetica,sans-Serif" font-size="10.00">commanderPipeChannel</text>
</a>
</g>
</g>
<!-- Node0&#45;&gt;Node2 -->
<g id="edge2" class="edge">
<title>Node0&#45;&gt;Node2</title>
<path fill="none" stroke="#63b8ff" d="M58.21,-22.48C66.2,-21.27 74.98,-19.94 83.79,-18.61"/>
<polygon fill="#63b8ff" stroke="#63b8ff" points="57.59,-19.03 48.23,-23.99 58.64,-25.95 57.59,-19.03"/>
</g>
</g>
</svg>
