<?xml version="1.0" encoding="UTF-8" standalone="no"?>
<!DOCTYPE svg PUBLIC "-//W3C//DTD SVG 1.1//EN"
 "http://www.w3.org/Graphics/SVG/1.1/DTD/svg11.dtd">
<!-- Generated by graphviz version 5.0.1 (20220820.1526)
 -->
<!-- Title: CommanderDatabase&lt; T &gt;::dataRecord_t Pages: 1 -->
<svg width="170pt" height="214pt"
 viewBox="0.00 0.00 170.00 214.00" xmlns="http://www.w3.org/2000/svg" xmlns:xlink="http://www.w3.org/1999/xlink">
<g id="graph0" class="graph" transform="scale(1 1) rotate(0) translate(4 210)">
<title>CommanderDatabase&lt; T &gt;::dataRecord_t</title>
<!-- Node1 -->
<g id="node1" class="node">
<title>Node1</title>
<g id="a_node1"><a xlink:title="Data record element.">
<polygon fill="#999999" stroke="#666666" points="119,-74 0,-74 0,0 119,0 119,-74"/>
<text text-anchor="start" x="8" y="-62" font-family="Helvetica,sans-Serif" font-size="10.00">{CommanderDatabase&lt;</text>
<text text-anchor="middle" x="59.5" y="-51" font-family="Helvetica,sans-Serif" font-size="10.00"> T &gt;::dataRecord_t</text>
<text text-anchor="start" x="8" y="-40" font-family="Helvetica,sans-Serif" font-size="10.00">|+ place</text>
<text text-anchor="start" x="8" y="-29" font-family="Helvetica,sans-Serif" font-size="10.00">+ name</text>
<text text-anchor="start" x="8" y="-18" font-family="Helvetica,sans-Serif" font-size="10.00">+ data</text>
<text text-anchor="middle" x="59.5" y="-7" font-family="Helvetica,sans-Serif" font-size="10.00">|}</text>
</a>
</g>
</g>
<!-- Node2 -->
<g id="node2" class="node">
<title>Node2</title>
<g id="a_node2"><a xlink:href="struct_commander_database_1_1data_record__t.html" target="_top" xlink:title="Data record element.">
<polygon fill="white" stroke="#666666" points="119,-206 0,-206 0,-132 119,-132 119,-206"/>
<text text-anchor="start" x="8" y="-194" font-family="Helvetica,sans-Serif" font-size="10.00">{CommanderDatabase&lt;</text>
<text text-anchor="middle" x="59.5" y="-183" font-family="Helvetica,sans-Serif" font-size="10.00"> T &gt;::dataRecord_t</text>
<text text-anchor="start" x="8" y="-172" font-family="Helvetica,sans-Serif" font-size="10.00">|+ place</text>
<text text-anchor="start" x="8" y="-161" font-family="Helvetica,sans-Serif" font-size="10.00">+ name</text>
<text text-anchor="start" x="8" y="-150" font-family="Helvetica,sans-Serif" font-size="10.00">+ data</text>
<text text-anchor="middle" x="59.5" y="-139" font-family="Helvetica,sans-Serif" font-size="10.00">|}</text>
</a>
</g>
</g>
<!-- Node2&#45;&gt;Node1 -->
<g id="edge1" class="edge">
<title>Node2&#45;&gt;Node1</title>
<path fill="none" stroke="#404040" d="M59.5,-131.79C59.5,-117.7 59.5,-101.35 59.5,-86.29"/>
<polygon fill="none" stroke="#404040" points="59.5,-86.02 55.5,-80.02 59.5,-74.02 63.5,-80.02 59.5,-86.02"/>
<text text-anchor="middle" x="72" y="-106" font-family="Helvetica,sans-Serif" font-size="10.00"> +left</text>
<text text-anchor="middle" x="72" y="-95" font-family="Helvetica,sans-Serif" font-size="10.00">+right</text>
</g>
<!-- Node2&#45;&gt;Node2 -->
<g id="edge2" class="edge">
<title>Node2&#45;&gt;Node2</title>
<path fill="none" stroke="#404040" d="M119.29,-180.6C129.73,-179.05 137,-175.19 137,-169 137,-165.52 134.7,-162.77 130.83,-160.76"/>
<polygon fill="none" stroke="#404040" points="130.81,-160.76 123.93,-162.92 119.29,-157.4 126.17,-155.24 130.81,-160.76"/>
<text text-anchor="middle" x="149.5" y="-172" font-family="Helvetica,sans-Serif" font-size="10.00"> +left</text>
<text text-anchor="middle" x="149.5" y="-161" font-family="Helvetica,sans-Serif" font-size="10.00">+right</text>
</g>
</g>
</svg>
