<?xml version="1.0" encoding="UTF-8" standalone="no"?>
<!DOCTYPE svg PUBLIC "-//W3C//DTD SVG 1.1//EN"
 "http://www.w3.org/Graphics/SVG/1.1/DTD/svg11.dtd">
<!-- Generated by graphviz version 5.0.1 (20220820.1526)
 -->
<!-- Title: CommanderDatabase&lt; T &gt;::dataRecord_t Pages: 1 -->
<svg width="170pt" height="236pt"
 viewBox="0.00 0.00 170.00 236.00" xmlns="http://www.w3.org/2000/svg" xmlns:xlink="http://www.w3.org/1999/xlink">
<g id="graph0" class="graph" transform="scale(1 1) rotate(0) translate(4 232)">
<title>CommanderDatabase&lt; T &gt;::dataRecord_t</title>
<!-- Node1 -->
<g id="node1" class="node">
<title>Node1</title>
<g id="a_node1"><a xlink:title="Data record element.">
<polygon fill="#999999" stroke="#666666" points="119,-85 0,-85 0,0 119,0 119,-85"/>
<text text-anchor="start" x="8" y="-73" font-family="Helvetica,sans-Serif" font-size="10.00">{CommanderDatabase&lt;</text>
<text text-anchor="middle" x="59.5" y="-62" font-family="Helvetica,sans-Serif" font-size="10.00"> T &gt;::dataRecord_t</text>
<text text-anchor="start" x="8" y="-51" font-family="Helvetica,sans-Serif" font-size="10.00">|+ place</text>
<text text-anchor="start" x="8" y="-40" font-family="Helvetica,sans-Serif" font-size="10.00">+ name</text>
<text text-anchor="start" x="8" y="-29" font-family="Helvetica,sans-Serif" font-size="10.00">+ data</text>
<text text-anchor="start" x="8" y="-18" font-family="Helvetica,sans-Serif" font-size="10.00">+ name_P</text>
<text text-anchor="middle" x="59.5" y="-7" font-family="Helvetica,sans-Serif" font-size="10.00">|}</text>
</a>
</g>
</g>
<!-- Node2 -->
<g id="node2" class="node">
<title>Node2</title>
<g id="a_node2"><a xlink:href="struct_commander_database_1_1data_record__t.html" target="_top" xlink:title="Data record element.">
<polygon fill="white" stroke="#666666" points="119,-228 0,-228 0,-143 119,-143 119,-228"/>
<text text-anchor="start" x="8" y="-216" font-family="Helvetica,sans-Serif" font-size="10.00">{CommanderDatabase&lt;</text>
<text text-anchor="middle" x="59.5" y="-205" font-family="Helvetica,sans-Serif" font-size="10.00"> T &gt;::dataRecord_t</text>
<text text-anchor="start" x="8" y="-194" font-family="Helvetica,sans-Serif" font-size="10.00">|+ place</text>
<text text-anchor="start" x="8" y="-183" font-family="Helvetica,sans-Serif" font-size="10.00">+ name</text>
<text text-anchor="start" x="8" y="-172" font-family="Helvetica,sans-Serif" font-size="10.00">+ data</text>
<text text-anchor="start" x="8" y="-161" font-family="Helvetica,sans-Serif" font-size="10.00">+ name_P</text>
<text text-anchor="middle" x="59.5" y="-150" font-family="Helvetica,sans-Serif" font-size="10.00">|}</text>
</a>
</g>
</g>
<!-- Node2&#45;&gt;Node1 -->
<g id="edge1" class="edge">
<title>Node2&#45;&gt;Node1</title>
<path fill="none" stroke="#404040" d="M59.5,-142.96C59.5,-128.74 59.5,-112.62 59.5,-97.57"/>
<polygon fill="none" stroke="#404040" points="59.5,-97.23 55.5,-91.23 59.5,-85.23 63.5,-91.23 59.5,-97.23"/>
<text text-anchor="middle" x="72" y="-117" font-family="Helvetica,sans-Serif" font-size="10.00"> +left</text>
<text text-anchor="middle" x="72" y="-106" font-family="Helvetica,sans-Serif" font-size="10.00">+right</text>
</g>
<!-- Node2&#45;&gt;Node2 -->
<g id="edge2" class="edge">
<title>Node2&#45;&gt;Node2</title>
<path fill="none" stroke="#404040" d="M119.29,-197.8C129.73,-196.16 137,-192.06 137,-185.5 137,-181.81 134.7,-178.9 130.83,-176.76"/>
<polygon fill="none" stroke="#404040" points="130.76,-176.74 123.84,-178.79 119.29,-173.2 126.2,-171.15 130.76,-176.74"/>
<text text-anchor="middle" x="149.5" y="-188.5" font-family="Helvetica,sans-Serif" font-size="10.00"> +left</text>
<text text-anchor="middle" x="149.5" y="-177.5" font-family="Helvetica,sans-Serif" font-size="10.00">+right</text>
</g>
</g>
</svg>
