<?xml version="1.0" encoding="UTF-8" standalone="no"?>
<!DOCTYPE svg PUBLIC "-//W3C//DTD SVG 1.1//EN"
 "http://www.w3.org/Graphics/SVG/1.1/DTD/svg11.dtd">
<!-- Generated by graphviz version 5.0.1 (20220820.1526)
 -->
<!-- Title: Commander::systemVariableData_t Pages: 1 -->
<svg width="154pt" height="181pt"
 viewBox="0.00 0.00 154.00 181.00" xmlns="http://www.w3.org/2000/svg" xmlns:xlink="http://www.w3.org/1999/xlink">
<g id="graph0" class="graph" transform="scale(1 1) rotate(0) translate(4 177)">
<title>Commander::systemVariableData_t</title>
<!-- Node1 -->
<g id="node1" class="node">
<title>Node1</title>
<g id="a_node1"><a xlink:title=" ">
<polygon fill="#999999" stroke="#666666" points="146,-52 0,-52 0,0 146,0 146,-52"/>
<text text-anchor="start" x="8" y="-40" font-family="Helvetica,sans-Serif" font-size="10.00">{Commander::systemVariable</text>
<text text-anchor="middle" x="73" y="-29" font-family="Helvetica,sans-Serif" font-size="10.00">Data_t</text>
<text text-anchor="start" x="8" y="-18" font-family="Helvetica,sans-Serif" font-size="10.00">|+ type</text>
<text text-anchor="middle" x="73" y="-7" font-family="Helvetica,sans-Serif" font-size="10.00">|}</text>
</a>
</g>
</g>
<!-- Node2 -->
<g id="node2" class="node">
<title>Node2</title>
<g id="a_node2"><a xlink:href="union_commander_1_1system_variable_pointer__t.html" target="_top" xlink:title=" ">
<polygon fill="white" stroke="#666666" points="146,-173 0,-173 0,-99 146,-99 146,-173"/>
<text text-anchor="start" x="8" y="-161" font-family="Helvetica,sans-Serif" font-size="10.00">{Commander::systemVariable</text>
<text text-anchor="middle" x="73" y="-150" font-family="Helvetica,sans-Serif" font-size="10.00">Pointer_t</text>
<text text-anchor="start" x="8" y="-139" font-family="Helvetica,sans-Serif" font-size="10.00">|+ floatData</text>
<text text-anchor="start" x="8" y="-128" font-family="Helvetica,sans-Serif" font-size="10.00">+ intData</text>
<text text-anchor="start" x="8" y="-117" font-family="Helvetica,sans-Serif" font-size="10.00">+ strData</text>
<text text-anchor="middle" x="73" y="-106" font-family="Helvetica,sans-Serif" font-size="10.00">|}</text>
</a>
</g>
</g>
<!-- Node2&#45;&gt;Node1 -->
<g id="edge1" class="edge">
<title>Node2&#45;&gt;Node1</title>
<path fill="none" stroke="#404040" d="M73,-98.74C73,-87.61 73,-75.34 73,-64.15"/>
<polygon fill="none" stroke="#404040" points="73,-64.09 69,-58.09 73,-52.09 77,-58.09 73,-64.09"/>
<text text-anchor="middle" x="87" y="-73" font-family="Helvetica,sans-Serif" font-size="10.00"> +data</text>
</g>
</g>
</svg>
